<?xml version="1.0" encoding="utf-8"?>
<!-- Generator: Adobe Illustrator 18.0.0, SVG Export Plug-In . SVG Version: 6.00 Build 0)  -->
<!DOCTYPE svg PUBLIC "-//W3C//DTD SVG 1.1//EN" "http://www.w3.org/Graphics/SVG/1.1/DTD/svg11.dtd">
<svg version="1.1" id="Layer_1" xmlns="http://www.w3.org/2000/svg" xmlns:xlink="http://www.w3.org/1999/xlink" x="0px" y="0px"
	 viewBox="0 0 300 300" enable-background="new 0 0 300 300" xml:space="preserve">
<path fill="#1E2430" d="M245.2,226.9c-53.3,30.8-139.6,30.8-192.9,0s-53.3-80.5,0-111.3s139.6-30.8,192.9,0S298.6,196.2,245.2,226.9
	z"/>
<path fill="#323A4F" d="M245.2,230.4c-53.3,30.8-139.6,30.8-192.9,0s-53.3-80.5,0-111.3s139.6-30.8,192.9,0S298.6,199.7,245.2,230.4
	z"/>
<linearGradient id="SVGID_1_" gradientUnits="userSpaceOnUse" x1="144.6839" y1="122.7443" x2="221.3552" y2="122.7443">
	<stop  offset="0" style="stop-color:#FD980C"/>
	<stop  offset="1" style="stop-color:#FDC830"/>
</linearGradient>
<path fill="url(#SVGID_1_)" d="M147.3,164.1l-2.6-123.4c0-2,4.1-4.5,6.6-3.6l68.1,39.3c1.2,0.7,2,2,2,3.4v124.7
	c0,2.9-4.8,4.6-6.6,3.6l-65.4-40.6C148,166.8,147.3,165.5,147.3,164.1z"/>
<path fill="#1E2430" d="M144.7,165.5V40.8c0-2,2.2-3.3,4-2.3l68.1,39.3c1.2,0.7,2,2,2,3.4v124.7c0,2-2.2,3.3-4,2.3l-68.1-39.3
	C145.5,168.2,144.7,166.8,144.7,165.5z"/>
<path fill="#FFFFFF" d="M147.7,162V47.6c0-1.9,2.1-3,3.6-2.1l62.5,36.1c1.1,0.6,1.8,1.9,1.8,3.1v114.4c0,1.9-2.1,3-3.6,2.1
	l-62.5-36.1C148.4,164.5,147.7,163.2,147.7,162z"/>
<path fill="#EFEFEF" d="M180,169.7l-20.8-12c-0.9-0.6-1.7-2-1.7-3.2v-34.9c0-1.3,0.8-1.8,1.7-1.3l20.8,12c0.9,0.6,1.7,2,1.7,3.2
	v34.9C181.7,169.7,180.9,170.3,180,169.7z"/>
<path fill="#1E2430" d="M177.9,125.8l-20.8-12c-0.4-0.2-0.8-0.2-1.1-0.1l0,0l-2,1.2c0,0,0.9,0.3,1.3,0.6V150c0,1.3,0.8,2.7,1.7,3.2
	l19.9,11.5v1.8l2.1-1.2l0,0c0.3-0.2,0.6-0.6,0.6-1.3V129C179.7,127.8,178.9,126.4,177.9,125.8z"/>
<path fill="#323A4F" d="M175.9,166.3L155,154.2c-0.9-0.6-1.7-2-1.7-3.2v-34.9c0-1.3,0.8-1.8,1.7-1.3l20.8,12c0.9,0.6,1.7,2,1.7,3.2
	V165C177.6,166.3,176.8,166.8,175.9,166.3z"/>
<path fill="#FFFFFF" d="M175.9,127L155,115c-0.6-0.3-0.9-0.2-1.3,0.1c0.2,0,0.5,0.1,0.8,0.2l20.8,12c0.9,0.6,1.7,2,1.7,3.2v34.9
	c0,0.6-0.2,0.9-0.4,1.2c0.6-0.1,0.9-0.6,0.9-1.5v-34.9C177.6,128.9,176.8,127.6,175.9,127z"/>
<polygon fill="#FFFFFF" points="172.1,134.8 158.1,126.8 158.1,125.8 172.1,133.8 "/>
<polygon fill="#FDC830" points="167.8,136.8 158.1,131.2 158.1,130.3 167.8,135.9 "/>
<polygon fill="#FFFFFF" points="166.5,133.8 158.1,129 158.1,128 166.5,132.8 "/>
<polygon fill="#F37335" points="172.1,137.1 167.8,134.7 167.8,133.7 172.1,136.1 "/>
<polygon fill="#FFFFFF" points="172.1,143.4 158.1,135.2 158.1,134.4 172.1,142.3 "/>
<polygon fill="#FFFFFF" points="167.8,145.3 158.1,139.7 158.1,138.7 167.8,144.3 "/>
<polygon fill="#F37335" points="166.5,142.4 158.1,137.5 158.1,136.5 166.5,141.3 "/>
<polygon fill="#FFFFFF" points="172.1,145.6 167.8,143.1 167.8,142.1 172.1,144.6 "/>
<polygon fill="#FFFFFF" points="172.1,151.8 158.1,143.8 158.1,142.8 172.1,150.8 "/>
<polygon fill="#F37335" points="167.8,153.8 158.1,148.2 158.1,147.2 167.8,152.7 "/>
<polygon fill="#FFFFFF" points="166.5,150.8 158.1,146 158.1,145 166.5,149.9 "/>
<polygon fill="#FDC830" points="172.1,154.1 167.8,151.6 167.8,150.6 172.1,153 "/>
<path fill="#323A4F" d="M192.3,141.1l-0.2-0.1c-0.7-0.5-1.3-1.6-1.3-2.5V128c0-0.9,0.6-1.3,1.3-1l0.2,0.1c0.7,0.5,1.3,1.6,1.3,2.5
	v10.4C193.7,141.1,193.1,141.5,192.3,141.1z"/>
<path fill="#FDC830" d="M197.9,144.3l-0.2-0.1c-0.7-0.5-1.3-1.6-1.3-2.5v-6.2c0-0.9,0.6-1.3,1.3-1l0.2,0.1c0.7,0.5,1.3,1.6,1.3,2.5
	v6.2C199.3,144.2,198.7,144.7,197.9,144.3z"/>
<path fill="#F37335" d="M203.6,147.5l-0.2-0.1c-0.7-0.5-1.3-1.6-1.3-2.5v-14.6c0-0.9,0.6-1.3,1.3-1l0.2,0.1c0.7,0.5,1.3,1.6,1.3,2.5
	v14.6C204.9,147.4,204.3,147.9,203.6,147.5z"/>
<path fill="#EFEFEF" d="M207.1,184.6l-16.6-9.7c-0.8-0.5-1.3-1.6-1.3-2.5V160c0-1,0.6-1.4,1.3-1l16.6,9.7c0.8,0.5,1.3,1.6,1.3,2.5
	v12.4C208.5,184.5,208,185,207.1,184.6z"/>
<path fill="#1E2430" d="M205.5,165l-16.6-9.7c-0.4-0.2-0.6-0.2-0.9-0.1l0,0l-1.6,0.9c0,0,0.8,0.2,1.1,0.5v12.1c0,1,0.6,2.1,1.3,2.5
	l15.9,9.2v1.4l1.7-0.9l0,0c0.2-0.2,0.5-0.6,0.5-1.1v-12.4C206.9,166.5,206.2,165.4,205.5,165z"/>
<path fill="#323A4F" d="M203.9,181.9l-16.6-9.7c-0.8-0.5-1.3-1.6-1.3-2.5v-12.4c0-1,0.6-1.4,1.3-1l16.6,9.7c0.8,0.5,1.3,1.6,1.3,2.5
	v12.4C205.2,181.8,204.6,182.3,203.9,181.9z"/>
<path fill="#FFFFFF" d="M203.9,165.9l-16.6-9.7c-0.5-0.2-0.8-0.2-1,0.1c0.2,0,0.4,0.1,0.6,0.2l16.6,9.7c0.8,0.5,1.3,1.6,1.3,2.5
	v12.4c0,0.5-0.2,0.8-0.3,0.9c0.5-0.1,0.8-0.5,0.8-1.2v-12.4C205.2,167.5,204.6,166.4,203.9,165.9z"/>
<g>
	<path fill="#F37335" d="M192.9,168c0,0.8-0.6,1-1.1,0.6c-0.6-0.4-1.1-1.2-1.1-2c0-0.8,0.6-1,1.1-0.6
		C192.3,166.4,192.9,167.3,192.9,168z"/>
	<path fill="#F37335" d="M196.3,170c0,0.8-0.6,1-1.1,0.6c-0.6-0.4-1.1-1.2-1.1-2c0-0.8,0.6-1,1.1-0.6
		C195.8,168.4,196.3,169.3,196.3,170z"/>
	<path fill="#FDC830" d="M199.7,171.9c0,0.8-0.6,1-1.1,0.6c-0.6-0.4-1.1-1.2-1.1-2c0-0.8,0.6-1,1.1-0.6
		C199.2,170.3,199.7,171.2,199.7,171.9z"/>
</g>
<polyline fill="none" stroke="#FDC830" stroke-width="2.3957" stroke-miterlimit="10" points="162.8,93.3 176.8,81.6 182.7,106.2 
	203.3,90.2 "/>
<g>
	<ellipse fill="#FDC830" cx="164.7" cy="93.3" rx="4.5" ry="7.2"/>
	<ellipse fill="#323A4F" cx="164.7" cy="93.3" rx="1.9" ry="3"/>
</g>
<g>
	<path fill="#EFEFEF" d="M61.2,178.2v-58.3c0-2,1.2-4.4,2.8-5.3l34.8-20.1c1.5-0.9,2.8,0,2.8,2.1v58.3c0,2-1.2,4.4-2.8,5.3L64,180.3
		C62.4,181.2,61.1,180.1,61.2,178.2z"/>
	<path fill="#1E2430" d="M64.7,112.2v58.3c0,1.2,0.4,1.9,0.9,2.2l0,0l3.4,2v-3l33.3-19.2c1.5-0.8,2.8-3.2,2.8-5.3V89.5
		c0.7-0.4,2.2-0.9,2.2-0.9l-3.3-2l0,0c-0.5-0.3-1.2-0.3-1.9,0.1l-34.8,20.1C65.8,107.8,64.5,110.2,64.7,112.2z"/>
	<path fill="#323A4F" d="M68.1,172.3V114c0-2,1.2-4.4,2.8-5.3l34.8-20.1c1.5-0.9,2.8,0,2.8,2.1v58.3c0,2-1.2,4.4-2.8,5.3l-34.8,20.2
		C69.3,175.4,68,174.6,68.1,172.3z"/>
	<path fill="#FFFFFF" d="M68,114v58.3c0,1.5,0.7,2.4,1.6,2.5c-0.4-0.4-0.7-1.1-0.7-2v-58.3c0-2,1.2-4.4,2.8-5.3l34.8-20.1
		c0.5-0.1,0.9-0.3,1.3-0.3c-0.5-0.5-1.2-0.7-2.1-0.1l-34.8,20.1C69.3,109.8,68,112,68,114z"/>
	<polygon fill="#FFFFFF" points="77.2,120.2 100.6,106.9 100.6,108.4 77.2,121.9 	"/>
	<polygon fill="#FDC830" points="84.4,123.7 100.6,114.3 100.6,115.9 84.4,125.2 	"/>
	<polygon fill="#FFFFFF" points="86.5,118.5 100.6,110.4 100.6,112.2 86.5,120.2 	"/>
	<polygon fill="#F37335" points="77.2,124.1 84.4,120 84.4,121.7 77.2,125.8 	"/>
	<polygon fill="#FFFFFF" points="77.2,134.4 100.6,121.1 100.6,122.6 77.2,136.2 	"/>
	<polygon fill="#FFFFFF" points="84.4,137.8 100.6,128.4 100.6,130 84.4,139.4 	"/>
	<polygon fill="#F37335" points="86.5,132.8 100.6,124.7 100.6,126.4 86.5,134.5 	"/>
	<polygon fill="#FFFFFF" points="77.2,138.2 84.4,134.1 84.4,135.8 77.2,139.9 	"/>
	<polygon fill="#FFFFFF" points="77.2,148.7 100.6,135.2 100.6,136.9 77.2,150.2 	"/>
	<polygon fill="#F37335" points="84.4,151.8 100.6,142.6 100.6,144.3 84.4,153.7 	"/>
	<polygon fill="#FFFFFF" points="86.5,147.1 100.6,138.9 100.6,140.6 86.5,148.7 	"/>
	<polygon fill="#FDC830" points="77.2,152.4 84.4,148.3 84.4,150 77.2,154.1 	"/>
</g>
<path fill="#EFEFEF" d="M60.6,97.8V76.3c0-1.6,1-3.6,2.3-4.4l28.7-16.7c1.4-0.7,2.3,0,2.3,1.8v21.5c0,1.6-1,3.6-2.3,4.4L62.9,99.6
	C61.4,100.2,60.4,99.4,60.6,97.8z"/>
<path fill="#1E2430" d="M63.2,69.9v21.5c0,1,0.4,1.6,0.8,1.9l0,0l2.9,1.6v-2.5l27.5-15.9c1.4-0.7,2.3-2.6,2.3-4.4V51.3
	c0.5-0.4,1.9-0.8,1.9-0.8l-2.7-1.6l0,0c-0.4-0.3-0.8-0.1-1.5,0.1L65.6,65.7C64.4,66.4,63.3,68.3,63.2,69.9z"/>
<path fill="#323A4F" d="M66.2,93.1V71.7c0-1.6,1-3.6,2.3-4.4l28.7-16.7c1.4-0.7,2.3,0,2.3,1.8v21.5c0,1.6-1,3.6-2.3,4.4L68.5,94.9
	C67.3,95.6,66.2,94.8,66.2,93.1z"/>
<path fill="#FFFFFF" d="M66.2,71.7v21.5c0,1.2,0.5,1.9,1.4,2c-0.3-0.3-0.5-0.8-0.5-1.6V72.1c0-1.6,1-3.6,2.3-4.4L98,51.1
	c0.3-0.1,0.7-0.3,1-0.3c-0.4-0.4-1-0.5-1.8-0.1L68.5,67.3C67.3,68.1,66.2,70,66.2,71.7z"/>
<g>
	<path fill="#F37335" d="M89.4,67.4c1-0.7,1.9-0.3,1.9,1.1s-1,2.7-1.9,3.4c-1,0.7-1.9,0.3-1.9-1.1C87.5,69.6,88.4,68.1,89.4,67.4z"
		/>
	<path fill="#F37335" d="M83.5,70.9c1-0.7,1.9-0.3,1.9,1.1s-1,2.7-1.9,3.4c-1,0.7-1.9,0.3-1.9-1.1C81.6,73.1,82.4,71.5,83.5,70.9z"
		/>
	<path fill="#FDC830" d="M77.6,74.3c1-0.7,1.9-0.3,1.9,1.1s-1,2.7-1.9,3.4c-1,0.7-1.9,0.3-1.9-1.1C75.7,76.5,76.6,74.8,77.6,74.3z"
		/>
</g>
</svg>
