<?xml version="1.0" encoding="utf-8"?>
<!-- Generator: Adobe Illustrator 18.0.0, SVG Export Plug-In . SVG Version: 6.00 Build 0)  -->
<!DOCTYPE svg PUBLIC "-//W3C//DTD SVG 1.1//EN" "http://www.w3.org/Graphics/SVG/1.1/DTD/svg11.dtd">
<svg version="1.1" id="Domain_Checker_2_" xmlns="http://www.w3.org/2000/svg" xmlns:xlink="http://www.w3.org/1999/xlink" x="0px"
	 y="0px" viewBox="0 0 300 300" enable-background="new 0 0 300 300" xml:space="preserve">
<g>
	<path fill="#1E2430" d="M250.1,250c-53.3,30.8-139.6,30.8-192.9,0s-53.3-80.5,0-111.3s139.6-30.8,192.9,0S303.4,219.3,250.1,250z"
		/>
	<path fill="#323A4F" d="M250.1,253.5c-53.3,30.8-139.6,30.8-192.9,0s-53.3-80.5,0-111.3s139.6-30.8,192.9,0
		S303.4,222.8,250.1,253.5z"/>
</g>
<g enable-background="new    ">
	<g>
		<g>
			<g>
				<g>
					<g>
						<g>
							<g>
								<defs>
									<path id="SVGID_1_" d="M287.1,133.6l1.2-1c0.5-0.5,1.1-0.8,1.7-1l-1.2,1.2C288.1,132.8,287.5,133.2,287.1,133.6z"/>
								</defs>
								<clipPath id="SVGID_2_">
									<use xlink:href="#SVGID_1_"  overflow="visible"/>
								</clipPath>
								<g clip-path="url(#SVGID_2_)" enable-background="new    ">
									<path fill="#303765" d="M287.1,133.6l1.2-1c0.5-0.5,1.1-0.8,1.7-1l-1.2,1.2C288.1,132.8,287.5,133.2,287.1,133.6"/>
								</g>
							</g>
						</g>
					</g>
				</g>
			</g>
		</g>
	</g>
</g>
<linearGradient id="SVGID_3_" gradientUnits="userSpaceOnUse" x1="136.9" y1="168.3869" x2="233.8" y2="168.3869" gradientTransform="matrix(1 0 0 -1 0 300)">
	<stop  offset="0" style="stop-color:#FD980C"/>
	<stop  offset="1" style="stop-color:#FDC830"/>
</linearGradient>
<path fill="url(#SVGID_3_)" d="M140.2,183.9L136.9,28c0-2.5,5.2-5.7,8.3-4.5l86.1,49.7c1.5,0.9,2.5,2.5,2.5,4.3v157.6
	c0,3.7-6.1,5.8-8.3,4.5l-82.7-51.3C141.1,187.3,140.2,185.7,140.2,183.9z"/>
<path fill="#1E2430" d="M136.9,185.6V28c0-2.5,2.8-4.2,5-2.9L228,74.8c1.5,0.9,2.5,2.5,2.5,4.3v157.6c0,2.5-2.8,4.2-5,2.9
	l-86.1-49.7C137.9,189,136.9,187.3,136.9,185.6z"/>
<path fill="#FFFFFF" d="M140.7,181.2V36.6c0-2.4,2.6-3.8,4.5-2.6l79,45.6c1.4,0.8,2.3,2.4,2.3,3.9v144.6c0,2.4-2.6,3.8-4.5,2.6
	l-79-45.6C141.6,184.4,140.7,182.8,140.7,181.2z"/>
<polyline fill="none" stroke="#323A4F" stroke-width="2" stroke-miterlimit="10" points="147.7,78.4 154.9,68 162.1,86.7 
	169.2,74.2 176.5,95 183.7,84.6 189.2,99.1 198,90.8 205.3,109.5 219.6,92.9 "/>
<polyline fill="none" stroke="#323A4F" stroke-width="2" stroke-miterlimit="10" points="147.7,55.5 147.7,92.9 219.6,132.4 "/>
<path fill="#EFEFEF" d="M181.5,191l-26.3-15.2c-1.2-0.7-2.1-2.5-2.1-4v-44.1c0-1.6,1-2.3,2.1-1.6l26.3,15.2c1.2,0.7,2.1,2.5,2.1,4
	v44.1C183.7,190.9,182.7,191.7,181.5,191z"/>
<path fill="#1E2430" d="M178.9,135.5l-26.3-15.2c-0.5-0.3-1-0.3-1.4-0.1l0,0l-2.5,1.5c0,0,1.2,0.4,1.7,0.7V166c0,1.6,1,3.4,2.1,4
	l25.2,14.5v2.3l2.6-1.5l0,0c0.4-0.3,0.7-0.8,0.7-1.7v-44.1C181.1,138,180.1,136.2,178.9,135.5z"/>
<path fill="#323A4F" d="M176.3,186.7L150,171.4c-1.2-0.7-2.1-2.5-2.1-4v-44.1c0-1.6,1-2.3,2.1-1.6l26.3,15.2c1.2,0.7,2.1,2.5,2.1,4
	V185C178.5,186.7,177.5,187.3,176.3,186.7z"/>
<path fill="#FFFFFF" d="M176.3,137L150,121.8c-0.7-0.4-1.2-0.3-1.6,0.1c0.3,0,0.6,0.1,1,0.2l26.3,15.2c1.2,0.7,2.1,2.5,2.1,4v44.1
	c0,0.7-0.2,1.2-0.5,1.5c0.7-0.1,1.2-0.8,1.2-1.9v-44.1C178.5,139.4,177.5,137.7,176.3,137z"/>
<polygon fill="#FFFFFF" points="171.5,146.9 153.8,136.7 153.8,135.5 171.5,145.6 "/>
<polygon fill="#FDC830" points="166.1,149.4 153.8,142.3 153.8,141.1 166.1,148.2 "/>
<polygon fill="#FFFFFF" points="164.5,145.6 153.8,139.5 153.8,138.2 164.5,144.3 "/>
<polygon fill="#F37335" points="171.5,149.8 166.1,146.7 166.1,145.4 171.5,148.5 "/>
<polygon fill="#FFFFFF" points="171.5,157.7 153.8,147.4 153.8,146.3 171.5,156.3 "/>
<polygon fill="#FFFFFF" points="166.1,160.1 153.8,153 153.8,151.8 166.1,158.9 "/>
<polygon fill="#F37335" points="164.5,156.4 153.8,150.3 153.8,149 164.5,155.1 "/>
<polygon fill="#FFFFFF" points="171.5,160.5 166.1,157.4 166.1,156.1 171.5,159.2 "/>
<polygon fill="#FFFFFF" points="171.5,168.3 153.8,158.2 153.8,156.9 171.5,167.1 "/>
<polygon fill="#F37335" points="166.1,170.9 153.8,163.8 153.8,162.5 166.1,169.5 "/>
<polygon fill="#FFFFFF" points="164.5,167.1 153.8,161 153.8,159.7 164.5,165.9 "/>
<polygon fill="#FDC830" points="171.5,171.2 166.1,168.1 166.1,166.8 171.5,169.9 "/>
<polygon fill="#1E2430" points="57.7,167.7 79.3,180.1 79.3,205.1 57.7,192.6 "/>
<polygon fill="#1E2430" points="79.3,180.1 100.9,167.7 100.9,192.6 79.3,205.1 "/>
<linearGradient id="SVGID_4_" gradientUnits="userSpaceOnUse" x1="57.7" y1="167.65" x2="100.9" y2="167.65">
	<stop  offset="0" style="stop-color:#FD980C"/>
	<stop  offset="1" style="stop-color:#FDC830"/>
</linearGradient>
<polygon fill="url(#SVGID_4_)" points="57.7,167.7 79.3,155.2 100.9,167.7 79.3,180.1 "/>
<linearGradient id="SVGID_5_" gradientUnits="userSpaceOnUse" x1="89.1" y1="86.5767" x2="177.6" y2="86.5767" gradientTransform="matrix(1 0 0 -1 0 300)">
	<stop  offset="0" style="stop-color:#FD980C"/>
	<stop  offset="1" style="stop-color:#FDC830"/>
</linearGradient>
<polyline fill="none" stroke="url(#SVGID_5_)" stroke-width="2" stroke-linecap="round" stroke-miterlimit="10" points="90.1,198.8 
	140.4,227.9 176.6,208.2 "/>
<linearGradient id="SVGID_6_" gradientUnits="userSpaceOnUse" x1="57.7" y1="186.4" x2="100.9" y2="186.4">
	<stop  offset="0" style="stop-color:#FD980C"/>
	<stop  offset="1" style="stop-color:#FDC830"/>
</linearGradient>
<polygon fill="url(#SVGID_6_)" points="57.7,167.7 100.9,167.7 79.3,205.1 "/>
<g enable-background="new    ">
	<g>
		<path fill="#1E2430" d="M69.5,172.6c1.1,0,2,0.6,2.3,1.7h-1.3c-0.2-0.4-0.6-0.6-1-0.6c-0.7,0-1.2,0.5-1.2,1.4
			c0,0.9,0.5,1.4,1.2,1.4c0.4,0,0.8-0.2,1-0.6h1.3c-0.3,1-1.1,1.7-2.3,1.7c-1.4,0-2.4-1-2.4-2.5C67.1,173.6,68.1,172.6,69.5,172.6z"
			/>
		<path fill="#1E2430" d="M73.7,172.6v3.9h1.5v0.9h-2.7v-4.8H73.7z"/>
		<path fill="#1E2430" d="M75.8,172.6H77v4.8h-1.2V172.6z"/>
		<path fill="#1E2430" d="M80.1,172.6c1.1,0,2,0.6,2.3,1.7h-1.3c-0.2-0.4-0.6-0.6-1-0.6c-0.7,0-1.2,0.5-1.2,1.4
			c0,0.9,0.5,1.4,1.2,1.4c0.4,0,0.8-0.2,1-0.6h1.3c-0.3,1-1.1,1.7-2.3,1.7c-1.4,0-2.4-1-2.4-2.5C77.7,173.6,78.7,172.6,80.1,172.6z"
			/>
		<path fill="#1E2430" d="M84.3,175.3v2.1h-1.2v-4.8h1.2v2.1l1.6-2.1h1.4l-1.9,2.4l1.9,2.5h-1.4L84.3,175.3z"/>
		<path fill="#1E2430" d="M89.7,177.5c-1,0-1.9-0.5-1.9-1.5H89c0,0.4,0.3,0.6,0.6,0.6c0.3,0,0.6-0.2,0.6-0.5c0-0.9-2.4-0.4-2.4-2.1
			c0-0.9,0.8-1.4,1.8-1.4c1.1,0,1.8,0.5,1.8,1.4h-1.3c0-0.3-0.2-0.5-0.6-0.5c-0.3,0-0.5,0.1-0.5,0.4c0,0.8,2.4,0.5,2.4,2.1
			C91.4,176.8,90.8,177.5,89.7,177.5z"/>
	</g>
</g>
<path fill="#323A4F" d="M197.1,154.8l-0.2-0.1c-0.9-0.6-1.7-2-1.7-3.2v-13.2c0-1.2,0.7-1.7,1.7-1.3l0.2,0.1c0.9,0.6,1.7,2,1.7,3.2
	v13.2C198.8,154.8,198.1,155.3,197.1,154.8z"/>
<path fill="#FDC830" d="M204.2,158.8l-0.2-0.1c-0.9-0.6-1.7-2-1.7-3.2v-7.8c0-1.2,0.7-1.7,1.7-1.3l0.2,0.1c0.9,0.6,1.7,2,1.7,3.2
	v7.8C205.9,158.7,205.2,159.3,204.2,158.8z"/>
<path fill="#F37335" d="M211.3,162.9l-0.2-0.1c-0.9-0.6-1.7-2-1.7-3.2v-18.4c0-1.2,0.7-1.7,1.7-1.3l0.2,0.1c0.9,0.6,1.7,2,1.7,3.2
	v18.4C213,162.8,212.3,163.4,211.3,162.9z"/>
<path fill="#EFEFEF" d="M215.8,209.8l-21-12.2c-1-0.6-1.7-2-1.7-3.2v-15.7c0-1.3,0.7-1.8,1.7-1.3l21,12.2c1,0.6,1.7,2,1.7,3.2v15.7
	C217.6,209.7,216.9,210.3,215.8,209.8z"/>
<path fill="#1E2430" d="M213.8,185l-21-12.2c-0.5-0.2-0.8-0.3-1.1-0.1l0,0l-2,1.2c0,0,1,0.3,1.4,0.6v15.3c0,1.3,0.7,2.7,1.7,3.2
	l20.1,11.6v1.8l2.1-1.2l0,0c0.3-0.2,0.6-0.7,0.6-1.4v-15.7C215.5,186.9,214.7,185.5,213.8,185z"/>
<path fill="#323A4F" d="M211.7,206.4l-21-12.2c-1-0.6-1.7-2-1.7-3.2v-15.7c0-1.3,0.7-1.8,1.7-1.3l21,12.2c1,0.6,1.7,2,1.7,3.2v15.7
	C213.4,206.3,212.6,206.9,211.7,206.4z"/>
<path fill="#FFFFFF" d="M211.7,186.2l-21-12.2c-0.6-0.3-1-0.2-1.3,0.1c0.2,0,0.5,0.1,0.7,0.2l21,12.2c1,0.6,1.7,2,1.7,3.2v15.7
	c0,0.6-0.2,1-0.4,1.2c0.6-0.1,1-0.6,1-1.5v-15.7C213.4,188.2,212.6,186.8,211.7,186.2z"/>
<g>
	<path fill="#F37335" d="M197.8,188.8c0,1-0.7,1.3-1.4,0.8s-1.4-1.5-1.4-2.5s0.7-1.3,1.4-0.8S197.8,187.9,197.8,188.8z"/>
	<path fill="#F37335" d="M202.1,191.3c0,1-0.7,1.3-1.4,0.8s-1.4-1.5-1.4-2.5s0.7-1.3,1.4-0.8C201.5,189.3,202.1,190.4,202.1,191.3z"
		/>
	<path fill="#FDC830" d="M206.4,193.8c0,1-0.7,1.3-1.4,0.8s-1.4-1.5-1.4-2.5s0.7-1.3,1.4-0.8C205.8,191.7,206.4,192.9,206.4,193.8z"
		/>
</g>
<g>
	<ellipse fill="#FDC830" cx="162" cy="85.8" rx="2.4" ry="3.8"/>
	<ellipse fill="#323A4F" cx="162" cy="85.8" rx="1" ry="1.6"/>
</g>
<linearGradient id="SVGID_7_" gradientUnits="userSpaceOnUse" x1="155.7556" y1="203.5144" x2="168.4599" y2="203.5144" gradientTransform="matrix(1 0 0 -1 0 300)">
	<stop  offset="0" style="stop-color:#FD980C"/>
	<stop  offset="1" style="stop-color:#FDC830"/>
</linearGradient>
<path fill="url(#SVGID_7_)" d="M168.4,100.8l-4.9-14.3c-0.5-1.4-2.8-1.5-3.4-0.3l-4.1,7.9c-0.5,0.8-0.2,1.8,0.6,2.3l3.1,1.8v7.4
	c0,0.6,0.3,1.1,0.8,1.4l0.6,0.5c0.6,0.3,1.7-0.1,1.7-0.7v-6.9l3.4,2.3C167.1,102.8,168.8,101.9,168.4,100.8z"/>
<path fill="#FFFFFF" d="M167.9,100.8L163,86.5c-0.5-1.4-2.8-1.5-3.4-0.3l-4.1,7.9c-0.5,0.8-0.2,1.8,0.6,2.3l3.1,1.8v7.4
	c0,0.6,0.3,1.1,0.8,1.4l0.6,0.5c0.6,0.3,1.7-0.1,1.7-0.7v-6.9l3.4,2.3C166.6,102.8,168.3,101.9,167.9,100.8z"/>
<path fill="#1E2430" d="M167.4,100.8l-4.9-14.3c-0.5-1.4-2.3-1.5-3-0.3l-4.6,7.9c-0.5,0.8-0.2,1.8,0.6,2.3l3.1,1.8v7.4
	c0,0.6,0.3,1.1,0.8,1.4l1,0.5c0.6,0.3,1.2-0.1,1.2-0.7v-6.9l3.9,2.3C166.6,102.8,167.8,101.9,167.4,100.8z"/>
<g>
	<path fill="#1E2430" d="M247.2,55.6c3.2-0.8,6.5,1.9,8.3,6.7c1-1.1,2.3-1.7,3.7-1.9c4.1-0.4,8.3,4,8.6,9.8c0,0.1,0,0.3,0,0.4
		c5.4,3,10.1,9.9,10.4,17.2c0.5,10.1-6.9,13.8-14.3,9.5l-21.6-12.5c-2.6-1.5-4.5-6.5-4.6-11.2c-0.1-4.4,1.5-7.9,3.7-8.5
		C242,60.4,244.2,56.4,247.2,55.6z"/>
</g>
<g>
	<linearGradient id="SVGID_8_" gradientUnits="userSpaceOnUse" x1="265.35" y1="206.3" x2="265.35" y2="120.5">
		<stop  offset="0" style="stop-color:#FD980C"/>
		<stop  offset="0.457" style="stop-color:#FDC830"/>
	</linearGradient>
	<polygon fill="url(#SVGID_8_)" points="258,206.3 258,127 272.7,120.5 272.7,199.7 	"/>
	<polygon fill="#FDC830" points="242.5,199.1 242.5,119.8 257.2,113.2 257.2,192.5 	"/>
	<linearGradient id="SVGID_9_" gradientUnits="userSpaceOnUse" x1="250.25" y1="206.4" x2="250.25" y2="119.8">
		<stop  offset="0" style="stop-color:#FD980C"/>
		<stop  offset="1" style="stop-color:#FDC830"/>
	</linearGradient>
	<polygon fill="url(#SVGID_9_)" points="242.5,199.1 242.5,119.8 258,127.1 258,206.4 	"/>
	<linearGradient id="SVGID_10_" gradientUnits="userSpaceOnUse" x1="242.5" y1="120.15" x2="272.6603" y2="120.15">
		<stop  offset="0" style="stop-color:#FD980C"/>
		<stop  offset="1" style="stop-color:#FDC830"/>
	</linearGradient>
	<polygon fill="url(#SVGID_10_)" points="242.5,119.8 258,127.1 272.7,120.6 257.2,113.2 	"/>
</g>
<g>
	<linearGradient id="SVGID_11_" gradientUnits="userSpaceOnUse" x1="119.95" y1="163.1" x2="119.95" y2="107.3">
		<stop  offset="0" style="stop-color:#1E2430"/>
		<stop  offset="0.457" style="stop-color:#364157"/>
	</linearGradient>
	<polygon fill="url(#SVGID_11_)" points="112.6,163.1 112.6,113.8 127.3,107.3 127.3,156.5 	"/>
	<polygon fill="#364157" points="97.1,155.9 97.1,106.6 111.8,100 111.8,149.3 	"/>
	<linearGradient id="SVGID_12_" gradientUnits="userSpaceOnUse" x1="104.85" y1="163.2" x2="104.85" y2="106.6">
		<stop  offset="0" style="stop-color:#1E2430"/>
		<stop  offset="1" style="stop-color:#364157"/>
	</linearGradient>
	<polygon fill="url(#SVGID_12_)" points="97.1,155.9 97.1,106.6 112.6,114 112.6,163.2 	"/>
	<linearGradient id="SVGID_13_" gradientUnits="userSpaceOnUse" x1="97.1" y1="107" x2="127.2603" y2="107">
		<stop  offset="0" style="stop-color:#1E2430"/>
		<stop  offset="0.4409" style="stop-color:#364157"/>
	</linearGradient>
	<polygon fill="url(#SVGID_13_)" points="97.1,106.6 112.6,114 127.3,107.4 111.8,100 	"/>
</g>
</svg>
