<?xml version="1.0" encoding="utf-8"?>
<!-- Generator: Adobe Illustrator 18.0.0, SVG Export Plug-In . SVG Version: 6.00 Build 0)  -->
<!DOCTYPE svg PUBLIC "-//W3C//DTD SVG 1.1//EN" "http://www.w3.org/Graphics/SVG/1.1/DTD/svg11.dtd">
<svg version="1.1" id="Domain_Checker_2_" xmlns="http://www.w3.org/2000/svg" xmlns:xlink="http://www.w3.org/1999/xlink" x="0px"
	 y="0px" viewBox="0 0 300 300" enable-background="new 0 0 300 300" xml:space="preserve">
<g>
	<path fill="#1E2430" d="M247.4,258.9c-53.3,30.8-139.6,30.8-192.9,0s-53.3-80.5,0-111.3s139.6-30.8,192.9,0
		S300.7,228.2,247.4,258.9z"/>
	<path fill="#323A4F" d="M247.4,262.4c-53.3,30.8-139.6,30.8-192.9,0s-53.3-80.5,0-111.3s139.6-30.8,192.9,0
		S300.7,231.7,247.4,262.4z"/>
</g>
<polygon fill="#F37335" points="150.6,190.7 174.5,134.6 151.7,106.3 150.2,83.2 224.1,79.9 221.3,106.6 204.9,128.1 188.9,141.2 
	221.9,174.2 218.8,201.7 182.3,212.6 150.6,201.4 "/>
<path fill="#FDC830" d="M143.7,79.6c-1-8.1,2.3-14.3,8.7-19.1c6.7-5,14.4-7.6,22.6-8.9c12.2-2,24.2-1.2,35.8,3.2
	c4.7,1.7,9,4.1,12.7,7.5c4.8,4.4,7.3,9.6,6.6,16.2c-0.2,0.2-0.4,0.5-0.5,0.8c-1.2,4.6-4,8-7.7,11c-3.8,3.1-8.1,5.1-12.6,6.7
	c-6.3,2.3-12.9,3.3-19.6,3.7c-3.9,0.2-7.7-0.1-11.6-0.5c-7.5-0.8-14.6-2.8-21.2-6.4c-5.8-3.2-10.7-7.3-12.8-14
	C144,78.9,143.8,79.6,143.7,79.6z"/>
<path fill="#1E2430" d="M229.8,201.3c-1.1,3.8-3.5,6.9-6.3,9.7c-1.2,0.9-2.4,1.9-3.7,2.8c-0.9,0.6-1.9,1.2-2.8,1.8l0,0
	c-2.9,1.5-5.9,2.8-9,3.9c-0.5,0.1-1.1,0.2-1.6,0.3c-5.7,1.6-11.6,2.6-17.6,2.7c-5.8,0.1-11.6-0.3-17.3-1.6c-0.4-0.1-0.6,0.2-1,0.3
	c-0.5-0.8-1.5-0.5-2.1-0.9c-0.5-0.6-1.2-0.3-1.8-0.5c-1.9-0.8-3.7-1.5-5.5-2.3c-1.7-0.2-2.9-1.5-4.5-1.9c-1.5-1.5-3.4-2.4-5-3.7
	c-0.8-0.7-1.5-1.4-2.3-2.1c-0.1-0.1-0.2-0.2-0.3-0.3c-2-2.3-3.7-4.8-4.8-7.6c-0.9-3.5-0.6-7.1-0.6-10.6c0.7-0.3,0.6,0.3,0.7,0.6
	c0.9,3.1,2.7,5.6,4.9,7.9c4.8,4.8,10.8,7.8,17.2,9.7c7.5,2.3,15.3,3.2,23.2,2.8c4.7-0.2,9.3-0.8,13.9-1.8c5.2-1.2,10-3,14.6-5.7
	c3.9-2.4,7.4-5.2,9.7-9.3c0.9-1.6,1.3-3.5,2.3-5C230.1,194.3,230.4,197.9,229.8,201.3z"/>
<path fill="#1E2430" d="M143.7,79.6c0.2,0,0.3-0.8,0.5-0.1c2,6.7,6.9,10.8,12.8,14c6.6,3.7,13.7,5.6,21.2,6.4
	c3.9,0.4,7.7,0.8,11.6,0.5c6.7-0.3,13.3-1.4,19.6-3.7c4.5-1.6,8.8-3.7,12.6-6.7c3.6-2.9,6.4-6.3,7.7-11c0.1-0.3,0.3-0.5,0.5-0.8
	c0,2.7,0.2,5.3,0,8c-0.2,4.4-2.4,7.9-5.3,11.1c-0.6,0.6-1.1,1.2-1.7,1.7c-1.5,1-3,2.1-4.4,3.2c-1.6,0.9-3.2,1.7-4.9,2.6
	c-5.2,2.1-10.6,3.6-16.1,4.6c-0.5,0-0.9,0-1.3,0.1c-7,0.9-14.1,0.8-21.1-0.3c-7.1-1.1-13.7-3.4-20-6.9c-1.5-1.2-3-2.3-4.6-3.4
	c-1.2-1.3-2.5-2.5-3.5-3.9c-2.3-3.1-3.5-6.5-3.4-10.4C143.7,83,143.7,81.3,143.7,79.6z"/>
<path fill="#F37335" d="M230.1,190.7c-0.9,1.6-1.3,3.4-2.3,5c-2.4,4.1-5.8,6.9-9.7,9.3c-4.5,2.7-9.4,4.6-14.6,5.7
	c-4.6,1-9.2,1.6-13.9,1.8c-7.9,0.3-15.7-0.5-23.2-2.8c-6.4-1.9-12.4-4.9-17.2-9.7c-2.2-2.2-4-4.8-4.9-7.9c-0.1-0.3,0.1-1-0.7-0.6
	c-0.7-7,1.4-12.8,6.9-17.3c0,4.5,0.1,8.9,0.1,13.3c0,2.7,0.8,5.1,2.1,7.3c3.4,5.2,8.5,8.2,14.2,10.4c4.8,1.9,9.9,2.9,15,3.2
	c5.2,0.3,10.5,0.3,15.7-0.8c2,0,4-0.6,5.9-1.3c3.6-1.1,7.2-2.4,10.2-4.8c1-0.3,1.8-1.1,2.6-1.8c4.3-3.5,7-7.8,6.8-13.7
	c-0.2-4,0-8,0-12C228.3,178.5,230.7,184,230.1,190.7z"/>
<path fill="#333A47" d="M215.6,151.8c3.5,3,6.6,6.2,7.4,11c0.3,1.6,0.2,3.2,0.1,4.8c-0.3,0.1-0.4,0.2-0.5,0.5
	c-0.2,1.5-0.9,2.7-1.6,4c-1.6,2.6-3.9,4.6-6.3,6.4c-0.8-0.6-1.6-1.3-2.4-1.9c0-0.1,0-0.1,0-0.2c1.3-1.3,2.7-2.6,3.9-4
	c1.8-2.2,2.7-4.8,2.7-7.5c0-3.4-1.6-6.4-4-8.9c-4.1-4.2-9.2-6.3-14.7-7.9c-1.2-0.3-2.4-0.8-3.7-0.6c-2.6-0.9-5.3-0.6-7.9-0.9
	c-2.2,0.1-4.4,0.1-6.6,0.2c-4.8,0.3-9.4,1.5-13.8,3.3c-4.4,1.8-8.1,4.2-11,8.1c-3,3.9-2.5,10.7,0.6,14.3c1.2,1.4,2.6,2.5,3.8,3.9
	c-0.6,0.9-1.6,1.4-2.4,2.1c-2.7-2-5.2-4.1-6.7-7.1c-0.6-1-0.8-2.3-1.7-3.2c-1.1-6.9,2-12,7.1-16.1c0.1-0.1,0.3-0.2,0.4-0.3l0,0
	c0.1-0.1,0.2-0.2,0.3-0.3l0,0c0.1-0.1,0.2-0.2,0.3-0.3l0,0c0.3,0.1,0.7,0.1,1-0.2c4.1-3.1,8.9-4.5,13.8-5.7
	c4.7-1.2,9.5-1.6,14.4-1.3c2.2,0.5,4.5,0.3,6.7,0.6c3.1-0.2,5.9,0.9,8.8,1.6c4.2,1,7.9,3,11.5,5.3l0,0
	C215.1,151.8,215.4,151.8,215.6,151.8z"/>
<path fill="#F2B316" d="M150.7,168.3c0.9,0.9,1.2,2.1,1.7,3.2c1.6,3,4.1,5.2,6.7,7.1c-0.6,0.7-1.2,1.4-1.7,2.1
	c-3.1,4.2-3.2,9.3-0.3,13.7c0.9,1.4,2,2.6,3.3,3.7c4.4,3.7,9.6,5.7,15.1,6.9c7.4,1.6,14.7,1.5,22.1,0.2c0,0.8,0,1.7,0,2.5
	c-5.2,1.1-10.4,1.2-15.7,0.8c-5.2-0.3-10.2-1.3-15-3.2c-5.6-2.2-10.7-5.1-14.2-10.4c-1.5-2.2-2.1-4.6-2.1-7.3
	c0-4.5-0.1-8.9-0.1-13.3C150.6,172.3,150.6,170.2,150.7,168.3z"/>
<path fill="#1E2430" d="M214.7,178.6c2.4-1.9,4.7-3.8,6.3-6.4c0.8-1.2,1.3-2.6,1.6-4c0.1-0.3,0.2-0.5,0.5-0.5
	c0.1,2.2,0.1,4.4,0.1,6.6c0,4-0.2,8,0,12c0.3,5.9-2.4,10.2-6.8,13.7c-0.8,0.6-1.6,1.5-2.6,1.8c-0.2-1.2,0.3-2.4-0.3-3.6
	c0-0.1,0-0.1,0-0.2c3.9-3.2,6.1-7.2,5.2-12.5C218,182.7,216.5,180.6,214.7,178.6z"/>
<path fill="#1E2430" d="M187.9,144c-4.9-0.3-9.7,0.1-14.4,1.3c-4.8,1.2-9.7,2.6-13.8,5.7c-0.3,0.2-0.6,0.2-1,0.2
	c0.1-0.1,0.1-0.3,0.2-0.4c5.2-5.2,10.4-10.4,15.7-15.7c0.7,1.5,1.3,3.1,2.9,4.1c3.1,2,6.6,2.7,10.2,2.6
	C187.7,142.6,187.8,143.3,187.9,144z"/>
<path fill="#1E2430" d="M215,151.5c-3.6-2.3-7.4-4.3-11.5-5.3c-2.9-0.7-5.7-1.8-8.8-1.6c-0.5-1.1-1.2-2.1-1.6-3.3
	c1.6-2.5,3.5-4.6,6-6.4c4.9,5,9.9,10.1,14.9,15.1C214.3,150.5,215,150.7,215,151.5z"/>
<path fill="#E5A971" d="M150.6,99.1c1.5,1.2,3,2.3,4.6,3.4c-0.6,2.7,0.1,5.2,1.3,7.5c1.9,3.4,5,5.5,7.9,7.8c0.5,0.4,1,0.8,1.5,1.3
	c1.7,1.5,3.6,2.7,5,4.4c-1.2,0.1-2.2-0.3-3.3-0.8c-2.8-1.2-5.7-2.1-8.2-3.9c-0.2-0.1-0.4-0.3-0.6,0c-2-2-4.2-3.8-5.8-6.1
	c-1.6-2.4-2.6-5-2.4-7.9C150.6,102.8,150.6,101,150.6,99.1z"/>
<path fill="#333A47" d="M199.1,134.8c-2.4,1.7-4.4,3.9-6,6.4c-1.9-0.2-3.6,0.9-5.5,0.6c-3.6,0.1-7-0.6-10.2-2.6
	c-1.6-1-2.1-2.6-2.9-4.1c0-0.2,0-0.4-0.1-0.6c0.4,0,0.3-0.2,0.5-0.6c0.5-2.1,1.9-3.4,3.9-4c0.7,0.4,1.3,0.9,1.8,1.5
	c-0.5,0.3-0.9,0.6-1.3,1c-1.3,1.3-1.5,3.2-0.2,4.5c0.8,0.8,1.6,1.3,2.6,1.8c2.3,1.2,4.7,0.8,7.1,0.9c1.5,0.1,2.9-0.6,4.1-1.3
	c3.4-2.1,2.8-5.2,0.5-6.6c0-0.2-0.1-0.5-0.1-0.7l0,0c0.1-0.1,0.2-0.2,0.3-0.3c0.3-0.3,0.6-0.6,0.9-0.9h0.1h0.1
	c1,0.1,1.8,0.6,2.4,1.4c0.7,0.9,1.3,2,2,3c0,0.1,0,0.2,0,0.2C199.1,134.6,199.1,134.7,199.1,134.8z"/>
<path fill="#1E2430" d="M178.9,130c-2.1,0.6-3.4,1.9-3.9,4c-0.1,0.3-0.1,0.6-0.5,0.6c-4.8-4.7-9.5-9.5-14.2-14.2
	c-0.5-0.5-1-1.1-1.6-1.6c0.2-0.3,0.5-0.1,0.6,0c2.5,1.9,5.5,2.7,8.2,3.9c1.1,0.5,2.1,0.9,3.3,0.8l0,0c0.1,0.3,0.3,0.3,0.6,0.3
	C174,125.9,176.5,127.9,178.9,130z"/>
<path fill="#333A47" d="M218.6,102.4c1.5-1,3-2.1,4.4-3.2c0.1,4.2,0.6,8.4-1.7,12.3c-1.5,2.5-3.5,4.5-5.7,6.3
	c-0.1,0.1-0.3,0.2-0.4,0.3l0,0c-0.1,0.1-0.2,0.2-0.3,0.3l0,0c-0.1,0.1-0.2,0.3-0.3,0.4s-0.2,0.1-0.3,0.2c-0.2,0-0.5,0-0.6,0
	c0-0.4,0-0.8,0-1.2c-0.2-0.3,0.6-0.9-0.2-1.2c-0.1-0.6,0.2-1.3-0.1-1.9c0.1-0.2,0.2-0.3,0.3-0.5
	C217.3,111.1,219.4,107.4,218.6,102.4z"/>
<path fill="#1E2430" d="M213.7,119.1c0.2,0,0.5,0,0.6,0c-0.2,0.8-1,1.3-1.6,1.9c-2.7,2.7-5.2,5.5-8.1,7.9c-0.1-0.1-0.1-0.1-0.1-0.1
	c0.1-0.2,0.1-0.5,0.3-0.7C207.8,125.1,210.8,122.1,213.7,119.1z"/>
<path fill="#1E2430" d="M204.7,128.9c-0.2,0.4-0.5,0.8-0.9,0.9l-0.1-0.1c0.1-0.6,0.3-0.9,0.9-0.9
	C204.7,128.8,204.7,128.9,204.7,128.9z"/>
<path fill="#1E2430" d="M202.9,130.7c-0.1,0.3-0.3,0.5-0.6,0.6l-0.1-0.1c0.1-0.3,0.3-0.5,0.6-0.6
	C202.8,130.7,202.9,130.7,202.9,130.7z"/>
<path fill="#1E2430" d="M203.5,130.1c-0.1,0.3-0.3,0.5-0.6,0.6c-0.1-0.1-0.1-0.1-0.1-0.1c0.1-0.3,0.3-0.5,0.6-0.6L203.5,130.1z"/>
<path fill="#1E2430" d="M200.5,133.2c-0.1,0.3-0.3,0.5-0.6,0.6l-0.1-0.1c0.2-0.2,0.4-0.4,0.6-0.6L200.5,133.2z"/>
<path fill="#1E2430" d="M201.1,132.5c-0.1,0.3-0.3,0.5-0.6,0.6l-0.1-0.1c0.2-0.2,0.4-0.4,0.6-0.6L201.1,132.5z"/>
<path fill="#1E2430" d="M202,131.6c-0.1,0.2-0.1,0.4-0.4,0.5l0,0c0-0.2,0.1-0.5,0.3-0.6L202,131.6z"/>
<path fill="#1E2430" d="M199.9,133.7c-0.1,0.2-0.3,0.3-0.4,0.5l0,0c0-0.2,0.1-0.5,0.3-0.6L199.9,133.7z"/>
<path fill="#1E2430" d="M215.6,151.8c-0.3,0-0.5,0-0.6-0.3C215.3,151.4,215.5,151.6,215.6,151.8z"/>
<path fill="#1E2430" d="M201.6,132.1c-0.2,0.1-0.3,0.3-0.5,0.4l-0.1-0.1C201.2,132.2,201.3,132.1,201.6,132.1L201.6,132.1z"/>
<path fill="#1E2430" d="M203.8,129.8c-0.1,0.1-0.2,0.2-0.3,0.3l-0.1-0.1c0.1-0.1,0.2-0.2,0.3-0.3L203.8,129.8z"/>
<path fill="#1E2430" d="M214.7,118.9c0.1-0.1,0.2-0.3,0.3-0.4C214.9,118.6,214.8,118.7,214.7,118.9z"/>
<path fill="#1E2430" d="M202.3,131.3c-0.1,0.1-0.2,0.2-0.3,0.3l-0.1-0.1C202.1,131.4,202.1,131.4,202.3,131.3
	C202.2,131.2,202.3,131.3,202.3,131.3z"/>
<path fill="#1E2430" d="M158.5,151.5c-0.1,0.1-0.2,0.2-0.3,0.3C158.3,151.7,158.3,151.6,158.5,151.5z"/>
<path fill="#1E2430" d="M158.2,151.8c-0.1,0.1-0.3,0.2-0.4,0.3C157.9,152,158,151.9,158.2,151.8z"/>
<path fill="#1E2430" d="M199.2,134.5c0-0.1,0-0.2,0-0.2c0.1,0,0.2,0,0.3-0.1l0,0C199.4,134.3,199.3,134.4,199.2,134.5z"/>
<path fill="#1E2430" d="M158.8,151.2c-0.1,0.1-0.2,0.2-0.3,0.3C158.6,151.4,158.7,151.3,158.8,151.2z"/>
<path fill="#1E2430" d="M215,118.5c0.1-0.1,0.2-0.2,0.3-0.3C215.2,118.3,215.1,118.4,215,118.5z"/>
<path fill="#1E2430" d="M215.3,118.2c0.1-0.1,0.3-0.2,0.4-0.3C215.5,118,215.4,118.1,215.3,118.2z"/>
<path fill="#FDC830" d="M164.5,117.9c-3-2.3-6.1-4.4-7.9-7.8c-1.3-2.4-1.9-4.9-1.3-7.5c6.3,3.5,12.9,5.8,20,6.9
	c7,1.1,14,1.2,21.1,0.3c0.5-0.1,0.9,0,1.3-0.1c0,3.9,0,7.9,0,11.8c0,0.1,0,0.2,0,0.3c-2.3,0.2-4.6,1-7,0.9c-3.2-0.1-6.3,0.1-9.5-0.2
	c-4.9-0.5-9.7-1.6-14.2-3.8C166.2,118.3,165.4,117.7,164.5,117.9z"/>
<path fill="#F2B316" d="M197.7,121.5c0-3.9,0-7.9,0-11.8c5.5-1,10.9-2.5,16.1-4.6c0,3.1,0,6.1,0,9.2c-0.1,0.2-0.2,0.3-0.3,0.5
	c-1.6,1.3-3.2,2.5-4.8,3.8c-0.5-0.2-0.9-0.3-1.4,0C204.3,120.3,201,121,197.7,121.5z"/>
<path fill="#FDC830" d="M213.7,114.2c0-3.1,0-6.1,0-9.2c1.6-0.9,3.2-1.7,4.9-2.6C219.4,107.4,217.3,111.1,213.7,114.2z"/>
<path fill="#F2B316" d="M213.5,198.1c0.6,1.2,0.1,2.4,0.3,3.6c-3,2.4-6.6,3.7-10.2,4.8c-1.9,0.6-3.8,1.2-5.9,1.3c0-0.8,0-1.7,0-2.5
	c0-0.1,0-0.1,0.1-0.2c0.4-0.1,0.8-0.1,1.2-0.1C204.2,203.7,209.2,201.5,213.5,198.1z"/>
<path fill="#1E2430" d="M191.2,159.2c-1.2-0.9-2.4-1.8-3.5-2.8c-0.7-0.6-1-0.6-1.7,0c-7.5,6.3-15.1,12.5-22.7,18.8
	c-0.5,0.5-1.1,0.8-1.7,1.2c-1.2-1.4-2.6-2.5-3.8-3.9c-3-3.5-3.5-10.3-0.6-14.3c2.9-3.9,6.6-6.3,11-8.1c4.4-1.9,9-3,13.8-3.3
	c2.2-0.1,4.4-0.2,6.6-0.2c0.7,3,1.5,6.1,2.1,9.1C191,156.9,191.5,158,191.2,159.2z"/>
<path fill="#FFD773" d="M197.7,205c0-5.2-0.1-10.3,0-15.4c0.1-4.2-0.9-8.2-1.9-12.2c-1.3-5.3-2.6-10.7-3.8-16.1
	c-0.1-0.4-0.1-0.8-0.1-1.2c2.3,1.4,4.2,3.3,6.4,5c4.5,3.6,8.9,7.2,13.3,10.8c0.2,0.2,0.4,0.3,0.6,0.5c0,0.1,0,0.1,0,0.2
	c0,0.5,0.2,1,0.5,1.4c0.9,1,1,2.1,1,3.4c-0.1,4.8-0.1,9.6,0,14.5c0,0.7-0.1,1.4-0.3,2.1c0,0.1,0,0.1,0,0.2
	c-4.3,3.4-9.2,5.6-14.6,6.8C198.5,204.9,198.1,205,197.7,205z"/>
<path fill="#1E2430" d="M212.2,176.4c-0.2-0.2-0.4-0.3-0.6-0.5c-0.7-1.9-1.8-3.6-2.8-5.3c-2.3-4.4-4.8-8.8-7.1-13.1
	c-1.7-3.2-3.5-6.6-5.2-9.9c1.3-0.1,2.5,0.3,3.7,0.6c5.5,1.6,10.6,3.7,14.7,7.9c2.4,2.5,3.9,5.5,4,8.9c0,2.7-0.9,5.3-2.7,7.5
	C214.9,173.9,213.5,175.1,212.2,176.4z"/>
<path fill="#333A47" d="M196.5,147.6c1.7,3.3,3.5,6.6,5.2,9.9c2.4,4.4,4.8,8.8,7.1,13.1c0.9,1.8,2.1,3.5,2.8,5.3
	c-4.5-3.6-8.9-7.3-13.3-10.8c-2.1-1.7-4-3.6-6.4-5c-0.3-0.1-0.3-0.3-0.3-0.6c-0.1-0.1-0.2-0.2-0.3-0.3v0.1c0.2-1.2-0.2-2.3-0.5-3.4
	c-0.8-3-1.5-6.1-2.1-9.1C191.2,147,193.9,146.7,196.5,147.6z"/>
<path fill="#FDC830" d="M213.5,197.9c0.2-0.7,0.3-1.3,0.3-2.1c0-4.8-0.1-9.6,0-14.5c0-1.3-0.1-2.4-1-3.4c-0.3-0.3-0.6-0.8-0.5-1.4
	c0.8,0.6,1.6,1.3,2.4,1.9c1.8,2,3.4,4.2,3.9,6.9C219.5,190.7,217.4,194.7,213.5,197.9z"/>
<path fill="#333A47" d="M187.6,141.8c1.9,0.3,3.6-0.8,5.5-0.6c0.3,1.2,1,2.2,1.6,3.3c-2.3-0.2-4.5-0.1-6.7-0.6
	C187.8,143.3,187.7,142.6,187.6,141.8z"/>
<path fill="#FDC830" d="M164.5,117.9c1-0.1,1.7,0.4,2.6,0.8c4.5,2.1,9.2,3.2,14.2,3.8c3.2,0.3,6.3,0.2,9.5,0.2
	c2.4,0.1,4.6-0.7,7-0.9c0.2,2,0,3.9-1.5,5.5c-0.4,0.5-0.8,1.1-0.6,1.8l0,0c-0.1,0.1-0.2,0.2-0.3,0.3l0,0c-0.1,0.1-0.2,0.2-0.3,0.2
	l-0.1,0.1c-0.1,0.1-0.2,0.2-0.3,0.2c-0.3,0.3-0.6,0.6-0.9,0.9c-0.1,0.1-0.2,0.2-0.3,0.3l0,0c-1.9,1.5-3.8,3-5.6,4.6
	c-0.7,0.6-1.2,0.6-1.9-0.1c-1.7-1.5-3.4-2.8-5.1-4.2c-0.5-0.6-1.1-1.1-1.8-1.5c-2.4-2-4.9-4.1-7.4-6c-0.1-0.3-0.4-0.3-0.6-0.3l0,0
	c-1.5-1.7-3.4-2.9-5-4.4C165.5,118.7,165,118.3,164.5,117.9z"/>
<path fill="#333A47" d="M208.6,118.5c1.6-1.3,3.2-2.5,4.8-3.8c0.2,0.6,0.1,1.3,0.1,1.9c0,0.4-0.2,0.9,0.2,1.2c0,0.4,0,0.8,0,1.2
	c-3,3-5.9,6-8.8,9c-0.2,0.2-0.2,0.5-0.3,0.7c-0.6,0.1-0.9,0.3-0.9,0.9c-0.1,0.1-0.2,0.2-0.3,0.3c-0.3,0.1-0.5,0.3-0.6,0.6
	c-0.3,0.1-0.5,0.3-0.6,0.6c-0.1,0.1-0.2,0.2-0.3,0.3c-0.2,0.1-0.3,0.3-0.3,0.6c-0.2,0-0.5,0.1-0.6,0.3c-0.2,0.2-0.4,0.4-0.6,0.6
	s-0.4,0.4-0.6,0.6c-0.2,0.1-0.3,0.3-0.3,0.6c-0.1,0-0.2,0-0.3,0.1c-0.6-1-1.2-2-2-3c-0.6-0.8-1.3-1.3-2.4-1.4
	c0.1-0.1,0.1-0.2,0.1-0.3l0.1-0.1c0.1-0.1,0.2-0.2,0.3-0.2l0,0c0.1-0.1,0.2-0.2,0.3-0.3l0,0C200,125.7,204.3,122.1,208.6,118.5z"/>
<path fill="#1E2430" d="M180.7,131.5c1.7,1.4,3.5,2.7,5.1,4.2c0.7,0.6,1.2,0.6,1.9,0.1c1.9-1.6,3.7-3.1,5.6-4.6
	c0,0.2,0.1,0.5,0.1,0.7c-1.5,2.6-3.1,5.3-4.6,7.9c-2.4-0.1-4.8,0.3-7.1-0.9c-0.9-0.5-1.8-1.1-2.6-1.8c-1.3-1.3-1.2-3.2,0.2-4.5
	C179.8,132.1,180.3,131.8,180.7,131.5z"/>
<path fill="#333A47" d="M188.9,139.7c1.5-2.6,3.1-5.3,4.6-7.9c2.3,1.3,2.9,4.4-0.5,6.6C191.8,139.1,190.4,139.8,188.9,139.7z"/>
<path fill="#1E2430" d="M193.3,131.2c0.1-0.1,0.2-0.2,0.3-0.3C193.6,131,193.4,131.1,193.3,131.2z"/>
<path fill="#FDBD46" d="M194.9,129.7c0,0.1,0,0.2-0.1,0.3h-0.1h-0.1C194.7,129.9,194.8,129.7,194.9,129.7z"/>
<path fill="#E5A971" d="M170.9,123.6c0.2,0.1,0.5,0.1,0.6,0.3C171.3,123.9,171,123.9,170.9,123.6z"/>
<path fill="#1E2430" d="M213.7,117.9c-0.4-0.3-0.3-0.8-0.2-1.2C214.3,116.9,213.5,117.5,213.7,117.9z"/>
<path fill="#FFD773" d="M208.6,118.5c-4.2,3.7-8.6,7.3-13.1,10.7c-0.1-0.7,0.2-1.4,0.6-1.8c1.5-1.6,1.6-3.5,1.5-5.5
	c0-0.1,0-0.2,0-0.3c3.3-0.6,6.6-1.3,9.5-3.1C207.8,118.1,208.1,118.2,208.6,118.5z"/>
<path fill="#FDC830" d="M195.8,177.4c-1.3-5.3-2.6-10.7-3.8-16.1c-0.1-0.4-0.1-0.8-0.1-1.2c-0.3-0.1-0.3-0.3-0.3-0.6
	c-0.1-0.1-0.2-0.2-0.3-0.3v0.1c-1.2-0.9-2.4-1.8-3.5-2.8c-0.7-0.6-1-0.6-1.7,0c-7.5,6.3-15.1,12.5-22.7,18.8
	c-0.5,0.5-1.1,0.8-1.7,1.2c-0.6,0.9-1.6,1.4-2.4,2.1c-0.6,0.7-1.2,1.4-1.7,2.1c-3.1,4.2-3.2,9.3-0.3,13.7c0.9,1.4,2,2.6,3.3,3.7
	c4.4,3.7,9.6,5.7,15.1,6.9c7.4,1.6,14.7,1.5,22.1,0.2c0-0.1,0-0.1,0.1-0.2c0-5.2-0.1-10.3,0-15.4
	C197.7,185.4,196.8,181.4,195.8,177.4z"/>
<path fill="#1E2430" d="M191.2,159.2c0.1,0.1,0.2,0.2,0.3,0.3C191.5,159.4,191.3,159.3,191.2,159.2z"/>
<path fill="#FDBD46" d="M195.6,129.1c-0.1,0.1-0.2,0.2-0.3,0.3C195.4,129.3,195.5,129.2,195.6,129.1z"/>
<path fill="#FDBD46" d="M195.2,129.4c-0.1,0.1-0.2,0.2-0.3,0.2C195,129.6,195.1,129.5,195.2,129.4z"/>
<g>
	<path fill="#FDC830" d="M140.2,227.2c-1.7,0.8-2.9,2.7-2.7,4.8c0.1,1,0.2,2,0.4,2.3c0.5,1.2,2.4,2.8,5.3,1.6
		c3-1.2,9.5-7.3,9.7-11.3C153.4,217.3,144.8,225.3,140.2,227.2z"/>
	<path fill="#FDC830" d="M157.5,239.5c0,0-0.7,4.3-0.3,5.1s2.3,2.5,5.4,2.1c3-0.3,11.7-3.4,13.6-9c3-8.9-16.7,0.7-16.7,0.7
		L157.5,239.5z"/>
	<path fill="#FFFFFF" d="M165.9,171l0.7,66.9c-0.1,2.3-1.6,4.3-3.6,4.6c-0.3,0.1-0.5,0.1-0.8,0.1c-2.1,0.2-3.3-0.8-3.9-1.6
		c-0.5-0.8-0.9-1.7-0.9-2.7l-0.9-28.5l-4.3-25.5l-5.9,45.1c-0.1,1.2-0.7,2.3-1.6,3c-0.7,0.4-1.6,0.8-2.7,0.8
		c-1.7-0.1-2.9-0.9-3.5-1.7c-0.5-0.7-0.9-1.6-0.9-2.4l2.3-27.1l0.9-34.7L165.9,171z"/>
	<path fill="#FFC2B0" d="M157.2,111.2l-1.1,6.1c0,0-0.1,2.1,2.3,2.7c2.3,0.6,3-0.9,3-0.9l1.1-6.8L157.2,111.2z"/>
	<path fill="#FFC2B0" d="M170.1,107.9c-1.7,5.2-6.8,8.2-11.4,6.8c-4.6-1.5-7-6.9-5.5-12.1c1.7-5.2,6.8-8.2,11.4-6.8
		S171.7,102.7,170.1,107.9z"/>
	<path fill="#F37335" d="M157.5,117.4c-0.1-0.1-9.9-6.3-13.4,0.2c-5.9,10.7-1.6,22.9-3.6,49.3c-0.3,4.4,6,7.1,8.9,8.9
		c2.7,1.6,5.6,2.4,8.7,2.5c3,0,8.9-2.7,8.6-6.7c-0.9-18.2,0.7-33.5,2.1-48.4C168.8,123.2,167,121.2,157.5,117.4z"/>
	<path fill="#1E2430" d="M152.1,184.2l-5.9,45.1c-0.1,1.2-0.7,2.3-1.6,3c-0.1,0.1-0.3,0.2-0.5,0.3c1.2-0.9,4.8-38.9,5.5-43.1
		C150.2,185.4,152.1,184.2,152.1,184.2z"/>
</g>
<polygon fill="#FFC2B0" points="188.9,122.9 197,106.8 194.5,105.1 186.1,117.4 "/>
<polygon fill="#FFC2B0" points="135.4,105.8 139.4,87.9 142.6,87.9 141.3,102.8 "/>
<path fill="#F37335" d="M168.8,123.2c0,0,9,3.5,16.8-6.3c0.7-0.9,2.1-0.8,2.5,0.1c0.7,1.6,1.6,4,0.5,6.3
	c-4.7,10.2-20.8,9.7-24.6,15.4C160.2,144.5,168.8,123.2,168.8,123.2z"/>
<path fill="#F37335" d="M151.3,115.2c0,0-7.5,0.6-8.6-5.9c-0.5-3.4-0.8-5.3-0.8-6.5c0-0.8-0.7-1.3-1.5-1.3c-1.8,0.2-4.6,0.8-5,2
	c-0.5,1.8-1.6,10.6,5.7,24.1C146.2,136.4,151.3,115.2,151.3,115.2z"/>
<path fill="#FFC2B0" d="M139.3,87.9l0.1-2.1c0-0.8,0.3-1.4,0.6-2l2.1-3.4l0.5-0.7c0.5-0.6,1.4-0.8,2.1-0.3l0.5,0.3
	c0.6,0.4,0.9,1.1,0.9,1.8l-1.1,2.9l1.3-0.3c0.3-0.1,0.5,0.1,0.5,0.4l0,0c0.1,0.2-0.1,0.5-0.3,0.5l-2.2,0.9l-2,2.8L139.3,87.9z"/>
<path fill="#FFC2B0" d="M197.1,106.9l0.9-1.8c0.3-0.7,0.5-1.3,0.5-2.1l-0.1-3.9l-0.1-0.9c-0.1-0.8-0.8-1.3-1.6-1.3h-0.5
	c-0.8,0-1.3,0.5-1.7,1.1l-0.5,3.1l-1.1-0.9c-0.2-0.2-0.5-0.1-0.7,0.1l0,0c-0.1,0.2-0.1,0.4,0,0.6l1.5,1.9l0.4,3.9L197.1,106.9z"/>
<path fill="#D66748" d="M162.9,136.8c-0.8,3.6,3.9,30.7-1.3,40.7c2.6-1.1,5.2-3.1,5.1-5.9c-0.7-13-0.1-24.5,0.9-35.6
	c4.5-2.3,11.5-3.6,16.6-7.3C178.8,130.8,163.6,133.6,162.9,136.8z"/>
<path fill="#FFFFFF" d="M154,115.7l1.3-1.4c0,0,2.2,2.3,3.9,2.7c0,0,2.1,0.6,3.1,0.7l0.9,2.4C163.4,120,156.4,119.5,154,115.7z"/>
<path fill="#393E52" d="M163.7,108c0.4,0,0.8-0.2,0.9-0.5c0.3-0.5,0.1-3,1.3-3.4c1.7-0.6,6,1.6,6.4-4.8c0.2-3.4-1.4-4.2-1.4-6
	c0,0,0.1,0.9-8.4,0.3c-8.5-0.5-11.3,7-11.5,10.7c-0.2,3.6,1.6,9.5,7.4,10.4c0.9,0.1,5-3.1,4.9-3.5s-1.6-0.4-1.4-1.7
	C162.1,108.4,162.7,108,163.7,108z"/>
<path fill="#1E2430" d="M120.1,51.4l-0.2-0.1c-0.8-0.5-1.4-1.6-1.4-2.6v-11c0-1,0.6-1.5,1.4-1.1l0.2,0.1c0.8,0.5,1.4,1.6,1.4,2.6v11
	C121.4,51.4,120.9,51.8,120.1,51.4z"/>
<path fill="#FDC830" d="M126,54.8l-0.2-0.1c-0.8-0.5-1.4-1.6-1.4-2.6v-6.5c0-1,0.6-1.5,1.4-1.1l0.2,0.1c0.8,0.5,1.4,1.6,1.4,2.6v6.5
	C127.4,54.7,126.8,55.2,126,54.8z"/>
<path fill="#F37335" d="M131.9,58.2l-0.2-0.1c-0.8-0.5-1.4-1.6-1.4-2.6V40.2c0-1,0.6-1.5,1.4-1.1l0.2,0.1c0.8,0.5,1.4,1.6,1.4,2.6
	v15.3C133.3,58.1,132.7,58.6,131.9,58.2z"/>
<path fill="#1E2430" d="M262.8,134.8L237,119.9c-0.5-0.3-1-0.3-1.3-0.1l0,0l-2.5,1.5c0,0,1.2,0.4,1.7,0.7v18.8
	c0,1.6,0.9,3.3,2.1,3.9l24.7,14.2v2.2l2.6-1.5l0,0c0.4-0.3,0.7-0.8,0.7-1.7v-19.2C264.9,137.2,264,135.4,262.8,134.8z"/>
<path fill="#FDC830" d="M260.3,161l-25.8-14.9c-1.2-0.7-2.1-2.4-2.1-3.9V123c0-1.6,0.9-2.2,2.1-1.6l25.8,14.9
	c1.2,0.7,2.1,2.4,2.1,3.9v19.2C262.4,161,261.4,161.7,260.3,161z"/>
<path fill="#FFFFFF" d="M243.2,139.4c0,1.2-0.8,1.6-1.7,1c-0.9-0.5-1.7-1.9-1.7-3c0-1.2,0.8-1.6,1.7-1
	C242.3,137,243.2,138.3,243.2,139.4z"/>
<path fill="#FFFFFF" d="M248.4,142.5c0,1.2-0.8,1.6-1.7,1c-0.9-0.5-1.7-1.9-1.7-3c0-1.2,0.8-1.6,1.7-1
	C247.7,140.1,248.4,141.4,248.4,142.5z"/>
<path fill="#FFFFFF" d="M253.7,145.6c0,1.2-0.8,1.6-1.7,1c-0.9-0.5-1.7-1.9-1.7-3c0-1.2,0.8-1.6,1.7-1
	C253,143.1,253.7,144.4,253.7,145.6z"/>
<path fill="#FDC830" d="M123.5,178.1l-25.8-14.9c-1.2-0.7-2.1-2.4-2.1-3.9v-43.2c0-1.6,0.9-2.2,2.1-1.6l25.8,14.9
	c1.2,0.7,2.1,2.4,2.1,3.9v43.2C125.6,178,124.6,178.8,123.5,178.1z"/>
<path fill="#1E2430" d="M121,123.6l-25.9-14.9c-0.5-0.3-1-0.3-1.3-0.1l0,0l-2.5,1.5c0,0,1.2,0.4,1.7,0.7v42.8c0,1.6,0.9,3.3,2.1,3.9
	l24.7,14.2v2.2l2.6-1.5l0,0c0.4-0.3,0.7-0.8,0.7-1.7v-43.2C123,126.1,122.1,124.3,121,123.6z"/>
<path fill="#C6D5F6" d="M118.4,173.8l-25.8-14.9c-1.2-0.7-2.1-2.4-2.1-3.9v-43.2c0-1.6,0.9-2.2,2.1-1.6l25.8,14.9
	c1.2,0.7,2.1,2.4,2.1,3.9v43.2C120.5,173.8,119.5,174.5,118.4,173.8z"/>
<path fill="#C6D5F6" d="M118.4,125.1l-25.8-14.9c-0.7-0.4-1.2-0.3-1.6,0.1c0.3,0,0.6,0.1,0.9,0.2l25.8,14.9c1.2,0.7,2.1,2.4,2.1,3.9
	v43.2c0,0.7-0.2,1.2-0.5,1.5c0.7-0.1,1.2-0.8,1.2-1.8V129C120.5,127.5,119.5,125.8,118.4,125.1z"/>
<g>
	<polygon fill="#1E2430" points="113.6,134.8 96.3,124.8 96.3,123.6 113.6,133.6 	"/>
	<polygon fill="#1E2430" points="108.4,137.3 96.3,130.3 96.3,129.1 108.4,136 	"/>
	<polygon fill="#1E2430" points="106.8,133.6 96.3,127.6 96.3,126.3 106.8,132.3 	"/>
	<polygon fill="#1E2430" points="113.6,137.6 108.4,134.6 108.4,133.3 113.6,136.3 	"/>
	<polygon fill="#1E2430" points="113.6,145.4 96.3,135.3 96.3,134.2 113.6,144.1 	"/>
	<polygon fill="#1E2430" points="108.4,147.8 96.3,140.8 96.3,139.6 108.4,146.6 	"/>
	<polygon fill="#1E2430" points="106.8,144.2 96.3,138.1 96.3,136.8 106.8,142.9 	"/>
	<polygon fill="#1E2430" points="113.6,148.1 108.4,145.1 108.4,143.8 113.6,146.8 	"/>
	<polygon fill="#1E2430" points="113.6,155.9 96.3,145.9 96.3,144.6 113.6,154.6 	"/>
	<polygon fill="#1E2430" points="108.4,158.3 96.3,151.3 96.3,150.1 108.4,157 	"/>
	<polygon fill="#1E2430" points="106.8,154.6 96.3,148.7 96.3,147.4 106.8,153.4 	"/>
	<polygon fill="#1E2430" points="113.6,158.6 108.4,155.6 108.4,154.4 113.6,157.4 	"/>
</g>
<polygon fill="#FFFFFF" points="51.7,145.6 50.6,145 50.6,135.7 51.7,136.3 "/>
<polygon fill="#FFFFFF" points="49.2,144.2 48.1,143.5 48.1,134.2 49.2,134.9 "/>
<polygon fill="#FFFFFF" points="46.6,142.7 45.6,142.1 45.6,132.8 46.6,133.4 "/>
<polyline fill="none" stroke="#1E2430" stroke-width="2" stroke-linecap="round" stroke-linejoin="round" stroke-miterlimit="10" points="
	124.4,30.6 124.4,12.6 184.1,46.8 "/>
<polyline fill="none" stroke="#1E2430" stroke-width="2" stroke-linecap="round" stroke-linejoin="round" stroke-miterlimit="10" points="
	234.5,93.3 250.1,102.5 250.1,124.7 "/>
<g enable-background="new    ">
	<g>
		<g>
			<g>
				<g>
					<g>
						<g>
							<g>
								<g>
									<defs>
										<path id="SVGID_1_" d="M225.3-23.4l1.2-1c0.5-0.5,1.1-0.8,1.7-1l-1.2,1.2C226.3-24.2,225.7-23.8,225.3-23.4z"/>
									</defs>
									<clipPath id="SVGID_2_">
										<use xlink:href="#SVGID_1_"  overflow="visible"/>
									</clipPath>
									<g clip-path="url(#SVGID_2_)" enable-background="new    ">
										<path fill="#303765" d="M225.3-23.4l1.2-1c0.5-0.5,1.1-0.8,1.7-1l-1.2,1.2C226.3-24.2,225.7-23.8,225.3-23.4"/>
									</g>
								</g>
							</g>
						</g>
					</g>
				</g>
			</g>
		</g>
	</g>
</g>
<g>
	<path fill="#393E52" d="M66.8,93.1c0,0,0.3,7.5,1,12.6c0.5,5,12.8-4,12.8-4V96L66.8,93.1z"/>
	<g>
		<path fill="#FDC830" d="M73.4,187.3c0.2,0.5,3.3,4.3,6.5,5.4c1.4,0.4,2.2,0.5,2.9,0.4c0.6-0.1,1-0.7,0.9-1.2
			c-0.5-1.5-2.1-4.7-6-6.7C72.2,182.2,73.4,187.3,73.4,187.3z"/>
		<path fill="#FDC830" d="M72.4,188.6c0,0,1.2,2.9,1.5,5.1c0.2,1.5-0.5,3.3-1.2,4.5c-0.4,0.9-1.5,1-2,0.3c-1.1-1-2.4-2.6-2.6-4.9
			c-0.3-4,0-4.6,0-4.6L72.4,188.6z"/>
		<path fill="#FFFFFF" d="M64.8,140.9c0,0-0.4,5,0,10.5c0.4,5.5,1.9,31.4,2.2,37.6c0,0-0.2,1.9,3.5,1.5c3.6-0.4,3.3-2.6,3.3-2.6
			s5.1-0.1,5.2-3.1c0.2-3,5.2-36,5.2-47.8L64.8,140.9z"/>
		<g>
			<path fill="#FFCABA" d="M86.1,115.1l2.6,3.9l8.6,10.5c0,0-0.3,1-1.4,1.2c-0.9,0.2-8.1-6.7-11.2-9.7c-0.9-0.9-1-2.1-0.3-3
				L86.1,115.1z"/>
			<path fill="#FDC830" d="M81.3,99.2c0,0,4-0.1,5.4,5.7c1.4,5.7,2.5,12.9,1.2,13.6c-3.6,1.8-5.9-0.3-5.9-0.3L81.3,99.2z"/>
			<path fill="#FDC830" d="M82.4,99.5c-0.7-0.3-1.5-0.3-2.1-0.2c-3.3,1-16.2,4.7-18.2,6.5c-2.5,2.1,3.6,13.7,3.6,17.5
				c-0.1,3.9-0.5,8.3-0.9,12.5s-0.9,6.4,2.6,8.1c3.3,1.8,9.2,1.9,13.6-1.5c4.3-3.3,3.6-5.6,3.3-8c-0.2-2.4-1.6-12.8-1.5-15.7
				c0,0,1.5-1.2,2.6-3c1.2-1.9-0.9-5.5-1.7-7.8c-0.9-2.2,0.5-5,0.2-6.7C83.7,100.2,83.1,99.7,82.4,99.5z"/>
			
				<ellipse transform="matrix(-0.127 -0.9919 0.9919 -0.127 -20.3389 190.3226)" fill="#FFFFFF" cx="73.6" cy="104.1" rx="3.9" ry="4.8"/>
			
				<ellipse transform="matrix(-0.1271 -0.9919 0.9919 -0.1271 -20.238 190.2067)" fill="#FFCABA" cx="73.6" cy="104" rx="2.7" ry="3.4"/>
			<path fill="#FFCABA" d="M75.1,98.7c0,0-2.2-1.9-2.7-1c-0.4,1-0.9,5-0.9,5l4.6,1.2l-0.7-4.2C75.5,99.8,76.4,99.1,75.1,98.7z"/>
			<circle fill="#FFCABA" cx="75.5" cy="93.7" r="6.7"/>
			<path fill="#EA9388" d="M72,98.9c-0.1,0.2-0.1,0.4-0.2,0.7c0.5,2.4,4,3.4,4,3.4l-0.5-3.2c0,0,0.4-0.3,0.3-0.7
				C74.4,98.8,72.6,98.3,72,98.9z"/>
			<circle fill="#FFCABA" cx="75.5" cy="93.7" r="6.7"/>
			<polygon fill="#FFCABA" points="58.6,122.6 59.5,140.8 62,141.1 63.7,124.8 			"/>
			<path fill="#D8A016" d="M67.5,121.1c-0.2-0.6-1.3-1.2-1.5-1.9c-0.9-4.3-1.2-10.5-1.2-10.5l-0.7,8.6c0.9,2.6,1.6,4.9,1.5,6.2
				c-0.1,2.2-0.2,4.7-0.4,7.2l0,0C65.1,130.6,68.3,125,67.5,121.1z"/>
			<path fill="#FDC830" d="M62.7,105.5c0,0-2.1,0.9-3.3,7.4c-1.2,6.5-2.1,13.1,0.1,13.9c2.2,0.9,4,1.5,4.6-0.2
				c0.6-1.7,1.1-10.2,1.1-13.3S65.1,106,62.7,105.5z"/>
			<path fill="#FFCABA" d="M96.6,128.6c0,0,1.2,0.4,1.9,1.3c0.7,0.7,1.1,1.4,1.3,1.8c0.6,1,1.2,3.1,0.9,3.3
				c-0.4,0.2-2.7-3.6-3.1-2.7c-0.4,0.9,0,1.7-0.5,1.7s-2.1-3.9-3.5-5C92.4,128,96.6,128.6,96.6,128.6z"/>
		</g>
		<path fill="#323A4F" d="M73.8,187.9c0,0,0.6,0,1.5-0.2l0,0l1-40.1L73.8,187.9z"/>
	</g>
	<path fill="#323A4F" d="M70.7,150.9L70.7,150.9c0-0.1,0-0.1-0.1-0.2l-0.1-0.1c0,0-0.1-0.1-0.1-0.2c-0.1-0.1-0.3-0.3-0.4-0.4
		l-16.8-9.6c-0.2-0.2-0.4-0.2-0.5-0.1l-0.9,0.5l0.9,1.2v12.2c0,0.6,0.4,1.4,0.9,1.6l4.9,2.9v0.1l1.1,0.5l0,0l8.9,5.1l1.5,1.9
		l0.6-0.5c0.2-0.2,0.3-0.4,0.3-0.7v-13.3C70.9,151.4,70.8,151.2,70.7,150.9z"/>
	<path fill="#C6D5F6" d="M69.3,150.6l-16.9-9.8c-0.5-0.2-0.9,0-0.9,0.6v13.3c0,0.6,0.4,1.4,0.9,1.6l16.9,9.8c0.5,0.2,0.9,0,0.9-0.6
		v-13.3C70.3,151.6,69.8,150.8,69.3,150.6z"/>
	<polygon fill="#323A4F" points="65.9,160.1 65.1,159.6 65.1,152.7 65.9,153.2 	"/>
	<polygon fill="#323A4F" points="64.1,159 63.1,158.6 63.1,151.6 64.1,152.2 	"/>
	<polygon fill="#323A4F" points="62,158 61.4,157.5 61.4,150.6 62,151.1 	"/>
	<path fill="#FFC2B0" d="M59.5,140.8c0,0-0.7,4.3-0.5,5.7c0.1,1.3,0.9,3.6,1.4,3.6c0.5-0.1,0-5.5,1-5c1,0.5,1.1,1.5,1.5,1.2
		c0.4-0.3-0.9-5-0.4-7.1C62.7,137.1,59.5,140.8,59.5,140.8z"/>
	<path fill="#393E52" d="M82.5,87.4c-0.9-0.7-3.7-4.1-8.9-3.3c-3.3,0.5-6,2.7-6.6,7.8c-0.4,3.4,0.9,6.7,3.2,9.3
		c0.2-0.1,0.2-0.2,0.4-0.2c1.3-0.9,1.5-1.3,1.5-1.3l0.3-2.6c0-0.3-0.3-0.7-0.6-0.7s-0.5-0.2-1-0.5c-0.7-1-0.4-2.6,1.1-2.6
		c0.9-0.1,1.1-0.4,1.2-0.9c0.1-0.3,0.5-0.5,0.9-0.4c1.7,0.5,5.9,1.9,8.6,1.2C85.8,92.1,83.4,88.1,82.5,87.4z"/>
</g>
</svg>
