<?xml version="1.0" encoding="utf-8"?>
<!-- Generator: Adobe Illustrator 18.0.0, SVG Export Plug-In . SVG Version: 6.00 Build 0)  -->
<!DOCTYPE svg PUBLIC "-//W3C//DTD SVG 1.1//EN" "http://www.w3.org/Graphics/SVG/1.1/DTD/svg11.dtd">
<svg version="1.1" id="Layer_1" xmlns="http://www.w3.org/2000/svg" xmlns:xlink="http://www.w3.org/1999/xlink" x="0px" y="0px"
	 viewBox="0 0 300 300" enable-background="new 0 0 300 300" xml:space="preserve">
<g>
	<g>
		<path fill="#1E2430" d="M245.7,234.7c-53.3,30.8-139.6,30.8-192.9,0s-53.3-80.5,0-111.3s139.6-30.8,192.9,0S299,204,245.7,234.7z"
			/>
		<path fill="#323A4F" d="M245.7,238.2c-53.3,30.8-139.6,30.8-192.9,0s-53.3-80.5,0-111.3s139.6-30.8,192.9,0S299,207.5,245.7,238.2
			z"/>
		<g>
			
				<linearGradient id="SVGID_1_" gradientUnits="userSpaceOnUse" x1="112.3789" y1="119.0332" x2="112.3789" y2="174.8332" gradientTransform="matrix(1 0 0 -1 0 300)">
				<stop  offset="0" style="stop-color:#D45011"/>
				<stop  offset="0.457" style="stop-color:#FF8245"/>
			</linearGradient>
			<polygon fill="url(#SVGID_1_)" points="105,181 105,131.7 119.7,125.2 119.7,174.4 			"/>
			<polygon fill="#FF8245" points="89.5,173.8 89.5,124.5 104.2,117.9 104.2,167.2 			"/>
			
				<linearGradient id="SVGID_2_" gradientUnits="userSpaceOnUse" x1="97.2789" y1="118.9332" x2="97.2789" y2="175.5332" gradientTransform="matrix(1 0 0 -1 0 300)">
				<stop  offset="0" style="stop-color:#D45011"/>
				<stop  offset="1" style="stop-color:#FF8245"/>
			</linearGradient>
			<polygon fill="url(#SVGID_2_)" points="89.5,173.8 89.5,124.5 105,131.9 105,181.1 			"/>
			
				<linearGradient id="SVGID_3_" gradientUnits="userSpaceOnUse" x1="89.5289" y1="175.1332" x2="119.6892" y2="175.1332" gradientTransform="matrix(1 0 0 -1 0 300)">
				<stop  offset="0" style="stop-color:#D45011"/>
				<stop  offset="0.4409" style="stop-color:#FF8245"/>
			</linearGradient>
			<polygon fill="url(#SVGID_3_)" points="89.5,124.5 105,131.9 119.7,125.3 104.2,117.9 			"/>
		</g>
		<g>
			
				<linearGradient id="SVGID_4_" gradientUnits="userSpaceOnUse" x1="86.9789" y1="109.8367" x2="86.9789" y2="195.6367" gradientTransform="matrix(1 0 0 -1 0 300)">
				<stop  offset="0" style="stop-color:#FD980C"/>
				<stop  offset="0.457" style="stop-color:#FDC830"/>
			</linearGradient>
			<polygon fill="url(#SVGID_4_)" points="79.6,190.2 79.6,110.9 94.3,104.4 94.3,183.6 			"/>
			<polygon fill="#FDC830" points="64.1,183 64.1,103.7 78.8,97.1 78.8,176.4 			"/>
			
				<linearGradient id="SVGID_5_" gradientUnits="userSpaceOnUse" x1="71.8789" y1="109.7367" x2="71.8789" y2="196.3367" gradientTransform="matrix(1 0 0 -1 0 300)">
				<stop  offset="0" style="stop-color:#FD980C"/>
				<stop  offset="1" style="stop-color:#FDC830"/>
			</linearGradient>
			<polygon fill="url(#SVGID_5_)" points="64.1,183 64.1,103.7 79.6,111 79.6,190.3 			"/>
			
				<linearGradient id="SVGID_6_" gradientUnits="userSpaceOnUse" x1="64.1622" y1="195.9867" x2="94.3225" y2="195.9867" gradientTransform="matrix(1 0 0 -1 0 300)">
				<stop  offset="0" style="stop-color:#FD980C"/>
				<stop  offset="1" style="stop-color:#FDC830"/>
			</linearGradient>
			<polygon fill="url(#SVGID_6_)" points="64.1,103.7 79.6,111 94.3,104.5 78.8,97.1 			"/>
		</g>
		<g>
			<polygon fill="#1E2430" points="75.2,85 87.3,78.1 87.3,77.2 75.2,84.2 			"/>
			<polygon fill="#1E2430" points="78.9,86.7 87.3,81.9 87.3,81 78.9,85.9 			"/>
			<polygon fill="#1E2430" points="80,84.2 87.3,80 87.3,79.1 80,83.3 			"/>
			<polygon fill="#1E2430" points="75.2,87 78.9,84.9 78.9,84 75.2,86.1 			"/>
			<polygon fill="#1E2430" points="75.2,92.4 87.3,85.4 87.3,84.6 75.2,91.5 			"/>
			<polygon fill="#1E2430" points="78.9,94.1 87.3,89.2 87.3,88.4 78.9,93.3 			"/>
			<polygon fill="#1E2430" points="80,91.6 87.3,87.3 87.3,86.5 80,90.7 			"/>
			<polygon fill="#1E2430" points="75.2,94.3 78.9,92.2 78.9,91.3 75.2,93.4 			"/>
			<polygon fill="#1E2430" points="75.2,99.7 87.3,92.8 87.3,91.9 75.2,98.8 			"/>
			<polygon fill="#1E2430" points="78.9,101.4 87.3,96.5 87.3,95.7 78.9,100.6 			"/>
			<polygon fill="#1E2430" points="80,98.8 87.3,94.7 87.3,93.8 80,98.1 			"/>
			<polygon fill="#1E2430" points="75.2,101.6 78.9,99.5 78.9,98.7 75.2,100.8 			"/>
		</g>
	</g>
	<path fill="#1E2430" d="M223.2,201.2l-47.7-27.6c-1.7-1-1.4-2.6,0.4-3.8l0,0c1.9-1.1,4.8-1.3,6.6-0.3l47.7,27.6
		c1.7,1,1.4,2.6-0.4,3.8l0,0C227.8,202.1,224.8,202.3,223.2,201.2z"/>
	<path fill="#FDC830" d="M237.7,63.7c-1-3.6-3.3-7-5.9-8.5l-51.5-29.6c-1.7-1-3.2-1-4.4-0.3l-6.6,3.8l4.3,0.8c0,0.2-0.1,0.4-0.1,0.7
		v121.3c0,4.8,2.9,10.4,6.6,12.5l37.2,21.4l13.5,7.8c-0.4,1.4-1.4,4.5-1.4,4.5l0.2-0.1c0,0.1-0.1,0.2-0.1,0.2l6.3-3.7
		c1.4-0.8,2.4-2.6,2.4-5.4V67.8C238.3,66.5,238.1,65.1,237.7,63.7z"/>
	<path fill="#1E2430" d="M225.3,197.8l-51.4-29.7c-3.6-2.1-6.6-7.7-6.6-12.5V34.3c0-4.8,2.9-7,6.6-5L225.3,59
		c3.6,2.1,6.6,7.7,6.6,12.5v121.3C231.8,197.6,229,199.9,225.3,197.8z"/>
	<path fill="#FFFFFF" d="M225.9,58.6l-51.4-29.7c-1.8-1-3.5-1-4.7-0.1c1.1-0.6,2.5-0.4,4,0.4L225.3,59c3.6,2.1,6.6,7.7,6.6,12.5
		v121.3c0,2.4-0.7,4-1.8,5c1.5-0.8,2.5-2.6,2.5-5.4V71.1C232.5,66.4,229.6,60.7,225.9,58.6z"/>
	<path fill="#FFFFFF" d="M224.3,193.8L175,165.2c-2.7-1.5-4.9-5.7-4.9-9.3V36.4c0-3.6,2.2-5.2,4.9-3.7l49.4,28.6
		c2.7,1.5,4.9,5.7,4.9,9.3v119.5C229.2,193.7,227,195.3,224.3,193.8z"/>
	<path fill="#323A4F" d="M209.1,172.9l-0.2-0.1c-0.4-0.3-0.8-1-0.8-1.6v-6.6c0-0.6,0.3-0.9,0.8-0.6l0.2,0.1c0.4,0.3,0.8,1,0.8,1.6
		v6.6C210,172.9,209.6,173.1,209.1,172.9z"/>
	<path fill="#FDC830" d="M212.7,174.9l-0.2-0.1c-0.4-0.3-0.8-1-0.8-1.6v-3.9c0-0.6,0.3-0.9,0.8-0.6l0.2,0.1c0.4,0.3,0.8,1,0.8,1.6
		v3.9C213.5,174.9,213.2,175.2,212.7,174.9z"/>
	<path fill="#F37335" d="M216.3,177l-0.2-0.1c-0.4-0.3-0.8-1-0.8-1.6V166c0-0.6,0.3-0.9,0.8-0.6l0.2,0.1c0.4,0.3,0.8,1,0.8,1.6v9.3
		C217.1,176.9,216.8,177.2,216.3,177z"/>
	<path fill="#EFEFEF" d="M198.1,131.4l-15.7-9.1c-0.7-0.4-1.3-1.4-1.3-2.4V93.6c0-1,0.6-1.3,1.3-1l15.7,9.1c0.7,0.4,1.3,1.4,1.3,2.4
		v26.3C199.3,131.4,198.8,131.9,198.1,131.4z"/>
	<path fill="#F37335" d="M196.5,98.4l-15.7-9.1c-0.3-0.2-0.6-0.2-0.8-0.1l0,0l-1.5,0.9c0,0,0.7,0.3,1,0.4v26c0,1,0.6,2,1.3,2.4
		l15,8.7v1.3l1.5-0.9l0,0c0.3-0.2,0.4-0.5,0.4-1v-26.3C197.8,99.8,197.2,98.8,196.5,98.4z"/>
	<path fill="#1E2430" d="M194.6,129.2l-15.7-9.1c-0.7-0.4-1.3-1.4-1.3-2.4V91.4c0-1,0.6-1.3,1.3-1l15.7,9.1c0.7,0.4,1.3,1.4,1.3,2.4
		v26.3C195.9,129.2,195.3,129.6,194.6,129.2z"/>
	<path fill="#FFFFFF" d="M194.9,99.3l-15.7-9.2c-0.4-0.3-0.8-0.2-1,0.1c0.2,0,0.3,0.1,0.6,0.2l15.7,9.1c0.7,0.4,1.3,1.4,1.3,2.4
		v26.3c0,0.4-0.2,0.7-0.3,0.9c0.4-0.1,0.7-0.4,0.7-1.1v-26.3C196.2,100.7,195.6,99.6,194.9,99.3z"/>
	<path fill="#FDC830" d="M189.4,102.8c0,1.4-1,2-2.3,1.3c-1.3-0.8-2.3-2.5-2.3-3.9s1-2,2.3-1.3C188.3,99.5,189.4,101.3,189.4,102.8z
		"/>
	<path fill="#FDC830" d="M190.3,106.9C190.3,106.8,190.3,106.8,190.3,106.9c-0.1-0.7-0.7-1.2-1-1.1c-0.6,0.2-1.3,0.2-2.2-0.3
		c-0.8-0.5-1.6-1.3-2.2-2.2c-0.3-0.6-1-0.7-1-0.2v0.1l-1.1,6.9l8.7,5L190.3,106.9z"/>
	<polygon fill="#FFFFFF" points="192.1,120.4 181.5,114.2 181.5,113.5 192.1,119.5 	"/>
	<polygon fill="#F37335" points="188.9,121.8 181.5,117.6 181.5,116.7 188.9,121 	"/>
	<polygon fill="#F37335" points="187.9,119.5 181.5,115.9 181.5,115.2 187.9,118.8 	"/>
	<polygon fill="#FFFFFF" points="192.1,122 188.9,120.1 188.9,119.4 192.1,121.3 	"/>
	<path fill="#EFEFEF" d="M224.2,148.7l-15.6-9.1c-0.7-0.4-1.3-1.4-1.3-2.4V111c0-1,0.6-1.3,1.3-1l15.7,9.1c0.7,0.4,1.3,1.4,1.3,2.4
		v26.3C225.4,148.7,224.9,149.2,224.2,148.7z"/>
	<path fill="#FDC830" d="M222.7,115.6l-15.8-9c-0.3-0.2-0.6-0.2-0.8-0.1l0,0l-1.5,0.9c0,0,0.7,0.3,1,0.4v26c0,1,0.6,2,1.3,2.4
		l15,8.7v1.3l1.5-0.9l0,0c0.3-0.2,0.4-0.5,0.4-1v-26.3C223.9,117.1,223.3,116,222.7,115.6z"/>
	<path fill="#1E2430" d="M221.1,146.1l-15.7-9.1c-0.7-0.4-1.3-1.4-1.3-2.4v-26.3c0-1,0.6-1.3,1.3-1l15.7,9.1
		c0.7,0.4,1.3,1.4,1.3,2.4v26.4C222.4,146.1,221.7,146.5,221.1,146.1z"/>
	<path fill="#FFFFFF" d="M221.1,116.5l-15.7-9.1c-0.4-0.3-0.8-0.2-1,0.1c0.2,0,0.3,0.1,0.6,0.2l15.7,9.1c0.7,0.4,1.3,1.4,1.3,2.4
		v26.3c0,0.4-0.2,0.7-0.3,0.9c0.4-0.1,0.7-0.4,0.7-1.1V119C222.4,118,221.7,116.9,221.1,116.5z"/>
	<polygon fill="#F37335" points="218.2,122.5 207.7,116.3 207.7,115.6 218.2,121.7 	"/>
	<polygon fill="#FDC830" points="215,123.9 207.7,119.7 207.7,118.9 215,123.1 	"/>
	<polygon fill="#FFFFFF" points="214.1,121.7 207.7,118 207.7,117.3 214.1,120.9 	"/>
	<polygon fill="#FFFFFF" points="218.2,124.1 215,122.2 215,121.5 218.2,123.3 	"/>
	<polygon fill="#FFFFFF" points="218.2,128.8 207.7,122.7 207.7,122 218.2,128.1 	"/>
	<polygon fill="#F37335" points="215,130.3 207.7,126.1 207.7,125.3 215,129.6 	"/>
	<polygon fill="#F37335" points="214.1,128.1 207.7,124.4 207.7,123.6 214.1,127.3 	"/>
	<polygon fill="#FDC830" points="218.2,130.5 215,128.7 215,127.8 218.2,129.7 	"/>
	<polygon fill="#F37335" points="218.2,135.2 207.7,129.2 207.7,128.4 218.2,134.5 	"/>
	<polygon fill="#FFFFFF" points="215,136.7 207.7,132.5 207.7,131.7 215,135.9 	"/>
	<polygon fill="#FDC830" points="214.1,134.5 207.7,130.9 207.7,130.1 214.1,133.7 	"/>
	<polygon fill="#F37335" points="218.2,136.9 215,135 215,134.3 218.2,136.1 	"/>
	<g>
		<polygon fill="#FFFFFF" points="185,133.5 177.6,129.2 177.6,128.5 185,132.8 		"/>
		<polygon fill="#FFFFFF" points="189.7,136.2 186.5,134.3 186.5,133.6 189.7,135.5 		"/>
		<polygon fill="#FFFFFF" points="185.3,135.1 182.1,133.3 182.1,132.6 185.3,134.5 		"/>
		<polygon fill="#FFFFFF" points="192.2,139.2 186.5,135.8 186.5,135.1 192.2,138.5 		"/>
		<polygon fill="#FFFFFF" points="196.2,142.9 187.7,138.1 187.7,137.3 196.2,142.2 		"/>
		<polygon fill="#FFFFFF" points="194.3,138.8 191,136.9 191,136.2 194.3,138.1 		"/>
		<polygon fill="#FFFFFF" points="180.7,132.5 177.6,130.6 177.6,129.9 180.7,131.8 		"/>
		<polygon fill="#FFFFFF" points="186.3,137.2 177.5,132.1 177.5,131.4 186.3,136.5 		"/>
		<polygon fill="#FFFFFF" points="182.9,136.8 177.6,133.7 177.6,133 182.9,136.1 		"/>
	</g>
	<path fill="#EFEFEF" d="M222.2,100.2l-41.1-23.8c-2.6-1.5-4.8-5.7-4.8-9.2l0,0c0-3.5,2.2-5.2,4.8-3.6l41.1,23.8
		c2.6,1.5,4.8,5.7,4.8,9.2l0,0C226.9,100.1,224.8,101.8,222.2,100.2z"/>
	<path fill="#FDC830" d="M225.9,94.2c0-3.5-2.2-7.7-4.8-9.2l-41.1-23.8c-1.3-0.8-2.4-0.8-3.2-0.2l0,0l-2,1.2l1,0.2
		c-0.3,0.7-0.6,1.5-0.6,2.6l0,0c0,3.5,2.2,7.7,4.8,9.2L221.1,98c0.6,0.3,1,0.5,1.4,0.6l-0.3,0.8l2-1.1l0,0
		C225.3,97.5,225.9,96.1,225.9,94.2z"/>
	<path fill="#1E2430" d="M219.2,99l-41.1-23.8c-2.6-1.5-4.8-5.7-4.8-9.2l0,0c0-3.5,2.2-5.2,4.8-3.6l41.1,23.8
		c2.6,1.5,4.8,5.7,4.8,9.2l0,0C224,98.9,221.8,100.6,219.2,99z"/>
	<path fill="#FFFFFF" d="M219.6,85.9l-41.1-23.8c-1.3-0.8-2.6-0.8-3.4-0.1c0.8-0.4,1.8-0.3,3,0.3l41.1,23.8c2.6,1.5,4.8,5.7,4.8,9.2
		c0,1.8-0.6,3-1.3,3.7c1.1-0.6,1.8-1.9,1.8-3.9C224.4,91.6,222.2,87.5,219.6,85.9z"/>
	<path fill="#EFEFEF" d="M206.7,71.7l-25.5-14.6c-2.6-1.5-4.8-5.7-4.8-9.2l0,0c0-3.5,2.2-5.2,4.8-3.6L206.7,59
		c2.6,1.5,4.8,5.7,4.8,9.2l0,0C211.6,71.7,209.4,73.3,206.7,71.7z"/>
	<path fill="#F37335" d="M210.4,65.8c0-3.5-2.2-7.7-4.8-9.2l-25.5-14.7c-1.3-0.8-2.4-0.8-3.2-0.2l0,0l-2,1.2l1,0.2
		c-0.3,0.7-0.6,1.5-0.6,2.6l0,0c0,3.5,2.2,7.7,4.8,9.2l25.4,14.6c0.6,0.3,1,0.5,1.4,0.6l-0.3,0.8l2-1.2l0,0
		C209.7,69,210.4,67.8,210.4,65.8z"/>
	<path fill="#1E2430" d="M203.5,70.6l-25.5-14.7c-2.6-1.5-4.8-5.7-4.8-9.2l0,0c0-3.5,2.2-5.2,4.8-3.6l25.5,14.7
		c2.6,1.5,4.8,5.7,4.8,9.2l0,0C208.4,70.6,206.2,72.1,203.5,70.6z"/>
	<path fill="#FFFFFF" d="M203.9,57.4l-25.5-14.7c-1.3-0.8-2.6-0.8-3.4-0.1c0.8-0.4,1.8-0.3,3,0.3l25.5,14.7c2.6,1.5,4.8,5.7,4.8,9.2
		c0,1.8-0.6,3-1.3,3.7c1.1-0.6,1.8-1.9,1.8-3.9C208.8,63.2,206.6,59,203.9,57.4z"/>
	<g>
		<polygon fill="#FDC830" points="192.1,57.1 181.5,51.1 181.5,50.2 192.1,56.4 		"/>
		<polygon fill="#FDC830" points="200.5,62 193.1,57.7 193.1,56.9 200.5,61.2 		"/>
		<polygon fill="#FDC830" points="187.9,56.4 181.5,52.7 181.5,52 187.9,55.6 		"/>
		<polygon fill="#FDC830" points="192.1,58.8 188.9,56.9 188.9,56.2 192.1,58 		"/>
	</g>
	<g>
		<polygon fill="#F37335" points="216.9,91.1 206.3,85 206.3,84.2 216.9,90.4 		"/>
		<polygon fill="#F37335" points="205.4,84.5 198,80.2 198,79.5 205.4,83.7 		"/>
		<polygon fill="#F37335" points="212.7,90.4 206.3,86.7 206.3,85.9 212.7,89.6 		"/>
		<polygon fill="#F37335" points="216.9,92.8 213.7,91 213.7,90.1 216.9,92 		"/>
		<polygon fill="#F37335" points="205.4,86.2 202.2,84.2 202.2,83.5 205.4,85.3 		"/>
	</g>
	<linearGradient id="SVGID_7_" gradientUnits="userSpaceOnUse" x1="84.9783" y1="199.8671" x2="202.7955" y2="199.8671">
		<stop  offset="0" style="stop-color:#FD980C"/>
		<stop  offset="1" style="stop-color:#FDC830"/>
	</linearGradient>
	
		<polyline fill="none" stroke="url(#SVGID_7_)" stroke-width="2" stroke-linecap="round" stroke-linejoin="round" stroke-miterlimit="10" points="
		86,186.9 141.5,216.4 201.8,183.3 	"/>
	<polygon fill="#FDC830" points="197,79.7 191,76.2 191,75.5 197,78.9 	"/>
	<g>
		<path fill="#FDC830" d="M177.7,202.6c-1,0.4-1.7,1.6-1.6,2.9c0.1,0.6,0.2,1.2,0.3,1.4c0.3,0.8,1.4,1.7,3.1,0.9
			c1.8-0.7,5.6-4.4,5.8-6.7C185.5,196.7,180.4,201.4,177.7,202.6z"/>
		<path fill="#FDC830" d="M188,210c0,0-0.4,2.6-0.2,3.1c0.2,0.5,1.4,1.5,3.2,1.3c1.8-0.2,7-2,8.1-5.4c1.8-5.3-9.9,0.4-9.9,0.4
			L188,210z"/>
		<path fill="#FFFFFF" d="M193,169.1l0.4,39.9c-0.1,1.4-0.9,2.6-2.2,2.8c-0.2,0.1-0.3,0.1-0.5,0.1c-1.3,0.2-2-0.4-2.4-0.9
			c-0.3-0.4-0.5-1-0.5-1.6l-0.5-17.1l-2.6-15.2l-3.5,27c-0.1,0.8-0.4,1.4-0.9,1.8c-0.4,0.3-0.9,0.4-1.6,0.4c-1-0.1-1.7-0.5-2.1-1
			c-0.3-0.4-0.5-0.9-0.5-1.4l1.4-16.2l0.5-20.7L193,169.1z"/>
		<path fill="#FFD2B3" d="M187.9,133.3l-0.6,3.7c0,0-0.1,1.3,1.3,1.6c1.4,0.3,1.8-0.5,1.8-0.5l0.6-4.1L187.9,133.3z"/>
		<path fill="#FFD2B3" d="M195.5,131.3c-1,3.1-4,4.9-6.8,4c-2.8-0.9-4.2-4.1-3.3-7.2c1-3.1,4-4.9,6.8-4
			C195,124.9,196.5,128.2,195.5,131.3z"/>
		<path fill="#FDC830" d="M188,137c-0.1-0.1-5.9-3.8-8.1,0.2c-3.4,6.4-0.9,13.7-2.2,29.5c-0.2,2.7,3.5,4.2,5.3,5.3
			c1.6,0.9,3.4,1.4,5.2,1.5c1.8,0,5.3-1.6,5.1-3.9c-0.5-10.8,0.4-20.1,1.3-29C194.9,140.4,193.7,139.3,188,137z"/>
		<polygon fill="#FFD2B3" points="206.8,140.3 211.7,130.6 210.1,129.7 205.1,137.1 		"/>
		<polygon fill="#FFD2B3" points="174.9,130.1 177.2,119.4 179.1,119.4 178.4,128.3 		"/>
		<path fill="#FDC830" d="M194.9,140.4c0,0,5.4,2.1,10.1-3.8c0.4-0.5,1.3-0.4,1.5,0.1c0.4,0.9,0.9,2.4,0.3,3.8
			c-2.8,6-12.4,5.8-14.7,9.2C189.7,153.2,194.9,140.4,194.9,140.4z"/>
		<path fill="#FDC830" d="M184.4,135.6c0,0-4.5,0.3-5.1-3.5c-0.3-2-0.4-3.1-0.4-3.9c0-0.5-0.4-0.8-0.9-0.8c-1.1,0.2-2.7,0.4-3,1.2
			c-0.3,1.1-0.9,6.3,3.4,14.4C181.3,148.3,184.4,135.6,184.4,135.6z"/>
		<path fill="#FFD2B3" d="M177.1,119.4l0.1-1.3c0-0.4,0.2-0.8,0.3-1.3l1.3-2l0.3-0.4c0.3-0.3,0.8-0.5,1.3-0.2l0.3,0.2
			c0.3,0.3,0.5,0.6,0.5,1.1l-0.6,1.7l0.8-0.2c0.2-0.1,0.3,0.1,0.3,0.3l0,0c0.1,0.2-0.1,0.3-0.2,0.3l-1.3,0.5l-1.3,1.7L177.1,119.4z"
			/>
		<path fill="#FFD2B3" d="M211.7,130.7l0.5-1.1c0.2-0.4,0.3-0.8,0.3-1.3l-0.1-2.4l-0.1-0.5c-0.1-0.5-0.5-0.8-0.9-0.8H211
			c-0.4,0-0.8,0.3-1,0.6l-0.3,1.8l-0.6-0.5c-0.2-0.2-0.3-0.1-0.4,0.1l0,0c-0.1,0.2-0.1,0.3,0,0.3l0.9,1.1l0.3,2.4L211.7,130.7z"/>
		<path fill="#D8A016" d="M191.2,148.7c-0.5,2.2,2.4,18.3-0.8,24.3c1.6-0.6,3.1-1.9,3.1-3.4c-0.4-7.7-0.1-14.6,0.5-21.3
			c2.7-1.3,6.9-2.2,9.9-4.4C200.7,145.1,191.7,146.6,191.2,148.7z"/>
		<path fill="#FFFFFF" d="M186,136l0.8-0.8c0,0,1.3,1.3,2.4,1.6c0,0,1.3,0.3,1.9,0.4l0.5,1.4C191.6,138.5,187.3,138.2,186,136z"/>
		<path fill="#393E52" d="M191.7,131.4c0.3,0,0.4-0.2,0.5-0.3c0.2-0.3,0.1-1.8,0.8-2c1-0.3,3.5,0.9,3.8-2.9c0.2-2-0.8-2.5-0.8-3.6
			c0,0,0.1,0.5-5,0.2s-6.7,4.2-6.9,6.4c-0.2,2.2,0.9,5.7,4.5,6.2c0.5,0.1,3-1.9,2.9-2.1c-0.1-0.3-0.9-0.3-0.8-1
			C190.7,131.6,191.2,131.4,191.7,131.4z"/>
	</g>
	<g>
		<g>
			<g>
				<path fill="#F9C42F" d="M140.3,77.5c9.6-1.7,17.4,8.9,17.4,23.3l-6.3,1c0-9.3-5-15.9-11.1-14.9c-6.1,1-11.1,9.4-11,18.8l-6.3,1
					C123,92.2,130.7,79.1,140.3,77.5z"/>
			</g>
			<g>
				<path fill="#FFFFFF" d="M129.3,105.8c0,9.3,5,15.9,11.1,14.9v9.5c-9.6,1.7-17.4-8.9-17.4-23.3L129.3,105.8z"/>
			</g>
			<g>
				<path fill="#EF7134" d="M140.4,130.2v-9.5c6.1-1,11.1-9.4,11.1-18.8c-0.1-9.3-5.1-15.9-11.2-14.9c-6.1,1-11.1,9.4-11,18.8
					c0-9.3,4.9-17.7,11-18.8c6.1-1,11.1,5.6,11.1,14.9l6.3-1C157.7,115.4,149.9,128.6,140.4,130.2"/>
			</g>
		</g>
	</g>
</g>
</svg>
