<?xml version="1.0" encoding="utf-8"?>
<!-- Generator: Adobe Illustrator 18.0.0, SVG Export Plug-In . SVG Version: 6.00 Build 0)  -->
<!DOCTYPE svg PUBLIC "-//W3C//DTD SVG 1.1//EN" "http://www.w3.org/Graphics/SVG/1.1/DTD/svg11.dtd">
<svg version="1.1" id="Layer_1" xmlns="http://www.w3.org/2000/svg" xmlns:xlink="http://www.w3.org/1999/xlink" x="0px" y="0px"
	 viewBox="0 0 300 300" enable-background="new 0 0 300 300" xml:space="preserve">
<g>
	<path fill="#1E2430" d="M253.2,235.3c-53.3,30.8-139.6,30.8-192.9,0S7,154.8,60.3,124s139.6-30.8,192.9,0S306.5,204.6,253.2,235.3z
		"/>
	<path fill="#323A4F" d="M253.2,238.8c-53.3,30.8-139.6,30.8-192.9,0s-53.3-80.5,0-111.3s139.6-30.8,192.9,0
		S306.5,208.1,253.2,238.8z"/>
</g>
<path fill="#1E2430" d="M175.6,153.2l34.4-19.6c1.3-0.7,1.1-2-0.4-2.8l-19.8-11.4c-1.5-0.8-3.6-0.9-4.9-0.2l-34.4,19.6
	c-1.3,0.7-1.1,2,0.4,2.8l19.8,11.4C172.2,153.8,174.4,153.9,175.6,153.2z"/>
<path fill="#1E2430" d="M147.6,132.1L147.6,132.1V51.9l31.9-8.3l5.9-3.4c1.4-0.8,3.7-0.7,5.3,0.2l5.5,3.2h17L208,121
	c0.1,0.5-0.3,1-0.9,1.4l-31.9,24c-1.4,0.8-3.7,0.7-5.3-0.2L148.8,134C147.9,133.4,147.5,132.8,147.6,132.1z"/>
<path fill="#FDFDFD" d="M187.8,39.6c1,0,2,0.3,2.8,0.7l5.5,3.2h17V124c0.1,0.5-0.3,1-0.9,1.4l-36.9,21c-0.6,0.4-1.5,0.5-2.5,0.5
	l-0.4-81L187.8,39.6z"/>
<path fill="#323A4F" d="M174.9,146.6c-1.1,0.5-2.9,0.5-4.2-0.1V65h4.2V146.6z"/>
<path fill="#1E2430" d="M175.3,66l36.9-21c1.4-0.8,1.2-2.1-0.4-3l-21.2-12.3c-1.6-0.9-3.9-1-5.3-0.2l-36.9,21
	c-1.4,0.8-1.2,2.1,0.4,3L170,65.8C171.6,66.7,173.9,66.8,175.3,66z"/>
<path fill="#FFFCFB" d="M148.8,52L170,64.3c1.6,0.9,3.9,1,5.3,0.2l36.9-21c0.3-0.2,0.5-0.4,0.7-0.6c0.5,0.7,0.3,1.6-0.7,2.1
	l-36.9,21c-1.4,0.8-3.7,0.7-5.3-0.2l-21.2-12.3c-1.2-0.7-1.6-1.7-1-2.5C148,51.4,148.3,51.7,148.8,52z"/>
<path fill="#FDC830" d="M174.3,57.5l24.6-14.2c0.6-0.4,0.6-1-0.2-1.4l-9.9-5.7c-0.7-0.4-1.8-0.5-2.5-0.1l-24.6,14.2
	c-0.6,0.4-0.6,1,0.2,1.4l9.9,5.7C172.5,57.8,173.6,57.8,174.3,57.5z"/>
<path fill="#FDEAE1" d="M187.5,43.9l1.4-0.8c0.1-0.1,0.1-0.2,0-0.2l-1.4-0.8c-0.1-0.1-0.3-0.1-0.4,0l-1.4,0.8
	c-0.1,0.1-0.1,0.2,0,0.2l1.4,0.8C187.2,43.9,187.4,43.9,187.5,43.9z"/>
<path fill="#FDEAE1" d="M182.8,46.6l1.4-0.8c0.1-0.1,0.1-0.2,0-0.2l-1.4-0.8c-0.1-0.1-0.3-0.1-0.4,0l-1.4,0.8
	c-0.1,0.1-0.1,0.2,0,0.2l1.4,0.8C182.5,46.6,182.6,46.6,182.8,46.6z"/>
<path fill="#FDFDFD" d="M178,49.3l1.4-0.8c0.1-0.1,0.1-0.2,0-0.2l-1.4-0.8c-0.1-0.1-0.3-0.1-0.4,0l-1.4,0.8c-0.1,0.1-0.1,0.2,0,0.2
	l1.4,0.8C177.7,49.4,177.9,49.4,178,49.3z"/>
<path fill="#FDEAE1" d="M173.3,52.1l1.4-0.8c0.1-0.1,0.1-0.2,0-0.2l-1.4-0.8c-0.1-0.1-0.3-0.1-0.4,0l-1.4,0.8
	c-0.1,0.1-0.1,0.2,0,0.2l1.4,0.8C173,52.1,173.2,52.1,173.3,52.1z"/>
<path fill="#F2B316" d="M198.8,43.2L198.8,43.2c-0.1,0-0.1-0.1-0.2-0.1l-9.9-5.7c-0.7-0.4-1.8-0.5-2.5-0.1l-24.5,14.2
	c-0.6-0.4-0.6-1-0.1-1.3L186.2,36c0.6-0.4,1.7-0.3,2.5,0.1l9.9,5.7C199.3,42.3,199.4,42.9,198.8,43.2z"/>
<path fill="#FDC830" d="M165.9,81.9l-14-8c-0.8-0.5-1.4-1.7-1.4-2.7v-5c0-1,0.6-1.5,1.4-1.1l14,8c0.8,0.5,1.4,1.7,1.4,2.7v5
	C167.3,81.9,166.7,82.3,165.9,81.9z"/>
<path fill="#FFFFFF" d="M151.3,64.9c-0.2,0.2-0.4,0.6-0.4,1v5c0,1,0.6,2.2,1.4,2.7l14,8c0.3,0.2,0.5,0.2,0.7,0.2
	c-0.3,0.3-0.6,0.3-1,0.1l-14-8c-0.8-0.5-1.4-1.7-1.4-2.7v-5C150.5,65.5,150.8,65,151.3,64.9z"/>
<g>
	<path fill="#F37335" d="M161.7,76.5l-1.3-0.7c-0.2-0.1-0.3-0.4-0.3-0.6v-1.4c0-0.2,0.2-0.3,0.3-0.2l1.3,0.7
		c0.2,0.1,0.3,0.4,0.3,0.6v1.4C162,76.5,161.8,76.6,161.7,76.5z"/>
	<path fill="#FFFFFF" d="M157.4,74l-1.3-0.7c-0.2-0.1-0.3-0.4-0.3-0.6v-1.4c0-0.2,0.2-0.3,0.3-0.2l1.3,0.7c0.2,0.1,0.3,0.4,0.3,0.6
		v1.4C157.7,74,157.6,74.1,157.4,74z"/>
</g>
<path fill="#FDC830" d="M165.9,118l-14-8c-0.8-0.5-1.4-1.7-1.4-2.7v-5c0-1,0.6-1.5,1.4-1.1l14,8c0.8,0.5,1.4,1.7,1.4,2.7v5
	C167.3,117.9,166.7,118.4,165.9,118z"/>
<path fill="#FFFFFF" d="M151.3,101c-0.2,0.2-0.4,0.6-0.4,1v5c0,1,0.6,2.2,1.4,2.7l14,8c0.3,0.2,0.5,0.2,0.7,0.2
	c-0.3,0.3-0.6,0.3-1,0.1l-14-8c-0.8-0.5-1.4-1.7-1.4-2.7v-5C150.5,101.5,150.8,101.1,151.3,101z"/>
<g>
	<path fill="#F37335" d="M161.7,112.5l-1.3-0.7c-0.2-0.1-0.3-0.4-0.3-0.6v-1.4c0-0.2,0.2-0.3,0.3-0.2l1.3,0.7
		c0.2,0.1,0.3,0.4,0.3,0.6v1.4C162,112.5,161.8,112.6,161.7,112.5z"/>
	<path fill="#FFFFFF" d="M157.4,110l-1.3-0.7c-0.2-0.1-0.3-0.4-0.3-0.6v-1.4c0-0.2,0.2-0.3,0.3-0.2l1.3,0.7c0.2,0.1,0.3,0.4,0.3,0.6
		v1.4C157.7,110,157.6,110.1,157.4,110z"/>
</g>
<path fill="#FDC830" d="M165.9,136l-14-8c-0.8-0.5-1.4-1.7-1.4-2.7v-5c0-1,0.6-1.5,1.4-1.1l14,8c0.8,0.5,1.4,1.7,1.4,2.7v5
	C167.3,135.9,166.7,136.4,165.9,136z"/>
<path fill="#FFFFFF" d="M151.3,119.1c-0.2,0.2-0.4,0.6-0.4,1v5c0,1,0.6,2.2,1.4,2.7l14,8c0.3,0.2,0.5,0.2,0.7,0.2
	c-0.3,0.3-0.6,0.3-1,0.1l-14-8c-0.8-0.5-1.4-1.7-1.4-2.7v-5C150.5,119.6,150.8,119.1,151.3,119.1z"/>
<g>
	<path fill="#F37335" d="M161.7,130.6l-1.3-0.7c-0.2-0.1-0.3-0.4-0.3-0.6v-1.4c0-0.2,0.2-0.3,0.3-0.2l1.3,0.7
		c0.2,0.1,0.3,0.4,0.3,0.6v1.4C162,130.6,161.8,130.7,161.7,130.6z"/>
	<path fill="#FFFFFF" d="M157.4,128.1l-1.3-0.7c-0.2-0.1-0.3-0.4-0.3-0.6v-1.4c0-0.2,0.2-0.3,0.3-0.2l1.3,0.7
		c0.2,0.1,0.3,0.4,0.3,0.6v1.4C157.7,128.1,157.6,128.2,157.4,128.1z"/>
</g>
<path fill="#FDC830" d="M165.9,99.9l-14-8c-0.8-0.5-1.4-1.7-1.4-2.7v-5c0-1,0.6-1.5,1.4-1.1l14,8c0.8,0.5,1.4,1.7,1.4,2.7v5
	C167.3,99.9,166.7,100.4,165.9,99.9z"/>
<path fill="#FFFFFF" d="M151.3,83c-0.2,0.2-0.4,0.6-0.4,1v5c0,1,0.6,2.2,1.4,2.7l14,8c0.3,0.2,0.5,0.2,0.7,0.2
	c-0.3,0.3-0.6,0.3-1,0.1l-14-8c-0.8-0.5-1.4-1.7-1.4-2.7v-5C150.5,83.5,150.8,83.1,151.3,83z"/>
<g>
	<path fill="#F37335" d="M161.7,94.5l-1.3-0.7c-0.2-0.1-0.3-0.4-0.3-0.6v-1.4c0-0.2,0.2-0.3,0.3-0.2l1.3,0.7
		c0.2,0.1,0.3,0.4,0.3,0.6v1.4C162,94.5,161.8,94.6,161.7,94.5z"/>
	<path fill="#FFFFFF" d="M157.4,92l-1.3-0.7c-0.2-0.1-0.3-0.4-0.3-0.6v-1.4c0-0.2,0.2-0.3,0.3-0.2l1.3,0.7c0.2,0.1,0.3,0.4,0.3,0.6
		v1.4C157.7,92,157.6,92.1,157.4,92z"/>
</g>
<path fill="#1E2430" d="M178,76.8l32.2-18.6c0.7-0.4,1.3-1.5,1.3-2.5v-6.1c0-0.9-0.6-1.4-1.3-1L178,67.2c-0.7,0.4-1.3,1.5-1.3,2.5
	v6.2C176.7,76.8,177.3,77.2,178,76.8z"/>
<path opacity="0.4" fill="#FDFDFD" enable-background="new    " d="M178.9,74.6l30.3-17.5c0.4-0.2,0.7-0.8,0.7-1.3v-4.6
	c0-0.5-0.3-0.7-0.7-0.5l-30.3,17.5c-0.4,0.2-0.7,0.8-0.7,1.3v4.6C178.2,74.6,178.5,74.8,178.9,74.6z"/>
<path fill="#FDFDFD" d="M202.9,58.4l4.5-2.6c0.4-0.2,0.6-0.7,0.6-1.3l0,0c0-0.5-0.3-0.7-0.6-0.5l-4.5,2.6c-0.4,0.2-0.6,0.7-0.6,1.3
	l0,0C202.3,58.4,202.6,58.6,202.9,58.4z"/>
<path fill="#FDC830" d="M199.1,59.8c0,0.5,0.3,0.7,0.7,0.4s0.7-0.8,0.7-1.3s-0.3-0.7-0.7-0.4S199.1,59.3,199.1,59.8z"/>
<path fill="#FDC830" d="M196.5,61.3c0,0.5,0.3,0.7,0.7,0.4s0.7-0.8,0.7-1.3s-0.3-0.7-0.7-0.4C196.8,60.2,196.5,60.8,196.5,61.3z"/>
<path fill="#FDFDFD" d="M193.8,62.8c0,0.5,0.3,0.7,0.7,0.4s0.7-0.8,0.7-1.3s-0.3-0.7-0.7-0.4C194.2,61.8,193.8,62.3,193.8,62.8z"/>
<path fill="#FDC830" d="M191.2,64.3c0,0.5,0.3,0.7,0.7,0.4s0.7-0.8,0.7-1.3s-0.3-0.7-0.7-0.4C191.6,63.3,191.2,63.8,191.2,64.3z"/>
<path fill="#FDC830" d="M180.2,72l1.5-0.9c0.2-0.2,0.4-0.5,0.4-0.8v-1.6c0-0.3-0.2-0.5-0.4-0.3l-1.5,0.9c-0.2,0.2-0.4,0.5-0.4,0.8
	v1.6C179.8,72,179.9,72.2,180.2,72z"/>
<path fill="#1E2430" d="M178,87.6L210.2,69c0.7-0.4,1.3-1.5,1.3-2.5v-6.2c0-0.9-0.6-1.4-1.3-1L178,78c-0.7,0.4-1.3,1.5-1.3,2.5v6.2
	C176.7,87.6,177.3,88,178,87.6z"/>
<path opacity="0.4" fill="#FDFDFD" enable-background="new    " d="M178.9,85.4l30.3-17.5c0.4-0.2,0.7-0.8,0.7-1.3V62
	c0-0.5-0.3-0.7-0.7-0.5L178.9,79c-0.4,0.2-0.7,0.8-0.7,1.3V85C178.2,85.4,178.5,85.6,178.9,85.4z"/>
<path fill="#FDFDFD" d="M202.9,69.3l4.5-2.6c0.4-0.2,0.6-0.7,0.6-1.3l0,0c0-0.5-0.3-0.7-0.6-0.5l-4.5,2.6c-0.4,0.2-0.6,0.7-0.6,1.3
	l0,0C202.3,69.2,202.6,69.5,202.9,69.3z"/>
<path fill="#FFFFFF" d="M199.1,70.6c0,0.5,0.3,0.7,0.7,0.4s0.7-0.8,0.7-1.3s-0.3-0.7-0.7-0.4S199.1,70.1,199.1,70.6z"/>
<path fill="#FDC830" d="M196.5,72.1c0,0.5,0.3,0.7,0.7,0.4c0.4-0.3,0.7-0.8,0.7-1.3s-0.3-0.7-0.7-0.4
	C196.8,71.1,196.5,71.7,196.5,72.1z"/>
<path fill="#FDFDFD" d="M193.8,73.6c0,0.5,0.3,0.7,0.7,0.4c0.4-0.3,0.7-0.8,0.7-1.3s-0.3-0.7-0.7-0.4
	C194.2,72.6,193.8,73.2,193.8,73.6z"/>
<path fill="#FDC830" d="M191.2,75.2c0,0.5,0.3,0.7,0.7,0.4s0.7-0.8,0.7-1.3s-0.3-0.7-0.7-0.4C191.6,74.1,191.2,74.7,191.2,75.2z"/>
<path fill="#FDC830" d="M180.2,82.9l1.5-0.9c0.2-0.2,0.4-0.5,0.4-0.8v-1.6c0-0.3-0.2-0.5-0.4-0.3l-1.5,0.9c-0.2,0.2-0.4,0.5-0.4,0.8
	v1.6C179.8,82.9,179.9,83,180.2,82.9z"/>
<path fill="#1E2430" d="M178,98.4l32.2-18.6c0.7-0.4,1.3-1.5,1.3-2.5v-6.2c0-0.9-0.6-1.4-1.3-1L178,88.8c-0.7,0.4-1.3,1.5-1.3,2.5
	v6.2C176.7,98.4,177.3,98.8,178,98.4z"/>
<path opacity="0.4" fill="#FDFDFD" enable-background="new    " d="M178.9,96.3l30.3-17.5c0.4-0.2,0.7-0.8,0.7-1.3v-4.6
	c0-0.5-0.3-0.7-0.7-0.5l-30.3,17.5c-0.4,0.2-0.7,0.8-0.7,1.3v4.6C178.2,96.3,178.5,96.5,178.9,96.3z"/>
<path fill="#FDFDFD" d="M202.9,80.1l4.5-2.6c0.4-0.2,0.6-0.7,0.6-1.3l0,0c0-0.5-0.3-0.7-0.6-0.5l-4.5,2.6c-0.4,0.2-0.6,0.7-0.6,1.3
	l0,0C202.3,80.1,202.6,80.3,202.9,80.1z"/>
<path fill="#FFFFFF" d="M199.1,81.5c0,0.5,0.3,0.7,0.7,0.4s0.7-0.8,0.7-1.3s-0.3-0.7-0.7-0.4C199.4,80.4,199.1,81,199.1,81.5z"/>
<path fill="#FDC830" d="M196.5,83c0,0.5,0.3,0.7,0.7,0.4c0.4-0.3,0.7-0.8,0.7-1.3s-0.3-0.7-0.7-0.4C196.8,81.9,196.5,82.5,196.5,83z
	"/>
<path fill="#FDFDFD" d="M193.8,84.5c0,0.5,0.3,0.7,0.7,0.4c0.4-0.3,0.7-0.8,0.7-1.3s-0.3-0.7-0.7-0.4
	C194.2,83.4,193.8,84,193.8,84.5z"/>
<path fill="#FDC830" d="M191.2,86c0,0.5,0.3,0.7,0.7,0.4s0.7-0.8,0.7-1.3s-0.3-0.7-0.7-0.4C191.6,84.9,191.2,85.5,191.2,86z"/>
<path fill="#FDC830" d="M180.2,93.7l1.5-0.9c0.2-0.2,0.4-0.5,0.4-0.8v-1.6c0-0.3-0.2-0.5-0.4-0.3l-1.5,0.9c-0.2,0.2-0.4,0.5-0.4,0.8
	v1.6C179.8,93.7,179.9,93.8,180.2,93.7z"/>
<path fill="#1E2430" d="M178,109.3l32.2-18.6c0.7-0.4,1.3-1.5,1.3-2.5V82c0-0.9-0.6-1.4-1.3-1L178,99.6c-0.7,0.4-1.3,1.5-1.3,2.5
	v6.2C176.7,109.3,177.3,109.7,178,109.3z"/>
<path opacity="0.4" fill="#FDFDFD" enable-background="new    " d="M178.9,107.1l30.3-17.5c0.4-0.2,0.7-0.8,0.7-1.3v-4.6
	c0-0.5-0.3-0.7-0.7-0.5l-30.3,17.5c-0.4,0.2-0.7,0.8-0.7,1.3v4.6C178.2,107.1,178.5,107.3,178.9,107.1z"/>
<path fill="#FDFDFD" d="M202.9,90.9l4.5-2.6c0.4-0.2,0.6-0.7,0.6-1.3l0,0c0-0.5-0.3-0.7-0.6-0.5l-4.5,2.6c-0.4,0.2-0.6,0.7-0.6,1.3
	l0,0C202.3,90.9,202.6,91.1,202.9,90.9z"/>
<path fill="#FDC830" d="M199.1,92.3c0,0.5,0.3,0.7,0.7,0.4s0.7-0.8,0.7-1.3s-0.3-0.7-0.7-0.4S199.1,91.8,199.1,92.3z"/>
<path fill="#FDC830" d="M196.5,93.8c0,0.5,0.3,0.7,0.7,0.4c0.4-0.3,0.7-0.8,0.7-1.3s-0.3-0.7-0.7-0.4
	C196.8,92.7,196.5,93.3,196.5,93.8z"/>
<path fill="#FDFDFD" d="M193.8,95.3c0,0.5,0.3,0.7,0.7,0.4c0.4-0.3,0.7-0.8,0.7-1.3s-0.3-0.7-0.7-0.4
	C194.2,94.2,193.8,94.8,193.8,95.3z"/>
<path fill="#FDC830" d="M191.2,96.8c0,0.5,0.3,0.7,0.7,0.4s0.7-0.8,0.7-1.3s-0.3-0.7-0.7-0.4C191.6,95.7,191.2,96.3,191.2,96.8z"/>
<path fill="#FDFDFD" d="M180.2,104.5l1.5-0.9c0.2-0.2,0.4-0.5,0.4-0.8v-1.6c0-0.3-0.2-0.5-0.4-0.3l-1.5,0.9
	c-0.2,0.2-0.4,0.5-0.4,0.8v1.6C179.8,104.5,179.9,104.7,180.2,104.5z"/>
<path fill="#1E2430" d="M178,120.1l32.2-18.6c0.7-0.4,1.3-1.5,1.3-2.5v-6.2c0-0.9-0.6-1.4-1.3-1L178,110.5c-0.7,0.4-1.3,1.5-1.3,2.5
	v6.2C176.7,120,177.3,120.5,178,120.1z"/>
<path opacity="0.4" fill="#FDFDFD" enable-background="new    " d="M178.9,117.9l30.3-17.5c0.4-0.2,0.7-0.8,0.7-1.3v-4.6
	c0-0.5-0.3-0.7-0.7-0.5l-30.3,17.5c-0.4,0.2-0.7,0.8-0.7,1.3v4.6C178.2,117.9,178.5,118.1,178.9,117.9z"/>
<path fill="#FDFDFD" d="M202.9,101.7l4.5-2.6c0.4-0.2,0.6-0.7,0.6-1.3l0,0c0-0.5-0.3-0.7-0.6-0.5l-4.5,2.6c-0.4,0.2-0.6,0.7-0.6,1.3
	l0,0C202.3,101.7,202.6,102,202.9,101.7z"/>
<path fill="#FDC830" d="M199.1,103.1c0,0.5,0.3,0.7,0.7,0.4s0.7-0.8,0.7-1.3s-0.3-0.7-0.7-0.4S199.1,102.6,199.1,103.1z"/>
<path fill="#FFFFFF" d="M196.5,104.6c0,0.5,0.3,0.7,0.7,0.4c0.4-0.3,0.7-0.8,0.7-1.3s-0.3-0.7-0.7-0.4
	C196.8,103.6,196.5,104.1,196.5,104.6z"/>
<path fill="#FDFDFD" d="M193.8,106.1c0,0.5,0.3,0.7,0.7,0.4c0.4-0.3,0.7-0.8,0.7-1.3s-0.3-0.7-0.7-0.4
	C194.2,105.1,193.8,105.7,193.8,106.1z"/>
<path fill="#FFFFFF" d="M191.2,107.6c0,0.5,0.3,0.7,0.7,0.4s0.7-0.8,0.7-1.3s-0.3-0.7-0.7-0.4C191.6,106.6,191.2,107.2,191.2,107.6z
	"/>
<path fill="#FDFDFD" d="M180.2,115.4l1.5-0.9c0.2-0.2,0.4-0.5,0.4-0.8v-1.6c0-0.3-0.2-0.5-0.4-0.3l-1.5,0.9
	c-0.2,0.2-0.4,0.5-0.4,0.8v1.6C179.8,115.4,179.9,115.5,180.2,115.4z"/>
<path fill="#1E2430" d="M178,130.9l32.2-18.6c0.7-0.4,1.3-1.5,1.3-2.5v-6.2c0-0.9-0.6-1.4-1.3-1L178,121.2c-0.7,0.4-1.3,1.5-1.3,2.5
	v6.2C176.7,130.9,177.3,131.3,178,130.9z"/>
<path opacity="0.4" fill="#FDFDFD" enable-background="new    " d="M178.9,128.8l30.3-17.5c0.4-0.2,0.7-0.8,0.7-1.3v-4.6
	c0-0.5-0.3-0.7-0.7-0.5l-30.3,17.5c-0.4,0.2-0.7,0.8-0.7,1.3v4.6C178.2,128.8,178.5,129,178.9,128.8z"/>
<path fill="#FDFDFD" d="M202.9,112.5l4.5-2.6c0.4-0.2,0.6-0.7,0.6-1.3l0,0c0-0.5-0.3-0.7-0.6-0.5l-4.5,2.6c-0.4,0.2-0.6,0.7-0.6,1.3
	l0,0C202.3,112.5,202.6,112.7,202.9,112.5z"/>
<path fill="#FDC830" d="M199.1,113.9c0,0.5,0.3,0.7,0.7,0.4s0.7-0.8,0.7-1.3s-0.3-0.7-0.7-0.4C199.4,112.9,199.1,113.5,199.1,113.9z
	"/>
<path fill="#FDC830" d="M196.5,115.5c0,0.5,0.3,0.7,0.7,0.4c0.4-0.3,0.7-0.8,0.7-1.3s-0.3-0.7-0.7-0.4
	C196.8,114.4,196.5,115,196.5,115.5z"/>
<path fill="#FDFDFD" d="M193.8,117c0,0.5,0.3,0.7,0.7,0.4c0.4-0.3,0.7-0.8,0.7-1.3s-0.3-0.7-0.7-0.4
	C194.2,115.9,193.8,116.5,193.8,117z"/>
<path fill="#FDC830" d="M191.2,118.5c0,0.5,0.3,0.7,0.7,0.4s0.7-0.8,0.7-1.3s-0.3-0.7-0.7-0.4C191.6,117.4,191.2,118,191.2,118.5z"
	/>
<path fill="#FDC830" d="M180.2,126.2l1.5-0.9c0.2-0.2,0.4-0.5,0.4-0.8v-1.6c0-0.3-0.2-0.5-0.4-0.3l-1.5,0.9
	c-0.2,0.2-0.4,0.5-0.4,0.8v1.6C179.8,126.2,179.9,126.3,180.2,126.2z"/>
<path fill="#1E2430" d="M178,141.7l32.2-18.6c0.7-0.4,1.3-1.5,1.3-2.5v-6.2c0-0.9-0.6-1.4-1.3-1L178,132.1c-0.7,0.4-1.3,1.5-1.3,2.5
	v6.2C176.7,141.7,177.3,142.2,178,141.7z"/>
<path opacity="0.4" fill="#FDFDFD" enable-background="new    " d="M178.9,139.6l30.3-17.5c0.4-0.2,0.7-0.8,0.7-1.3v-4.6
	c0-0.5-0.3-0.7-0.7-0.5l-30.3,17.5c-0.4,0.2-0.7,0.8-0.7,1.3v4.6C178.2,139.5,178.5,139.8,178.9,139.6z"/>
<path fill="#FDFDFD" d="M202.9,123.4l4.5-2.6c0.4-0.2,0.6-0.7,0.6-1.3l0,0c0-0.5-0.3-0.7-0.6-0.5l-4.5,2.6c-0.4,0.2-0.6,0.7-0.6,1.3
	l0,0C202.3,123.4,202.6,123.6,202.9,123.4z"/>
<path fill="#FFFFFF" d="M198.2,125.3c0,0.9,0.6,1.3,1.4,0.8c0.8-0.5,1.4-1.5,1.4-2.5c0-0.9-0.6-1.3-1.4-0.8
	C198.9,123.3,198.2,124.4,198.2,125.3z"/>
<path fill="#FDC830" d="M192.8,128.5c0,0.5,0.3,0.7,0.7,0.4s0.7-0.8,0.7-1.3s-0.3-0.7-0.7-0.4S192.8,128,192.8,128.5z"/>
<path fill="#FDFDFD" d="M190.2,130c0,0.5,0.3,0.7,0.7,0.4s0.7-0.8,0.7-1.3s-0.3-0.7-0.7-0.4S190.2,129.5,190.2,130z"/>
<path fill="#FDC830" d="M187.6,131.5c0,0.5,0.3,0.7,0.7,0.4s0.7-0.8,0.7-1.3s-0.3-0.7-0.7-0.4C187.9,130.5,187.6,131,187.6,131.5z"
	/>
<path fill="#FDFDFD" d="M180.2,137l1.5-0.9c0.2-0.2,0.4-0.5,0.4-0.8v-1.6c0-0.3-0.2-0.5-0.4-0.3l-1.5,0.9c-0.2,0.2-0.4,0.5-0.4,0.8
	v1.6C179.8,137,179.9,137.1,180.2,137z"/>
<path fill="#FDC830" d="M180.1,168.9c0.1,0,0.2-0.1,0.3-0.1L217,148c0.5-0.3,0.7-0.7,0.7-1.2s-0.3-1-0.7-1.3l-15.7-9.3
	c-0.6-0.3-0.9-0.9-0.9-1.6v-10.2c0-0.4-0.3-0.6-0.6-0.6c-0.4,0-0.6,0.3-0.6,0.6v10.2c0,1.1,0.6,2.1,1.5,2.7l15.7,9.3
	c0.1,0,0.1,0.1,0.1,0.1c0,0.1,0,0.1-0.1,0.1l-36.7,20.8c-0.3,0.2-0.4,0.6-0.3,0.9C179.7,168.8,179.9,168.9,180.1,168.9z"/>
<g>
	<g>
		<g>
			<g>
				
					<rect x="187.8" y="159.3" transform="matrix(-0.4974 -0.8675 0.8675 -0.4974 142.3696 408.6289)" fill="#F37335" width="3.5" height="7.5"/>
				<path fill="#F37335" d="M194,161.9c0-0.8-0.5-1.7-1.2-2.1c-0.7-0.4-1.3-0.1-1.3,0.7s0.5,1.7,1.2,2.1S194,162.6,194,161.9z"/>
			</g>
			<g>
				
					<rect x="179.5" y="161.2" transform="matrix(-0.4974 -0.8675 0.8675 -0.4974 128.0084 408.439)" fill="#F37335" width="5.6" height="11.8"/>
				<path fill="#F37335" d="M186.4,162.7l2.2-1.3c0.9,0.7,1.6,1.9,1.7,3l-2.2,1.3C187.2,165.1,186.5,163.9,186.4,162.7z"/>
				<path fill="#F37335" d="M189.3,165.4c0-1.3-0.9-2.8-2-3.4c-1.1-0.6-2-0.1-2,1.1c0,1.3,0.9,2.8,2,3.4
					C188.4,167.2,189.3,166.7,189.3,165.4z"/>
			</g>
		</g>
	</g>
	<path fill="#FDEAE1" d="M191.9,161.1c0.3-0.2,0.3-0.5,0-0.7s-0.8-0.2-1.1,0s-0.3,0.5,0,0.7C191.1,161.2,191.6,161.2,191.9,161.1z"
		/>
</g>
<g>
	<path fill="#FDC830" d="M68.5,110.7c0.1,0,0.1,0,0.2,0c0.4-0.1,0.6-0.4,0.5-0.8l-6.3-27.5c-0.1-0.4-0.4-0.6-0.8-0.5
		c-0.4,0.1-0.6,0.4-0.5,0.8l6.3,27.5C67.9,110.5,68.2,110.7,68.5,110.7z"/>
	<path fill="#FDC830" d="M76.9,108.7c0.1,0,0.1,0,0.2,0c0.4-0.1,0.6-0.4,0.5-0.8l-6.3-27.5c-0.1-0.4-0.4-0.6-0.8-0.5
		s-0.6,0.4-0.5,0.8l6.3,27.5C76.3,108.5,76.6,108.7,76.9,108.7z"/>
	<path fill="#FDC830" d="M85.3,106.8c0.1,0,0.1,0,0.2,0c0.4-0.1,0.6-0.4,0.5-0.8l-6.3-27.5c-0.1-0.4-0.4-0.6-0.8-0.5
		s-0.6,0.4-0.5,0.8l6.3,27.5C84.8,106.6,85,106.8,85.3,106.8z"/>
	<g>
		<g>
			<g>
				<g>
					
						<rect x="79.6" y="85.4" transform="matrix(0.9736 -0.2282 0.2282 0.9736 -18.1946 20.917)" fill="#F37335" width="3.5" height="7.5"/>
					<path fill="#F37335" d="M81.2,93.8c0.7,0.2,1.8,0,2.4-0.6c0.6-0.5,0.4-1.1-0.3-1.4c-0.7-0.2-1.8,0-2.4,0.6
						C80.3,92.9,80.4,93.6,81.2,93.8z"/>
				</g>
				<g>
					
						<rect x="76.6" y="75.2" transform="matrix(0.9736 -0.2282 0.2282 0.9736 -16.4138 20.2647)" fill="#F37335" width="5.6" height="11.8"/>
					<path fill="#F37335" d="M82.5,86.3l0.6,2.5c-0.9,0.7-2.3,1-3.4,0.8l-0.6-2.5C80,86.4,81.4,86.1,82.5,86.3z"/>
					<path fill="#F37335" d="M79.1,88.3c1.2,0.4,3-0.1,3.9-0.9c0.9-0.9,0.7-1.9-0.5-2.2c-1.2-0.4-3,0.1-3.9,0.9
						C77.6,87,77.9,88,79.1,88.3z"/>
				</g>
			</g>
		</g>
		<path fill="#F37335" d="M82.5,92c0.1,0.4,0.4,0.5,0.6,0.2s0.4-0.7,0.3-1.1s-0.4-0.5-0.6-0.2S82.4,91.7,82.5,92z"/>
	</g>
	<g>
		<g>
			<g>
				<g>
					
						<rect x="71.8" y="90" transform="matrix(0.9736 -0.2282 0.2282 0.9736 -19.4542 19.2555)" fill="#F37335" width="3.5" height="7.5"/>
					<path fill="#F37335" d="M73.4,98.4c0.7,0.2,1.8,0,2.4-0.6c0.6-0.5,0.4-1.1-0.3-1.4c-0.7-0.3-1.8,0-2.4,0.6S72.6,98.2,73.4,98.4
						z"/>
				</g>
				<g>
					
						<rect x="68.8" y="79.8" transform="matrix(0.9736 -0.2282 0.2282 0.9736 -17.6735 18.6033)" fill="#F37335" width="5.6" height="11.8"/>
					<path fill="#F37335" d="M74.7,91l0.6,2.5c-0.9,0.7-2.3,1-3.4,0.8l-0.6-2.5C72.2,91.1,73.6,90.7,74.7,91z"/>
					<path fill="#F37335" d="M71.3,93c1.2,0.4,3-0.1,3.9-0.9c0.9-0.9,0.7-1.9-0.5-2.2c-1.2-0.4-3,0.1-3.9,0.9
						C69.9,91.6,70.1,92.6,71.3,93z"/>
				</g>
			</g>
		</g>
		<path fill="#F37335" d="M74.7,96.7c0.1,0.4,0.4,0.5,0.6,0.2c0.3-0.3,0.4-0.7,0.3-1.1s-0.4-0.5-0.6-0.2S74.7,96.3,74.7,96.7z"/>
	</g>
	<g>
		<g>
			<g>
				<g>
					
						<rect x="63.9" y="94.6" transform="matrix(0.9736 -0.2282 0.2282 0.9736 -20.7144 17.5718)" fill="#F37335" width="3.5" height="7.5"/>
					<path fill="#F37335" d="M65.5,103c0.7,0.2,1.8,0,2.4-0.6c0.6-0.5,0.4-1.1-0.3-1.4c-0.7-0.2-1.8,0-2.4,0.6S64.8,102.8,65.5,103z
						"/>
				</g>
				<g>
					
						<rect x="60.9" y="84.4" transform="matrix(0.9736 -0.2282 0.2282 0.9736 -18.9306 16.9242)" fill="#F37335" width="5.6" height="11.8"/>
					<path fill="#F37335" d="M66.8,95.5l0.6,2.5c-0.9,0.7-2.3,1-3.4,0.8l-0.6-2.5C64.3,95.6,65.7,95.3,66.8,95.5z"/>
					<path fill="#F37335" d="M63.5,97.6c1.2,0.4,3-0.1,3.9-0.9c0.9-0.9,0.7-1.9-0.5-2.2c-1.2-0.4-3,0.1-3.9,0.9
						C62,96.2,62.2,97.2,63.5,97.6z"/>
				</g>
			</g>
		</g>
		<path fill="#F37335" d="M66.8,101.3c0.1,0.4,0.4,0.5,0.6,0.2s0.4-0.7,0.3-1.1s-0.4-0.5-0.6-0.2C66.9,100.4,66.7,100.9,66.8,101.3z
			"/>
	</g>
</g>
<path fill="#1E2430" d="M120.1,231.7l75.3-43.5c2.1-1.3,1.9-3.4-0.6-4.8l-51.3-29.6c-2.5-1.4-6.2-1.6-8.3-0.4L59.9,197
	c-2.1,1.3-1.9,3.4,0.6,4.8l51.3,29.6C114.2,232.8,118,232.9,120.1,231.7z"/>
<path fill="#FDC830" d="M133,134.4l-4.2-19l0,0l-8.1-36.8c-0.1-0.1-0.1-0.1-0.1-0.2l2.5-1.2l-2.7-1c-0.1,0-0.1,0-0.1,0l-0.2-0.1
	c-0.8-0.3-1.7-0.2-2.6,0.3l-75.3,43.5c-0.2,0.1-0.4,0.2-0.6,0.4l0,0l0,0c-0.4,0.3-0.7,0.6-1,1c-0.8,1.1-1.3,2.6-1.3,4.2
	c0,0.1,0,0.2,0,0.4v0.1l0,0c0,0.4,0.1,0.8,0.1,1.1L51.7,183c0.3,1.5,1.1,2.6,2.1,3l3,1.1l-0.3-3.1l73.5-42.4
	C132.3,140.5,133.6,137.3,133,134.4z"/>
<path fill="#323A4F" d="M59.5,186.9l75.3-43.5c2.1-1.3,3.3-4.5,2.8-7.3l-12.3-55.8c-0.6-2.8-2.8-4.1-5-2.8L45,121
	c-2.1,1.3-3.3,4.5-2.8,7.3l12.3,55.8C55.2,186.9,57.4,188.2,59.5,186.9z"/>
<path fill="#FFFFFF" d="M61.2,182.8l70.9-40.9c1.9-1.1,3.1-4.1,2.5-6.7l-11.2-51.1c-0.6-2.6-2.6-3.7-4.5-2.6L48,122.4
	c-1.9,1.1-3.1,4.1-2.5,6.7l11.2,51.1C57.1,182.8,59.2,183.9,61.2,182.8z"/>
<path fill="#FFFFFF" d="M61.2,182.8l70.9-40.9c1.9-1.1,3.1-4.1,2.5-6.7l-11.2-51.1c-0.6-2.6-2.6-3.7-4.5-2.6L48,122.4
	c-1.9,1.1-3.1,4.1-2.5,6.7l11.2,51.1C57.1,182.8,59.2,183.9,61.2,182.8z"/>
<path fill="#F37335" d="M108.4,164.6l4.7-2.7H165l25.6,14.8l6.2-0.8v3.5l0,0c0.1,0.8-0.4,1.6-1.4,2.2L120.1,225
	c-1.1,0.6-2.7,0.9-4.3,0.8L108.4,164.6z"/>
<path fill="#F7A37A" d="M194.1,176.2l2.8-0.4v3.5l0,0c0.1,0.8-0.4,1.6-1.4,2.2l-1.3,0.8L194.1,176.2L194.1,176.2z"/>
<path fill="#F37335" d="M190.6,176.6l-47.1-27.2c-2.5-1.5-6.2-1.7-8.3-0.4l-66.5,38.4l-10.3,1.4v3.4c-0.1,1,0.6,2,2,2.8l51.3,29.6
	c0.2,0.1,0.4,0.2,0.6,0.3v0.1c2.1,1,5,1.2,7,0.4v-0.1c0.2-0.1,0.5-0.2,0.7-0.3l75.4-43.5c1-0.6,1.5-1.4,1.4-2.2v-3.5L190.6,176.6z"
	/>
<path fill="#FFFFFF" d="M120.1,221.5l75.3-43.5c2.1-1.3,1.9-3.4-0.6-4.8l-51.3-29.6c-2.5-1.4-6.2-1.6-8.3-0.4l-75.3,43.5
	c-2.1,1.3-1.9,3.4,0.6,4.8l51.3,29.6C114.2,222.6,118,222.7,120.1,221.5z"/>
<path fill="#FFFFFF" d="M60.5,190.3l51.3,29.6c2.5,1.4,6.2,1.6,8.3,0.4l75.3-43.5c0.7-0.4,1.1-0.9,1.3-1.5c0.3,1-0.1,2-1.3,2.8
	l-75.3,43.5c-2.1,1.3-5.8,1.1-8.3-0.4l-51.3-29.6c-1.7-0.9-2.3-2.2-1.9-3.3C58.8,188.9,59.4,189.7,60.5,190.3z"/>
<g>
	<path fill="#1E2430" d="M163.4,163.6l3.4-2c0.3-0.2,0.3-0.4-0.1-0.6l-4-2.3c-0.3-0.2-0.8-0.2-1-0.1l-3.4,2
		c-0.3,0.2-0.3,0.4,0.1,0.6l4,2.3C162.6,163.7,163.1,163.7,163.4,163.6z"/>
	<path fill="#1E2430" d="M158.1,166.7l3.4-2c0.3-0.2,0.3-0.4-0.1-0.6l-4-2.3c-0.3-0.2-0.8-0.2-1-0.1l-3.4,2
		c-0.3,0.2-0.3,0.4,0.1,0.6l4,2.3C157.4,166.8,157.9,166.8,158.1,166.7z"/>
	<path fill="#1E2430" d="M152.9,169.7l3.4-2c0.3-0.2,0.3-0.4-0.1-0.6l-4-2.3c-0.3-0.2-0.8-0.2-1-0.1l-3.4,2
		c-0.3,0.2-0.3,0.4,0.1,0.6l4,2.3C152.1,169.8,152.6,169.8,152.9,169.7z"/>
	<path fill="#1E2430" d="M145.6,167.2l3.4-2c0.3-0.2,0.3-0.4-0.1-0.6l-3.4-1.9c-0.3-0.2-0.8-0.2-1-0.1l-3.4,2
		c-0.3,0.2-0.3,0.4,0.1,0.6l3.4,1.9C144.8,167.3,145.3,167.3,145.6,167.2z"/>
	<path fill="#1E2430" d="M140.3,170.2l3.4-2c0.3-0.2,0.3-0.4-0.1-0.6l-3.4-1.9c-0.3-0.2-0.8-0.2-1-0.1l-3.4,2
		c-0.3,0.2-0.3,0.4,0.1,0.6l3.4,1.9C139.6,170.4,140,170.4,140.3,170.2z"/>
	<path fill="#1E2430" d="M135,173.2l3.4-2c0.3-0.2,0.3-0.4-0.1-0.6l-3.4-1.9c-0.3-0.2-0.8-0.2-1-0.1l-3.4,2
		c-0.3,0.2-0.3,0.4,0.1,0.6l3.4,1.9C134.3,173.4,134.8,173.4,135,173.2z"/>
	<path fill="#1E2430" d="M129.8,176.3l3.4-2c0.3-0.2,0.3-0.4-0.1-0.6l-3.4-1.9c-0.3-0.2-0.8-0.2-1-0.1l-3.4,2
		c-0.3,0.2-0.3,0.4,0.1,0.6l3.4,1.9C129,176.4,129.5,176.5,129.8,176.3z"/>
	<path fill="#1E2430" d="M124.6,179.3l3.4-2c0.3-0.2,0.3-0.4-0.1-0.6l-3.4-1.9c-0.3-0.2-0.8-0.2-1-0.1l-3.4,2
		c-0.3,0.2-0.3,0.4,0.1,0.6l3.4,1.9C123.8,179.5,124.2,179.5,124.6,179.3z"/>
	<path fill="#1E2430" d="M119.3,182.4l3.4-2c0.3-0.2,0.3-0.4-0.1-0.6l-3.4-1.9c-0.3-0.2-0.8-0.2-1-0.1l-3.4,2
		c-0.3,0.2-0.3,0.4,0.1,0.6l3.4,1.9C118.5,182.5,119,182.5,119.3,182.4z"/>
	<path fill="#1E2430" d="M114,185.4l3.4-2c0.3-0.2,0.3-0.4-0.1-0.6l-3.4-1.9c-0.3-0.2-0.8-0.2-1-0.1l-3.4,2
		c-0.3,0.2-0.3,0.4,0.1,0.6l3.4,1.9C113.2,185.5,113.7,185.6,114,185.4z"/>
	<path fill="#1E2430" d="M108.8,188.5l3.4-2c0.3-0.2,0.3-0.4-0.1-0.6l-3.4-1.9c-0.3-0.2-0.8-0.2-1-0.1l-3.4,2
		c-0.3,0.2-0.3,0.4,0.1,0.6l3.4,1.9C108,188.6,108.5,188.6,108.8,188.5z"/>
	<path fill="#1E2430" d="M103.5,191.5l3.4-2c0.3-0.2,0.3-0.4-0.1-0.6l-3.4-1.9c-0.3-0.2-0.8-0.2-1-0.1l-3.4,2
		c-0.3,0.2-0.3,0.4,0.1,0.6l3.4,1.9C102.7,191.6,103.2,191.6,103.5,191.5z"/>
	<path fill="#1E2430" d="M98.2,194.5l3.4-2c0.3-0.2,0.3-0.4-0.1-0.6l-3.4-1.9c-0.3-0.2-0.8-0.2-1-0.1l-3.4,2
		c-0.3,0.2-0.3,0.4,0.1,0.6l3.4,1.9C97.4,194.7,98,194.7,98.2,194.5z"/>
	<path fill="#1E2430" d="M137.9,165.7l3.4-2c0.3-0.2,0.3-0.4-0.1-0.6l-3.4-1.9c-0.3-0.2-0.8-0.2-1-0.1l-3.4,2
		c-0.3,0.2-0.3,0.4,0.1,0.6l3.4,1.9C137.1,165.9,137.5,165.9,137.9,165.7z"/>
	<path fill="#1E2430" d="M143.2,162.6l3.4-2c0.3-0.2,0.3-0.4-0.1-0.6l-3.4-1.9c-0.3-0.2-0.8-0.2-1-0.1l-3.4,2
		c-0.3,0.2-0.3,0.4,0.1,0.6l3.4,1.9C142.4,162.8,142.9,162.8,143.2,162.6z"/>
	<path fill="#1E2430" d="M148.5,159.6l7.4-4.2c0.3-0.2,0.3-0.4-0.1-0.6l-3.4-1.9c-0.3-0.2-0.8-0.2-1-0.1L144,157
		c-0.3,0.2-0.3,0.4,0.1,0.6l3.4,1.9C147.8,159.7,148.2,159.7,148.5,159.6z"/>
	<path fill="#1E2430" d="M144.8,155.8l5.9-3.4c0.3-0.2,0.3-0.4-0.1-0.6l-3.4-1.9c-0.3-0.2-0.8-0.2-1-0.1l-5.9,3.4
		c-0.3,0.2-0.3,0.4,0.1,0.6l3.4,1.9C144.1,155.9,144.5,156,144.8,155.8z"/>
	<path fill="#1E2430" d="M132.6,168.7l3.4-2c0.3-0.2,0.3-0.4-0.1-0.6l-3.4-1.9c-0.3-0.2-0.8-0.2-1-0.1l-3.4,2
		c-0.3,0.2-0.3,0.4,0.1,0.6l3.4,1.9C131.8,168.9,132.3,169,132.6,168.7z"/>
	<path fill="#1E2430" d="M127.3,171.8l3.4-2c0.3-0.2,0.3-0.4-0.1-0.6l-3.4-1.9c-0.3-0.2-0.8-0.2-1-0.1l-3.4,2
		c-0.3,0.2-0.3,0.4,0.1,0.6l3.4,1.9C126.5,171.9,127,172,127.3,171.8z"/>
	<path fill="#1E2430" d="M122.1,174.8l3.4-2c0.3-0.2,0.3-0.4-0.1-0.6l-3.4-1.9c-0.3-0.2-0.8-0.2-1-0.1l-3.4,2
		c-0.3,0.2-0.3,0.4,0.1,0.6l3.4,1.9C121.3,175,121.8,175,122.1,174.8z"/>
	<path fill="#1E2430" d="M116.8,177.9l3.4-2c0.3-0.2,0.3-0.4-0.1-0.6l-3.4-1.9c-0.3-0.2-0.8-0.2-1-0.1l-3.4,2
		c-0.3,0.2-0.3,0.4,0.1,0.6l3.4,1.9C116,178,116.5,178,116.8,177.9z"/>
	<path fill="#1E2430" d="M111.5,180.9l3.4-2c0.3-0.2,0.3-0.4-0.1-0.6l-3.4-1.9c-0.3-0.2-0.8-0.2-1-0.1l-3.4,2
		c-0.3,0.2-0.3,0.4,0.1,0.6l3.4,1.9C110.7,181.1,111.3,181.1,111.5,180.9z"/>
	<path fill="#1E2430" d="M106.3,184l3.4-2c0.3-0.2,0.3-0.4-0.1-0.6l-3.4-1.9c-0.3-0.2-0.8-0.2-1-0.1l-3.4,2
		c-0.3,0.2-0.3,0.4,0.1,0.6l3.4,1.9C105.5,184.1,106,184.1,106.3,184z"/>
	<path fill="#1E2430" d="M101,187l3.4-2c0.3-0.2,0.3-0.4-0.1-0.6l-3.4-1.9c-0.3-0.2-0.8-0.2-1-0.1l-3.4,2c-0.3,0.2-0.3,0.4,0.1,0.6
		l3.4,1.9C100.3,187.2,100.7,187.2,101,187z"/>
	<path fill="#1E2430" d="M95.7,190l3.4-2c0.3-0.2,0.3-0.4-0.1-0.6l-3.4-1.9c-0.3-0.2-0.8-0.2-1-0.1l-3.4,2c-0.3,0.2-0.3,0.4,0.1,0.6
		l3.4,1.9C95,190.2,95.5,190.2,95.7,190z"/>
	<path fill="#1E2430" d="M90.5,193.1l3.4-2c0.3-0.2,0.3-0.4-0.1-0.6l-3.4-1.9c-0.3-0.2-0.8-0.2-1-0.1l-3.4,2
		c-0.3,0.2-0.3,0.4,0.1,0.6l3.4,1.9C89.7,193.2,90.2,193.3,90.5,193.1z"/>
	<path fill="#1E2430" d="M81.1,198.5l7.5-4.3c0.3-0.2,0.3-0.4-0.1-0.6l-3.4-1.9c-0.3-0.2-0.8-0.2-1-0.1l-7.5,4.3
		c-0.3,0.2-0.3,0.4,0.1,0.6l3.4,1.9C80.3,198.6,80.8,198.6,81.1,198.5z"/>
	<path fill="#1E2430" d="M70.9,192.6l6.3-3.6c0.3-0.2,0.3-0.4-0.1-0.6l-3.4-1.9c-0.3-0.2-0.8-0.2-1-0.1l-6.3,3.6
		c-0.3,0.2-0.3,0.4,0.1,0.6l3.4,1.9C70.1,192.7,70.6,192.7,70.9,192.6z"/>
	<path fill="#1E2430" d="M123.4,168.2l3.4-2c0.3-0.2,0.3-0.4-0.1-0.6l-3.4-1.9c-0.3-0.2-0.8-0.2-1-0.1l-3.4,2
		c-0.3,0.2-0.3,0.4,0.1,0.6l3.4,1.9C122.6,168.3,123.1,168.3,123.4,168.2z"/>
	<path fill="#1E2430" d="M128.7,165l3.4-2c0.3-0.2,0.3-0.4-0.1-0.6l-3.4-1.9c-0.3-0.2-0.8-0.2-1-0.1l-3.4,2
		c-0.3,0.2-0.3,0.4,0.1,0.6l3.4,1.9C128,165.2,128.5,165.2,128.7,165z"/>
	<path fill="#1E2430" d="M134.2,162l3.4-2c0.3-0.2,0.3-0.4-0.1-0.6l-3.4-1.9c-0.3-0.2-0.8-0.2-1-0.1l-3.4,2
		c-0.3,0.2-0.3,0.4,0.1,0.6l3.4,1.9C133.4,162.1,133.9,162.1,134.2,162z"/>
	<path fill="#1E2430" d="M139.5,158.8l3.4-2c0.3-0.2,0.3-0.4-0.1-0.6l-3.4-1.9c-0.3-0.2-0.8-0.2-1-0.1l-3.4,2
		c-0.3,0.2-0.3,0.4,0.1,0.6l3.4,1.9C138.8,159,139.3,159,139.5,158.8z"/>
	<path fill="#1E2430" d="M118.1,171.2l3.4-2c0.3-0.2,0.3-0.4-0.1-0.6l-3.4-1.9c-0.3-0.2-0.8-0.2-1-0.1l-3.4,2
		c-0.3,0.2-0.3,0.4,0.1,0.6l3.4,1.9C117.4,171.4,117.8,171.4,118.1,171.2z"/>
	<path fill="#1E2430" d="M112.8,174.3l3.4-2c0.3-0.2,0.3-0.4-0.1-0.6l-3.4-1.9c-0.3-0.2-0.8-0.2-1-0.1l-3.4,2
		c-0.3,0.2-0.3,0.4,0.1,0.6l3.4,1.9C112.1,174.4,112.6,174.4,112.8,174.3z"/>
	<path fill="#1E2430" d="M107.6,177.3l3.4-2c0.3-0.2,0.3-0.4-0.1-0.6l-3.4-1.9c-0.3-0.2-0.8-0.2-1-0.1l-3.4,2
		c-0.3,0.2-0.3,0.4,0.1,0.6l3.4,1.9C106.8,177.5,107.3,177.5,107.6,177.3z"/>
	<path fill="#1E2430" d="M102.3,180.3l3.4-2c0.3-0.2,0.3-0.4-0.1-0.6l-3.4-1.9c-0.3-0.2-0.8-0.2-1-0.1l-3.4,2
		c-0.3,0.2-0.3,0.4,0.1,0.6l3.4,1.9C101.6,180.5,102,180.5,102.3,180.3z"/>
	<path fill="#1E2430" d="M97,183.4l3.4-2c0.3-0.2,0.3-0.4-0.1-0.6l-3.4-1.9c-0.3-0.2-0.8-0.2-1-0.1l-3.4,2c-0.3,0.2-0.3,0.4,0.1,0.6
		l3.4,1.9C96.3,183.5,96.8,183.6,97,183.4z"/>
	<path fill="#1E2430" d="M91.8,186.4l3.4-2c0.3-0.2,0.3-0.4-0.1-0.6l-3.4-1.9c-0.3-0.2-0.8-0.2-1-0.1l-3.4,2
		c-0.3,0.2-0.3,0.4,0.1,0.6l3.4,1.9C91,186.5,91.5,186.6,91.8,186.4z"/>
	<path fill="#1E2430" d="M86.5,189.4l3.4-2c0.3-0.2,0.3-0.4-0.1-0.6l-3.4-1.9c-0.3-0.2-0.8-0.2-1-0.1l-3.4,2
		c-0.3,0.2-0.3,0.4,0.1,0.6l3.4,1.9C85.8,189.6,86.2,189.6,86.5,189.4z"/>
	<path fill="#1E2430" d="M81.2,192.5l3.4-2c0.3-0.2,0.3-0.4-0.1-0.6l-3.4-1.9c-0.3-0.2-0.8-0.2-1-0.1l-3.4,2
		c-0.3,0.2-0.3,0.4,0.1,0.6l3.4,1.9C80.5,192.6,81,192.6,81.2,192.5z"/>
	<path fill="#1E2430" d="M76,195.5l3.4-2c0.3-0.2,0.3-0.4-0.1-0.6l-3.4-1.9c-0.3-0.2-0.8-0.2-1-0.1l-3.4,2c-0.3,0.2-0.3,0.4,0.1,0.6
		l3.4,1.9C75.2,195.6,75.7,195.7,76,195.5z"/>
	<path fill="#1E2430" d="M126.1,160.7l3.4-2c0.3-0.2,0.3-0.4-0.1-0.6l-3.4-1.9c-0.3-0.2-0.8-0.2-1-0.1l-3.4,2
		c-0.3,0.2-0.3,0.4,0.1,0.6l3.4,1.9C125.4,160.8,125.9,160.8,126.1,160.7z"/>
	<path fill="#1E2430" d="M131.3,157.6l3.4-2c0.3-0.2,0.3-0.4-0.1-0.6l-3.4-1.9c-0.3-0.2-0.8-0.2-1-0.1l-3.4,2
		c-0.3,0.2-0.3,0.4,0.1,0.6l3.4,1.9C130.6,157.8,131.1,157.8,131.3,157.6z"/>
	<path fill="#1E2430" d="M136.6,154.6l3.4-2c0.3-0.2,0.3-0.4-0.1-0.6l-3.4-1.9c-0.3-0.2-0.8-0.2-1-0.1l-3.4,2
		c-0.3,0.2-0.3,0.4,0.1,0.6l3.4,1.9C135.9,154.8,136.3,154.8,136.6,154.6z"/>
	<path fill="#1E2430" d="M141.8,151.6l3.4-2c0.3-0.2,0.3-0.4-0.1-0.6l-3.4-1.9c-0.3-0.2-0.8-0.2-1-0.1l-3.4,2
		c-0.3,0.2-0.3,0.4,0.1,0.6l3.4,1.9C141.1,151.7,141.6,151.7,141.8,151.6z"/>
	<path fill="#1E2430" d="M136.5,148.5l3.4-2c0.3-0.2,0.3-0.4-0.1-0.6l-1.1-0.6c-0.3-0.2-0.8-0.2-1-0.1l-3.4,2
		c-0.3,0.2-0.3,0.4,0.1,0.6l1.1,0.6C135.7,148.6,136.2,148.6,136.5,148.5z"/>
	<path fill="#1E2430" d="M129.6,152.4l3.4-2c0.3-0.2,0.3-0.4-0.1-0.6l-1.1-0.6c-0.3-0.2-0.8-0.2-1-0.1l-3.4,2
		c-0.3,0.2-0.3,0.4,0.1,0.6l1.1,0.6C128.9,152.6,129.4,152.6,129.6,152.4z"/>
	<path fill="#1E2430" d="M124.4,155.4l3.4-2c0.3-0.2,0.3-0.4-0.1-0.6l-1.1-0.6c-0.3-0.2-0.8-0.2-1-0.1l-3.4,2
		c-0.3,0.2-0.3,0.4,0.1,0.6l1.1,0.6C123.7,155.6,124.1,155.6,124.4,155.4z"/>
	<path fill="#1E2430" d="M119.2,158.5l3.4-2c0.3-0.2,0.3-0.4-0.1-0.6l-1.1-0.6c-0.3-0.2-0.8-0.2-1-0.1l-3.4,2
		c-0.3,0.2-0.3,0.4,0.1,0.6l1.1,0.6C118.5,158.6,118.9,158.6,119.2,158.5z"/>
	<path fill="#1E2430" d="M114,161.4l3.4-2c0.3-0.2,0.3-0.4-0.1-0.6l-1.1-0.6c-0.3-0.2-0.8-0.2-1-0.1l-3.4,2
		c-0.3,0.2-0.3,0.4,0.1,0.6l1.1,0.6C113.2,161.6,113.7,161.6,114,161.4z"/>
	<path fill="#1E2430" d="M84.8,178.3l3.4-2c0.3-0.2,0.3-0.4-0.1-0.6l-1.1-0.6c-0.3-0.2-0.8-0.2-1-0.1l-3.4,2
		c-0.3,0.2-0.3,0.4,0.1,0.6l1.1,0.6C84.1,178.4,84.6,178.4,84.8,178.3z"/>
	<path fill="#1E2430" d="M79.6,181.3l3.4-2c0.3-0.2,0.3-0.4-0.1-0.6l-1.1-0.6c-0.3-0.2-0.8-0.2-1-0.1l-3.4,2
		c-0.3,0.2-0.3,0.4,0.1,0.6l1.1,0.6C78.9,181.4,79.4,181.4,79.6,181.3z"/>
	<path fill="#1E2430" d="M74.4,184.3l3.4-2c0.3-0.2,0.3-0.4-0.1-0.6l-1.1-0.6c-0.3-0.2-0.8-0.2-1-0.1l-3.4,2
		c-0.3,0.2-0.3,0.4,0.1,0.6l1.1,0.6C73.7,184.4,74.1,184.4,74.4,184.3z"/>
	<path fill="#1E2430" d="M69.2,187.3l3.4-2c0.3-0.2,0.3-0.4-0.1-0.6l-1.1-0.6c-0.3-0.2-0.8-0.2-1-0.1l-3.4,2
		c-0.3,0.2-0.3,0.4,0.1,0.6l1.1,0.6C68.5,187.5,68.9,187.5,69.2,187.3z"/>
	<path fill="#1E2430" d="M120.9,163.7l3.4-2c0.3-0.2,0.3-0.4-0.1-0.6l-3.4-1.9c-0.3-0.2-0.8-0.2-1-0.1l-3.4,2
		c-0.3,0.2-0.3,0.4,0.1,0.6l3.4,1.9C120.1,163.8,120.6,163.8,120.9,163.7z"/>
	<path fill="#1E2430" d="M115.6,166.8l3.4-2c0.3-0.2,0.3-0.4-0.1-0.6l-3.4-1.9c-0.3-0.2-0.8-0.2-1-0.1l-3.4,2
		c-0.3,0.2-0.3,0.4,0.1,0.6l3.4,1.9C114.9,166.9,115.3,166.9,115.6,166.8z"/>
	<path fill="#1E2430" d="M110.3,169.8l3.4-2c0.3-0.2,0.3-0.4-0.1-0.6l-3.4-1.9c-0.3-0.2-0.8-0.2-1-0.1l-3.4,2
		c-0.3,0.2-0.3,0.4,0.1,0.6l3.4,1.9C109.6,169.9,110.1,169.9,110.3,169.8z"/>
	<path fill="#1E2430" d="M105.1,172.8l3.4-2c0.3-0.2,0.3-0.4-0.1-0.6l-3.4-1.9c-0.3-0.2-0.8-0.2-1-0.1l-3.4,2
		c-0.3,0.2-0.3,0.4,0.1,0.6l3.4,1.9C104.3,173,104.8,173,105.1,172.8z"/>
	<path fill="#1E2430" d="M99.8,175.8l3.4-2c0.3-0.2,0.3-0.4-0.1-0.6l-3.4-1.9c-0.3-0.2-0.8-0.2-1-0.1l-3.4,2
		c-0.3,0.2-0.3,0.4,0.1,0.6l3.4,1.9C99.1,176,99.5,176,99.8,175.8z"/>
	<path fill="#1E2430" d="M94.5,178.9l3.4-2c0.3-0.2,0.3-0.4-0.1-0.6l-3.4-1.9c-0.3-0.2-0.8-0.2-1-0.1l-3.4,2
		c-0.3,0.2-0.3,0.4,0.1,0.6l3.4,1.9C93.8,179,94.3,179.1,94.5,178.9z"/>
	<path fill="#1E2430" d="M89.3,181.9l3.4-2c0.3-0.2,0.3-0.4-0.1-0.6l-3.4-1.9c-0.3-0.2-0.8-0.2-1-0.1l-3.4,2
		c-0.3,0.2-0.3,0.4,0.1,0.6l3.4,1.9C88.5,182.1,89,182.1,89.3,181.9z"/>
	<path fill="#1E2430" d="M84,185l3.4-2c0.3-0.2,0.3-0.4-0.1-0.6l-3.4-1.9c-0.3-0.2-0.8-0.2-1-0.1l-3.4,2c-0.3,0.2-0.3,0.4,0.1,0.6
		l3.4,1.9C83.3,185.1,83.7,185.1,84,185z"/>
	<path fill="#1E2430" d="M78.7,188l3.4-2c0.3-0.2,0.3-0.4-0.1-0.6l-3.4-1.9c-0.3-0.2-0.8-0.2-1-0.1l-3.4,2c-0.3,0.2-0.3,0.4,0.1,0.6
		l3.4,1.9C78,188.1,78.5,188.2,78.7,188z"/>
	<path fill="#1E2430" d="M150.9,164.1l10.1-5.8c0.3-0.2,0.3-0.4-0.1-0.6l-3.4-1.9c-0.3-0.2-0.8-0.2-1-0.1l-10.1,5.8
		c-0.3,0.2-0.3,0.4,0.1,0.6l3.4,1.9C150.2,164.2,150.7,164.2,150.9,164.1z"/>
	<path fill="#1E2430" d="M86.3,201.4l10.1-5.8c0.3-0.2,0.3-0.4-0.1-0.6l-3.4-1.9c-0.3-0.2-0.8-0.2-1-0.1l-10.1,5.8
		c-0.3,0.2-0.3,0.4,0.1,0.6l3.4,1.9C85.6,201.5,86,201.5,86.3,201.4z"/>
	<path fill="#1E2430" d="M107.4,196l3.4-2c0.3-0.2,0.3-0.4-0.1-0.6l-4-2.3c-0.3-0.2-0.8-0.2-1-0.1l-3.4,2c-0.3,0.2-0.3,0.4,0.1,0.6
		l4,2.3C106.6,196.1,107,196.1,107.4,196z"/>
	<path fill="#1E2430" d="M145.6,173.9l5.5-3.1c0.3-0.2,0.3-0.4-0.1-0.6l-4-2.3c-0.3-0.2-0.8-0.2-1-0.1l-5.5,3.1
		c-0.3,0.2-0.3,0.4,0.1,0.6l4,2.3C144.8,174,145.3,174.1,145.6,173.9z"/>
	<path fill="#1E2430" d="M112.4,193l5.5-3.1c0.3-0.2,0.3-0.4-0.1-0.6l-4-2.3c-0.3-0.2-0.8-0.2-1-0.1l-5.5,3.1
		c-0.3,0.2-0.3,0.4,0.1,0.6l4,2.3C111.7,193.2,112.2,193.2,112.4,193z"/>
	<path fill="#1E2430" d="M138,178.3l5.5-3.1c0.3-0.2,0.3-0.4-0.1-0.6l-4-2.3c-0.3-0.2-0.8-0.2-1-0.1l-5.5,3.1
		c-0.3,0.2-0.3,0.4,0.1,0.6l4,2.3C137.2,178.4,137.7,178.4,138,178.3z"/>
	<path fill="#1E2430" d="M138.2,172.2l-23.7,13.7c-0.3,0.2-0.3,0.5,0,0.6l4.1,2.3c0.3,0.2,0.8,0.2,1,0l23.7-13.7L138.2,172.2z"/>
	<path fill="#1E2430" d="M92.7,201.5l-3.8,2.2c-0.2,0.1-0.2,0.4,0.1,0.5l1.7,0.9c0.3,0.2,0.6,0.2,0.9,0.1l3.8-2.2
		c0.2-0.1,0.2-0.4-0.1-0.5l-1.7-0.9C93.2,201.4,92.9,201.3,92.7,201.5z"/>
	<path fill="#1E2430" d="M97.9,198.4l-3.8,2.2c-0.2,0.1-0.2,0.4,0.1,0.5l1.7,0.9c0.3,0.2,0.6,0.2,0.9,0.1l3.8-2.2
		c0.2-0.1,0.2-0.4-0.1-0.5l-1.7-0.9C98.5,198.3,98.2,198.3,97.9,198.4z"/>
	<path fill="#1E2430" d="M103.2,195.4l-3.8,2.2c-0.2,0.1-0.2,0.4,0.1,0.5l1.7,0.9c0.3,0.2,0.6,0.2,0.9,0.1l3.8-2.2
		c0.2-0.1,0.2-0.4-0.1-0.5l-1.7-0.9C103.8,195.3,103.4,195.2,103.2,195.4z"/>
	<path fill="#1E2430" d="M95.1,196.7l-3.8,2.2c-0.2,0.1-0.2,0.4,0.1,0.5l1.7,0.9c0.3,0.2,0.6,0.2,0.9,0.1l3.8-2.2
		c0.2-0.1,0.2-0.4-0.1-0.5l-1.7-0.9C95.6,196.6,95.3,196.6,95.1,196.7z"/>
</g>
<g>
	<g>
		<path fill="#1E2430" d="M102,103.6l5.1-2.9c0.5-0.3,0.7-0.9,0.6-1.5l0,0c-0.1-0.6-0.6-0.8-1.1-0.5l-5.1,2.9
			c-0.5,0.3-0.7,0.9-0.6,1.5l0,0C101,103.6,101.5,103.8,102,103.6z"/>
		<path fill="#1E2430" d="M90,110.5l7.4-4.3c0.5-0.3,0.7-0.9,0.6-1.5l0,0c-0.1-0.6-0.6-0.8-1.1-0.5l-7.4,4.3
			c-0.5,0.3-0.7,0.9-0.6,1.5l0,0C89.1,110.6,89.5,110.8,90,110.5z"/>
		<path fill="#1E2430" d="M110.8,127.1l5.1-2.9c0.5-0.3,0.7-0.9,0.6-1.5l0,0c-0.1-0.6-0.6-0.8-1.1-0.5l-5.1,2.9
			c-0.5,0.3-0.7,0.9-0.6,1.5l0,0C109.9,127.1,110.3,127.3,110.8,127.1z"/>
		<path fill="#1E2430" d="M100.1,133.3l7.4-4.3c0.5-0.3,0.7-0.9,0.6-1.5l0,0c-0.1-0.6-0.6-0.8-1.1-0.5l-7.4,4.3
			c-0.5,0.3-0.7,0.9-0.6,1.5l0,0C99.1,133.3,99.6,133.6,100.1,133.3z"/>
		<path fill="#1E2430" d="M116.8,99.8l3.1-1.8c0.5-0.3,0.7-0.9,0.6-1.5l0,0c-0.1-0.6-0.6-0.8-1.1-0.5l-3.1,1.8
			c-0.5,0.3-0.7,0.9-0.6,1.5l0,0C115.9,99.8,116.4,100,116.8,99.8z"/>
		<path fill="#1E2430" d="M107.1,110.1l9.6-5.5c0.5-0.3,0.7-0.9,0.6-1.5l0,0c-0.1-0.6-0.6-0.8-1.1-0.5l-9.6,5.5
			c-0.5,0.3-0.7,0.9-0.6,1.5l0,0C106.2,110.2,106.7,110.4,107.1,110.1z"/>
		<path fill="#1E2430" d="M115.6,114.8l3.1-1.8c0.5-0.3,0.7-0.9,0.6-1.5l0,0c-0.1-0.6-0.6-0.8-1.1-0.5l-3.1,1.8
			c-0.5,0.3-0.7,0.9-0.6,1.5l0,0C114.6,114.8,115.1,115.1,115.6,114.8z"/>
		<path fill="#1E2430" d="M98.5,143.7l8.4-4.8c0.5-0.3,0.7-0.9,0.6-1.5l0,0c-0.1-0.6-0.6-0.8-1.1-0.5l-8.4,4.8
			c-0.5,0.3-0.7,0.9-0.6,1.5l0,0C97.5,143.8,98,144,98.5,143.7z"/>
		<path fill="#1E2430" d="M118.6,122.5l2-1.1c0.5-0.3,0.7-0.9,0.6-1.5l0,0c-0.1-0.6-0.6-0.8-1.1-0.5l-2,1.1
			c-0.5,0.3-0.7,0.9-0.6,1.5l0,0C117.7,122.6,118.2,122.8,118.6,122.5z"/>
		<path fill="#1E2430" d="M120.1,131.3l2.5-1.5c0.5-0.3,0.7-0.9,0.6-1.5l0,0c-0.1-0.6-0.6-0.8-1.1-0.5l-2.5,1.5
			c-0.5,0.3-0.7,0.9-0.6,1.5l0,0C119.1,131.3,119.6,131.5,120.1,131.3z"/>
		<path fill="#1E2430" d="M110.3,136.9l6.6-3.8c0.5-0.3,0.7-0.9,0.6-1.5l0,0c-0.1-0.6-0.6-0.8-1.1-0.5l-6.6,3.8
			c-0.5,0.3-0.7,0.9-0.6,1.5l0,0C109.4,136.9,109.9,137.1,110.3,136.9z"/>
		<path fill="#1E2430" d="M118.8,136.7l4.7-2.8c0.5-0.3,0.7-0.9,0.6-1.5l0,0c-0.1-0.6-0.6-0.8-1.1-0.5l-4.7,2.8
			c-0.5,0.3-0.7,0.9-0.6,1.5l0,0C117.9,136.8,118.4,137,118.8,136.7z"/>
		<path fill="#1E2430" d="M91.2,147.9l3.1-1.8c0.5-0.3,0.7-0.9,0.6-1.5l0,0c-0.1-0.6-0.6-0.8-1.1-0.5l-3.1,1.8
			c-0.5,0.3-0.7,0.9-0.6,1.5l0,0C90.3,147.9,90.8,148.2,91.2,147.9z"/>
		<path fill="#1E2430" d="M103.9,121.6l8.4-4.8c0.5-0.3,0.7-0.9,0.6-1.5l0,0c-0.1-0.6-0.6-0.8-1.1-0.5l-8.4,4.8
			c-0.5,0.3-0.7,0.9-0.6,1.5l0,0C102.9,121.6,103.4,121.8,103.9,121.6z"/>
		<path fill="#1E2430" d="M103.1,117.2l14.7-8.4c0.5-0.3,0.7-0.9,0.6-1.5l0,0c-0.1-0.6-0.6-0.8-1.1-0.5l-14.6,8.5
			c-0.5,0.3-0.7,0.9-0.6,1.5l0,0C102.1,117.3,102.6,117.5,103.1,117.2z"/>
		<path fill="#1E2430" d="M111.3,122l8.4-4.8c0.5-0.3,0.7-0.9,0.6-1.5l0,0c-0.1-0.6-0.6-0.8-1.1-0.5l-8.4,4.8
			c-0.5,0.3-0.7,0.9-0.6,1.5l0,0C110.3,122.1,110.8,122.3,111.3,122z"/>
		<path fill="#1E2430" d="M97.5,125.3l3.1-1.8c0.5-0.3,0.7-0.9,0.6-1.5l0,0c-0.1-0.6-0.6-0.8-1.1-0.5l-3.1,1.8
			c-0.5,0.3-0.7,0.9-0.6,1.5l0,0C96.6,125.3,97,125.5,97.5,125.3z"/>
		<path fill="#1E2430" d="M67.4,123.6l18.1-10.4c0.5-0.3,0.7-0.9,0.6-1.5l0,0c-0.1-0.6-0.6-0.8-1.1-0.5l-18.1,10.4
			c-0.5,0.3-0.7,0.9-0.6,1.5l0,0C66.4,123.6,66.9,123.9,67.4,123.6z"/>
		<path fill="#1E2430" d="M111.5,131.4l10.1-5.8c0.5-0.3,0.7-0.9,0.6-1.5l0,0c-0.1-0.6-0.6-0.8-1.1-0.5l-10.1,5.8
			c-0.5,0.3-0.7,0.9-0.6,1.5l0,0C110.6,131.5,111.1,131.7,111.5,131.4z"/>
		<path fill="#1E2430" d="M111.6,98l7.4-4.3c0.5-0.3,0.7-0.9,0.6-1.5l0,0c-0.1-0.6-0.6-0.8-1.1-0.5l-7.4,4.3
			c-0.5,0.3-0.7,0.9-0.6,1.5l0,0C110.6,98.1,111.2,98.3,111.6,98z"/>
		<path fill="#1E2430" d="M120.1,140.7l8.6-5c0.5-0.3,0.7-0.9,0.6-1.5l0,0c-0.1-0.6-0.6-0.8-1.1-0.5l-8.6,5
			c-0.5,0.3-0.7,0.9-0.6,1.5l0,0C119.2,140.8,119.7,141,120.1,140.7z"/>
	</g>
	<g>
		<path fill="#1E2430" d="M61.9,158.9L67,156c0.5-0.3,0.7-0.9,0.6-1.5l0,0c-0.1-0.6-0.6-0.8-1.1-0.5l-5.1,2.9
			c-0.5,0.3-0.7,0.9-0.6,1.5l0,0C61,158.9,61.5,159.2,61.9,158.9z"/>
		<path fill="#1E2430" d="M58.3,141.9l9.6-5.5c0.5-0.3,0.7-0.9,0.6-1.5l0,0c-0.1-0.6-0.6-0.8-1.1-0.5l-9.6,5.5
			c-0.5,0.3-0.7,0.9-0.6,1.5l0,0C57.4,141.9,57.8,142.2,58.3,141.9z"/>
		<path fill="#1E2430" d="M66.7,146.6l3.1-1.8c0.5-0.3,0.7-0.9,0.6-1.5l0,0c-0.1-0.6-0.6-0.8-1.1-0.5l-3.1,1.8
			c-0.5,0.3-0.7,0.9-0.6,1.5l0,0C65.7,146.6,66.3,146.8,66.7,146.6z"/>
		<path fill="#1E2430" d="M69.8,154.4l2-1.1c0.5-0.3,0.7-0.9,0.6-1.5l0,0c-0.1-0.6-0.6-0.8-1.1-0.5l-2,1.1c-0.5,0.3-0.7,0.9-0.6,1.5
			l0,0C68.8,154.4,69.3,154.6,69.8,154.4z"/>
		<path fill="#1E2430" d="M55,153.4l8.4-4.8c0.5-0.3,0.7-0.9,0.6-1.5l0,0c-0.1-0.6-0.6-0.8-1.1-0.5l-8.4,4.8
			c-0.5,0.3-0.7,0.9-0.6,1.5l0,0C54.1,153.4,54.5,153.6,55,153.4z"/>
		<path fill="#1E2430" d="M54.2,149l14.7-8.4c0.5-0.3,0.7-0.9,0.6-1.5l0,0c-0.1-0.6-0.6-0.8-1.1-0.5L53.8,147
			c-0.5,0.3-0.7,0.9-0.6,1.5l0,0C53.3,149,53.8,149.3,54.2,149z"/>
		<path fill="#1E2430" d="M62.4,153.8l8.4-4.8c0.5-0.3,0.7-0.9,0.6-1.5l0,0c-0.1-0.6-0.6-0.8-1.1-0.5l-8.4,4.8
			c-0.5,0.3-0.7,0.9-0.6,1.5l0,0C61.5,153.9,61.9,154.1,62.4,153.8z"/>
		<path fill="#1E2430" d="M62.7,163.2l10.1-5.8c0.5-0.3,0.7-0.9,0.6-1.5l0,0c-0.1-0.6-0.6-0.8-1.1-0.5l-10.1,5.8
			c-0.5,0.3-0.7,0.9-0.6,1.5l0,0C61.7,163.3,62.2,163.5,62.7,163.2z"/>
	</g>
</g>
<polygon fill="#F7A37A" points="40,102.7 32.1,99.6 33.9,87.9 37.7,91.3 "/>
<path fill="#323A4F" d="M93.2,48.2L74,40.6l3.5,7.7l10.2,2.3L93.2,48.2z"/>
<path fill="#323A4F" d="M33.1,80c1-0.6,2.1-0.9,3.1-1c-1-7,2-14.5,7.8-17.9c1.8-1,3.6-1.6,5.5-1.7c-2.3-8.6,1.3-18.3,8.4-22.5
	c3.8-2.2,7.9-2.5,11.4-1.1l0,0l0.2,0.1c0.1,0.1,0.2,0.1,0.3,0.1l6,2.3l-2.4,2.1c3.2,1,6,3.6,7.6,7.6c2.7,7.1-0.1,15.9-6.3,19.4
	L37.8,98.5c-4.6,2.7-7.5,1.6-9.5-3.8C26.3,89.2,28.4,82.7,33.1,80z"/>
<path fill="#323A4F" d="M79.3,44.8l-20.6-8.2c3.6-1.8,7.4-2,10.7-0.7l0,0l0.2,0.1c0.1,0.1,0.2,0.1,0.3,0.1l6,2.3l-2.4,2.1
	C75.7,41.1,77.8,42.6,79.3,44.8z"/>
<path fill="#323A4F" d="M50.5,75.8l-13.6-5.5c1.3-3.9,3.8-7.3,7.2-9.3c0.5-0.3,0.9-0.5,1.4-0.7l18.8,7.5L50.5,75.8z"/>
<path fill="#FDC830" d="M39.6,82.6c1-0.6,2.1-0.9,3.1-1c-1-7,2.1-14.5,7.9-17.9c1.8-1,3.6-1.6,5.4-1.7c-2.3-8.6,1.3-18.3,8.4-22.5
	c7.8-4.5,16.8-0.8,20.3,8.1c0.1,0.3,0.2,0.6,0.3,0.9c5.9-2.7,12.5,0.3,15,7c2.7,7.1-0.1,15.9-6.3,19.4L46.9,102
	c-4.6,2.7-10.1,0.5-12.1-4.8C32.8,91.8,35,85.3,39.6,82.6z"/>
<path fill="#FFFFFF" d="M38.6,82.1c1-0.6,2.1-0.9,3.1-1c-1-7,2.1-14.5,7.9-17.9c1.8-1,3.6-1.6,5.4-1.7c-2.3-8.6,1.3-18.3,8.4-22.5
	c4.6-2.7,9.8-2.5,13.8,0.1c-3.9-2-8.6-2-12.9,0.5c-7,4.1-10.5,13.8-8.3,22.4c-1.8,0.1-3.6,0.7-5.4,1.7c-5.8,3.4-9,10.9-7.9,17.9
	c-1,0.2-2.1,0.5-3.1,1c-4.6,2.7-6.8,9.2-4.7,14.6c0.8,2.1,2.1,3.6,3.6,4.7c-2-0.9-3.6-2.8-4.6-5.2C31.9,91.3,34,84.7,38.6,82.1z"/>
<path fill="#FFFFFF" d="M85.1,48.5c-0.1-0.3-0.2-0.5-0.3-0.8c3.2-1.2,6.5-0.8,9.3,0.9C91.3,47.3,88.2,47.2,85.1,48.5z"/>
<path fill="#323A4F" d="M90.4,49.9c0.9,0,1.7,0.2,2.5,0.5c1.9,0.8,3.4,2.7,4.4,5.2c2.4,6.3-0.2,14.3-5.6,17.4l-46.8,27.1
	c-1.5,0.8-3,1-4.2,0.6c-1.2-0.5-2.2-1.7-2.9-3.4c-1.7-4.5,0.1-10.3,4.1-12.6c0.7-0.4,1.5-0.7,2.2-0.8l1.9-0.3L45.7,82
	c-1-6.5,2-13.4,7.1-16.3c1.4-0.8,2.9-1.3,4.3-1.4l2.3-0.2l-0.5-2c-2.1-7.8,1.3-16.9,7.7-20.6c3-1.7,6.2-2.1,8.9-1
	c2.7,1.1,5,3.6,6.3,7.1c0.1,0.3,0.2,0.5,0.3,0.8l1.3,3.9l3.6-1.6C88.2,50.2,89.3,49.9,90.4,49.9z"/>
<path fill="#FDC830" d="M67.9,79.9l6.3-3.6c0.3-0.2,0.5-0.6,0.4-1L73,68.2l-7.4,4.3l1.5,7.1C67.3,80,67.6,80.2,67.9,79.9z"/>
<path fill="#FDC830" d="M68.4,62.6l8.4,4.3c0.4,0.2,0.3,0.8-0.2,1.1l-6.9,4l-6.9,4c-0.4,0.3-0.8-0.2-0.6-0.7l5-12
	C67.5,62.7,68,62.4,68.4,62.6z"/>
<path fill="#1E2430" d="M226.4,221.4l-25-14.3c-2-1.1-5.4-1-7.7,0.3L142.6,237c-2.3,1.3-2.5,3.3-0.5,4.4l25,14.3
	c2,1.1,5.4,1,7.7-0.3l51.2-29.7C228.1,224.4,228.4,222.4,226.4,221.4z"/>
<path fill="#FDC830" d="M166,251.1l-25.6-14.7c-1.1-0.6-1.7-1.5-1.7-2.4l0,0v-4.4l0.8,1.4c0.4-0.5,0.9-0.9,1.6-1.3l51.5-29.9
	c2.9-1.7,7.4-1.9,9.9-0.4l25.6,14.7c0.3,0.2,0.5,0.3,0.7,0.5l1-1.3v4.1l0,0c0.1,1.1-0.8,2.3-2.4,3.3l-51.5,29.9
	C172.9,252.3,168.5,252.5,166,251.1z"/>
<path fill="#323A4F" d="M228,210.8l-25.6-14.7c-2.6-1.5-6.9-1.3-9.9,0.4L141,226.4c-2.9,1.7-3.2,4.2-0.7,5.7l25.6,14.7
	c2.6,1.5,6.9,1.3,9.9-0.4l51.5-29.9C230.2,214.8,230.5,212.3,228,210.8z"/>
<path fill="#FFFFFF" d="M140.4,232.1l25.6,14.7c2.6,1.5,6.9,1.3,9.9-0.4l51.5-29.9c1.4-0.8,2.2-1.8,2.4-2.9c0.2,1.2-0.6,2.6-2.4,3.6
	l-51.5,29.9c-2.9,1.7-7.4,1.9-9.9,0.4l-25.6-14.7c-1.3-0.7-1.8-1.8-1.7-2.9C138.8,230.8,139.4,231.6,140.4,232.1z"/>
<path fill="#FFFFFF" d="M226.4,211.4l-25-14.3c-2-1.1-5.4-1-7.7,0.3l-51.2,29.7c-2.3,1.3-2.5,3.3-0.5,4.4l25,14.3
	c2,1.1,5.4,1,7.7-0.3l51.2-29.7C228.1,214.5,228.4,212.5,226.4,211.4z"/>
<g>
	<path fill="#323A4F" d="M186.1,216.6l9.2-5.3c0.4-0.2,0.3-0.5-0.1-0.8l0,0c-0.4-0.2-1-0.3-1.4-0.1l-9.2,5.3
		c-0.4,0.2-0.3,0.5,0.1,0.8l0,0C185.2,216.8,185.8,216.8,186.1,216.6z"/>
	<path fill="#323A4F" d="M194.9,214.8l3.3-1.9c0.4-0.2,0.3-0.5-0.1-0.8l0,0c-0.4-0.2-1-0.3-1.4-0.1l-3.3,1.9
		c-0.4,0.2-0.3,0.5,0.1,0.8l0,0C194,215,194.5,215,194.9,214.8z"/>
	<path fill="#323A4F" d="M189.4,218l3.3-1.9c0.4-0.2,0.3-0.5-0.1-0.8l0,0c-0.4-0.2-1-0.3-1.4-0.1l-3.3,1.9c-0.4,0.2-0.3,0.5,0.1,0.8
		l0,0C188.4,218.2,189,218.2,189.4,218z"/>
	<path fill="#323A4F" d="M178.2,224.5l9-5.2c0.4-0.2,0.3-0.5-0.1-0.8l0,0c-0.4-0.2-1-0.3-1.4-0.1l-9,5.2c-0.4,0.2-0.3,0.5,0.1,0.8
		l0,0C177.2,224.6,177.9,224.6,178.2,224.5z"/>
	<path fill="#323A4F" d="M189.5,221.2l11.6-6.7c0.4-0.2,0.3-0.5-0.1-0.8l0,0c-0.4-0.2-1-0.3-1.4-0.1l-11.6,6.7
		c-0.4,0.2-0.3,0.5,0.1,0.8l0,0C188.5,221.4,189.1,221.4,189.5,221.2z"/>
	<path fill="#323A4F" d="M175.6,232.5l28.3-16.3c0.4-0.2,0.3-0.5-0.1-0.8l0,0c-0.4-0.2-1-0.3-1.4-0.1l-28.3,16.3
		c-0.4,0.2-0.3,0.5,0.1,0.8l0,0C174.6,232.7,175.2,232.7,175.6,232.5z"/>
	<path fill="#323A4F" d="M167.3,227.5l16.3-9.4c0.4-0.2,0.3-0.5-0.1-0.8l0,0c-0.4-0.2-1-0.3-1.4-0.1l-16.3,9.4
		c-0.4,0.2-0.3,0.5,0.1,0.8l0,0C166.4,227.7,167,227.7,167.3,227.5z"/>
</g>
<path fill="#FDEAE1" d="M187.2,242.8l2.4-1.4c0.3-0.2,0.4-0.5,0.4-0.8l0,0c0-0.3-0.2-0.5-0.4-0.3l-2.4,1.4c-0.3,0.2-0.4,0.5-0.4,0.8
	l0,0C186.8,242.8,187,242.9,187.2,242.8z"/>
<path fill="#FDEAE1" d="M183.5,245l2.4-1.4c0.3-0.2,0.4-0.5,0.4-0.8l0,0c0-0.3-0.2-0.5-0.4-0.3l-2.4,1.4c-0.3,0.2-0.4,0.5-0.4,0.8
	l0,0C183.1,245,183.3,245.1,183.5,245z"/>
</svg>
