<?xml version="1.0" encoding="utf-8"?>
<!-- Generator: Adobe Illustrator 18.0.0, SVG Export Plug-In . SVG Version: 6.00 Build 0)  -->
<!DOCTYPE svg PUBLIC "-//W3C//DTD SVG 1.1//EN" "http://www.w3.org/Graphics/SVG/1.1/DTD/svg11.dtd">
<svg version="1.1" id="Domain_Checker_2_" xmlns="http://www.w3.org/2000/svg" xmlns:xlink="http://www.w3.org/1999/xlink" x="0px"
	 y="0px" viewBox="0 0 600 600" enable-background="new 0 0 600 600" xml:space="preserve">
<g>
	<path fill="#EFEFEF" d="M125.8,475.7c98.6,56.9,258.2,56.9,356.8,0s98.6-149,0-205.9s-258.2-56.9-356.8,0S27.2,418.7,125.8,475.7z"
		/>
	<g>
		<g>
			<g>
				<g>
					<path fill="#EDEDED" d="M259.5,311.7l-65.9-37.6c-2.4-1.4-2.1-3.8,0.7-5.4l37.9-21.9c2.8-1.6,7-1.8,9.4-0.4l65.9,37.6
						c2.4,1.4,2.1,3.8-0.7,5.4l-37.9,21.9C266.1,313,261.9,313.1,259.5,311.7z"/>
					<path fill="#414B8A" d="M313.4,271.4L313.4,271.4V117.5l-61.2-16L240.9,95c-2.6-1.5-7.1-1.3-10.1,0.4l-10.5,6.1l-32.6,0
						l9.7,148.6c-0.1,1,0.5,2,1.7,2.7l61.1,46.1c2.6,1.5,7.1,1.3,10.1-0.4l40.7-23.5C312.6,273.9,313.5,272.6,313.4,271.4z"/>
					<path fill="#E5E5E5" d="M236.2,94c-1.9,0-3.9,0.5-5.4,1.4l-10.5,6.1l-32.6,0v154.3c-0.1,1,0.5,2,1.7,2.7l70.7,40.3
						c1.2,0.7,2.9,1,4.7,1l0.7-155.3L236.2,94z"/>
					<path fill="#7384F0" d="M260.8,299.1c2.2,1,5.5,0.9,8.1-0.1V142.7h-8.1V299.1z"/>
					<path fill="#E5E5E5" d="M260.1,144.5l-70.7-40.3c-2.6-1.5-2.3-4.1,0.7-5.8l40.7-23.5c3-1.7,7.5-1.9,10.1-0.4l70.7,40.3
						c2.6,1.5,2.3,4.1-0.7,5.8l-40.7,23.5C267.2,145.8,262.7,146,260.1,144.5z"/>
					<path fill="#FAFDFF" d="M310.9,117.7l-40.7,23.5c-3,1.7-7.5,1.9-10.1,0.4l-70.7-40.3c-0.6-0.3-1-0.7-1.3-1.1
						c-0.9,1.4-0.5,3,1.3,4l70.7,40.3c2.6,1.5,7.1,1.3,10.1-0.4l40.7-23.5c2.3-1.3,3-3.2,2-4.7C312.5,116.6,311.8,117.2,310.9,117.7
						z"/>
					<g>
						<path fill="#5C6AC3" d="M262.1,128.2l-47.1-27.3c-1.2-0.7-1.1-1.9,0.3-2.7l19-11c1.4-0.8,3.5-0.9,4.7-0.2l47.1,27.3
							c1.2,0.7,1.1,1.9-0.3,2.7l-19,11C265.5,128.8,263.3,128.9,262.1,128.2z"/>
						<g>
							<path fill="#E5E5E5" d="M236.7,102.1l-2.7-1.6c-0.2-0.1-0.1-0.3,0-0.4l2.6-1.5c0.2-0.1,0.5-0.1,0.7,0l2.7,1.6
								c0.2,0.1,0.1,0.3,0,0.4l-2.6,1.5C237.2,102.2,236.9,102.2,236.7,102.1z"/>
							<path fill="#E5E5E5" d="M245.8,107.4l-2.7-1.6c-0.2-0.1-0.1-0.3,0-0.4l2.6-1.5c0.2-0.1,0.5-0.1,0.7,0l2.7,1.6
								c0.2,0.1,0.1,0.3,0,0.4l-2.6,1.5C246.3,107.4,246,107.4,245.8,107.4z"/>
							<path fill="#E5E5E5" d="M254.9,112.6l-2.7-1.6c-0.2-0.1-0.1-0.3,0-0.4l2.6-1.5c0.2-0.1,0.5-0.1,0.7,0l2.7,1.6
								c0.2,0.1,0.1,0.3,0,0.4l-2.6,1.5C255.4,112.7,255.1,112.7,254.9,112.6z"/>
							<path fill="#E5E5E5" d="M264.1,117.8l-2.7-1.6c-0.2-0.1-0.1-0.3,0-0.4l2.6-1.5c0.2-0.1,0.5-0.1,0.7,0l2.7,1.6
								c0.2,0.1,0.1,0.3,0,0.4l-2.6,1.5C264.5,117.9,264.2,117.9,264.1,117.8z"/>
						</g>
						<path fill="#7384F0" d="M215.1,100.9L215.1,100.9c0.1,0,0.2-0.1,0.3-0.2l19-11c1.4-0.8,3.5-0.9,4.7-0.2l47,27.3
							c1.1-0.8,1.2-1.9,0.1-2.5L239.2,87c-1.2-0.7-3.3-0.6-4.7,0.2l-19,11C214,99,213.8,100.2,215.1,100.9z"/>
					</g>
				</g>
				<g>
					<path fill="#5C6AC3" d="M278.2,175l26.8-15.3c1.5-0.9,2.7-3.2,2.7-5.2v-9.6c0-2-1.2-2.9-2.7-2.1l-26.8,15.3
						c-1.5,0.9-2.7,3.2-2.7,5.2v9.6C275.4,175,276.7,175.9,278.2,175z"/>
					<path fill="#FFFFFF" d="M306.3,142.5c0.4,0.4,0.7,1.1,0.7,2v9.6c0,2-1.2,4.3-2.7,5.2l-26.8,15.3c-0.5,0.3-0.9,0.4-1.3,0.3
						c0.5,0.5,1.2,0.5,2,0.1l26.8-15.3c1.5-0.9,2.7-3.2,2.7-5.2v-9.6C307.7,143.5,307.1,142.7,306.3,142.5z"/>
					<g>
						<path fill="#414B8A" d="M286.2,164.6l2.5-1.4c0.3-0.2,0.6-0.7,0.6-1.1v-2.6c0-0.4-0.3-0.6-0.6-0.4l-2.5,1.4
							c-0.3,0.2-0.6,0.7-0.6,1.1v2.6C285.6,164.6,285.9,164.8,286.2,164.6z"/>
						<path fill="#FFFFFF" d="M294.4,159.9l2.5-1.4c0.3-0.2,0.6-0.7,0.6-1.1v-2.6c0-0.4-0.3-0.6-0.6-0.4l-2.5,1.4
							c-0.3,0.2-0.6,0.7-0.6,1.1v2.6C293.8,159.9,294.1,160.1,294.4,159.9z"/>
					</g>
				</g>
				<g>
					<path fill="#5C6AC3" d="M278.2,244.2l26.8-15.3c1.5-0.9,2.7-3.2,2.7-5.2v-9.6c0-2-1.2-2.9-2.7-2.1l-26.8,15.3
						c-1.5,0.9-2.7,3.2-2.7,5.2v9.6C275.4,244.1,276.7,245,278.2,244.2z"/>
					<path fill="#FFFFFF" d="M306.3,211.7c0.4,0.4,0.7,1.1,0.7,2v9.6c0,2-1.2,4.3-2.7,5.2l-26.8,15.3c-0.5,0.3-0.9,0.4-1.3,0.3
						c0.5,0.5,1.2,0.5,2,0.1l26.8-15.3c1.5-0.9,2.7-3.2,2.7-5.2v-9.6C307.7,212.7,307.1,211.9,306.3,211.7z"/>
					<g>
						<path fill="#414B8A" d="M286.2,233.8l2.5-1.4c0.3-0.2,0.6-0.7,0.6-1.1v-2.6c0-0.4-0.3-0.6-0.6-0.4l-2.5,1.4
							c-0.3,0.2-0.6,0.7-0.6,1.1v2.6C285.6,233.8,285.9,234,286.2,233.8z"/>
						<path fill="#FFFFFF" d="M294.4,229l2.5-1.4c0.3-0.2,0.6-0.7,0.6-1.1v-2.6c0-0.4-0.3-0.6-0.6-0.4l-2.5,1.4
							c-0.3,0.2-0.6,0.7-0.6,1.1v2.6C293.8,229,294.1,229.2,294.4,229z"/>
					</g>
				</g>
				<g>
					<path fill="#5C6AC3" d="M278.2,278.8l26.8-15.3c1.5-0.9,2.7-3.2,2.7-5.2v-9.6c0-2-1.2-2.9-2.7-2.1l-26.8,15.3
						c-1.5,0.9-2.7,3.2-2.7,5.2v9.6C275.4,278.7,276.7,279.6,278.2,278.8z"/>
					<path fill="#FFFFFF" d="M306.3,246.3c0.4,0.4,0.7,1.1,0.7,2v9.6c0,2-1.2,4.3-2.7,5.2l-26.8,15.3c-0.5,0.3-0.9,0.4-1.3,0.3
						c0.5,0.5,1.2,0.5,2,0.1l26.8-15.3c1.5-0.9,2.7-3.2,2.7-5.2v-9.6C307.7,247.3,307.1,246.4,306.3,246.3z"/>
					<g>
						<path fill="#414B8A" d="M286.2,268.4l2.5-1.4c0.3-0.2,0.6-0.7,0.6-1.1v-2.6c0-0.4-0.3-0.6-0.6-0.4l-2.5,1.4
							c-0.3,0.2-0.6,0.7-0.6,1.1v2.6C285.6,268.4,285.9,268.6,286.2,268.4z"/>
						<path fill="#FFFFFF" d="M294.4,263.6l2.5-1.4c0.3-0.2,0.6-0.7,0.6-1.1v-2.6c0-0.4-0.3-0.6-0.6-0.4l-2.5,1.4
							c-0.3,0.2-0.6,0.7-0.6,1.1v2.6C293.8,263.6,294.1,263.8,294.4,263.6z"/>
					</g>
				</g>
				<g>
					<path fill="#5C6AC3" d="M278.2,209.6l26.8-15.3c1.5-0.9,2.7-3.2,2.7-5.2v-9.6c0-2-1.2-2.9-2.7-2.1l-26.8,15.3
						c-1.5,0.9-2.7,3.2-2.7,5.2v9.6C275.4,209.5,276.7,210.5,278.2,209.6z"/>
					<path fill="#FFFFFF" d="M306.3,177.1c0.4,0.4,0.7,1.1,0.7,2v9.6c0,2-1.2,4.3-2.7,5.2l-26.8,15.3c-0.5,0.3-0.9,0.4-1.3,0.3
						c0.5,0.5,1.2,0.5,2,0.1l26.8-15.3c1.5-0.9,2.7-3.2,2.7-5.2v-9.6C307.7,178.1,307.1,177.3,306.3,177.1z"/>
					<g>
						<path fill="#414B8A" d="M286.2,199.2l2.5-1.4c0.3-0.2,0.6-0.7,0.6-1.1V194c0-0.4-0.3-0.6-0.6-0.4l-2.5,1.4
							c-0.3,0.2-0.6,0.7-0.6,1.1v2.6C285.6,199.2,285.9,199.4,286.2,199.2z"/>
						<path fill="#FFFFFF" d="M294.4,194.5l2.5-1.4c0.3-0.2,0.6-0.7,0.6-1.1v-2.6c0-0.4-0.3-0.6-0.6-0.4l-2.5,1.4
							c-0.3,0.2-0.6,0.7-0.6,1.1v2.6C293.8,194.4,294.1,194.6,294.4,194.5z"/>
					</g>
				</g>
			</g>
			<g>
				<path fill="#7384F0" d="M255,165.2l-61.8-35.7c-1.4-0.8-2.5-2.9-2.5-4.8V113c0-1.8,1.1-2.7,2.5-1.9l61.8,35.7
					c1.4,0.8,2.5,2.9,2.5,4.8v11.8C257.5,165.2,256.4,166,255,165.2z"/>
				<path opacity="0.4" fill="#E5E5E5" d="M253.2,161.1L195,127.5c-0.7-0.4-1.3-1.5-1.3-2.4v-8.9c0-0.9,0.6-1.4,1.3-1l58.2,33.6
					c0.7,0.4,1.3,1.5,1.3,2.4v8.9C254.5,161.1,253.9,161.5,253.2,161.1z"/>
				<path fill="#E5E5E5" d="M207.1,130l-8.7-5c-0.7-0.4-1.2-1.4-1.2-2.4l0,0c0-0.9,0.6-1.3,1.2-0.9l8.7,5c0.7,0.4,1.2,1.4,1.2,2.4
					l0,0C208.4,130,207.8,130.4,207.1,130z"/>
				<path fill="#5C6AC3" d="M214.5,132.6c0,0.9-0.6,1.3-1.4,0.8c-0.8-0.5-1.4-1.6-1.4-2.5c0-0.9,0.6-1.3,1.4-0.8
					C213.9,130.6,214.5,131.7,214.5,132.6z"/>
				<path fill="#5C6AC3" d="M219.6,135.5c0,0.9-0.6,1.3-1.4,0.8c-0.8-0.5-1.4-1.6-1.4-2.5c0-0.9,0.6-1.3,1.4-0.8
					C218.9,133.5,219.6,134.6,219.6,135.5z"/>
				<path fill="#E5E5E5" d="M224.6,138.4c0,0.9-0.6,1.3-1.4,0.8c-0.8-0.5-1.4-1.6-1.4-2.5c0-0.9,0.6-1.3,1.4-0.8
					C223.9,136.4,224.6,137.5,224.6,138.4z"/>
				<path fill="#5C6AC3" d="M229.6,141.3c0,0.9-0.6,1.3-1.4,0.8c-0.8-0.5-1.4-1.6-1.4-2.5c0-0.9,0.6-1.3,1.4-0.8
					C229,139.3,229.6,140.4,229.6,141.3z"/>
				<path fill="#5C6AC3" d="M250.8,156.1l-2.9-1.7c-0.4-0.3-0.8-0.9-0.8-1.5v-3.1c0-0.6,0.4-0.9,0.8-0.6l2.9,1.7
					c0.4,0.3,0.8,0.9,0.8,1.5v3.1C251.5,156.1,251.2,156.4,250.8,156.1z"/>
			</g>
			<g>
				<path fill="#7384F0" d="M255,186l-61.8-35.7c-1.4-0.8-2.5-2.9-2.5-4.8v-11.8c0-1.8,1.1-2.7,2.5-1.9l61.8,35.7
					c1.4,0.8,2.5,2.9,2.5,4.8v11.8C257.5,185.9,256.4,186.8,255,186z"/>
				<path opacity="0.4" fill="#E5E5E5" d="M253.2,181.8L195,148.2c-0.7-0.4-1.3-1.5-1.3-2.4V137c0-0.9,0.6-1.4,1.3-1l58.2,33.6
					c0.7,0.4,1.3,1.5,1.3,2.4v8.9C254.5,181.8,253.9,182.2,253.2,181.8z"/>
				<path fill="#E5E5E5" d="M207.1,150.8l-8.7-5c-0.7-0.4-1.2-1.4-1.2-2.4l0,0c0-0.9,0.6-1.3,1.2-0.9l8.7,5c0.7,0.4,1.2,1.4,1.2,2.4
					l0,0C208.4,150.7,207.8,151.2,207.1,150.8z"/>
				<path fill="#FFFFFF" d="M214.5,153.4c0,0.9-0.6,1.3-1.4,0.8c-0.8-0.5-1.4-1.6-1.4-2.5c0-0.9,0.6-1.3,1.4-0.8
					C213.9,151.4,214.5,152.5,214.5,153.4z"/>
				<path fill="#5C6AC3" d="M219.6,156.3c0,0.9-0.6,1.3-1.4,0.8c-0.8-0.5-1.4-1.6-1.4-2.5c0-0.9,0.6-1.3,1.4-0.8
					C218.9,154.3,219.6,155.4,219.6,156.3z"/>
				<path fill="#E5E5E5" d="M224.6,159.2c0,0.9-0.6,1.3-1.4,0.8c-0.8-0.5-1.4-1.6-1.4-2.5c0-0.9,0.6-1.3,1.4-0.8
					C223.9,157.2,224.6,158.3,224.6,159.2z"/>
				<path fill="#5C6AC3" d="M229.6,162.1c0,0.9-0.6,1.3-1.4,0.8c-0.8-0.5-1.4-1.6-1.4-2.5c0-0.9,0.6-1.3,1.4-0.8
					C229,160.1,229.6,161.2,229.6,162.1z"/>
				<path fill="#5C6AC3" d="M250.8,176.9l-2.9-1.7c-0.4-0.3-0.8-0.9-0.8-1.5v-3.1c0-0.6,0.4-0.9,0.8-0.6l2.9,1.7
					c0.4,0.3,0.8,0.9,0.8,1.5v3.1C251.5,176.9,251.2,177.2,250.8,176.9z"/>
			</g>
			<g>
				<path fill="#7384F0" d="M255,206.7l-61.8-35.7c-1.4-0.8-2.5-2.9-2.5-4.8v-11.8c0-1.8,1.1-2.7,2.5-1.9l61.8,35.7
					c1.4,0.8,2.5,2.9,2.5,4.8v11.8C257.5,206.7,256.4,207.5,255,206.7z"/>
				<path opacity="0.4" fill="#E5E5E5" d="M253.2,202.6L195,169c-0.7-0.4-1.3-1.5-1.3-2.4v-8.9c0-0.9,0.6-1.4,1.3-1l58.2,33.6
					c0.7,0.4,1.3,1.5,1.3,2.4v8.9C254.5,202.6,253.9,203,253.2,202.6z"/>
				<path fill="#E5E5E5" d="M207.1,171.5l-8.7-5c-0.7-0.4-1.2-1.4-1.2-2.4l0,0c0-0.9,0.6-1.3,1.2-0.9l8.7,5c0.7,0.4,1.2,1.4,1.2,2.4
					l0,0C208.4,171.5,207.8,171.9,207.1,171.5z"/>
				<path fill="#FFFFFF" d="M214.5,174.2c0,0.9-0.6,1.3-1.4,0.8c-0.8-0.5-1.4-1.6-1.4-2.5c0-0.9,0.6-1.3,1.4-0.8
					C213.9,172.1,214.5,173.3,214.5,174.2z"/>
				<path fill="#5C6AC3" d="M219.6,177.1c0,0.9-0.6,1.3-1.4,0.8c-0.8-0.5-1.4-1.6-1.4-2.5c0-0.9,0.6-1.3,1.4-0.8
					C218.9,175,219.6,176.2,219.6,177.1z"/>
				<path fill="#E5E5E5" d="M224.6,180c0,0.9-0.6,1.3-1.4,0.8c-0.8-0.5-1.4-1.6-1.4-2.5c0-0.9,0.6-1.3,1.4-0.8
					C223.9,177.9,224.6,179.1,224.6,180z"/>
				<path fill="#5C6AC3" d="M229.6,182.9c0,0.9-0.6,1.3-1.4,0.8c-0.8-0.5-1.4-1.6-1.4-2.5c0-0.9,0.6-1.3,1.4-0.8
					C229,180.8,229.6,182,229.6,182.9z"/>
				<path fill="#5C6AC3" d="M250.8,197.7l-2.9-1.7c-0.4-0.3-0.8-0.9-0.8-1.5v-3.1c0-0.6,0.4-0.9,0.8-0.6l2.9,1.7
					c0.4,0.3,0.8,0.9,0.8,1.5v3.1C251.5,197.7,251.2,197.9,250.8,197.7z"/>
			</g>
			<g>
				<path fill="#7384F0" d="M255,227.5l-61.8-35.7c-1.4-0.8-2.5-2.9-2.5-4.8v-11.8c0-1.8,1.1-2.7,2.5-1.9l61.8,35.7
					c1.4,0.8,2.5,2.9,2.5,4.8v11.8C257.5,227.5,256.4,228.3,255,227.5z"/>
				<path opacity="0.4" fill="#E5E5E5" d="M253.2,223.4L195,189.8c-0.7-0.4-1.3-1.5-1.3-2.4v-8.9c0-0.9,0.6-1.4,1.3-1l58.2,33.6
					c0.7,0.4,1.3,1.5,1.3,2.4v8.9C254.5,223.4,253.9,223.8,253.2,223.4z"/>
				<path fill="#E5E5E5" d="M207.1,192.3l-8.7-5c-0.7-0.4-1.2-1.4-1.2-2.4l0,0c0-0.9,0.6-1.3,1.2-0.9l8.7,5c0.7,0.4,1.2,1.4,1.2,2.4
					l0,0C208.4,192.3,207.8,192.7,207.1,192.3z"/>
				<path fill="#5C6AC3" d="M214.5,194.9c0,0.9-0.6,1.3-1.4,0.8c-0.8-0.5-1.4-1.6-1.4-2.5c0-0.9,0.6-1.3,1.4-0.8
					C213.9,192.9,214.5,194,214.5,194.9z"/>
				<path fill="#5C6AC3" d="M219.6,197.8c0,0.9-0.6,1.3-1.4,0.8c-0.8-0.5-1.4-1.6-1.4-2.5c0-0.9,0.6-1.3,1.4-0.8
					C218.9,195.8,219.6,196.9,219.6,197.8z"/>
				<path fill="#E5E5E5" d="M224.6,200.7c0,0.9-0.6,1.3-1.4,0.8c-0.8-0.5-1.4-1.6-1.4-2.5c0-0.9,0.6-1.3,1.4-0.8
					C223.9,198.7,224.6,199.8,224.6,200.7z"/>
				<path fill="#5C6AC3" d="M229.6,203.6c0,0.9-0.6,1.3-1.4,0.8c-0.8-0.5-1.4-1.6-1.4-2.5c0-0.9,0.6-1.3,1.4-0.8
					C229,201.6,229.6,202.7,229.6,203.6z"/>
				<path fill="#E5E5E5" d="M250.8,218.4l-2.9-1.7c-0.4-0.3-0.8-0.9-0.8-1.5v-3.1c0-0.6,0.4-0.9,0.8-0.6l2.9,1.7
					c0.4,0.3,0.8,0.9,0.8,1.5v3.1C251.5,218.4,251.2,218.7,250.8,218.4z"/>
			</g>
			<g>
				<path fill="#7384F0" d="M255,248.3l-61.8-35.7c-1.4-0.8-2.5-2.9-2.5-4.8v-11.8c0-1.8,1.1-2.7,2.5-1.9l61.8,35.7
					c1.4,0.8,2.5,2.9,2.5,4.8v11.8C257.5,248.2,256.4,249.1,255,248.3z"/>
				<path opacity="0.4" fill="#E5E5E5" d="M253.2,244.1L195,210.5c-0.7-0.4-1.3-1.5-1.3-2.4v-8.9c0-0.9,0.6-1.4,1.3-1l58.2,33.6
					c0.7,0.4,1.3,1.5,1.3,2.4v8.9C254.5,244.1,253.9,244.5,253.2,244.1z"/>
				<path fill="#E5E5E5" d="M207.1,213.1l-8.7-5c-0.7-0.4-1.2-1.4-1.2-2.4l0,0c0-0.9,0.6-1.3,1.2-0.9l8.7,5c0.7,0.4,1.2,1.4,1.2,2.4
					l0,0C208.4,213,207.8,213.5,207.1,213.1z"/>
				<path fill="#5C6AC3" d="M214.5,215.7c0,0.9-0.6,1.3-1.4,0.8c-0.8-0.5-1.4-1.6-1.4-2.5c0-0.9,0.6-1.3,1.4-0.8
					C213.9,213.7,214.5,214.8,214.5,215.7z"/>
				<path fill="#FFFFFF" d="M219.6,218.6c0,0.9-0.6,1.3-1.4,0.8c-0.8-0.5-1.4-1.6-1.4-2.5c0-0.9,0.6-1.3,1.4-0.8
					C218.9,216.6,219.6,217.7,219.6,218.6z"/>
				<path fill="#E5E5E5" d="M224.6,221.5c0,0.9-0.6,1.3-1.4,0.8c-0.8-0.5-1.4-1.6-1.4-2.5c0-0.9,0.6-1.3,1.4-0.8
					C223.9,219.5,224.6,220.6,224.6,221.5z"/>
				<path fill="#FFFFFF" d="M229.6,224.4c0,0.9-0.6,1.3-1.4,0.8c-0.8-0.5-1.4-1.6-1.4-2.5c0-0.9,0.6-1.3,1.4-0.8
					C229,222.4,229.6,223.5,229.6,224.4z"/>
				<path fill="#E5E5E5" d="M250.8,239.2l-2.9-1.7c-0.4-0.3-0.8-0.9-0.8-1.5v-3.1c0-0.6,0.4-0.9,0.8-0.6l2.9,1.7
					c0.4,0.3,0.8,0.9,0.8,1.5v3.1C251.5,239.2,251.2,239.5,250.8,239.2z"/>
			</g>
			<g>
				<path fill="#7384F0" d="M255,269l-61.8-35.7c-1.4-0.8-2.5-2.9-2.5-4.8v-11.8c0-1.8,1.1-2.7,2.5-1.9l61.8,35.7
					c1.4,0.8,2.5,2.9,2.5,4.8v11.8C257.5,269,256.4,269.8,255,269z"/>
				<path opacity="0.4" fill="#E5E5E5" d="M253.2,264.9L195,231.3c-0.7-0.4-1.3-1.5-1.3-2.4V220c0-0.9,0.6-1.4,1.3-1l58.2,33.6
					c0.7,0.4,1.3,1.5,1.3,2.4v8.9C254.5,264.9,253.9,265.3,253.2,264.9z"/>
				<path fill="#E5E5E5" d="M207.1,233.8l-8.7-5c-0.7-0.4-1.2-1.4-1.2-2.4l0,0c0-0.9,0.6-1.3,1.2-0.9l8.7,5c0.7,0.4,1.2,1.4,1.2,2.4
					l0,0C208.4,233.8,207.8,234.2,207.1,233.8z"/>
				<path fill="#5C6AC3" d="M214.5,236.5c0,0.9-0.6,1.3-1.4,0.8c-0.8-0.5-1.4-1.6-1.4-2.5c0-0.9,0.6-1.3,1.4-0.8
					C213.9,234.4,214.5,235.6,214.5,236.5z"/>
				<path fill="#5C6AC3" d="M219.6,239.4c0,0.9-0.6,1.3-1.4,0.8c-0.8-0.5-1.4-1.6-1.4-2.5c0-0.9,0.6-1.3,1.4-0.8
					C218.9,237.3,219.6,238.5,219.6,239.4z"/>
				<path fill="#E5E5E5" d="M224.6,242.3c0,0.9-0.6,1.3-1.4,0.8c-0.8-0.5-1.4-1.6-1.4-2.5c0-0.9,0.6-1.3,1.4-0.8
					C223.9,240.2,224.6,241.4,224.6,242.3z"/>
				<path fill="#5C6AC3" d="M229.6,245.2c0,0.9-0.6,1.3-1.4,0.8c-0.8-0.5-1.4-1.6-1.4-2.5c0-0.9,0.6-1.3,1.4-0.8
					C229,243.1,229.6,244.3,229.6,245.2z"/>
				<path fill="#5C6AC3" d="M250.8,260l-2.9-1.7c-0.4-0.3-0.8-0.9-0.8-1.5v-3.1c0-0.6,0.4-0.9,0.8-0.6l2.9,1.7
					c0.4,0.3,0.8,0.9,0.8,1.5v3.1C251.5,260,251.2,260.2,250.8,260z"/>
			</g>
			<g>
				<path fill="#7384F0" d="M255,289.8l-61.8-35.7c-1.4-0.8-2.5-2.9-2.5-4.8v-11.8c0-1.8,1.1-2.7,2.5-1.9l61.8,35.7
					c1.4,0.8,2.5,2.9,2.5,4.8v11.8C257.5,289.8,256.4,290.6,255,289.8z"/>
				<path opacity="0.4" fill="#E5E5E5" d="M253.2,285.7L195,252.1c-0.7-0.4-1.3-1.5-1.3-2.4v-8.9c0-0.9,0.6-1.4,1.3-1l58.2,33.6
					c0.7,0.4,1.3,1.5,1.3,2.4v8.9C254.5,285.6,253.9,286.1,253.2,285.7z"/>
				<path fill="#E5E5E5" d="M207.1,254.6l-8.7-5c-0.7-0.4-1.2-1.4-1.2-2.4l0,0c0-0.9,0.6-1.3,1.2-0.9l8.7,5c0.7,0.4,1.2,1.4,1.2,2.4
					l0,0C208.4,254.6,207.8,255,207.1,254.6z"/>
				<path fill="#FFFFFF" d="M216.1,258.3c0,1.7-1.2,2.4-2.7,1.6c-1.5-0.9-2.7-2.9-2.7-4.7s1.2-2.4,2.7-1.6
					C214.9,254.5,216.1,256.6,216.1,258.3z"/>
				<path fill="#5C6AC3" d="M226.5,264.4c0,0.9-0.6,1.3-1.4,0.8c-0.8-0.5-1.4-1.6-1.4-2.5c0-0.9,0.6-1.3,1.4-0.8
					C225.9,262.4,226.5,263.5,226.5,264.4z"/>
				<path fill="#E5E5E5" d="M231.5,267.3c0,0.9-0.6,1.3-1.4,0.8c-0.8-0.5-1.4-1.6-1.4-2.5c0-0.9,0.6-1.3,1.4-0.8
					C230.9,265.3,231.5,266.4,231.5,267.3z"/>
				<path fill="#5C6AC3" d="M236.6,270.2c0,0.9-0.6,1.3-1.4,0.8c-0.8-0.5-1.4-1.6-1.4-2.5s0.6-1.3,1.4-0.8
					C235.9,268.2,236.6,269.3,236.6,270.2z"/>
				<path fill="#E5E5E5" d="M250.8,280.7l-2.9-1.7c-0.4-0.3-0.8-0.9-0.8-1.5v-3.1c0-0.6,0.4-0.9,0.8-0.6l2.9,1.7
					c0.4,0.3,0.8,0.9,0.8,1.5v3.1C251.5,280.7,251.2,281,250.8,280.7z"/>
			</g>
		</g>
		<path fill="#7384F0" d="M250.9,341.9c-0.2,0-0.4-0.1-0.6-0.2l-70.2-39.9c-0.9-0.5-1.4-1.4-1.4-2.3c0-1,0.5-1.9,1.3-2.4l30.1-17.8
			c1.1-0.6,1.7-1.8,1.7-3v-19.6c0-0.7,0.6-1.2,1.2-1.2c0.7,0,1.2,0.6,1.2,1.2v19.6c0,2.1-1.1,4.1-2.9,5.2l-30.1,17.8
			c-0.1,0-0.1,0.1-0.1,0.2c0,0.1,0,0.2,0.1,0.2l70.2,39.9c0.6,0.3,0.8,1.1,0.5,1.7C251.7,341.7,251.3,341.9,250.9,341.9z"/>
		<g>
			<g>
				<g>
					<g>
						
							<rect x="229.6" y="323.4" transform="matrix(-0.4974 0.8675 -0.8675 -0.4974 635.6025 293.0229)" fill="#7384F0" width="6.7" height="14.4"/>
						<path fill="#7384F0" d="M224.3,328.4c0-1.5,1-3.3,2.3-4.1c1.3-0.8,2.4-0.1,2.4,1.4c0,1.5-1,3.3-2.3,4.1
							C225.4,330.5,224.3,329.9,224.3,328.4z"/>
					</g>
					<g>
						
							<rect x="241.4" y="327.3" transform="matrix(-0.4974 0.8675 -0.8675 -0.4974 663.2372 292.9048)" fill="#7384F0" width="10.8" height="22.6"/>
						<path fill="#414B8A" d="M238.8,330.1l-4.2-2.4c-1.7,1.3-3.1,3.6-3.3,5.8l4.2,2.4C237.2,334.7,238.6,332.3,238.8,330.1z"/>
						<path fill="#7384F0" d="M233.2,335.2c0-2.4,1.7-5.4,3.8-6.6c2.1-1.2,3.8-0.2,3.8,2.2c0,2.4-1.7,5.4-3.8,6.6
							C234.9,338.6,233.2,337.6,233.2,335.2z"/>
					</g>
				</g>
			</g>
			<path fill="#E5E5E5" d="M228.3,326.9c-0.6-0.4-0.6-0.9,0-1.3c0.6-0.4,1.6-0.4,2.2,0c0.6,0.4,0.6,0.9,0,1.3
				C229.9,327.2,228.9,327.2,228.3,326.9z"/>
		</g>
		<g>
			<path fill="#7384F0" d="M464.9,230.2c-0.1,0-0.2,0-0.3,0c-0.7-0.2-1.1-0.8-0.9-1.5l12.1-52.7c0.2-0.7,0.8-1.1,1.5-0.9
				c0.7,0.2,1.1,0.8,0.9,1.5l-12.1,52.7C466,229.8,465.5,230.2,464.9,230.2z"/>
			<path fill="#7384F0" d="M448.8,226.5c-0.1,0-0.2,0-0.3,0c-0.7-0.2-1.1-0.8-0.9-1.5l12.1-52.7c0.2-0.7,0.8-1.1,1.5-0.9
				c0.7,0.2,1.1,0.8,0.9,1.5L450,225.5C449.9,226.1,449.4,226.5,448.8,226.5z"/>
			<path fill="#7384F0" d="M432.7,222.8c-0.1,0-0.2,0-0.3,0c-0.7-0.2-1.1-0.8-0.9-1.5l12.1-52.7c0.2-0.7,0.8-1.1,1.5-0.9
				c0.7,0.2,1.1,0.8,0.9,1.5l-12.1,52.7C433.8,222.4,433.3,222.8,432.7,222.8z"/>
			<g>
				<g>
					<g>
						<g>
							
								<rect x="437" y="181.8" transform="matrix(0.9736 0.2282 -0.2282 0.9736 54.7373 -95.4926)" fill="#7384F0" width="6.7" height="14.4"/>
							<path fill="#7384F0" d="M440.6,197.8c-1.4,0.4-3.5,0-4.6-1.1c-1.1-1-0.8-2.2,0.6-2.7c1.4-0.4,3.5,0,4.6,1.1
								C442.4,196.2,442.1,197.4,440.6,197.8z"/>
						</g>
						<g>
							
								<rect x="438.5" y="162.1" transform="matrix(0.9736 0.2282 -0.2282 0.9736 51.2876 -96.7374)" fill="#7384F0" width="10.8" height="22.6"/>
							<path fill="#414B8A" d="M438.2,183.5l-1.1,4.7c1.7,1.3,4.4,1.9,6.5,1.5l1.1-4.7C443,183.7,440.3,183.1,438.2,183.5z"/>
							<path fill="#7384F0" d="M444.6,187.4c-2.3,0.7-5.7-0.1-7.4-1.7c-1.8-1.7-1.3-3.6,1-4.3c2.3-0.7,5.7,0.1,7.4,1.7
								C447.4,184.8,446.9,186.7,444.6,187.4z"/>
						</g>
					</g>
				</g>
				<path fill="#E5E5E5" d="M438,194.5c-0.2,0.7-0.7,0.9-1.2,0.4c-0.5-0.5-0.8-1.4-0.6-2.1s0.7-0.9,1.2-0.4
					C437.9,192.9,438.2,193.8,438,194.5z"/>
			</g>
			<g>
				<g>
					<g>
						<g>
							
								<rect x="451.9" y="190.7" transform="matrix(0.9736 0.2282 -0.2282 0.9736 57.1636 -98.6699)" fill="#7384F0" width="6.7" height="14.4"/>
							<path fill="#7384F0" d="M455.6,206.7c-1.4,0.4-3.5,0-4.6-1.1c-1.1-1-0.8-2.2,0.6-2.7c1.4-0.4,3.5,0,4.6,1.1
								C457.3,205.1,457,206.3,455.6,206.7z"/>
						</g>
						<g>
							
								<rect x="453.5" y="171" transform="matrix(0.9736 0.2282 -0.2282 0.9736 53.7148 -99.9158)" fill="#7384F0" width="10.8" height="22.6"/>
							<path fill="#414B8A" d="M453.1,192.4l-1.1,4.7c1.7,1.3,4.4,1.9,6.5,1.5l1.1-4.7C457.9,192.6,455.2,192,453.1,192.4z"/>
							<path fill="#7384F0" d="M459.5,196.3c-2.3,0.7-5.7-0.1-7.4-1.7c-1.8-1.7-1.3-3.6,1-4.3c2.3-0.7,5.7,0.1,7.4,1.7
								C462.3,193.7,461.9,195.6,459.5,196.3z"/>
						</g>
					</g>
				</g>
				<path fill="#E5E5E5" d="M453,203.4c-0.2,0.7-0.7,0.9-1.2,0.4c-0.5-0.5-0.8-1.4-0.6-2.1c0.2-0.7,0.7-0.9,1.2-0.4
					C452.9,201.8,453.2,202.7,453,203.4z"/>
			</g>
			<g>
				<g>
					<g>
						<g>
							
								<rect x="467" y="199.5" transform="matrix(0.9736 0.2282 -0.2282 0.9736 59.5788 -101.8872)" fill="#7384F0" width="6.7" height="14.4"/>
							<path fill="#7384F0" d="M470.7,215.6c-1.4,0.4-3.5,0-4.6-1.1c-1.1-1-0.8-2.2,0.6-2.7c1.4-0.4,3.5,0,4.6,1.1
								C472.4,213.9,472.2,215.1,470.7,215.6z"/>
						</g>
						<g>
							
								<rect x="468.6" y="179.9" transform="matrix(0.9736 0.2282 -0.2282 0.9736 56.1301 -103.1332)" fill="#7384F0" width="10.8" height="22.6"/>
							<path fill="#414B8A" d="M468.2,201.2l-1.1,4.7c1.7,1.3,4.4,1.9,6.5,1.5l1.1-4.7C473,201.4,470.3,200.8,468.2,201.2z"/>
							<path fill="#7384F0" d="M474.7,205.2c-2.3,0.7-5.7-0.1-7.4-1.7c-1.8-1.7-1.3-3.6,1-4.3c2.3-0.7,5.7,0.1,7.4,1.7
								C477.4,202.5,477,204.4,474.7,205.2z"/>
						</g>
					</g>
				</g>
				<path fill="#E5E5E5" d="M468.1,212.2c-0.2,0.7-0.7,0.9-1.2,0.4c-0.5-0.5-0.8-1.4-0.6-2.1c0.2-0.7,0.7-0.9,1.2-0.4
					C468,210.6,468.3,211.5,468.1,212.2z"/>
			</g>
		</g>
		<g>
			<g>
				<path fill="#EDEDED" d="M366,462.4L221.5,379c-4.1-2.4-3.6-6.5,1.1-9.2L321,313c4.7-2.7,11.9-3,15.9-0.7l144.5,83.4
					c4.1,2.4,3.6,6.5-1.1,9.2l-98.4,56.8C377.2,464.4,370,464.7,366,462.4z"/>
				<path fill="#5C6AC3" d="M515.3,248l-144.5-83.4c-1.7-1-3.4-1.1-4.9-0.6l0,0l-0.3,0.1c0,0,0,0-0.1,0l-5.2,2l4.7,2.3
					c0,0.1,0,0.2-0.1,0.3l-23.5,107.1c-1.2,5.4,1.2,11.6,5.3,14l141,81.4l-0.5,6l5.7-2.2c1.9-0.9,3.5-2.9,4.1-5.8l23.5-107.1
					C521.7,256.6,519.4,250.3,515.3,248z"/>
				<path fill="#414B8A" d="M515.3,248l-144.5-83.4c-1.7-1-3.4-1.1-4.9-0.6l0,0l-0.3,0.1c0,0,0,0-0.1,0l-5.2,2l4.7,2.3
					c0,0.1,0,0.2-0.1,0.3l-15.5,70.6l70.7,55.1l99.7-40.6C518.9,251.2,517.3,249.1,515.3,248z"/>
				<path fill="#5C6AC3" d="M509.8,264.4l11-4.7c0.2-4.3-1.6-8.7-4.5-11l-17.4,7.3L509.8,264.4z"/>
				<path fill="#E5E5E5" d="M482.2,376.5l-144.5-83.4c-4.1-2.4-6.4-8.6-5.3-14L356,172c1.2-5.4,5.4-7.8,9.5-5.4L510,250
					c4.1,2.4,6.4,8.6,5.3,14l-23.5,107.1C490.5,376.4,486.3,378.9,482.2,376.5z"/>
				<path fill="#FFFFFF" d="M479.1,368.5l-135.9-78.4c-3.7-2.2-5.9-7.9-4.8-12.8l21.5-98c1.1-4.9,5-7.1,8.7-5l135.9,78.4
					c3.7,2.2,5.9,7.9,4.8,12.8l-21.5,98C486.7,368.5,482.8,370.7,479.1,368.5z"/>
				<path fill="#FFFFFF" d="M479.1,368.5l-135.9-78.4c-3.7-2.2-5.9-7.9-4.8-12.8l21.5-98c1.1-4.9,5-7.1,8.7-5l135.9,78.4
					c3.7,2.2,5.9,7.9,4.8,12.8l-21.5,98C486.7,368.5,482.8,370.7,479.1,368.5z"/>
				<path fill="#5C6AC3" d="M484.2,380.1l-19.7-2.6L337,303.9c-4.1-2.4-11.2-2.1-15.9,0.7l-90.3,52.1l-11.9-1.6v6.8l0,0
					c-0.1,1.6,0.8,3.1,2.7,4.2L366,449.5c4.1,2.4,11.2,2.1,15.9-0.7l98.4-56.8c2.7-1.5,4-3.5,3.9-5.4h0V380.1z"/>
				<path fill="#414B8A" d="M388.4,333.6l-9.1-5.2h-99.6l-49.1,28.3l-11.9-1.6v6.8l0,0c-0.1,1.6,0.8,3.1,2.7,4.2L366,449.5
					c2.2,1.2,5.2,1.7,8.2,1.5L388.4,333.6z"/>
				<path fill="#7384F0" d="M224,355.9l-5.3-0.7v6.8l0,0c-0.1,1.6,0.8,3.1,2.7,4.2l2.5,1.5V355.9z"/>
				<path fill="#5C6AC3" d="M367.4,450.2c3.9,1.5,9.4,1.1,13.5-0.8v-15.1h-13.5V450.2z"/>
				<path fill="#FFFFFF" d="M366,442.8l-144.5-83.4c-4.1-2.4-3.6-6.5,1.1-9.2l98.4-56.8c4.7-2.7,11.9-3,15.9-0.7l144.5,83.4
					c4.1,2.4,3.6,6.5-1.1,9.2l-98.4,56.8C377.2,444.8,370,445.1,366,442.8z"/>
				<path fill="#FFFFFF" d="M480.3,382.9l-98.4,56.8c-4.7,2.7-11.9,3-15.9,0.7l-144.5-83.4c-1.3-0.8-2.2-1.7-2.5-2.8
					c-0.6,1.9,0.2,3.9,2.5,5.3L366,442.8c4.1,2.4,11.2,2.1,15.9-0.7l98.4-56.8c3.2-1.8,4.4-4.3,3.7-6.4
					C483.5,380.3,482.3,381.7,480.3,382.9z"/>
				<g>
					<path fill="#5C6AC3" d="M282.9,331.7l-6.5-3.8c-0.5-0.3-0.5-0.8,0.1-1.2l7.7-4.5c0.6-0.3,1.5-0.4,2-0.1l6.5,3.8
						c0.5,0.3,0.5,0.8-0.1,1.2l-7.7,4.5C284.4,332,283.5,332,282.9,331.7z"/>
					<path fill="#5C6AC3" d="M293,337.6l-6.5-3.8c-0.5-0.3-0.5-0.8,0.1-1.2l7.7-4.5c0.6-0.3,1.5-0.4,2-0.1l6.5,3.8
						c0.5,0.3,0.5,0.8-0.1,1.2l-7.7,4.5C294.5,337.8,293.5,337.9,293,337.6z"/>
					<path fill="#5C6AC3" d="M303.1,343.4l-6.5-3.8c-0.5-0.3-0.5-0.8,0.1-1.2l7.7-4.5c0.6-0.3,1.5-0.4,2-0.1l6.5,3.8
						c0.5,0.3,0.5,0.8-0.1,1.2l-7.7,4.5C304.6,343.7,303.6,343.7,303.1,343.4z"/>
					<path fill="#5C6AC3" d="M317.1,338.6l-6.5-3.8c-0.5-0.3-0.5-0.8,0.1-1.2l6.5-3.7c0.6-0.3,1.5-0.4,2-0.1l6.5,3.8
						c0.5,0.3,0.5,0.8-0.1,1.2l-6.5,3.7C318.5,338.8,317.6,338.9,317.1,338.6z"/>
					<path fill="#5C6AC3" d="M327.2,344.4l-6.5-3.8c-0.5-0.3-0.5-0.8,0.1-1.2l6.5-3.7c0.6-0.3,1.5-0.4,2-0.1l6.5,3.8
						c0.5,0.3,0.5,0.8-0.1,1.2l-6.5,3.7C328.6,344.7,327.7,344.7,327.2,344.4z"/>
					<path fill="#5C6AC3" d="M337.3,350.2l-6.5-3.8c-0.5-0.3-0.5-0.8,0.1-1.2l6.5-3.7c0.6-0.3,1.5-0.4,2-0.1l6.5,3.8
						c0.5,0.3,0.5,0.8-0.1,1.2l-6.5,3.7C338.7,350.5,337.8,350.5,337.3,350.2z"/>
					<path fill="#5C6AC3" d="M347.4,356.1l-6.5-3.8c-0.5-0.3-0.5-0.8,0.1-1.2l6.5-3.7c0.6-0.3,1.5-0.4,2-0.1l6.5,3.8
						c0.5,0.3,0.5,0.8-0.1,1.2l-6.5,3.7C348.8,356.3,347.9,356.4,347.4,356.1z"/>
					<path fill="#5C6AC3" d="M357.5,361.9l-6.5-3.8c-0.5-0.3-0.5-0.8,0.1-1.2l6.5-3.7c0.6-0.3,1.5-0.4,2-0.1l6.5,3.8
						c0.5,0.3,0.5,0.8-0.1,1.2l-6.5,3.7C358.9,362.2,358,362.2,357.5,361.9z"/>
					<path fill="#5C6AC3" d="M367.6,367.7l-6.5-3.8c-0.5-0.3-0.5-0.8,0.1-1.2l6.5-3.7c0.6-0.3,1.5-0.4,2-0.1l6.5,3.8
						c0.5,0.3,0.5,0.8-0.1,1.2l-6.5,3.7C369,368,368.1,368,367.6,367.7z"/>
					<path fill="#5C6AC3" d="M377.7,373.6l-6.5-3.8c-0.5-0.3-0.5-0.8,0.1-1.2l6.5-3.7c0.6-0.3,1.5-0.4,2-0.1l6.5,3.8
						c0.5,0.3,0.5,0.8-0.1,1.2l-6.5,3.7C379.1,373.8,378.2,373.9,377.7,373.6z"/>
					<path fill="#5C6AC3" d="M387.7,379.4l-6.5-3.8c-0.5-0.3-0.5-0.8,0.1-1.2l6.5-3.7c0.6-0.3,1.5-0.4,2-0.1l6.5,3.8
						c0.5,0.3,0.5,0.8-0.1,1.2l-6.5,3.7C389.2,379.6,388.3,379.7,387.7,379.4z"/>
					<path fill="#5C6AC3" d="M397.8,385.2l-6.5-3.8c-0.5-0.3-0.5-0.8,0.1-1.2l6.5-3.7c0.6-0.3,1.5-0.4,2-0.1l6.5,3.8
						c0.5,0.3,0.5,0.8-0.1,1.2l-6.5,3.7C399.3,385.5,398.4,385.5,397.8,385.2z"/>
					<path fill="#5C6AC3" d="M407.9,391l-6.5-3.8c-0.5-0.3-0.5-0.8,0.1-1.2l6.5-3.7c0.6-0.3,1.5-0.4,2-0.1l6.5,3.8
						c0.5,0.3,0.5,0.8-0.1,1.2L410,391C409.4,391.3,408.5,391.3,407.9,391z"/>
					<path fill="#414B8A" d="M332,335.8l-6.5-3.8c-0.5-0.3-0.5-0.8,0.1-1.2l6.5-3.7c0.6-0.3,1.5-0.4,2-0.1l6.5,3.8
						c0.5,0.3,0.5,0.8-0.1,1.2l-6.5,3.7C333.4,336.1,332.5,336.1,332,335.8z"/>
					<path fill="#414B8A" d="M321.7,329.9l-6.5-3.8c-0.5-0.3-0.5-0.8,0.1-1.2l6.5-3.7c0.6-0.3,1.5-0.4,2-0.1l6.5,3.8
						c0.5,0.3,0.5,0.8-0.1,1.2l-6.5,3.7C323.2,330.2,322.2,330.2,321.7,329.9z"/>
					<path fill="#5C6AC3" d="M311.4,324l-14.1-8.1c-0.5-0.3-0.5-0.8,0.1-1.2l6.5-3.7c0.6-0.3,1.5-0.4,2-0.1l14.1,8.1
						c0.5,0.3,0.5,0.8-0.1,1.2l-6.5,3.7C312.9,324.2,312,324.3,311.4,324z"/>
					<path fill="#5C6AC3" d="M318.6,316.8l-11.4-6.6c-0.5-0.3-0.5-0.8,0.1-1.2l6.5-3.7c0.6-0.3,1.5-0.4,2-0.1l11.4,6.6
						c0.5,0.3,0.5,0.8-0.1,1.2l-6.5,3.7C320.1,317,319.1,317.1,318.6,316.8z"/>
					<path fill="#414B8A" d="M342.1,341.6l-6.5-3.8c-0.5-0.3-0.5-0.8,0.1-1.2l6.5-3.7c0.6-0.3,1.5-0.4,2-0.1l6.5,3.8
						c0.5,0.3,0.5,0.8-0.1,1.2l-6.5,3.7C343.5,341.9,342.6,342,342.1,341.6z"/>
					<path fill="#5C6AC3" d="M352.1,347.5l-6.5-3.8c-0.5-0.3-0.5-0.8,0.1-1.2l6.5-3.7c0.6-0.3,1.5-0.4,2-0.1l6.5,3.8
						c0.5,0.3,0.5,0.8-0.1,1.2l-6.5,3.7C353.6,347.7,352.7,347.8,352.1,347.5z"/>
					<path fill="#5C6AC3" d="M362.2,353.3l-6.5-3.8c-0.5-0.3-0.5-0.8,0.1-1.2l6.5-3.7c0.6-0.3,1.5-0.4,2-0.1l6.5,3.8
						c0.5,0.3,0.5,0.8-0.1,1.2l-6.5,3.7C363.7,353.6,362.8,353.6,362.2,353.3z"/>
					<path fill="#5C6AC3" d="M372.3,359.1l-6.5-3.8c-0.5-0.3-0.5-0.8,0.1-1.2l6.5-3.7c0.6-0.3,1.5-0.4,2-0.1l6.5,3.8
						c0.5,0.3,0.5,0.8-0.1,1.2l-6.5,3.7C373.8,359.4,372.9,359.4,372.3,359.1z"/>
					<path fill="#5C6AC3" d="M382.4,365l-6.5-3.8c-0.5-0.3-0.5-0.8,0.1-1.2l6.5-3.7c0.6-0.3,1.5-0.4,2-0.1l6.5,3.8
						c0.5,0.3,0.5,0.8-0.1,1.2l-6.5,3.7C383.9,365.2,383,365.3,382.4,365z"/>
					<path fill="#5C6AC3" d="M392.5,370.8L386,367c-0.5-0.3-0.5-0.8,0.1-1.2l6.5-3.7c0.6-0.3,1.5-0.4,2-0.1l6.5,3.8
						c0.5,0.3,0.5,0.8-0.1,1.2l-6.5,3.7C394,371.1,393.1,371.1,392.5,370.8z"/>
					<path fill="#5C6AC3" d="M402.6,376.6l-6.5-3.8c-0.5-0.3-0.5-0.8,0.1-1.2l6.5-3.7c0.6-0.3,1.5-0.4,2-0.1l6.5,3.8
						c0.5,0.3,0.5,0.8-0.1,1.2l-6.5,3.7C404.1,376.9,403.1,376.9,402.6,376.6z"/>
					<path fill="#5C6AC3" d="M412.7,382.4l-6.5-3.8c-0.5-0.3-0.5-0.8,0.1-1.2l6.5-3.7c0.6-0.3,1.5-0.4,2-0.1l6.5,3.8
						c0.5,0.3,0.5,0.8-0.1,1.2l-6.5,3.7C414.2,382.7,413.2,382.8,412.7,382.4z"/>
					<path fill="#5C6AC3" d="M422.8,388.3l-6.5-3.8c-0.5-0.3-0.5-0.8,0.1-1.2l6.5-3.7c0.6-0.3,1.5-0.4,2-0.1l6.5,3.8
						c0.5,0.3,0.5,0.8-0.1,1.2l-6.5,3.7C424.3,388.5,423.3,388.6,422.8,388.3z"/>
					<path fill="#5C6AC3" d="M440.8,398.6l-14.3-8.2c-0.5-0.3-0.5-0.8,0.1-1.2l6.5-3.7c0.6-0.3,1.5-0.4,2-0.1l14.3,8.2
						c0.5,0.3,0.5,0.8-0.1,1.2l-6.5,3.7C442.2,398.9,441.3,398.9,440.8,398.6z"/>
					<path fill="#5C6AC3" d="M460.4,387.3l-12-7c-0.5-0.3-0.5-0.8,0.1-1.2l6.5-3.7c0.6-0.3,1.5-0.4,2-0.1l12,7
						c0.5,0.3,0.5,0.8-0.1,1.2l-6.5,3.7C461.9,387.6,460.9,387.6,460.4,387.3z"/>
					<path fill="#5C6AC3" d="M359.7,340.5l-6.5-3.8c-0.5-0.3-0.5-0.8,0.1-1.2l6.5-3.7c0.6-0.3,1.5-0.4,2-0.1l6.5,3.8
						c0.5,0.3,0.5,0.8-0.1,1.2l-6.5,3.7C361.2,340.8,360.3,340.8,359.7,340.5z"/>
					<path fill="#5C6AC3" d="M349.4,334.5l-6.5-3.8c-0.5-0.3-0.5-0.8,0.1-1.2l6.5-3.7c0.6-0.3,1.5-0.4,2-0.1l6.5,3.8
						c0.5,0.3,0.5,0.8-0.1,1.2l-6.5,3.7C350.8,334.8,349.9,334.8,349.4,334.5z"/>
					<path fill="#414B8A" d="M339,328.6l-6.5-3.8c-0.5-0.3-0.5-0.8,0.1-1.2l6.5-3.7c0.6-0.3,1.5-0.4,2-0.1l6.5,3.8
						c0.5,0.3,0.5,0.8-0.1,1.2l-6.5,3.7C340.5,328.8,339.6,328.9,339,328.6z"/>
					<path fill="#5C6AC3" d="M328.7,322.6l-6.5-3.8c-0.5-0.3-0.5-0.8,0.1-1.2l6.5-3.7c0.6-0.3,1.5-0.4,2-0.1l6.5,3.8
						c0.5,0.3,0.5,0.8-0.1,1.2l-6.5,3.7C330.1,322.9,329.2,322.9,328.7,322.6z"/>
					<path fill="#5C6AC3" d="M369.8,346.3l-6.5-3.8c-0.5-0.3-0.5-0.8,0.1-1.2l6.5-3.7c0.6-0.3,1.5-0.4,2-0.1l6.5,3.8
						c0.5,0.3,0.5,0.8-0.1,1.2l-6.5,3.7C371.3,346.6,370.4,346.6,369.8,346.3z"/>
					<path fill="#5C6AC3" d="M379.9,352.2l-6.5-3.8c-0.5-0.3-0.5-0.8,0.1-1.2l6.5-3.7c0.6-0.3,1.5-0.4,2-0.1l6.5,3.8
						c0.5,0.3,0.5,0.8-0.1,1.2l-6.5,3.7C381.4,352.4,380.4,352.5,379.9,352.2z"/>
					<path fill="#5C6AC3" d="M390,358l-6.5-3.8c-0.5-0.3-0.5-0.8,0.1-1.2l6.5-3.7c0.6-0.3,1.5-0.4,2-0.1l6.5,3.8
						c0.5,0.3,0.5,0.8-0.1,1.2l-6.5,3.7C391.5,358.3,390.5,358.3,390,358z"/>
					<path fill="#5C6AC3" d="M400.1,363.8l-6.5-3.8c-0.5-0.3-0.5-0.8,0.1-1.2l6.5-3.7c0.6-0.3,1.5-0.4,2-0.1l6.5,3.8
						c0.5,0.3,0.5,0.8-0.1,1.2l-6.5,3.7C401.6,364.1,400.6,364.1,400.1,363.8z"/>
					<path fill="#5C6AC3" d="M410.2,369.7l-6.5-3.8c-0.5-0.3-0.5-0.8,0.1-1.2l6.5-3.7c0.6-0.3,1.5-0.4,2-0.1l6.5,3.8
						c0.5,0.3,0.5,0.8-0.1,1.2l-6.5,3.7C411.6,369.9,410.7,370,410.2,369.7z"/>
					<path fill="#5C6AC3" d="M420.3,375.5l-6.5-3.8c-0.5-0.3-0.5-0.8,0.1-1.2l6.5-3.7c0.6-0.3,1.5-0.4,2-0.1l6.5,3.8
						c0.5,0.3,0.5,0.8-0.1,1.2l-6.5,3.7C421.7,375.7,420.8,375.8,420.3,375.5z"/>
					<path fill="#5C6AC3" d="M430.4,381.3l-6.5-3.8c-0.5-0.3-0.5-0.8,0.1-1.2l6.5-3.7c0.6-0.3,1.5-0.4,2-0.1l6.5,3.8
						c0.5,0.3,0.5,0.8-0.1,1.2l-6.5,3.7C431.8,381.6,430.9,381.6,430.4,381.3z"/>
					<path fill="#5C6AC3" d="M440.5,387.1l-6.5-3.8c-0.5-0.3-0.5-0.8,0.1-1.2l6.5-3.7c0.6-0.3,1.5-0.4,2-0.1l6.5,3.8
						c0.5,0.3,0.5,0.8-0.1,1.2l-6.5,3.7C441.9,387.4,441,387.4,440.5,387.1z"/>
					<path fill="#5C6AC3" d="M450.6,393l-6.5-3.8c-0.5-0.3-0.5-0.8,0.1-1.2l6.5-3.7c0.6-0.3,1.5-0.4,2-0.1l6.5,3.8
						c0.5,0.3,0.5,0.8-0.1,1.2l-6.5,3.7C452,393.2,451.1,393.3,450.6,393z"/>
					<path fill="#5C6AC3" d="M354.4,326.1l-6.5-3.8c-0.5-0.3-0.5-0.8,0.1-1.2l6.5-3.7c0.6-0.3,1.5-0.4,2-0.1l6.5,3.8
						c0.5,0.3,0.5,0.8-0.1,1.2l-6.5,3.7C355.9,326.4,354.9,326.4,354.4,326.1z"/>
					<path fill="#5C6AC3" d="M344.4,320.3l-6.5-3.8c-0.5-0.3-0.5-0.8,0.1-1.2l6.5-3.7c0.6-0.3,1.5-0.4,2-0.1l6.5,3.8
						c0.5,0.3,0.5,0.8-0.1,1.2l-6.5,3.7C345.8,320.6,344.9,320.6,344.4,320.3z"/>
					<path fill="#5C6AC3" d="M334.3,314.5l-6.5-3.8c-0.5-0.3-0.5-0.8,0.1-1.2l6.5-3.7c0.6-0.3,1.5-0.4,2-0.1l6.5,3.8
						c0.5,0.3,0.5,0.8-0.1,1.2l-6.5,3.7C335.8,314.8,334.9,314.8,334.3,314.5z"/>
					<path fill="#5C6AC3" d="M324.3,308.7l-6.5-3.8c-0.5-0.3-0.5-0.8,0.1-1.2l6.5-3.7c0.6-0.3,1.5-0.4,2-0.1l6.5,3.8
						c0.5,0.3,0.5,0.8-0.1,1.2l-6.5,3.7C325.7,309,324.8,309,324.3,308.7z"/>
					<path fill="#5C6AC3" d="M334.6,302.7l-6.5-3.8c-0.5-0.3-0.5-0.8,0.1-1.2l2.1-1.2c0.6-0.3,1.5-0.4,2-0.1l6.5,3.8
						c0.5,0.3,0.5,0.8-0.1,1.2l-2.1,1.2C336.1,303,335.1,303,334.6,302.7z"/>
					<path fill="#5C6AC3" d="M347.7,310.3l-6.5-3.8c-0.5-0.3-0.5-0.8,0.1-1.2l2.1-1.2c0.6-0.3,1.5-0.4,2-0.1l6.5,3.8
						c0.5,0.3,0.5,0.8-0.1,1.2l-2.1,1.2C349.2,310.6,348.2,310.6,347.7,310.3z"/>
					<path fill="#5C6AC3" d="M357.7,316.1l-6.5-3.8c-0.5-0.3-0.5-0.8,0.1-1.2l2.1-1.2c0.6-0.3,1.5-0.4,2-0.1l6.5,3.8
						c0.5,0.3,0.5,0.8-0.1,1.2l-2.1,1.2C359.2,316.3,358.2,316.4,357.7,316.1z"/>
					<path fill="#5C6AC3" d="M367.7,321.9l-6.5-3.8c-0.5-0.3-0.5-0.8,0.1-1.2l2.1-1.2c0.6-0.3,1.5-0.4,2-0.1l6.5,3.8
						c0.5,0.3,0.5,0.8-0.1,1.2l-2.1,1.2C369.2,322.1,368.2,322.2,367.7,321.9z"/>
					<path fill="#5C6AC3" d="M377.7,327.6l-6.5-3.8c-0.5-0.3-0.5-0.8,0.1-1.2l2.1-1.2c0.6-0.3,1.5-0.4,2-0.1l6.5,3.8
						c0.5,0.3,0.5,0.8-0.1,1.2l-2.1,1.2C379.2,327.9,378.3,327.9,377.7,327.6z"/>
					<path fill="#5C6AC3" d="M433.6,359.9l-6.5-3.8c-0.5-0.3-0.5-0.8,0.1-1.2l2.1-1.2c0.6-0.3,1.5-0.4,2-0.1l6.5,3.8
						c0.5,0.3,0.5,0.8-0.1,1.2l-2.1,1.2C435,360.1,434.1,360.2,433.6,359.9z"/>
					<path fill="#5C6AC3" d="M443.6,365.6l-6.5-3.8c-0.5-0.3-0.5-0.8,0.1-1.2l2.1-1.2c0.6-0.3,1.5-0.4,2-0.1l6.5,3.8
						c0.5,0.3,0.5,0.8-0.1,1.2l-2.1,1.2C445,365.9,444.1,365.9,443.6,365.6z"/>
					<path fill="#5C6AC3" d="M453.6,371.4l-6.5-3.8c-0.5-0.3-0.5-0.8,0.1-1.2l2.1-1.2c0.6-0.3,1.5-0.4,2-0.1l6.5,3.8
						c0.5,0.3,0.5,0.8-0.1,1.2l-2.1,1.2C455,371.7,454.1,371.7,453.6,371.4z"/>
					<path fill="#5C6AC3" d="M463.6,377.2l-6.5-3.8c-0.5-0.3-0.5-0.8,0.1-1.2l2.1-1.2c0.6-0.3,1.5-0.4,2-0.1l6.5,3.8
						c0.5,0.3,0.5,0.8-0.1,1.2l-2.1,1.2C465,377.5,464.1,377.5,463.6,377.2z"/>
					<path fill="#5C6AC3" d="M364.5,331.9l-6.5-3.8c-0.5-0.3-0.5-0.8,0.1-1.2l6.5-3.7c0.6-0.3,1.5-0.4,2-0.1l6.5,3.8
						c0.5,0.3,0.5,0.8-0.1,1.2l-6.5,3.7C366,332.2,365,332.2,364.5,331.9z"/>
					<path fill="#5C6AC3" d="M374.6,337.8l-6.5-3.8c-0.5-0.3-0.5-0.8,0.1-1.2l6.5-3.7c0.6-0.3,1.5-0.4,2-0.1l6.5,3.8
						c0.5,0.3,0.5,0.8-0.1,1.2l-6.5,3.7C376,338,375.1,338.1,374.6,337.8z"/>
					<path fill="#5C6AC3" d="M384.7,343.6l-6.5-3.8c-0.5-0.3-0.5-0.8,0.1-1.2l6.5-3.7c0.6-0.3,1.5-0.4,2-0.1l6.5,3.8
						c0.5,0.3,0.5,0.8-0.1,1.2l-6.5,3.7C386.1,343.8,385.2,343.9,384.7,343.6z"/>
					<path fill="#5C6AC3" d="M394.8,349.4l-6.5-3.8c-0.5-0.3-0.5-0.8,0.1-1.2l6.5-3.7c0.6-0.3,1.5-0.4,2-0.1l6.5,3.8
						c0.5,0.3,0.5,0.8-0.1,1.2l-6.5,3.7C396.2,349.7,395.3,349.7,394.8,349.4z"/>
					<path fill="#5C6AC3" d="M404.9,355.2l-6.5-3.8c-0.5-0.3-0.5-0.8,0.1-1.2l6.5-3.7c0.6-0.3,1.5-0.4,2-0.1l6.5,3.8
						c0.5,0.3,0.5,0.8-0.1,1.2l-6.5,3.7C406.3,355.5,405.4,355.5,404.9,355.2z"/>
					<path fill="#5C6AC3" d="M415,361.1l-6.5-3.8c-0.5-0.3-0.5-0.8,0.1-1.2l6.5-3.7c0.6-0.3,1.5-0.4,2-0.1l6.5,3.8
						c0.5,0.3,0.5,0.8-0.1,1.2L417,361C416.4,361.3,415.5,361.4,415,361.1z"/>
					<path fill="#5C6AC3" d="M425.1,366.9l-6.5-3.8c-0.5-0.3-0.5-0.8,0.1-1.2l6.5-3.7c0.6-0.3,1.5-0.4,2-0.1l6.5,3.8
						c0.5,0.3,0.5,0.8-0.1,1.2l-6.5,3.7C426.5,367.2,425.6,367.2,425.1,366.9z"/>
					<path fill="#5C6AC3" d="M435.2,372.7l-6.5-3.8c-0.5-0.3-0.5-0.8,0.1-1.2l6.5-3.7c0.6-0.3,1.5-0.4,2-0.1l6.5,3.8
						c0.5,0.3,0.5,0.8-0.1,1.2l-6.5,3.7C436.6,373,435.7,373,435.2,372.7z"/>
					<path fill="#5C6AC3" d="M445.3,378.5l-6.5-3.8c-0.5-0.3-0.5-0.8,0.1-1.2l6.5-3.7c0.6-0.3,1.5-0.4,2-0.1l6.5,3.8
						c0.5,0.3,0.5,0.8-0.1,1.2l-6.5,3.7C446.7,378.8,445.8,378.9,445.3,378.5z"/>
					<path fill="#5C6AC3" d="M306.8,332.6l-19.3-11.1c-0.5-0.3-0.5-0.8,0.1-1.2l6.5-3.7c0.6-0.3,1.5-0.4,2-0.1l19.3,11.1
						c0.5,0.3,0.5,0.8-0.1,1.2l-6.5,3.7C308.2,332.9,307.3,332.9,306.8,332.6z"/>
					<path fill="#5C6AC3" d="M430.8,404.2l-19.3-11.1c-0.5-0.3-0.5-0.8,0.1-1.2l6.5-3.7c0.6-0.3,1.5-0.4,2-0.1l19.3,11.1
						c0.5,0.3,0.5,0.8-0.1,1.2l-6.5,3.7C432.3,404.5,431.3,404.5,430.8,404.2z"/>
					<path fill="#5C6AC3" d="M390.4,393.8l-6.5-3.8c-0.5-0.3-0.5-0.8,0.1-1.2l7.7-4.5c0.6-0.3,1.5-0.4,2-0.1l6.5,3.8
						c0.5,0.3,0.5,0.8-0.1,1.2l-7.7,4.5C391.9,394.1,391,394.1,390.4,393.8z"/>
					<path fill="#5C6AC3" d="M317.1,351.5l-10.5-6c-0.5-0.3-0.5-0.8,0.1-1.2l7.7-4.5c0.6-0.3,1.5-0.4,2-0.1l10.5,6
						c0.5,0.3,0.5,0.8-0.1,1.2l-7.7,4.5C318.6,351.7,317.7,351.8,317.1,351.5z"/>
					<path fill="#5C6AC3" d="M380.7,388.2l-10.5-6c-0.5-0.3-0.5-0.8,0.1-1.2l7.7-4.5c0.6-0.3,1.5-0.4,2-0.1l10.5,6
						c0.5,0.3,0.5,0.8-0.1,1.2l-7.7,4.5C382.2,388.5,381.2,388.5,380.7,388.2z"/>
					<path fill="#5C6AC3" d="M331.7,359.9l-10.5-6c-0.5-0.3-0.5-0.8,0.1-1.2l7.7-4.5c0.6-0.3,1.5-0.4,2-0.1l10.5,6
						c0.5,0.3,0.5,0.8-0.1,1.2l-7.7,4.5C333.1,360.2,332.2,360.2,331.7,359.9z"/>
					<path fill="#5C6AC3" d="M331.2,348.2l45.5,26.2c0.6,0.3,0.6,0.9,0,1.2l-7.9,4.5c-0.6,0.3-1.5,0.3-2,0l-45.5-26.2L331.2,348.2z"
						/>
					<path fill="#5C6AC3" d="M418.7,404.4l7.3,4.2c0.4,0.2,0.4,0.7-0.1,1l-3.2,1.8c-0.5,0.3-1.2,0.3-1.7,0.1l-7.3-4.2
						c-0.4-0.2-0.4-0.7,0.1-1l3.2-1.8C417.5,404.2,418.2,404.1,418.7,404.4z"/>
					<path fill="#5C6AC3" d="M408.5,398.5l7.3,4.2c0.4,0.2,0.4,0.7-0.1,1l-3.2,1.8c-0.5,0.3-1.2,0.3-1.7,0.1l-7.3-4.2
						c-0.4-0.2-0.4-0.7,0.1-1l3.2-1.8C407.3,398.3,408,398.3,408.5,398.5z"/>
					<path fill="#5C6AC3" d="M398.4,392.7l7.3,4.2c0.4,0.2,0.4,0.7-0.1,1l-3.2,1.8c-0.5,0.3-1.2,0.3-1.7,0.1l-7.3-4.2
						c-0.4-0.2-0.4-0.7,0.1-1l3.2-1.8C397.2,392.5,398,392.4,398.4,392.7z"/>
					<path fill="#5C6AC3" d="M414.1,395.3l7.3,4.2c0.4,0.2,0.4,0.7-0.1,1l-3.2,1.8c-0.5,0.3-1.2,0.3-1.7,0.1l-7.3-4.2
						c-0.4-0.2-0.4-0.7,0.1-1l3.2-1.8C412.9,395.1,413.6,395,414.1,395.3z"/>
				</g>
			</g>
			<g>
				<g>
					<path fill="#E5E5E5" d="M400.7,216.6L391,211c-0.9-0.5-1.4-1.8-1.2-2.9l0,0c0.2-1.1,1.2-1.5,2.1-1l9.7,5.6
						c0.9,0.5,1.4,1.8,1.2,2.9l0,0C402.5,216.7,401.6,217.1,400.7,216.6z"/>
					<path fill="#E5E5E5" d="M423.7,229.9l-14.2-8.2c-0.9-0.5-1.4-1.8-1.2-2.9l0,0c0.2-1.1,1.2-1.5,2.1-1l14.2,8.2
						c0.9,0.5,1.4,1.8,1.2,2.9l0,0C425.5,230,424.6,230.4,423.7,229.9z"/>
					<path fill="#E5E5E5" d="M383.8,261.7l-9.7-5.6c-0.9-0.5-1.4-1.8-1.2-2.9l0,0c0.2-1.1,1.2-1.5,2.1-1l9.7,5.6
						c0.9,0.5,1.4,1.8,1.2,2.9l0,0C385.7,261.8,384.7,262.2,383.8,261.7z"/>
					<path fill="#E5E5E5" d="M404.4,273.6l-14.2-8.2c-0.9-0.5-1.4-1.8-1.2-2.9l0,0c0.2-1.1,1.2-1.5,2.1-1l14.2,8.2
						c0.9,0.5,1.4,1.8,1.2,2.9l0,0C406.2,273.6,405.2,274.1,404.4,273.6z"/>
					<path fill="#E5E5E5" d="M372.2,209.3l-6-3.5c-0.9-0.5-1.4-1.8-1.2-2.9l0,0c0.2-1.1,1.2-1.5,2.1-1l6,3.5
						c0.9,0.5,1.4,1.8,1.2,2.9l0,0C374,209.4,373.1,209.8,372.2,209.3z"/>
					<path fill="#E5E5E5" d="M390.8,229.2l-18.4-10.6c-0.9-0.5-1.4-1.8-1.2-2.9l0,0c0.2-1.1,1.2-1.5,2.1-1l18.4,10.6
						c0.9,0.5,1.4,1.8,1.2,2.9l0,0C392.6,229.3,391.7,229.7,390.8,229.2z"/>
					<path fill="#E5E5E5" d="M374.7,238.1l-6-3.5c-0.9-0.5-1.4-1.8-1.2-2.9l0,0c0.2-1.1,1.2-1.5,2.1-1l6,3.5
						c0.9,0.5,1.4,1.8,1.2,2.9l0,0C376.5,238.2,375.6,238.7,374.7,238.1z"/>
					<path fill="#E5E5E5" d="M407.5,293.6l-16.1-9.3c-0.9-0.5-1.4-1.8-1.2-2.9l0,0c0.2-1.1,1.2-1.5,2.1-1l16.1,9.3
						c0.9,0.5,1.4,1.8,1.2,2.9l0,0C409.3,293.7,408.4,294.1,407.5,293.6z"/>
					<path fill="#E5E5E5" d="M368.8,253l-3.9-2.2c-0.9-0.5-1.4-1.8-1.2-2.9l0,0c0.2-1.1,1.2-1.5,2.1-1l3.9,2.2
						c0.9,0.5,1.4,1.8,1.2,2.9l0,0C370.6,253.1,369.7,253.5,368.8,253z"/>
					<path fill="#E5E5E5" d="M366,269.7l-4.8-2.8c-0.9-0.5-1.4-1.8-1.2-2.9l0,0c0.2-1.1,1.2-1.5,2.1-1l4.8,2.8
						c0.9,0.5,1.4,1.8,1.2,2.9l0,0C367.8,269.8,366.9,270.2,366,269.7z"/>
					<path fill="#E5E5E5" d="M384.7,280.5l-12.7-7.3c-0.9-0.5-1.4-1.8-1.2-2.9l0,0c0.2-1.1,1.2-1.5,2.1-1l12.7,7.3
						c0.9,0.5,1.4,1.8,1.2,2.9l0,0C386.5,280.6,385.6,281,384.7,280.5z"/>
					<path fill="#E5E5E5" d="M368.4,280.2l-9.1-5.3c-0.9-0.5-1.4-1.8-1.2-2.9l0,0c0.2-1.1,1.2-1.5,2.1-1l9.1,5.3
						c0.9,0.5,1.4,1.8,1.2,2.9l0,0C370.3,280.3,369.3,280.7,368.4,280.2z"/>
					<path fill="#E5E5E5" d="M421.3,301.6l-5.9-3.4c-0.9-0.5-1.4-1.8-1.2-2.9l0,0c0.2-1.1,1.2-1.5,2.1-1l5.9,3.4
						c0.9,0.5,1.4,1.8,1.2,2.9l0,0C423.1,301.7,422.2,302.2,421.3,301.6z"/>
					<path fill="#E5E5E5" d="M397.1,251.1l-16.1-9.3c-0.9-0.5-1.4-1.8-1.2-2.9l0,0c0.2-1.1,1.2-1.5,2.1-1l16.1,9.3
						c0.9,0.5,1.4,1.8,1.2,2.9l0,0C398.9,251.2,398,251.6,397.1,251.1z"/>
					<path fill="#E5E5E5" d="M398.6,242.8l-28.1-16.2c-0.9-0.5-1.4-1.8-1.2-2.9l0,0c0.2-1.1,1.2-1.5,2.1-1l28.1,16.2
						c0.9,0.5,1.4,1.8,1.2,2.9l0,0C400.4,242.9,399.5,243.3,398.6,242.8z"/>
					<path fill="#E5E5E5" d="M382.9,252l-16.1-9.3c-0.9-0.5-1.4-1.8-1.2-2.9l0,0c0.2-1.1,1.2-1.5,2.1-1l16.1,9.3
						c0.9,0.5,1.4,1.8,1.2,2.9l0,0C384.7,252.1,383.8,252.5,382.9,252z"/>
					<path fill="#E5E5E5" d="M409.3,258.2l-5.9-3.4c-0.9-0.5-1.4-1.8-1.2-2.9l0,0c0.2-1.1,1.2-1.5,2.1-1l5.9,3.4
						c0.9,0.5,1.4,1.8,1.2,2.9l0,0C411.2,258.2,410.2,258.7,409.3,258.2z"/>
					<path fill="#E5E5E5" d="M467.1,255l-34.7-20c-0.9-0.5-1.4-1.8-1.2-2.9l0,0c0.2-1.1,1.2-1.5,2.1-1l34.7,20
						c0.9,0.5,1.4,1.8,1.2,2.9l0,0C469,255.1,468,255.5,467.1,255z"/>
					<path fill="#E5E5E5" d="M382.4,270L363,258.8c-0.9-0.5-1.4-1.8-1.2-2.9l0,0c0.2-1.1,1.2-1.5,2.1-1l19.4,11.2
						c0.9,0.5,1.4,1.8,1.2,2.9l0,0C384.2,270.1,383.3,270.5,382.4,270z"/>
					<path fill="#E5E5E5" d="M382.3,206l-14.2-8.2c-0.9-0.5-1.4-1.8-1.2-2.9l0,0c0.2-1.1,1.2-1.5,2.1-1l14.2,8.2
						c0.9,0.5,1.4,1.8,1.2,2.9l0,0C384.1,206.1,383.1,206.5,382.3,206z"/>
					<path fill="#E5E5E5" d="M365.9,287.9l-16.5-9.5c-0.9-0.5-1.4-1.8-1.2-2.9l0,0c0.2-1.1,1.2-1.5,2.1-1l16.5,9.5
						c0.9,0.5,1.4,1.8,1.2,2.9l0,0C367.7,288,366.8,288.4,365.9,287.9z"/>
				</g>
				<g>
					<path fill="#E5E5E5" d="M477.5,322.7l-9.7-5.6c-0.9-0.5-1.4-1.8-1.2-2.9v0c0.2-1.1,1.2-1.5,2.1-1l9.7,5.6
						c0.9,0.5,1.4,1.8,1.2,2.9l0,0C479.4,322.7,478.4,323.2,477.5,322.7z"/>
					<path fill="#E5E5E5" d="M484.5,290.1L466,279.5c-0.9-0.5-1.4-1.8-1.2-2.9l0,0c0.2-1.1,1.2-1.5,2.1-1l18.4,10.6
						c0.9,0.5,1.4,1.8,1.2,2.9l0,0C486.3,290.2,485.4,290.7,484.5,290.1z"/>
					<path fill="#E5E5E5" d="M468.4,299.1l-6-3.5c-0.9-0.5-1.4-1.8-1.2-2.9l0,0c0.2-1.1,1.2-1.5,2.1-1l6,3.5
						c0.9,0.5,1.4,1.8,1.2,2.9l0,0C470.2,299.2,469.3,299.6,468.4,299.1z"/>
					<path fill="#E5E5E5" d="M462.5,314l-3.9-2.2c-0.9-0.5-1.4-1.8-1.2-2.9l0,0c0.2-1.1,1.2-1.5,2.1-1l3.9,2.2
						c0.9,0.5,1.4,1.8,1.2,2.9l0,0C464.3,314,463.4,314.5,462.5,314z"/>
					<path fill="#E5E5E5" d="M490.8,312.1l-16.1-9.3c-0.9-0.5-1.4-1.8-1.2-2.9l0,0c0.2-1.1,1.2-1.5,2.1-1l16.1,9.3
						c0.9,0.5,1.4,1.8,1.2,2.9l0,0C492.6,312.1,491.7,312.6,490.8,312.1z"/>
					<path fill="#E5E5E5" d="M492.3,303.8l-28.1-16.2c-0.9-0.5-1.4-1.8-1.2-2.9l0,0c0.2-1.1,1.2-1.5,2.1-1l28.1,16.2
						c0.9,0.5,1.4,1.8,1.2,2.9l0,0C494.1,303.8,493.2,304.3,492.3,303.8z"/>
					<path fill="#E5E5E5" d="M476.6,313l-16.1-9.3c-0.9-0.5-1.4-1.8-1.2-2.9l0,0c0.2-1.1,1.2-1.5,2.1-1l16.1,9.3
						c0.9,0.5,1.4,1.8,1.2,2.9l0,0C478.4,313.1,477.5,313.5,476.6,313z"/>
					<path fill="#E5E5E5" d="M476.1,331l-19.4-11.2c-0.9-0.5-1.4-1.8-1.2-2.9l0,0c0.2-1.1,1.2-1.5,2.1-1l19.4,11.2
						c0.9,0.5,1.4,1.8,1.2,2.9l0,0C477.9,331.1,477,331.5,476.1,331z"/>
				</g>
			</g>
		</g>
		<g>
			<g>
				<polygon fill="#7384F0" points="519.5,214.9 534.7,208.9 531.3,186.5 523.9,193 				"/>
				<path fill="#7384F0" d="M417.6,110.5l36.8-14.7c0,0-6.8,14.7-6.8,14.7c0,0-19.6,4.5-19.6,4.5L417.6,110.5z"/>
				<path fill="#7384F0" d="M532.9,171.4c-1.9-1.1-4-1.8-6-2c2-13.5-3.8-27.8-15-34.3c-3.4-2-7-3.1-10.5-3.3
					c4.4-16.4-2.4-35.1-16.2-43.1c-7.2-4.2-15.1-4.7-21.9-2.1l0,0l-0.3,0.1c-0.2,0.1-0.4,0.1-0.5,0.2l-11.5,4.5l4.6,4
					c-6.2,2-11.6,7-14.5,14.5c-5.2,13.7,0.1,30.4,12,37.3l70.7,59.6c8.9,5.2,14.3,3,18.3-7.3C545.9,189.1,541.9,176.6,532.9,171.4z"
					/>
				<path fill="#7384F0" d="M444.2,103.8L483.8,88c-6.9-3.5-14.1-3.8-20.6-1.4l0,0l-0.3,0.1c-0.2,0.1-0.4,0.1-0.5,0.2l-11.5,4.5
					l4.6,4C451.1,96.8,447.2,99.7,444.2,103.8z"/>
				<path fill="#7384F0" d="M499.4,163.3l26.2-10.4c-2.4-7.5-7.2-14-13.8-17.8c-0.9-0.5-1.8-0.9-2.6-1.3l-36.1,14.4L499.4,163.3z"/>
				<path fill="#E5E5E5" d="M458.9,93.1l11.2,6.5l19.5-7.8c-1.4-1.2-2.9-2.2-4.4-3.1c-2.5-1.4-5.1-2.4-7.6-3L458.9,93.1z"/>
				<path fill="#E5E5E5" d="M523.8,148.5L505,156l5.6,7.8l16.2-6.4C526.1,154.3,525.2,151.3,523.8,148.5z"/>
				<path fill="#E5E5E5" d="M520.3,176.4c-1.9-1.1-4-1.8-6-2c2-13.5-4-27.9-15.2-34.4c-3.4-2-6.9-3-10.4-3.2
					c4.4-16.4-2.4-35.1-16.2-43.1c-14.9-8.6-32.3-1.6-38.9,15.6c-0.2,0.6-0.4,1.2-0.6,1.8c-11.4-5.1-23.9,0.6-28.8,13.5
					c-5.2,13.7,0.1,30.4,12,37.3l89.8,51.9c8.9,5.2,19.4,1,23.3-9.3S529.3,181.5,520.3,176.4z"/>
				<g>
					<path fill="#FFFFFF" d="M522.2,175.4c-1.9-1.1-4-1.8-6-2c2-13.5-4-27.9-15.2-34.4c-3.4-2-6.9-3-10.4-3.2
						c4.4-16.4-2.4-35.1-16.2-43.1c-8.9-5.1-18.7-4.7-26.5,0.1c7.5-3.8,16.5-3.8,24.7,0.9c13.8,8,20.6,26.6,16.2,43.1
						c3.5,0.2,7,1.3,10.4,3.2c11.2,6.5,17.2,20.9,15.2,34.4c2,0.3,4,0.9,6,2c8.9,5.2,13,17.7,9,28c-1.5,4-4,7-7,9
						c3.8-1.8,7-5.3,8.9-10C535.2,193.1,531.1,180.5,522.2,175.4z"/>
					<path fill="#FFFFFF" d="M433.1,111c0.2-0.5,0.4-1,0.5-1.5c-6.2-2.3-12.5-1.5-17.8,1.8C421.1,108.7,427.3,108.4,433.1,111z"/>
				</g>
				<g>
					<path fill="#414B8A" d="M423,113.7c-1.7,0-3.3,0.3-4.7,1c-3.6,1.6-6.6,5.2-8.5,9.9c-4.6,12.1,0.3,27.4,10.8,33.4l89.8,51.9
						c2.8,1.6,5.7,2,8,1.1c2.3-0.9,4.3-3.3,5.5-6.6c3.3-8.7-0.2-19.7-7.8-24.1c-1.4-0.8-2.8-1.3-4.3-1.5l-3.6-0.5l0.5-3.1
						c1.9-12.5-3.9-25.7-13.7-31.3c-2.7-1.6-5.5-2.4-8.3-2.6l-4.5-0.3l1-3.8c4-15-2.5-32.4-14.8-39.6c-5.7-3.3-11.8-4-17-1.9
						c-5.2,2.1-9.5,6.9-12.1,13.6c-0.2,0.5-0.4,1-0.5,1.6l-2.4,7.4l-7-3.1C427.1,114.2,425,113.7,423,113.7z"/>
				</g>
			</g>
			<g>
				<polygon fill="#7384F0" points="467,171.4 470,170.2 467.6,168.3 				"/>
				<polygon fill="#7384F0" points="465.4,137.9 468.4,136.7 468.2,137.9 				"/>
				<polygon fill="#7384F0" points="476.7,163.6 479.8,162.3 475.2,157.7 				"/>
				<g>
					<path fill="#7384F0" d="M469.2,170.1l-12-6.9c-0.6-0.4-1-1.2-0.8-2l2.9-13.6l14.2,8.2l-2.9,13.6
						C470.5,170.1,469.8,170.4,469.2,170.1z"/>
					<path fill="#7384F0" d="M468.4,136.7l-16.2,8.2c-0.7,0.3-0.5,1.6,0.4,2.1l13.2,7.6l13.2,7.6c0.8,0.5,1.5-0.3,1.1-1.3l-9.6-23.1
						C470.1,136.9,469.1,136.3,468.4,136.7z"/>
				</g>
				<g>
					<path fill="#E5E5E5" d="M466.1,171.3l-12-6.9c-0.6-0.4-1-1.2-0.8-2l2.9-13.6l14.2,8.2l-2.9,13.6
						C467.3,171.4,466.7,171.7,466.1,171.3z"/>
					<path fill="#E5E5E5" d="M465.2,138l-16.2,8.2c-0.7,0.3-0.5,1.6,0.4,2.1l13.2,7.6l13.2,7.6c0.8,0.5,1.5-0.3,1.1-1.3l-9.6-23.1
						C466.9,138.2,465.9,137.6,465.2,138z"/>
				</g>
			</g>
		</g>
		<g>
			<path fill="#EDEDED" d="M162.1,442.5l47.9-27.5c3.8-2.2,10.4-1.9,14.7,0.6l98.2,57c4.4,2.5,4.8,6.3,1,8.5l-47.9,27.5
				c-3.8,2.2-10.4,1.9-14.7-0.6l-98.2-57C158.8,448.4,158.4,444.6,162.1,442.5z"/>
			<path fill="#414B8A" d="M278.1,499.5l49.1-28.2c2.1-1.2,3.2-2.9,3.3-4.6l0,0l0-8.4l-1.6,2.7c-0.8-0.9-1.8-1.7-3.1-2.5L227,401.2
				c-5.6-3.2-14.1-3.6-18.9-0.8L159,428.5c-0.5,0.3-1,0.6-1.4,1l-1.9-2.4l0,7.9l0,0c-0.1,2.2,1.5,4.5,4.6,6.3l98.8,57.3
				C264.7,501.9,273.2,502.3,278.1,499.5z"/>
			<path fill="#E5E5E5" d="M159,422.3l49.1-28.2c4.9-2.8,13.3-2.4,18.9,0.8l98.8,57.3c5.6,3.2,6.2,8.1,1.3,10.9l-49.1,28.2
				c-4.9,2.8-13.3,2.4-18.9-0.8l-98.8-57.3C154.8,430,154.2,425.1,159,422.3z"/>
			<path fill="#FFFFFF" d="M327.2,463.2l-49.1,28.2c-4.9,2.8-13.3,2.4-18.9-0.8l-98.8-57.3c-2.7-1.6-4.2-3.5-4.6-5.5
				c-0.4,2.3,1.2,4.9,4.6,6.9l98.8,57.3c5.6,3.2,14.1,3.6,18.9,0.8l49.1-28.2c2.5-1.4,3.5-3.4,3.2-5.5
				C330.1,460.6,329.1,462.1,327.2,463.2z"/>
			<path fill="#FFFFFF" d="M162.1,423.4l47.9-27.5c3.8-2.2,10.4-1.9,14.7,0.6l98.2,57c4.4,2.5,4.8,6.3,1,8.5l-47.9,27.5
				c-3.8,2.2-10.4,1.9-14.7-0.6l-98.2-57C158.8,429.4,158.4,425.6,162.1,423.4z"/>
		</g>
		<g>
			<path fill="#EDEDED" d="M239.3,433.4l-17.7-10.2c-0.7-0.4-0.6-1,0.2-1.5l0,0c0.8-0.4,1.9-0.5,2.6-0.1l17.7,10.2
				c0.7,0.4,0.6,1-0.2,1.5l0,0C241.1,433.7,240,433.8,239.3,433.4z"/>
			<path fill="#EDEDED" d="M222.5,429.9l-6.3-3.7c-0.7-0.4-0.6-1,0.2-1.5l0,0c0.8-0.4,1.9-0.5,2.6-0.1l6.3,3.7
				c0.7,0.4,0.6,1-0.2,1.5l0,0C224.3,430.3,223.2,430.3,222.5,429.9z"/>
			<path fill="#414B8A" d="M233.1,436.1l-6.3-3.7c-0.7-0.4-0.6-1,0.2-1.5l0,0c0.8-0.4,1.9-0.5,2.6-0.1l6.3,3.7
				c0.7,0.4,0.6,1-0.2,1.5l0,0C234.9,436.4,233.8,436.5,233.1,436.1z"/>
			<path fill="#EDEDED" d="M254.6,448.5l-17.2-9.9c-0.7-0.4-0.6-1,0.2-1.5l0,0c0.8-0.4,1.9-0.5,2.6-0.1l17.2,9.9
				c0.7,0.4,0.6,1-0.2,1.5l0,0C256.4,448.8,255.3,448.8,254.6,448.5z"/>
			<path fill="#EDEDED" d="M232.9,442.2l-22.2-12.8c-0.7-0.4-0.6-1,0.2-1.5l0,0c0.8-0.4,1.9-0.5,2.6-0.1l22.2,12.8
				c0.7,0.4,0.6,1-0.2,1.5l0,0C234.7,442.5,233.6,442.6,232.9,442.2z"/>
			<path fill="#414B8A" d="M259.6,463.8l-54.2-31.3c-0.7-0.4-0.6-1,0.2-1.5l0,0c0.8-0.4,1.9-0.5,2.6-0.1l54.2,31.3
				c0.7,0.4,0.6,1-0.2,1.5l0,0C261.4,464.2,260.2,464.2,259.6,463.8z"/>
			<path fill="#EDEDED" d="M275.4,454.2l-31.2-18c-0.7-0.4-0.6-1,0.2-1.5l0,0c0.8-0.4,1.9-0.5,2.6-0.1l31.2,18
				c0.7,0.4,0.6,1-0.2,1.5l0,0C277.2,454.6,276.1,454.6,275.4,454.2z"/>
		</g>
		<path fill="#E5E5E5" d="M237.2,483.7l-4.6-2.6c-0.5-0.3-0.8-1-0.8-1.6l0,0c0-0.6,0.4-0.9,0.8-0.6l4.6,2.6c0.5,0.3,0.8,1,0.8,1.6
			l0,0C238,483.6,237.7,483.9,237.2,483.7z"/>
		<path fill="#E5E5E5" d="M244.4,487.8l-4.6-2.6c-0.5-0.3-0.8-1-0.8-1.6l0,0c0-0.6,0.4-0.9,0.8-0.6l4.6,2.6c0.5,0.3,0.8,1,0.8,1.6
			l0,0C245.2,487.8,244.8,488.1,244.4,487.8z"/>
	</g>
</g>
</svg>
