<?xml version="1.0" encoding="utf-8"?>
<!-- Generator: Adobe Illustrator 18.0.0, SVG Export Plug-In . SVG Version: 6.00 Build 0)  -->
<!DOCTYPE svg PUBLIC "-//W3C//DTD SVG 1.1//EN" "http://www.w3.org/Graphics/SVG/1.1/DTD/svg11.dtd">
<svg version="1.1" id="Layer_1" xmlns="http://www.w3.org/2000/svg" xmlns:xlink="http://www.w3.org/1999/xlink" x="0px" y="0px"
	 viewBox="0 0 300 300" enable-background="new 0 0 300 300" xml:space="preserve">
<path fill="#1E2430" d="M251.4,240.5c-53.3,30.8-139.6,30.8-192.9,0s-53.3-80.5,0-111.3s139.6-30.8,192.9,0S304.8,209.8,251.4,240.5
	z"/>
<path fill="#323A4F" d="M251.4,244c-53.3,30.8-139.6,30.8-192.9,0s-53.3-80.5,0-111.3s139.6-30.8,192.9,0S304.8,213.3,251.4,244z"/>
<polyline fill="none" stroke="#FDC830" stroke-miterlimit="10" points="232.2,88.9 233.4,43.5 180.6,68.9 "/>
<polyline fill="none" stroke="#FDC830" stroke-miterlimit="10" points="103.6,124.7 73,139.8 71.9,209.6 "/>
<path fill="#1E2430" d="M56.4,227.4l25-14.4c1.1-0.7,2-2.4,2-3.8v-18.6c0-1.5-0.9-2.1-2-1.5l-25,14.4c-1.1,0.7-2,2.4-2,3.8v18.6
	C54.4,227.3,55.3,228,56.4,227.4z"/>
<path fill="#1E2430" d="M58.9,197.9l25-14.4c0.5-0.3,1-0.3,1.3-0.1l0,0l2.4,1.4c0,0-1.1,0.4-1.7,0.7v18.2c0,1.5-0.9,3.2-2,3.8
	L60,221.2v2.1l-2.5-1.4l0,0c-0.4-0.3-0.7-0.8-0.7-1.6v-18.6C56.9,200.2,57.8,198.5,58.9,197.9z"/>
<path fill="#F37335" d="M61.4,223.3l25-14.4c1.1-0.7,2-2.4,2-3.8v-18.6c0-1.5-0.9-2.1-2-1.5l-25,14.4c-1.1,0.7-2,2.4-2,3.8v18.6
	C59.4,223.3,60.3,223.9,61.4,223.3z"/>
<path fill="#FFFFFF" d="M61.4,199.3l25-14.4c0.7-0.4,1.2-0.3,1.6,0.1c-0.3,0-0.6,0.1-0.9,0.2l-25,14.4c-1.1,0.7-2,2.4-2,3.8V222
	c0,0.7,0.2,1.1,0.4,1.4c-0.7-0.1-1.1-0.7-1.1-1.7v-18.6C59.4,201.7,60.3,200,61.4,199.3z"/>
<path fill="#323A4F" d="M78,202.4c0,1.1,0.8,1.5,1.7,1c0.9-0.5,1.7-1.8,1.7-2.9s-0.8-1.5-1.7-1C78.8,200.1,78,201.4,78,202.4z"/>
<path fill="#FFFFFF" d="M72.9,205.4c0,1.1,0.8,1.5,1.7,1c0.9-0.5,1.7-1.8,1.7-2.9s-0.8-1.5-1.7-1C73.6,203,72.9,204.3,72.9,205.4z"
	/>
<path fill="#FFFFFF" d="M67.7,208.4c0,1.1,0.8,1.5,1.7,1c0.9-0.5,1.7-1.8,1.7-2.9s-0.8-1.5-1.7-1S67.7,207.3,67.7,208.4z"/>
<path fill="#FDC830" d="M190.2,21.9l-8.1-4.7c-1.4-0.8-3.4-0.8-5.4,0.3l-64.2,37c-2.2,1.2-4.1,3.5-5.6,6.1l0,0
	c-1.6,2.9-2.6,6.3-2.6,9.4v151.3c0,3.4,1.2,5.7,3,6.7l7.9,4.6c0,0-0.2-0.5-0.4-1.3c-0.1-0.3-0.2-0.5-0.3-0.8c0-0.1-0.1-0.3-0.1-0.5
	c-0.3-1.1-0.7-2.2-1-3l63.3-36.5c4.5-2.6,8.1-9.6,8.1-15.6V23.7c0-0.3-0.1-0.6-0.1-0.8L190.2,21.9z"/>
<path fill="#1E2430" d="M112.5,226.1V74.8c0-6,3.7-13,8.1-15.6l64.2-37c4.5-2.6,8.1,0.2,8.1,6.2v151.4c0,6-3.7,13-8.1,15.6l-64.2,37
	C116.1,234.9,112.5,232.1,112.5,226.1z"/>
<path fill="#FFFFFF" d="M111.6,74.3v151.3c0,3.5,1.2,5.8,3.1,6.7c-1.3-1.2-2.2-3.3-2.2-6.2V74.8c0-6,3.7-13,8.1-15.6l64.2-37
	c1.9-1.1,3.7-1.2,5.1-0.6c-1.5-1.2-3.5-1.3-5.9,0.1l-64.2,37C115.3,61.3,111.6,68.3,111.6,74.3z"/>
<path fill="#FFFFFF" d="M115.8,222.7V73.5c0-4.4,2.7-9.6,6.1-11.6l61.6-35.6c3.4-1.9,6.1,0.1,6.1,4.6v149.2c0,4.4-2.7,9.6-6.1,11.6
	l-61.6,35.6C118.5,229.2,115.8,227.1,115.8,222.7z"/>
<path fill="#1E2430" d="M216.1,149.4l25-14.4c1.1-0.7,2-2.4,2-3.8V89.3c0-1.5-0.9-2.1-2-1.5l-25,14.4c-1.1,0.7-2,2.4-2,3.8v41.9
	C214,149.3,215,150.1,216.1,149.4z"/>
<path fill="#1E2430" d="M218.5,96.6l25-14.4c0.5-0.3,1-0.3,1.3-0.1l0,0l2.4,1.4c0,0-1.1,0.4-1.7,0.7v41.5c0,1.5-0.9,3.2-2,3.8
	l-23.9,13.8v2.1l-2.5-1.4l0,0c-0.4-0.3-0.7-0.8-0.7-1.6v-41.9C216.5,99,217.5,97.3,218.5,96.6z"/>
<path fill="#FDC830" d="M221,145.2l25-14.4c1.1-0.7,2-2.4,2-3.8V85.1c0-1.5-0.9-2.1-2-1.5L221,98c-1.1,0.7-2,2.4-2,3.8v41.9
	C219,145.2,219.9,145.9,221,145.2z"/>
<path fill="#FFFFFF" d="M221,98.1l25-14.4c0.7-0.4,1.2-0.3,1.6,0.1c-0.3,0-0.6,0.1-0.9,0.2l-25,14.4c-1.1,0.7-2,2.4-2,3.8v41.9
	c0,0.7,0.2,1.1,0.4,1.4c-0.7-0.1-1.1-0.7-1.1-1.7v-41.9C219,100.4,219.9,98.7,221,98.1z"/>
<polygon fill="#1E2430" points="225.6,107.5 242.4,97.8 242.4,96.6 225.6,106.3 "/>
<polygon fill="#1E2430" points="230.7,109.8 242.4,103.1 242.4,101.9 230.7,108.7 "/>
<polygon fill="#1E2430" points="232.2,106.3 242.4,100.5 242.4,99.2 232.2,105.1 "/>
<polygon fill="#1E2430" points="225.6,110.2 230.7,107.3 230.7,106 225.6,108.9 "/>
<polygon fill="#1E2430" points="225.6,117.7 242.4,108 242.4,106.9 225.6,116.5 "/>
<polygon fill="#1E2430" points="230.7,120 242.4,113.3 242.4,112.1 230.7,118.9 "/>
<polygon fill="#1E2430" points="232.2,116.5 242.4,110.7 242.4,109.4 232.2,115.3 "/>
<polygon fill="#1E2430" points="225.6,120.3 230.7,117.4 230.7,116.2 225.6,119.1 "/>
<polygon fill="#1E2430" points="225.6,127.9 242.4,118.2 242.4,117 225.6,126.6 "/>
<polygon fill="#1E2430" points="230.7,130.2 242.4,123.5 242.4,122.3 230.7,129 "/>
<polygon fill="#1E2430" points="232.2,126.6 242.4,120.9 242.4,119.7 232.2,125.5 "/>
<polygon fill="#1E2430" points="225.6,130.5 230.7,127.6 230.7,126.4 225.6,129.3 "/>
<path fill="#EFEFEF" d="M130.8,167.3v-55.6c0-2,1.2-4.2,2.7-5.1l33.3-19.2c1.5-0.8,2.7,0,2.7,2V145c0,2-1.2,4.2-2.7,5.1l-33.3,19.2
	C132,170,130.8,169.2,130.8,167.3z"/>
<path fill="#FDC830" d="M134.1,104.2v55.6c0,1.1,0.3,1.8,0.8,2.1l0,0l3.3,1.9V161l31.8-18.3c1.5-0.8,2.7-3.1,2.7-5.1V82.5
	c0.8-0.3,2.2-0.8,2.2-0.8l-3.2-1.9l0,0c-0.4-0.3-1-0.2-1.7,0.2l-33.3,19.2C135.2,99.9,134.1,102.2,134.1,104.2z"/>
<path fill="#1E2430" d="M137.4,161.7v-55.6c0-2,1.2-4.2,2.7-5.1l33.3-19.2c1.5-0.8,2.7,0,2.7,2v55.6c0,2-1.2,4.2-2.7,5.1l-33.3,19.2
	C138.6,164.6,137.4,163.7,137.4,161.7z"/>
<path fill="#FFFFFF" d="M137.4,106.1v55.6c0,1.4,0.6,2.2,1.5,2.4c-0.3-0.4-0.6-1-0.6-1.9v-55.6c0-2,1.2-4.2,2.7-5.1l33.3-19.2
	c0.4-0.2,0.8-0.3,1.2-0.3c-0.5-0.5-1.2-0.7-2.1-0.2L140.1,101C138.6,101.8,137.4,104.1,137.4,106.1z"/>
<path fill="#F37335" d="M156.7,100.1c2.7-1.6,4.8-0.3,4.8,2.8c0,3.1-2.1,6.8-4.8,8.4s-4.8,0.3-4.8-2.8
	C151.8,105.4,154,101.7,156.7,100.1z"/>
<path fill="#FDC830" d="M147.4,134.5l18.3-10.6l-2.4-14.6v-0.1c-0.2-1-1.5-0.8-2.2,0.4c-1.2,1.9-2.9,3.4-4.6,4.5
	c-1.7,1-3.3,1.2-4.6,0.8c-0.8-0.3-2.1,0.8-2.2,2.1c0,0.1,0,0.1,0,0.2L147.4,134.5z"/>
<polygon fill="#FFFFFF" points="146.2,144 168.5,131.1 168.5,132.8 146.2,145.6 "/>
<polygon fill="#FFFFFF" points="152.9,147.1 168.5,138.2 168.5,139.8 152.9,148.8 "/>
<polygon fill="#FFFFFF" points="155,142.5 168.5,134.7 168.5,136.2 155,144 "/>
<polygon fill="#FFFFFF" points="146.2,147.5 152.9,143.7 152.9,145.2 146.2,149.1 "/>
<path fill="#1E2430" d="M105.9,260.1c-1.5,0.6-2.4,2.2-2.3,4c0.1,0.8,0.2,1.6,0.3,2c0.4,1,2,2.4,4.4,1.3c2.5-1,7.9-6.1,8.1-9.4
	C116.9,251.8,109.8,258.4,105.9,260.1z"/>
<path fill="#1E2430" d="M120.3,270.4c0,0-0.6,3.6-0.3,4.3c0.3,0.7,2,2.1,4.5,1.7c2.5-0.3,9.8-2.8,11.4-7.6c2.5-7.4-14,0.6-14,0.6
	L120.3,270.4z"/>
<path fill="#FFFFFF" d="M127.4,213l0.6,56c-0.1,2-1.3,3.6-3,3.9c-0.2,0.1-0.4,0.1-0.7,0.1c-1.7,0.2-2.8-0.6-3.3-1.3
	c-0.4-0.6-0.7-1.5-0.7-2.2l-0.7-23.9l-3.6-21.3l-4.9,37.8c-0.1,1-0.6,2-1.3,2.5c-0.6,0.3-1.3,0.6-2.2,0.6c-1.4-0.1-2.4-0.8-3-1.5
	c-0.4-0.6-0.7-1.3-0.7-2l2-22.8l0.7-29L127.4,213z"/>
<path fill="#FFC2B0" d="M120.2,162.9l-0.9,5.1c0,0-0.1,1.7,1.9,2.2s2.5-0.8,2.5-0.8l0.9-5.7L120.2,162.9z"/>
<path fill="#FFC2B0" d="M130.9,160.1c-1.4,4.4-5.7,6.9-9.6,5.7s-5.9-5.8-4.6-10.2c1.4-4.4,5.7-6.9,9.6-5.7
	C130.2,151.2,132.2,155.7,130.9,160.1z"/>
<path fill="#FDC830" d="M120.4,168.1c-0.1-0.1-8.3-5.3-11.2,0.2c-4.9,8.9-1.3,19.2-3,41.3c-0.3,3.7,5,6,7.5,7.4
	c2.2,1.3,4.7,2,7.3,2.1c2.5,0,7.4-2.2,7.2-5.6c-0.8-15.2,0.6-28.1,1.8-40.6C129.9,173,128.3,171.3,120.4,168.1z"/>
<polygon fill="#FFC2B0" points="146.7,172.7 153.5,159.2 151.3,157.9 144.3,168.2 "/>
<polygon fill="#FFC2B0" points="101.9,158.4 105.2,143.4 107.9,143.4 106.8,155.9 "/>
<path fill="#FDC830" d="M129.9,173c0,0,7.6,3,14.1-5.2c0.6-0.7,1.7-0.6,2.1,0.1c0.6,1.3,1.3,3.4,0.4,5.3
	c-3.9,8.5-17.4,8.1-20.6,12.9C122.6,190.9,129.9,173,129.9,173z"/>
<path fill="#FDC830" d="M115.2,166.2c0,0-6.3,0.5-7.2-4.9c-0.4-2.8-0.6-4.4-0.6-5.4c0-0.7-0.6-1.1-1.2-1.1c-1.5,0.2-3.8,0.6-4.2,1.6
	c-0.4,1.5-1.3,8.9,4.8,20.2C110.9,184.1,115.2,166.2,115.2,166.2z"/>
<path fill="#FFC2B0" d="M105.2,143.4l0.1-1.7c0-0.6,0.2-1.2,0.5-1.7l1.7-2.9l0.4-0.6c0.4-0.5,1.2-0.7,1.7-0.3l0.4,0.2
	c0.5,0.3,0.8,0.9,0.8,1.5l-0.9,2.4l1.1-0.2c0.2-0.1,0.4,0.1,0.4,0.3l0,0c0.1,0.2-0.1,0.4-0.2,0.4l-1.9,0.7l-1.7,2.4L105.2,143.4z"/>
<path fill="#FFC2B0" d="M153.5,159.3l0.8-1.5c0.3-0.6,0.4-1.1,0.4-1.7l-0.1-3.3l-0.1-0.7c-0.1-0.7-0.7-1.1-1.3-1.1h-0.4
	c-0.6,0-1.1,0.4-1.4,0.9l-0.4,2.6l-0.9-0.7c-0.2-0.2-0.4-0.1-0.6,0.1l0,0c-0.1,0.2-0.1,0.3,0,0.5l1.2,1.6l0.3,3.3L153.5,159.3z"/>
<path fill="#D8A016" d="M124.9,184.4c-0.7,3,3.3,25.7-1.1,34c2.2-0.9,4.4-2.6,4.3-4.9c-0.6-10.9-0.1-20.6,0.7-29.8
	c3.8-1.9,9.7-3,13.9-6.1C138.2,179.3,125.5,181.7,124.9,184.4z"/>
<path fill="#FFFFFF" d="M117.5,166.7l1.1-1.2c0,0,1.9,1.9,3.3,2.2c0,0,1.8,0.5,2.6,0.6l0.7,2C125.3,170.3,119.4,169.8,117.5,166.7z"
	/>
<path fill="#1E2430" d="M125.6,160.2c0.3,0,0.6-0.2,0.8-0.4c0.3-0.4,0.1-2.5,1.1-2.8c1.5-0.5,5,1.3,5.4-4c0.2-2.8-1.2-3.5-1.2-5.1
	c0,0,0.1,0.8-7,0.3c-7.1-0.4-9.5,5.9-9.7,8.9s1.3,8,6.2,8.7c0.8,0.1,4.2-2.6,4.1-3c-0.1-0.3-1.3-0.3-1.2-1.4
	C124.2,160.6,124.8,160.3,125.6,160.2z"/>
<polygon fill="#1E2430" points="36.4,112.2 72.4,91.5 72.4,89 36.4,109.7 "/>
<polygon fill="#1E2430" points="47.4,117.3 72.4,102.8 72.4,100.3 47.4,114.7 "/>
<polygon fill="#1E2430" points="50.6,109.7 72.4,97.2 72.4,94.6 50.6,107 "/>
<polygon fill="#1E2430" points="36.4,118 47.4,111.7 47.4,109.1 36.4,115.3 "/>
</svg>
