<?xml version="1.0" encoding="utf-8"?>
<!-- Generator: Adobe Illustrator 18.0.0, SVG Export Plug-In . SVG Version: 6.00 Build 0)  -->
<!DOCTYPE svg PUBLIC "-//W3C//DTD SVG 1.1//EN" "http://www.w3.org/Graphics/SVG/1.1/DTD/svg11.dtd">
<svg version="1.1" id="Layer_1" xmlns="http://www.w3.org/2000/svg" xmlns:xlink="http://www.w3.org/1999/xlink" x="0px" y="0px"
	 viewBox="0 0 300 300" enable-background="new 0 0 300 300" xml:space="preserve">
<g>
	<path fill="#1E2430" d="M235.5,251.1c-47.1,27.2-123.3,27.2-170.4,0s-47.1-71.1,0-98.3s123.3-27.2,170.4,0S282.6,224,235.5,251.1z"
		/>
	<path fill="#323A4F" d="M235.5,254.2c-47.1,27.2-123.3,27.2-170.4,0s-47.1-71.1,0-98.3s123.3-27.2,170.4,0S282.6,227.1,235.5,254.2
		z"/>
	
		<polyline fill="none" stroke="#F9C42F" stroke-width="1.7669" stroke-linecap="round" stroke-linejoin="round" stroke-miterlimit="10" points="
		74.1,63.1 73,19.1 150.3,56.2 150.3,144 	"/>
	
		<polyline fill="none" stroke="#F37335" stroke-width="1.0888" stroke-linecap="round" stroke-linejoin="round" stroke-miterlimit="10" points="
		169.6,130.5 169.6,91.5 244.7,128.6 245.8,196.3 	"/>
	<path fill="#1E2430" d="M260.7,213.6l-24.2-14c-1.1-0.6-1.9-2.3-1.9-3.7v-18c0-1.5,0.9-2,1.9-1.5l24.2,14c1.1,0.6,1.9,2.3,1.9,3.7
		v18C262.8,213.5,261.9,214.2,260.7,213.6z"/>
	<path fill="#F37335" d="M258.3,185l-24.2-14c-0.5-0.3-0.9-0.4-1.2-0.1l0,0l-2.3,1.3c0,0,1.1,0.4,1.6,0.6v17.7
		c0,1.5,0.9,3.1,1.9,3.7l23.2,13.3v2l2.4-1.3l0,0c0.4-0.3,0.6-0.8,0.6-1.6v-18C260.3,187.3,259.5,185.6,258.3,185z"/>
	<path fill="#1E2430" d="M256,209.6l-24.2-14c-1.1-0.6-1.9-2.3-1.9-3.7v-18c0-1.5,0.9-2,1.9-1.5l24.2,14c1.1,0.6,1.9,2.3,1.9,3.7v18
		C257.9,209.5,257,210.2,256,209.6z"/>
	<path fill="#FFFFFF" d="M256,186.4l-24.2-14c-0.6-0.4-1.1-0.3-1.5,0.1c0.3,0,0.5,0.1,0.9,0.2l24.2,14c1.1,0.6,1.9,2.3,1.9,3.7v18
		c0,0.6-0.2,1.1-0.4,1.3c0.6-0.1,1.1-0.7,1.1-1.7v-18C257.9,188.7,257,187,256,186.4z"/>
	<path fill="#F9C42F" d="M239.9,189.4c0,1.1-0.8,1.5-1.6,0.9c-0.9-0.5-1.6-1.8-1.6-2.8c0-1.1,0.8-1.5,1.6-0.9
		C239.2,187.1,239.9,188.3,239.9,189.4z"/>
	<path fill="#FFFFFF" d="M244.8,192.2c0,1.1-0.8,1.5-1.6,0.9c-0.9-0.5-1.6-1.8-1.6-2.8c0-1.1,0.8-1.5,1.6-0.9
		C244.1,189.9,244.8,191.2,244.8,192.2z"/>
	<path fill="#FFFFFF" d="M249.8,195.1c0,1.1-0.8,1.5-1.6,0.9c-0.9-0.5-1.6-1.8-1.6-2.8c0-1.1,0.8-1.5,1.6-0.9
		C249.1,192.7,249.8,194.1,249.8,195.1z"/>
	<path fill="#EFEFEF" d="M89.8,121.6l-24.2-14c-1.1-0.6-1.9-2.3-1.9-3.7V63.4c0-1.5,0.9-2,1.9-1.5l24.2,14c1.1,0.6,1.9,2.3,1.9,3.7
		v40.6C91.7,121.5,90.8,122.2,89.8,121.6z"/>
	<path fill="#F9C42F" d="M87.4,70.5l-24.3-14c-0.5-0.3-0.9-0.4-1.2-0.1l0,0l-2.3,1.3c0,0,1.1,0.4,1.6,0.6v40.2
		c0,1.5,0.9,3.1,1.9,3.7l23.2,13.3v2l2.4-1.3l0,0c0.4-0.3,0.6-0.8,0.6-1.6V74.2C89.3,72.8,88.4,71.2,87.4,70.5z"/>
	<path fill="#FFFFFF" d="M85,117.6l-24.2-14c-1.1-0.6-1.9-2.3-1.9-3.7V59.3c0-1.5,0.9-2,1.9-1.5l24.2,14c1.1,0.6,1.9,2.3,1.9,3.7
		v40.6C87,117.6,86,118.3,85,117.6z"/>
	<path fill="#1E2430" d="M85,71.9l-24.3-14c-0.6-0.4-1.1-0.3-1.5,0.1c0.3,0,0.5,0.1,0.9,0.2l24.2,14c1.1,0.6,1.9,2.3,1.9,3.7v40.6
		c0,0.6-0.2,1.1-0.4,1.3c0.6-0.1,1.1-0.7,1.1-1.7V75.6C87,74.2,86,72.5,85,71.9z"/>
	<polygon fill="#1E2430" points="80.5,81 64.3,71.6 64.3,70.5 80.5,79.8 	"/>
	<polygon fill="#1E2430" points="75.6,83.3 64.3,76.7 64.3,75.6 75.6,82.1 	"/>
	<polygon fill="#1E2430" points="74.1,79.8 64.3,74.2 64.3,73 74.1,78.7 	"/>
	<polygon fill="#1E2430" points="80.5,83.6 75.6,80.8 75.6,79.6 80.5,82.4 	"/>
	<polygon fill="#1E2430" points="80.5,90.9 64.3,81.5 64.3,80.5 80.5,89.7 	"/>
	<polygon fill="#1E2430" points="75.6,93.2 64.3,86.6 64.3,85.5 75.6,92 	"/>
	<polygon fill="#1E2430" points="74.1,89.8 64.3,84.1 64.3,82.9 74.1,88.6 	"/>
	<polygon fill="#1E2430" points="80.5,93.4 75.6,90.6 75.6,89.5 80.5,92.3 	"/>
	<polygon fill="#1E2430" points="80.5,100.8 64.3,91.4 64.3,90.2 80.5,99.5 	"/>
	<polygon fill="#1E2430" points="75.6,103.1 64.3,96.5 64.3,95.4 75.6,101.8 	"/>
	<polygon fill="#1E2430" points="74.1,99.5 64.3,94.1 64.3,92.8 74.1,98.5 	"/>
	<polygon fill="#1E2430" points="80.5,103.3 75.6,100.5 75.6,99.4 80.5,102.2 	"/>
	<polygon fill="#FFFFFF" points="54.4,150.1 53.4,149.5 53.4,140.7 54.4,141.3 	"/>
	<polygon fill="#FFFFFF" points="52,148.7 50.9,148 50.9,139.4 52,140 	"/>
	<polygon fill="#FFFFFF" points="49.6,147.3 48.6,146.7 48.6,138 49.6,138.6 	"/>
	<path fill="#F9C42F" d="M212.8,152.7c-1.3-37.6-26.5-72.9-56.3-78.6c-7.4-1.5-14.5-1-20.8,1.2l-5.1,1.8c6.3-2.2,13.3-2.7,20.8-1.2
		c29.8,5.7,55,41,56.3,78.6c0.9,28.2-11.8,49.7-30.9,56.4l5.1-1.8C200.9,202.5,213.6,181,212.8,152.7z"/>
	<path fill="#FFFFFF" d="M151.4,75.9c29.8,5.7,55,41,56.3,78.6c1.3,37.6-21.9,63.5-51.7,57.7c-29.8-5.7-55-41-56.3-78.6
		C98.4,95.9,121.6,70,151.4,75.9z"/>
	<path id="SVGID_5_" fill="#FFFFFF" d="M150.3,127.6l3.3-1.1c0.2,0.1,0.4,0.1,0.5,0.1l-3.3,1.1C150.7,127.8,150.5,127.7,150.3,127.6
		z"/>
	<g>
		<defs>
			<path id="SVGID_1_" d="M150.3,127.6l3.3-1.1c0.2,0.1,0.4,0.1,0.5,0.1l-3.3,1.1C150.7,127.8,150.5,127.7,150.3,127.6z"/>
		</defs>
		<clipPath id="SVGID_2_">
			<use xlink:href="#SVGID_1_"  overflow="visible"/>
		</clipPath>
		<path clip-path="url(#SVGID_2_)" fill="#FFFFFF" d="M150.3,127.6l3.3-1.1c0.2,0.1,0.4,0.1,0.5,0.1l-3.3,1.1
			C150.7,127.8,150.5,127.7,150.3,127.6"/>
	</g>
	<path id="SVGID_7_" fill="#FFFFFF" d="M174.6,129.9l3.3-1.1c-0.5,0.3-1.1,0.5-1.9,0.8c-0.3,0.1-0.5,0.2-0.9,0.4
		c-0.1,0.1-0.2,0.1-0.3,0.1l-3.3,1.1c0.1-0.1,0.2-0.1,0.3-0.1c0.3-0.1,0.6-0.2,0.9-0.4C173.5,130.5,174.1,130.2,174.6,129.9z"/>
	<g>
		<defs>
			<path id="SVGID_3_" d="M174.6,129.9l3.3-1.1c-0.5,0.3-1.1,0.5-1.9,0.8c-0.3,0.1-0.5,0.2-0.9,0.4c-0.1,0.1-0.2,0.1-0.3,0.1
				l-3.3,1.1c0.1-0.1,0.2-0.1,0.3-0.1c0.3-0.1,0.6-0.2,0.9-0.4C173.5,130.5,174.1,130.2,174.6,129.9z"/>
		</defs>
		<clipPath id="SVGID_4_">
			<use xlink:href="#SVGID_3_"  overflow="visible"/>
		</clipPath>
		<path clip-path="url(#SVGID_4_)" fill="#FFFFFF" d="M174.6,129.9l3.3-1.1c-0.5,0.3-1.1,0.5-1.9,0.8c-0.3,0.1-0.5,0.2-0.9,0.4
			c-0.1,0.1-0.2,0.1-0.3,0.1l-3.3,1.1c0.1-0.1,0.2-0.1,0.3-0.1c0.3-0.1,0.6-0.2,0.9-0.4C173.5,130.5,174.1,130.2,174.6,129.9"/>
	</g>
	<path fill="#1E2430" d="M191.9,151.5c0,0.6,0.1,1.3,0.1,1.9c0,0.1,0.1,0.3,0.1,0.4c0,0.2,0,0.4-0.1,0.6
		c-0.1,10.2-2.7,19.3-7.7,26.4c-7,10-17.8,14.5-29.5,12.2c-11.8-2.3-22.9-11-30.7-23.9c-5.5-9-8.7-19.3-9.5-29.8
		c-0.1-0.2-0.1-0.4-0.1-0.6c0-0.1,0-0.3,0-0.4c-0.1-0.5-0.1-1.2-0.1-1.9c-0.4-9.9,1.7-19,5.8-26.3c0.1-0.4,0.2-0.6,0.4-0.9
		c0.1-0.1,0.1-0.1,0.2-0.2c6.8-11.1,18.2-16.4,30.6-14.1c12.3,2.4,24.1,11.9,31.8,25.6c0.1,0.1,0.2,0.2,0.2,0.3
		c0.2,0.4,0.4,0.6,0.4,1C188.7,131.1,191.6,141.2,191.9,151.5z M153.5,158.5l0.4,0.1c3.9,0.8,7.6,2,11.3,3.9
		c1.2,0.6,2.4,1.2,3.6,1.9c1.1-4.6,1.7-9.6,1.7-14.9c0-0.6,0-1.4,0-2.1c-0.1-4.5-0.6-8.9-1.6-13.3c-0.1-0.6-0.3-1.2-0.4-1.9
		c-4.6,1.2-9.5,1.3-14.8,0.5c-0.4-0.1-0.6-0.1-1-0.2l-0.6-0.1c-0.6-0.1-1.2-0.3-1.8-0.4c-0.4-0.1-0.8-0.2-1.1-0.4
		c-4.3-1.1-8.6-3-12.6-5.5c-0.4,2.2-0.7,4.6-0.9,7c-0.2,2.4-0.2,4.9-0.1,7.4c0,0.7,0.1,1.5,0.1,2.2c0.4,5.5,1.3,10.8,2.7,16
		C143.2,157.6,148.3,157.5,153.5,158.5 M146,98.8c-8.7,0.1-16.5,4.5-21.7,12.4c3.1,3.4,6.4,6.4,9.9,8.8
		C137,109.3,142.3,102.5,146,98.8 M179.7,121.4c-5.8-9.8-14-17.1-22.7-20.5c4.1,5.2,9.8,14,13.4,25.9c0.2-0.1,0.5-0.2,0.8-0.4
		c0.6-0.3,1.2-0.5,1.7-0.8C175.3,124.7,177.6,123.2,179.7,121.4 M159.8,189.1c8,0.1,15.3-3.5,20.5-10.2c-2.9-3.4-6.1-6.2-9.5-8.6
		C168,179.8,163.3,185.7,159.8,189.1 M127.9,168.8c5.7,8.7,13.2,15.1,21.2,18.2c-3.7-4.8-8.7-12.5-12.4-23.1
		C133.5,165,130.6,166.7,127.9,168.8 M188.4,151c-0.3-8.8-2.6-17.6-6.6-25.6c-2.3,1.9-4.7,3.4-7.2,4.6c-0.5,0.3-1.1,0.5-1.9,0.8
		c-0.3,0.1-0.5,0.2-0.9,0.4c-0.1,0.1-0.2,0.1-0.3,0.1c1.3,5.5,2.1,11.1,2.2,16.8L188.4,151 M117.8,137.2l14.4,2.8
		c-0.2-5.7,0.2-11,1.1-15.9c-3.8-2.7-7.4-5.9-10.9-9.7C119.1,120.8,117.4,128.6,117.8,137.2 M182.5,176c3.6-5.7,5.6-12.8,6-20.8
		l-14.6-2.8c-0.1,4.9-0.8,9.7-1.9,14.1C175.7,169.2,179.2,172.3,182.5,176 M125.6,165c3.1-2.3,6.3-4.2,9.7-5.4
		c-1.4-4.9-2.4-10.1-2.8-15.3l-14.4-2.7C119,149.7,121.5,157.8,125.6,165 M149.9,101.1c-3.4,2.9-9.5,9.5-12.5,21.1
		c3.8,2.3,7.8,4.1,11.8,5.1c0.4,0.1,0.7,0.2,1.1,0.3c0.2,0.1,0.4,0.1,0.5,0.1L149.9,101.1 M153.4,102l0.9,26.4
		c4.6,0.6,8.8,0.4,13-0.6C163.5,115.3,157.1,106.3,153.4,102 M152.8,186.1l-0.8-23.6c-4.2-0.6-8.3-0.4-12.1,0.4
		C143.8,174.3,149.4,182.1,152.8,186.1 M156.2,186.6c3.2-2.8,8.3-8.7,11.4-18.4c-0.1,0-0.1-0.1-0.2-0.1c-3.9-2.3-7.9-3.9-12.1-4.9
		L156.2,186.6"/>
	<path fill="#1E2430" d="M214.8,243.1c-8-4.6-20.9-4.6-29,0c-8,4.6-8,12.1,0,16.7c8,4.6,20.9,4.6,29,0
		C222.7,255.2,222.7,247.7,214.8,243.1z"/>
	<path fill="#F9C42F" d="M202.6,243.1c0.2,3.3,5.5,8.2,7.9,9.2c2.3,1,3.9-0.4,4.3-1.3c0.2-0.4,0.3-1.1,0.4-1.9
		c0.1-1.8-0.8-3.4-2.2-3.9C209.1,243.5,202.2,237.2,202.6,243.1z"/>
	<path fill="#F9C42F" d="M197.3,254.1c0,0-16-7.8-13.5-0.5c1.6,4.6,8.6,7.1,11,7.3c2.5,0.4,4.1-1.1,4.3-1.7c0.3-0.6-0.3-4.2-0.3-4.2
		L197.3,254.1z"/>
	<path fill="#F3F2E9" d="M212.4,196.5l0.7,28.2l1.9,22.1c0,0.7-0.3,1.4-0.7,1.9c-0.5,0.6-1.5,1.3-2.9,1.4c-0.9,0-1.6-0.3-2.2-0.6
		c-0.8-0.5-1.2-1.4-1.3-2.4l-4.8-36.7l-3.4,20.7l-0.7,23.1c0,0.8-0.3,1.6-0.7,2.2c-0.5,0.7-1.5,1.5-3.2,1.3
		c-0.2-0.1-0.4-0.1-0.6-0.1c-1.6-0.3-2.9-1.9-2.9-3.8l0.5-54.2L212.4,196.5z"/>
	<path fill="#FFC2B0" d="M194.7,151.8l0.9,5.6c0,0,0.5,1.2,2.5,0.8c1.9-0.5,1.9-2.2,1.9-2.2l-0.9-4.9L194.7,151.8z"/>
	<path fill="#FFC2B0" d="M193.1,138.4c3.8-1.2,7.9,1.2,9.3,5.5c1.3,4.2-0.6,8.7-4.4,9.9c-3.8,1.2-7.9-1.2-9.3-5.5
		C187.3,144.1,189.3,139.6,193.1,138.4z"/>
	<path fill="#F9C42F" d="M189.6,160.7c1.2,12.1,2.5,24.6,1.8,39.3c-0.2,3.2,4.5,5.4,7,5.4c2.5-0.1,4.9-0.8,7.1-2
		c2.4-1.4,7.5-3.6,7.2-7.2c-1.7-21.5,1.8-31.4-2.9-40c-2.9-5.3-10.8-0.2-10.9-0.2C191.1,159.2,189.6,160.8,189.6,160.7z"/>
	<path fill="#D9672F" d="M205.3,214.6c0.5,3.4,3.4,34.2,4.4,35c-0.2-0.1-0.4-0.1-0.4-0.2c-0.8-0.5-1.2-1.4-1.3-2.4l-4.8-36.7
		C203.1,210.2,204.7,211.2,205.3,214.6z"/>
	<polygon fill="#FFC2B0" points="175.7,156.1 168.9,146.1 166.7,147.4 173.4,160.5 	"/>
	<polygon fill="#FFC2B0" points="212,144.2 210.9,132.1 213.5,132 216.7,146.6 	"/>
	<path fill="#F9C42F" d="M193.5,173.5c-3.1-4.6-16.2-4.3-20-12.5c-0.9-1.9-0.1-3.8,0.4-5.1c0.4-0.7,1.5-0.8,2-0.1
		c6.3,8,13.7,5,13.7,5S196.6,178.1,193.5,173.5z"/>
	<path fill="#F9C42F" d="M212,164.3c6-11,5.1-18.1,4.7-19.5c-0.4-1-2.6-1.4-4.1-1.6c-0.6-0.1-1.2,0.4-1.2,1.1c0,1-0.2,2.6-0.6,5.3
		c-0.9,5.3-7,4.8-7,4.8S208,171.5,212,164.3z"/>
	<path fill="#FFC2B0" d="M211.1,132.8l-1.6-2.3l-1.8-0.7c-0.2-0.1-0.3-0.3-0.2-0.4l0,0c0-0.2,0.2-0.4,0.4-0.4l1.1,0.2l-0.9-2.3
		c0-0.6,0.3-1.1,0.8-1.5l0.4-0.2c0.5-0.4,1.3-0.2,1.7,0.3l0.4,0.5l1.7,2.7c0.3,0.5,0.5,1.1,0.5,1.6l0.1,1.7L211.1,132.8z"/>
	<path fill="#FFC2B0" d="M169.2,147.2l0.4-3.2l1.2-1.5c0.1-0.2,0.1-0.4,0-0.5l0,0c-0.1-0.2-0.4-0.2-0.5-0.1l-0.9,0.7l-0.4-2.5
		c-0.3-0.5-0.8-0.9-1.3-0.9h-0.4c-0.6,0-1.2,0.4-1.3,1.1l-0.1,0.7l-0.1,3.2c0,0.6,0.1,1.1,0.4,1.7l0.8,1.5L169.2,147.2z"/>
	<path fill="#D8A016" d="M177.2,165.3c4.1,3,9.8,4.1,13.4,5.9c0.8,8.9,1.2,18.3,0.7,28.9c-0.1,2.2,2,3.9,4.2,4.8
		c-4.3-8-0.4-30-1.1-33C193.9,169.2,181.6,166.9,177.2,165.3z"/>
	<path fill="#FFFFFF" d="M194,158.2l0.7-1.9c0.8-0.1,2.6-0.5,2.6-0.5c1.4-0.4,3.2-2.2,3.2-2.2l1.1,1.1
		C199.8,157.8,194,158.1,194,158.2z"/>
	<path fill="#1E2430" d="M195.3,149.6c0.2,1.1-1.1,1.1-1.1,1.3c-0.1,0.4,3.2,3,4,2.9c4.8-0.7,6.2-5.5,6-8.5
		c-0.2-2.9-2.5-9.1-9.4-8.7c-6.9,0.5-6.8-0.3-6.8-0.3c0,1.5-1.3,2.2-1.1,4.9c0.4,5.2,3.8,3.4,5.2,3.9c0.9,0.4,0.8,2.3,1.1,2.7
		c0.2,0.2,0.4,0.4,0.8,0.4C194.6,148.5,195.1,148.7,195.3,149.6z"/>
	<path fill="#1E2430" d="M88.5,232.4l-32.2-18.6c-1.4-0.8-2.7-3-2.7-4.9V155c0-1.9,1.2-2.7,2.7-1.9l32.2,18.6c1.4,0.8,2.7,3,2.7,4.9
		v53.9C91.1,232.3,90,233.2,88.5,232.4z"/>
	<path fill="#F9C42F" d="M85.3,164.5L53,145.9c-0.6-0.4-1.2-0.4-1.7-0.2l0,0l-3.1,1.9c0,0,1.4,0.5,2.2,0.8v53.4
		c0,1.9,1.2,4.1,2.7,4.9L84,224.5v2.7l3.2-1.9l0,0c0.5-0.4,0.8-1,0.8-2v-53.9C87.8,167.5,86.8,165.4,85.3,164.5z"/>
	<path fill="#1E2430" d="M82.1,227.1l-32.2-18.6c-1.4-0.8-2.7-3-2.7-4.9v-53.9c0-1.9,1.2-2.7,2.7-1.9l32.2,18.6
		c1.4,0.8,2.7,3,2.7,4.9v53.9C84.7,227.1,83.6,227.9,82.1,227.1z"/>
	<path fill="#FFFFFF" d="M82.1,166.3l-32.2-18.6c-0.8-0.5-1.5-0.4-2,0.2c0.4,0,0.8,0.1,1.2,0.3l32.2,18.6c1.4,0.8,2.7,3,2.7,4.9
		v53.9c0,0.8-0.3,1.4-0.6,1.9c0.8-0.1,1.4-0.9,1.4-2.3v-53.9C84.7,169.3,83.6,167.1,82.1,166.3z"/>
	<path fill="#F37335" d="M70.7,173.6c0,3-2,4.2-4.7,2.7c-2.7-1.5-4.7-5.1-4.7-8.1s2-4.2,4.7-2.7C68.7,167,70.7,170.6,70.7,173.6z"/>
	<path fill="#F9C42F" d="M72.7,182.1c0-0.1,0-0.1,0-0.2c-0.2-1.2-1.4-2.3-2.2-2c-1.2,0.4-2.7,0.3-4.4-0.8c-1.6-1.1-3.3-2.5-4.4-4.3
		c-0.8-1.2-2-1.4-2.2-0.4v0.1l-2.2,14.1L75,198.7L72.7,182.1z"/>
	<polygon fill="#FFFFFF" points="76.2,209.6 54.6,197.2 54.6,195.6 76.2,208 	"/>
	<polygon fill="#FFFFFF" points="69.6,212.6 54.6,203.9 54.6,202.3 69.6,211 	"/>
	<polygon fill="#FFFFFF" points="67.6,208 54.6,200.4 54.6,199 67.6,206.5 	"/>
	<polygon fill="#FFFFFF" points="76.2,212.9 69.6,209.2 69.6,207.7 76.2,211.5 	"/>
	<polygon fill="#1E2430" points="244.4,84.9 209.5,64.8 209.5,62.4 244.4,82.4 	"/>
	<polygon fill="#1E2430" points="233.8,89.8 209.5,75.8 209.5,73.3 233.8,87.3 	"/>
	<polygon fill="#1E2430" points="230.6,82.4 209.5,70.3 209.5,67.7 230.6,79.8 	"/>
	<polygon fill="#1E2430" points="244.4,90.5 233.8,84.4 233.8,81.9 244.4,88 	"/>
</g>
</svg>
