<?xml version="1.0" encoding="utf-8"?>
<!-- Generator: Adobe Illustrator 18.0.0, SVG Export Plug-In . SVG Version: 6.00 Build 0)  -->
<!DOCTYPE svg PUBLIC "-//W3C//DTD SVG 1.1//EN" "http://www.w3.org/Graphics/SVG/1.1/DTD/svg11.dtd">
<svg version="1.1" id="Layer_1" xmlns="http://www.w3.org/2000/svg" xmlns:xlink="http://www.w3.org/1999/xlink" x="0px" y="0px"
	 viewBox="0 0 300 300" enable-background="new 0 0 300 300" xml:space="preserve">
<g>
	<path fill="#1E2430" d="M246.4,242.1c-53.3,30.8-139.6,30.8-192.9,0s-53.3-80.5,0-111.3s139.6-30.8,192.9,0
		S299.7,211.4,246.4,242.1z"/>
	<path fill="#323A4F" d="M246.4,245.6c-53.3,30.8-139.6,30.8-192.9,0s-53.3-80.5,0-111.3s139.6-30.8,192.9,0
		S299.7,214.9,246.4,245.6z"/>
	<path fill="#1E2430" d="M160.4,29.6c9.5,5.5,19,11.1,28.6,16.6c2.5,1.4,4.9,2.9,7.4,4.3c3.8,2.1,5.4,5.2,5.4,9.4
		c-0.1,42.6-0.1,85.2-0.1,127.7c0,0.8,0.1,1.6,0.1,2.3c-1.3,3.7-4.5,4.9-7.8,3.1c-16.9-9.7-33.6-19.5-50.4-29.1
		c-3.6-2.1-5.3-5-5.3-9.2c0.1-11.9,0-23.6,0-35.5c0.3-0.8,1-1.2,1.9-1.2c0,11.5,0.1,23,0.1,34.4c0,3.8,1.6,6.7,4.8,8.6
		c16,9.3,32.1,18.5,48.2,27.8c3.3,1.8,4.9,0.9,4.9-2.8c0-40.9,0-81.7,0-122.6c0-3.7-1.7-6.4-4.8-8.3c-4.4-2.6-8.8-5.1-13.2-7.6
		c-0.4-0.3-0.8-0.7-1.3-0.4c-0.3,3.5-0.7,3.7-3.7,1.8c-3.1-1.9-6.2-3.9-9.3-5.8c-1.6-0.9-2.7-2.3-2.8-4.1c-0.1-1.2-0.7-1.8-1.7-2.3
		c-5.4-3.1-10.8-6.3-16.2-9.4c-3.4-2-5.1-1-5.1,3c0,19.4,0,38.7,0,58.1c-0.9,0.3-1.4-0.5-2-0.9c0-20.5,0.1-40.9,0.1-61.4
		c0-1.8,0.3-3.1,1.8-4.3c2.2-1.7,3.9-1.7,6.3-0.3C151.1,24.4,155.8,26.9,160.4,29.6z"/>
	<path fill="#FFFFFF" d="M101.4,158.5c1.4,0.7,0.7,1.9,0.7,2.8c-0.5,18.5-1,37.1-1.6,55.6c-0.1,1.2-0.2,2.4-0.1,3.7
		c0.1,1.1-0.6,1.3-1.3,1.4c-0.2-0.1-0.3-0.1-0.4,0.1c-1.5-0.2-2.9-0.4-4.4-0.6c-1.8-1-2.4-2.3-2.5-4.6c-0.2-8.4-0.6-16.8-1-25
		c-0.3-6.8-0.7-13.5-0.9-20.4c-1.1,0.8-1.1,1.8-1,2.8c0.1,13.7,0.2,27.4,0.3,41c0.1,1.6-0.5,2.1-1.8,2.3c-1.8-0.1-3.3-0.5-4.9-1.1
		c-1.5-0.7-1.9-2-1.8-3.5c0.3-4.8-0.2-9.4-0.5-14.1c-0.3-4-0.5-8-0.6-12c-0.2-4-0.5-8-0.7-12c-0.3-5.3,0.2-10.7-1.2-15.9
		c-0.8-3.1,0.2-6.1-0.4-9.1c-0.1-0.3,0.3-0.6,0.4-0.9c2.1,1.8,3.8,3.9,6.3,5.3C89.2,157.1,95.1,158.4,101.4,158.5z"/>
	<path fill="#FDC830" d="M134.2,111.3c-0.3,0.5-0.8,1.2-0.7,1.5c1.3,2.6-0.8,3.5-2.3,4.5c-0.8,0.6-1.2,1.2-1.1,2.1
		c0.1,0.8-0.1,1.8-0.1,2.6c-0.3-3.5-0.3-3.5-3.5-1.8c-5.2,2.7-10.4,5.3-16.4,5.8c-2.4,2.2-5.4,1.6-8.3,1.7c-0.9,0.1-1.3,0.6-1.2,1.3
		c0.2,1.8,0.3,3.4,0.3,5.1c0.3,6.9,0.7,13.8,0.9,20.7c0.1,1.2,1.3,2.7-0.6,3.7c-6.3-0.1-12.1-1.3-17.7-4.3c-2.5-1.3-4.1-3.6-6.3-5.3
		c-0.6-0.8-0.3-1.8-0.4-2.7c-0.2-6.6,0.3-13.3-0.2-19.9c1,0.1,2,0.1,3,0.2c5.1,0.4,8.8-3.3,8.3-8.5c-0.3-2.5-1.2-4.8-2.1-7.2l0,0
		c3.2,0.6,4.3,0.1,5.8-2.8c0.3-0.5,0.3-1,1.1-1.1c3.2-0.3,5.1-2.3,6.7-4.8c1.5,3.8-0.1,8.3-3.7,10.4c-1.3,0.8-0.9,2-1.1,3.1
		c-0.1,0.3,0,0.5,0.1,0.7l0,0c0.3,0.5,0.8,0.6,1.3,0.9c3.3,2,6.8,1.9,10.4,2.5c0.8,0.2,1.4,0.2,2.2,0.3c6.9,0.4,12.9-2.4,19.1-4.8
		c1.5-0.6,2.2-1.6,2-3.2c0.2,1.1,0.5,1.8,1.7,0.8C132.4,112.1,133.1,111.4,134.2,111.3L134.2,111.3L134.2,111.3z"/>
	<path fill="#EA2445" d="M134.2,111.3c-1.1,0.1-1.8,0.8-2.5,1.5c-1.2,1-1.5,0.3-1.7-0.8c-1.2-1.8-3.2-2.3-4.8-3.3
		c-3-1.7-4.3-3.9-4.3-7.3C121.1,96,121,90.5,121,85c0-3.3,3.5-5.3,6.4-3.8c3.6,2,7.1,4,10.7,6c0.2,0.1,0.3,0.2,0.4,0.3
		c0.6,0.4,1.1,1.2,2,0.9c0.9,1.1,2.2,1.7,3.5,2.3c0.4,0.4,0.8,0.8,1.5,0.8v-0.1c0.2,0.2,0.3,0.3,0.4,0.3s0.3,0.2,0.3,0.2
		c2.4,1.4,4.8,3,7.2,4.3c3,1.6,4.4,3.8,4.3,7.3c-0.2,5.3-0.1,10.4-0.1,15.7c0,3.8-0.1,3.8-3.7,4.8c-1,0.3-1.8,0.1-2.7-0.4
		c-1.5-0.8-3-1.7-4.5-2.5l0,0c-0.3-0.2-0.6-0.3-0.8-0.5l0.1,0.1c-0.2-0.2-0.3-0.3-0.4-0.3c-0.1-0.1-0.2-0.2-0.3-0.2
		c-0.2-0.2-0.4-0.3-0.6-0.3c-1.3-0.7-2.3-2.3-4.2-1.8c-0.8,0.1-1.6,0.3-1.9,1.2c-2.3,0.6-4.1,2.2-6.2,3.3c-0.9,0.5-1.8,0.8-2.2-0.6
		c0.1-0.8,0.2-1.8,0.1-2.6c-0.1-0.9,0.3-1.6,1.1-2.1c1.5-1,3.5-1.9,2.3-4.5C133.4,112.5,134,111.8,134.2,111.3
		c0.2-0.2,0.3-0.4,0.5-0.6c-0.1-0.1-0.2-0.1-0.2-0.1C134.4,110.8,134.4,111.1,134.2,111.3z M141.1,104.3c0-2.5-1.3-4.3-3.8-4.5
		c-0.9-0.1-1.3-0.4-1.8-1.2c-0.8-1.7-2.1-2.1-3.7-1.3c-1.7,0.8-2.1,2-1.6,3.7c0.9,2.8,2.5,5.3,4.4,7.5c0.3,0.3,0.6,0.6,1.1,0.7
		C138,109.3,141,106.6,141.1,104.3z"/>
	<path fill="#323A4F" d="M99.6,102.1c-1.6,2.4-3.5,4.5-6.7,4.8c-0.8,0.1-0.8,0.6-1.1,1.1c-1.5,2.8-2.7,3.4-5.8,2.8l-0.1-0.1
		c-0.3-3.3-2.5-5.2-5.3-6.7c-0.3-4.5,0.7-8.7,3.9-11.9c3.8-3.7,13-1.7,14.8,3.1C100.4,97.5,100.2,99.8,99.6,102.1z"/>
	<path fill="#323A4F" d="M86,110.8c0.9,2.3,1.8,4.7,2.1,7.2c0.5,5.1-3.2,8.9-8.3,8.5c-1-0.1-2-0.1-3-0.2c-3.2-0.5-5-3.5-4.2-7.1
		c1.3-5.3,4-9.9,7.3-14.2c0.2-0.3,0.5-0.3,0.8-0.4C83.4,105.8,84.4,108.6,86,110.8L86,110.8z"/>
	<path fill="#FDC830" d="M82.3,226.4c-0.7-1.3-0.6-2.8-0.2-4.2c0.1-0.1,0.2-0.1,0.3-0.2c1.7,0.9,3.3,1.6,4.8-0.4
		c1.7,0.3,3.3-0.1,4.9,0.8c0.3,0.3,0.6,0.5,0.9,0.8l0,0c0,0.6,0,1.2,0,1.8l0,0c-1.6,0.3-3.2,0.5-4.8,0.8c-1.2,0.3-2.6-0.4-3.5,0.8
		C83.9,226.4,83,226.4,82.3,226.4z"/>
	<path fill="#FDC830" d="M93.8,226.4c-0.2-1.2,0.3-1.1,1.2-0.8c1,0.4,2.2,0.8,2.9-0.5c0.2-0.2,0.3-0.3,0.6-0.5
		c1.3,0.1,2.6,0.1,3.9,0.2c0.5,0.2,0.9,0.3,1.4,0.5c0.8,0.3,1.3,0.8,1.1,1.6c-0.2,0.8-0.8,1.6-1.5,1.5c-1-0.2-1.8,0.6-2.7,0.3
		c-2.3-0.3-4.7,0.4-6.9-0.4v0.1C93.8,227.7,93.8,227,93.8,226.4z"/>
	<path fill="#FFE5CF" d="M87.1,221.7c-1.4,2-3.1,1.3-4.8,0.4c-0.3-1.9-0.2-3.8-0.1-5.8c1.6,0.7,3.3,1.1,4.9,1.1
		C87.8,218.9,87.8,220.3,87.1,221.7z"/>
	<path fill="#FFE5CF" d="M98.4,224.7c-0.2,0.2-0.3,0.3-0.6,0.5c-3.4,0.5-3.8,0.3-3.8-3.8c1.5,0.2,2.9,0.4,4.4,0.6
		c0.1,0.3,0.1,0.4,0.2,0.7c0,0.3,0,0.7,0,1C98.6,224,98.5,224.4,98.4,224.7z"/>
	<path fill="#F9D86C" d="M86,110.7c-1.7-2.2-2.5-4.9-5.3-6.1c0-0.3,0.1-0.4,0.1-0.6C83.4,105.6,85.6,107.5,86,110.7z"/>
	<path fill="#2F3891" d="M84.6,226.4c0.9-1.3,2.3-0.7,3.5-0.8c1.6-0.3,3.2-0.5,4.8-0.8c-0.3,0.8-1.2,0.7-1.8,1
		C88.9,226.1,86.8,226.3,84.6,226.4z"/>
	<path fill="#2F3891" d="M93.8,228.3c2.3,0.8,4.7,0.1,6.9,0.4c-1.3,0.9-3,0.3-4.3,0.9C95.4,229.3,93.9,230.2,93.8,228.3z"/>
	<path fill="#F3F3F4" d="M98.4,224.7c0.1-0.3,0.2-0.7,0.3-1.1c0.8,1.6,2.6,0.2,3.7,1.2C101.1,224.8,99.7,224.8,98.4,224.7z"/>
	<path fill="#F3F3F4" d="M98.7,222.6c-0.1-0.3-0.1-0.4-0.2-0.7c0.2-0.1,0.3-0.1,0.4-0.1C98.9,222.2,98.8,222.4,98.7,222.6z"/>
	<path fill="#FCF5FC" d="M137.5,83.9c0.2,0.1,0.3,0.1,0.3,0.2c0.1,0.1-0.1,0.3-0.2,0.3c-0.2-0.1-0.3-0.1-0.3-0.2
		S137.5,84,137.5,83.9z"/>
	<path fill="#FFFFFF" d="M145.1,120.2c0.2,0,0.3,0,0.3,0.2c0.2,0.2,0.3,0.3,0.4,0.3l-0.1-0.1c0.2,0.4,0.5,0.5,0.8,0.5l0,0
		c-0.2,2.3,0.8,4.2,2.9,5.3c2.1,1.2,4.2,2.4,6.3,3.7c10.4,6,20.6,11.9,31,18c2.1,1.2,3.3,0.6,3.3-1.9c0.1-2.3,0.1-4.6,0-6.8
		c-0.2-2.6-1.2-4.6-3.5-5.9c-8.7-5-17.2-10.2-26-14.9c-2.3-1.3-2.3-2.8-2.3-4.8c0.1-1.3,0.5-1.5,1.6-0.9c3,1.7,6,3.3,9,5
		c6.1,3.5,12.1,7,18.2,10.5c1.6,0.9,2.7,0.5,2.9-1c0.4-3.6,0.8-7.3-0.6-10.8c-0.5-1.3-1.2-1.3-2.3-0.1c0.5-2.1-0.3-2.9-1.8-3.8
		c-5.9-3.3-11.8-6.8-17.6-10.2c-5.9-3.4-11.9-6.8-17.9-10.3c-1.2-0.7-2.3-0.9-3.7-0.2c-0.2,0-0.3-0.1-0.3-0.2
		c-0.2-0.2-0.3-0.3-0.4-0.3v0.1c-0.1-1-0.8-0.9-1.5-0.8c-1.3-0.5-2.6-1.1-3.5-2.3c0-19.4,0-38.7,0-58.1c0-4,1.7-4.9,5.1-3
		c5.4,3.1,10.8,6.3,16.2,9.4c0.9,0.5,1.6,1,1.7,2.3c0.1,1.8,1.2,3.2,2.8,4.1c3.1,1.9,6.2,3.8,9.3,5.8c3,1.8,3.4,1.7,3.7-1.8
		c0.6-0.3,0.9,0.3,1.3,0.4c4.4,2.5,8.8,5.1,13.2,7.6c3.2,1.8,4.8,4.7,4.8,8.3c0,40.9,0,81.7,0,122.6c0,3.7-1.7,4.7-4.9,2.8
		c-16.1-9.3-32.1-18.5-48.2-27.8c-3.3-1.9-4.8-4.8-4.8-8.6c0-11.5-0.1-23-0.1-34.4c1.8-0.4,2.8,1.1,4.2,1.8
		C144.7,120,145,120.2,145.1,120.2z M146.7,137.5c0,1.3-0.1,2.7,0,4.1c0.1,1.9,0.9,3.4,2.6,4.4c5,3,10.1,5.9,15.1,8.8
		c7.3,4.3,14.6,8.3,21.9,12.5c2.8,1.6,3.8,1.1,3.8-2.2c0.1-1.7-0.1-3.3,0-4.9c0.2-3.8-1.6-6.4-5-8.2c-4.7-2.4-9.2-5.2-13.8-7.8
		c-7.3-4.2-14.6-8.4-22-12.5c-1.9-1.1-2.7-0.6-2.8,1.7C146.6,134.9,146.7,136.3,146.7,137.5z M146.7,78c0,1.2-0.1,2.4,0,3.7
		c0.2,2.3,0.9,4.2,3.2,5.4c12.3,7,24.5,14.1,36.7,21.1c2.3,1.3,3.3,0.8,3.5-1.8c0.2-2.1,0-4.2,0.1-6.3c0.1-3.2-1.5-5.3-4.2-6.9
		c-8.3-4.8-16.7-9.6-25-14.4c-3.8-2.2-7.5-4.4-11.4-6.5c-2-1.1-2.9-0.5-2.9,1.8C146.6,75.4,146.7,76.7,146.7,78z M190.1,82.9
		L190.1,82.9c0.1-0.6,0-1.2,0.1-1.8c0.3-3.9-1.4-6.5-4.8-8.3c-3.6-2-7.2-4.1-10.8-6.2c-8.3-4.8-16.8-9.6-25-14.4
		c-1.8-1-2.8-0.5-2.8,1.7c-0.1,2.4,0.1,4.8-0.1,7.3c-0.1,2.5,1,4.3,3,5.6c1.3,0.9,2.9,1.6,4.3,2.4c11,6.3,22,12.8,33,19.1
		c1.7,1,3,0.3,3.2-1.7C190.2,85.5,190.1,84.3,190.1,82.9z M163.8,164.7c0,2.5,1.8,4.7,3.7,4.8c1.8,0.1,3.2-1.7,3.2-3.8
		c0-2.4-1.8-4.8-3.8-4.8C165.1,160.7,163.8,162.4,163.8,164.7z"/>
	<path fill="#F3F3F4" d="M146.1,91.9c1.3-0.8,2.4-0.5,3.7,0.2c5.9,3.4,11.9,6.8,17.9,10.3c5.8,3.4,11.7,6.8,17.6,10.2
		c1.5,0.8,2.3,1.6,1.8,3.8c1.1-1.2,1.8-1.3,2.3,0.1c1.4,3.5,1,7.2,0.6,10.8c-0.2,1.5-1.3,2-2.9,1c-6-3.6-12.1-7-18.2-10.5
		c-3-1.8-6-3.3-9-5c-1-0.6-1.5-0.4-1.6,0.9c-0.1,2,0,3.5,2.3,4.8c8.8,4.8,17.3,10,26,14.9c2.3,1.3,3.4,3.3,3.5,5.9
		c0.1,2.3,0.1,4.6,0,6.8c-0.1,2.4-1.3,3.1-3.3,1.9c-10.4-6-20.6-11.9-31-18c-2.1-1.2-4.2-2.4-6.3-3.7c-2.1-1.2-3-3-2.9-5.3
		c1.5,0.8,3,1.7,4.5,2.5c0.8,0.5,1.7,0.7,2.7,0.4c3.6-0.9,3.7-1,3.7-4.8c0-5.3-0.2-10.4,0.1-15.7c0.1-3.4-1.3-5.7-4.3-7.3
		C150.9,94.9,148.5,93.4,146.1,91.9z"/>
	<path fill="#FCF5FC" d="M141.1,104.3c0,2.3-3.1,5-5.4,4.8c-0.5-0.1-0.8-0.3-1.1-0.7c-1.8-2.3-3.5-4.7-4.4-7.5
		c-0.5-1.7-0.1-3,1.6-3.7s2.9-0.4,3.7,1.3c0.3,0.8,0.8,1.1,1.8,1.2C139.7,100,141.1,101.7,141.1,104.3z"/>
	<path fill="#FCF5FC" d="M143.9,90.7c0.7-0.1,1.4-0.2,1.5,0.8C144.8,91.4,144.3,91.1,143.9,90.7z"/>
	<path fill="#F9D86C" d="M134.2,111.3c0.2-0.3,0.3-0.4,0.3-0.7c0,0,0.1,0.1,0.2,0.1C134.5,110.9,134.4,111.1,134.2,111.3
		L134.2,111.3z"/>
	<path fill="#FCF5FC" d="M146.7,121.2c-0.4,0-0.7-0.1-0.8-0.5C146.1,120.8,146.4,121,146.7,121.2z"/>
	<path fill="#FCF5FC" d="M145.4,91.4c0.2,0.2,0.3,0.3,0.4,0.3C145.6,91.7,145.5,91.6,145.4,91.4z"/>
	<path fill="#FCF5FC" d="M145.1,120.2c-0.2-0.2-0.4-0.3-0.6-0.3C144.8,120,145,120.2,145.1,120.2z"/>
	<path fill="#FCF5FC" d="M145.9,120.7c-0.2-0.2-0.3-0.3-0.4-0.3C145.6,120.5,145.7,120.6,145.9,120.7z"/>
	<path fill="#2F3891" d="M93,224.9c0-0.6,0-1.2,0-1.8C93.6,223.7,93.5,224.3,93,224.9z"/>
	<path fill="#2F3891" d="M93.8,226.4c0,0.7,0,1.3,0,1.9C93.3,227.7,93.5,227,93.8,226.4z"/>
	<path fill="#2F3891" d="M93,223.2c-0.3-0.3-0.6-0.5-0.9-0.8C92.4,222.5,92.9,222.6,93,223.2z"/>
	<path fill="#323A4F" d="M146.7,137.5c0-1.3-0.1-2.7,0-4.1c0.1-2.3,0.8-2.8,2.8-1.7c7.3,4.1,14.6,8.3,22,12.5
		c4.6,2.6,9.1,5.3,13.8,7.8c3.4,1.8,5.2,4.3,5,8.2c-0.1,1.7,0.1,3.3,0,4.9c-0.1,3.3-1.1,3.8-3.8,2.2c-7.3-4.3-14.6-8.3-21.9-12.5
		c-5.1-2.9-10.1-5.9-15.1-8.8c-1.7-1-2.5-2.5-2.6-4.4C146.6,140.3,146.7,138.9,146.7,137.5z"/>
	<path fill="#F37335" d="M146.7,78c0-1.3-0.1-2.6,0-3.8c0.1-2.3,0.9-2.9,2.9-1.8c3.8,2.1,7.5,4.3,11.4,6.5c8.3,4.8,16.7,9.6,25,14.4
		c2.7,1.6,4.3,3.8,4.2,6.9c-0.1,2.1,0.1,4.2-0.1,6.3c-0.2,2.6-1.3,3.1-3.5,1.8c-12.2-7.1-24.5-14.2-36.7-21.1
		c-2.3-1.3-3-3.2-3.2-5.4C146.6,80.4,146.7,79.3,146.7,78z"/>
	<path fill="#FDC830" d="M190.1,82.9c0,1.3,0.2,2.6-0.1,3.8c-0.3,1.9-1.5,2.6-3.2,1.7c-11-6.3-22-12.8-33-19.1
		c-1.4-0.8-2.9-1.5-4.3-2.4c-2-1.3-3.1-3.1-3-5.6c0.1-2.4,0-4.8,0.1-7.3c0.1-2.1,1-2.7,2.8-1.7c8.4,4.8,16.8,9.6,25,14.4
		c3.6,2.1,7.2,4.3,10.8,6.2c3.3,1.8,5.1,4.4,4.8,8.3C190.1,81.8,190.1,82.4,190.1,82.9L190.1,82.9z"/>
	<path fill="#F37335" d="M163.8,164.7c0-2.3,1.3-3.9,3.1-3.8c1.9,0.1,3.8,2.3,3.8,4.8c0,2.2-1.3,3.8-3.2,3.8
		C165.5,169.3,163.8,167.3,163.8,164.7z"/>
	<path fill="#FFE5CF" d="M96,112.5c-1.3,0.8-0.9,2-1.1,3.1c-0.1,0.3,0,0.5,0.1,0.7c-0.2-0.1-6.2-2.9-8.9-5.4
		c3.2,0.6,4.3,0.1,5.8-2.8c0.3-0.5,0.3-1,1.1-1.1c3.2-0.3,5.1-2.3,6.7-4.8C101.1,105.9,99.6,110.5,96,112.5z"/>
	<path fill="#FFE5CF" d="M134.2,111.3c-0.3,0.5-0.8,1.2-0.7,1.5c1.3,2.6-0.8,3.5-2.3,4.5c-0.8,0.6-1.2,1.2-1.1,2.1
		c0.1,0.8-0.1,1.8-0.1,2.6c-0.3-3.5-0.3-3.5-3.5-1.8c-5.2,2.7-10.4,5.3-16.4,5.8c0,0,0.8-4.6-1.4-5.8l0.2-0.3
		c6.9,0.4,12.9-2.4,19.1-4.8c1.5-0.6,2.2-1.6,2-3.2c0.2,1.1,0.5,1.8,1.7,0.8C132.4,112.1,133.1,111.4,134.2,111.3L134.2,111.3z"/>
	<g>
		
			<linearGradient id="SVGID_1_" gradientUnits="userSpaceOnUse" x1="251.2685" y1="104.2312" x2="251.2685" y2="160.0312" gradientTransform="matrix(1 0 0 -1 0 300)">
			<stop  offset="0" style="stop-color:#D45011"/>
			<stop  offset="0.457" style="stop-color:#FF8245"/>
		</linearGradient>
		<polygon fill="url(#SVGID_1_)" points="243.9,195.8 243.9,146.5 258.6,140 258.6,189.2 		"/>
		<polygon fill="#FF8245" points="228.4,188.6 228.4,139.3 243.1,132.7 243.1,182 		"/>
		
			<linearGradient id="SVGID_2_" gradientUnits="userSpaceOnUse" x1="236.1685" y1="104.1312" x2="236.1685" y2="160.7312" gradientTransform="matrix(1 0 0 -1 0 300)">
			<stop  offset="0" style="stop-color:#D45011"/>
			<stop  offset="1" style="stop-color:#FF8245"/>
		</linearGradient>
		<polygon fill="url(#SVGID_2_)" points="228.4,188.6 228.4,139.3 243.9,146.7 243.9,195.9 		"/>
		
			<linearGradient id="SVGID_3_" gradientUnits="userSpaceOnUse" x1="228.4185" y1="160.3312" x2="258.5788" y2="160.3312" gradientTransform="matrix(1 0 0 -1 0 300)">
			<stop  offset="0" style="stop-color:#D45011"/>
			<stop  offset="0.4409" style="stop-color:#FF8245"/>
		</linearGradient>
		<polygon fill="url(#SVGID_3_)" points="228.4,139.3 243.9,146.7 258.6,140.1 243.1,132.7 		"/>
	</g>
</g>
</svg>
