<?xml version="1.0" encoding="utf-8"?>
<!-- Generator: Adobe Illustrator 18.0.0, SVG Export Plug-In . SVG Version: 6.00 Build 0)  -->
<!DOCTYPE svg PUBLIC "-//W3C//DTD SVG 1.1//EN" "http://www.w3.org/Graphics/SVG/1.1/DTD/svg11.dtd">
<svg version="1.1" id="Layer_1" xmlns="http://www.w3.org/2000/svg" xmlns:xlink="http://www.w3.org/1999/xlink" x="0px" y="0px"
	 viewBox="0 0 2964 1000" enable-background="new 0 0 2964 1000" xml:space="preserve">
<g>
	<linearGradient id="SVGID_1_" gradientUnits="userSpaceOnUse" x1="361.4952" y1="411.9215" x2="361.4952" y2="801.9058">
		<stop  offset="0" style="stop-color:#822A00"/>
		<stop  offset="1" style="stop-color:#F37335"/>
	</linearGradient>
	<path fill="none" stroke="url(#SVGID_1_)" stroke-width="31.6407" stroke-miterlimit="10" d="M227.4,652v-90.1
		c0-73.8,60.3-134.1,134.1-134.1h0c73.8,0,134.1,60.3,134.1,134.1V652c0,73.8-60.3,134.1-134.1,134.1h0
		C287.7,786.1,227.4,725.7,227.4,652z"/>
	<g opacity="0.5">
		
			<image overflow="visible" width="1440" height="670" xlink:href="6CA2B6FB.png"  transform="matrix(0.24 0 0 0.24 189.2246 484.2221)">
		</image>
	</g>
	<g opacity="0.5">
		
			<image overflow="visible" width="629" height="739" xlink:href="6CA2B6FE.png"  transform="matrix(0.24 0 0 0.24 288.6134 518.1672)">
		</image>
	</g>
	<path fill="#F37335" d="M227.4,455.9v-90.1c0-73.8,60.3-134.1,134.1-134.1h0c73.8,0,134.1,60.3,134.1,134.1v90.1
		c0,73.8-60.3,134.1-134.1,134.1h0C287.7,590,227.4,529.6,227.4,455.9z"/>
	<path fill="#F37335" stroke="#FFFFFF" stroke-width="52.7345" stroke-miterlimit="10" d="M227.4,455.9v-90.1
		c0-73.8,60.3-134.1,134.1-134.1h0c73.8,0,134.1,60.3,134.1,134.1v90.1c0,73.8-60.3,134.1-134.1,134.1h0
		C287.7,590,227.4,529.6,227.4,455.9z"/>
	<path fill="#F37335" d="M227.4,455.9v-90.1c0-73.8,60.3-134.1,134.1-134.1h0c73.8,0,134.1,60.3,134.1,134.1v90.1
		c0,73.8-60.3,134.1-134.1,134.1h0C287.7,590,227.4,529.6,227.4,455.9z"/>
	<path fill="none" stroke="#FFFFFF" stroke-width="15.8203" stroke-linecap="round" stroke-miterlimit="10" d="M361.5,317.4"/>
	<circle fill="#FFFFFF" cx="321.5" cy="335.3" r="11.6"/>
	<circle fill="#FFFFFF" cx="395.9" cy="335.3" r="11.6"/>
	<g>
		<path fill="none" stroke="#FFFFFF" stroke-width="32.7281" stroke-miterlimit="10" d="M332.1,616.6v-21.5
			c0-17.6,14.4-31.9,31.9-31.9h0c17.6,0,31.9,14.4,31.9,31.9v21.5c0,17.6-14.4,31.9-31.9,31.9h0
			C346.5,648.5,332.1,634.1,332.1,616.6z"/>
		<path fill="#F37335" d="M332.1,616.6v-21.5c0-17.6,14.4-31.9,31.9-31.9h0c17.6,0,31.9,14.4,31.9,31.9v21.5
			c0,17.6-14.4,31.9-31.9,31.9h0C346.5,648.5,332.1,634.1,332.1,616.6z"/>
	</g>
</g>
<g>
	<path fill="#303030" d="M948.8,720.2c-3.3-2.9-7.5-4.4-12.5-4.4H697.3V310.6c0-5-1.6-9.2-4.9-12.5c-3.3-3.3-7.5-4.9-12.5-4.9
		c-4.6,0-8.7,1.7-12.2,4.9c-3.5,3.3-5.2,7.5-5.2,12.5v419.2c0,5,1.7,9.2,5.2,12.5c3.5,3.3,7.6,4.9,12.2,4.9h256.4
		c5,0,9.2-1.4,12.5-4.4c3.3-2.9,4.9-6.7,4.9-11.3C953.7,726.9,952,723.1,948.8,720.2z"/>
	<path fill="#303030" d="M1033.6,315.3c-5.2-4.7-11.5-7-18.9-7c-7.4,0-13.8,2.3-19.2,7c-5.4,4.6-8.1,11.2-8.1,19.8
		c0,7.8,2.5,14.3,7.6,19.5c5,5.2,11.4,7.8,19.2,7.8c7.7,0,14.2-2.6,19.5-7.8c5.2-5.2,7.9-11.7,7.9-19.5
		C1041.5,326.5,1038.9,319.9,1033.6,315.3z M1027.5,433.9c-3.1-3.1-7.4-4.6-12.8-4.6c-5,0-9.2,1.6-12.5,4.6
		c-3.3,3.1-4.9,7.4-4.9,12.8v283.1c0,5,1.6,9.2,4.9,12.5c3.3,3.3,7.5,4.9,12.5,4.9c5.4,0,9.7-1.6,12.8-4.9c3.1-3.3,4.6-7.5,4.6-12.5
		V446.7C1032.2,441.3,1030.6,437,1027.5,433.9z"/>
	<path fill="#303030" d="M1387.1,493.5c-12.6-22.3-30-39.2-52.3-50.9c-22.3-11.6-47.6-17.4-75.9-17.4c-22.5,0-43.2,4.6-62.2,13.7
		c-19,9.1-35.1,21.8-48.3,38.1v-30.2c0-5.4-1.6-9.7-4.6-12.8c-3.1-3.1-7.4-4.6-12.8-4.6c-5,0-9.2,1.6-12.5,4.6
		c-3.3,3.1-4.9,7.4-4.9,12.8v283.1c0,5,1.6,9.2,4.9,12.5c3.3,3.3,7.5,4.9,12.5,4.9c5.4,0,9.7-1.6,12.8-4.9c3.1-3.3,4.6-7.5,4.6-12.5
		V551.9c0-17,4.8-32.6,14.5-46.8c9.7-14.2,23-25.2,39.8-33.1c16.9-7.9,35.6-11.9,56.1-11.9c33.3,0,60.4,9.7,81.1,29.1
		c20.7,19.4,31.1,47.5,31.1,84.3v156.4c0,5,1.6,9.2,4.9,12.5c3.3,3.3,7.5,4.9,12.5,4.9c5,0,9.2-1.6,12.5-4.9
		c3.3-3.3,4.9-7.5,4.9-12.5V573.4C1406,542.4,1399.7,515.8,1387.1,493.5z"/>
	<path fill="#303030" d="M1710.1,721.7L1597.7,584l-14.3-17.6l123.3-112.2c3.9-3.5,5.8-7.2,5.8-11.1c0-3.9-1.7-7.6-5.2-11.1
		c-3.5-3.9-7.2-5.8-11-5.8c-3.5,0-7.2,1.5-11,4.7l-165.6,150.7l-14.6,13.3V310.6c0-5.4-1.5-9.7-4.7-12.8c-3.1-3.1-7.4-4.7-12.8-4.7
		c-5,0-9.2,1.6-12.5,4.7c-3.3,3.1-4.9,7.4-4.9,12.8v419.2c0,5,1.6,9.2,4.9,12.5c3.3,3.3,7.5,4.9,12.5,4.9c5.4,0,9.7-1.6,12.8-4.9
		c3.1-3.3,4.7-7.5,4.7-12.5v-92.4l54.1-49.4L1685.1,742c3.5,4.6,7.6,7,12.2,7c3.1,0,6.6-1.6,10.5-4.7c4.3-3.9,6.4-7.9,6.4-12.2
		C1714.1,728.3,1712.8,724.8,1710.1,721.7z"/>
	<path fill="#303030" d="M1903.7,425.8c-20.5,0-39.5,5-57,15.1c-17.4,10.1-31.8,24-43,41.9v-36c0-5.4-1.5-9.7-4.6-12.8
		c-3.1-3.1-7.4-4.6-12.8-4.6c-5,0-9.2,1.6-12.5,4.6c-3.3,3.1-4.9,7.4-4.9,12.8v283.1c0,5,1.6,9.2,4.9,12.5c3.3,3.3,7.5,4.9,12.5,4.9
		c5.4,0,9.7-1.6,12.8-4.9c3.1-3.3,4.6-7.5,4.6-12.5V553.1c0-17.8,4.3-33.9,12.8-48.3c8.5-14.3,20.4-25.6,35.5-33.7
		c15.1-8.1,32.4-12.2,51.7-12.2c3.9,0,8.6,0.4,14.2,1.2c5.6,0.8,10.2,1.2,13.7,1.2c4.3,0,7.6-0.9,10.2-2.6c2.5-1.8,4.4-4.8,5.5-9
		c0.4-1.2,0.6-2.7,0.6-4.7C1947.8,432.1,1933.1,425.8,1903.7,425.8z"/>
	<path fill="#303030" d="M2251.6,505.4c-14.2-24.8-33.6-44.3-58.4-58.4c-24.8-14.1-52.3-21.2-82.6-21.2c-30.6,0-58.3,7.1-83.1,21.2
		c-24.8,14.2-44.3,33.6-58.4,58.4c-14.2,24.8-21.2,52.5-21.2,83.1c0,3.2,0.1,6.4,0.3,9.6c1.3,26.5,8.3,50.8,21,73
		c14.1,24.8,33.6,44.3,58.4,58.4c24.8,14.1,52.5,21.2,83.1,21.2c30.2,0,57.7-7.1,82.6-21.2c24.8-14.2,44.3-33.6,58.4-58.4
		c12-21.1,18.9-44.2,20.7-69.2c0.3-4.4,0.5-8.8,0.5-13.3C2272.8,557.9,2265.7,530.2,2251.6,505.4z M2221.4,654.8
		c-11.1,19.8-26.3,35.3-45.6,46.5c-19.4,11.3-41.1,16.9-65.1,16.9c-24,0-45.7-5.6-65.1-16.9c-19.4-11.2-34.7-26.7-45.9-46.5
		c-9.6-16.9-15.1-35.5-16.5-55.9c-0.2-3.4-0.4-6.9-0.4-10.4c0-24.4,5.6-46.5,16.9-66.3c11.2-19.8,26.6-35.4,45.9-46.8
		c19.4-11.4,41.1-17.2,65.1-17.2c24,0,45.7,5.7,65.1,17.2c19.4,11.4,34.6,27,45.6,46.8c11,19.8,16.6,41.9,16.6,66.3
		c0,4.5-0.2,8.9-0.6,13.3C2235.7,621,2230.4,638.7,2221.4,654.8z"/>
	<path fill="#303030" d="M2373.1,315.3c-5.2-4.7-11.5-7-18.9-7s-13.8,2.3-19.2,7c-5.4,4.6-8.1,11.2-8.1,19.8
		c0,7.8,2.5,14.3,7.6,19.5c5,5.2,11.4,7.8,19.2,7.8c7.8,0,14.3-2.6,19.5-7.8c5.2-5.2,7.8-11.7,7.8-19.5
		C2381,326.5,2378.3,319.9,2373.1,315.3z M2367,433.9c-3.1-3.1-7.4-4.6-12.8-4.6c-5,0-9.2,1.6-12.5,4.6c-3.3,3.1-4.9,7.4-4.9,12.8
		v283.1c0,5,1.6,9.2,4.9,12.5c3.3,3.3,7.5,4.9,12.5,4.9c5.4,0,9.7-1.6,12.8-4.9c3.1-3.3,4.6-7.5,4.6-12.5V446.7
		C2371.6,441.3,2370.1,437,2367,433.9z"/>
	<path fill="#303030" d="M2755.9,297.9c-3.1-3.1-7.4-4.7-12.8-4.7c-5,0-9.2,1.6-12.5,4.7c-3.3,3.1-4.9,7.4-4.9,12.8V492
		c-12.8-20.5-30.3-36.7-52.6-48.6c-22.3-11.8-47.2-17.7-74.7-17.7c-30.6,0-58.3,7.1-83.1,21.2c-24.8,14.2-44.3,33.6-58.4,58.4
		c-14.2,24.8-21.2,52.3-21.2,82.6c0,4.5,0.1,8.9,0.5,13.2c1.8,25.4,8.7,48.8,20.8,70c14.1,24.8,33.6,44.3,58.4,58.4
		c24.8,14.1,52.5,21.2,83.1,21.2c29.8,0,57.1-6.9,81.7-20.6c24.6-13.8,44.1-32.8,58.4-57.3c13.6-23.2,21-48.9,22-77
		c0.1-1.4,0.1-2.9,0.1-4.4V310.6C2760.6,305.2,2759,301,2755.9,297.9z M2709.1,654.2c-11,19.8-26.3,35.4-45.6,46.8
		c-19.4,11.4-41.1,17.1-65.1,17.1c-24,0-45.7-5.7-65.1-17.1c-19.4-11.4-34.7-27-45.9-46.8c-9.2-16.2-14.7-34-16.3-53.4
		c-0.4-4.2-0.5-8.5-0.5-12.9c0-24.4,5.6-46.5,16.9-66.3c11.2-19.8,26.5-35.3,45.9-46.5c19.4-11.2,41.1-16.9,65.1-16.9
		c24,0,45.7,5.6,65.1,16.9c19.4,11.2,34.6,26.7,45.6,46.5c11.1,19.8,16.6,41.9,16.6,66.3c0,2.9-0.1,5.8-0.2,8.7
		C2724.3,617.6,2718.9,636.8,2709.1,654.2z"/>
</g>
<path opacity="0.15" fill="#FFFFFF" d="M692.4,298.1c3.3,3.3,4.9,7.5,4.9,12.5v276.1c-12.9,0.4-24.6,0.8-34.9,1.2V310.6
	c0-5,1.7-9.2,5.2-12.5c3.5-3.3,7.6-4.9,12.2-4.9C684.9,293.2,689.1,294.9,692.4,298.1z"/>
<path opacity="0.15" fill="#FFFFFF" d="M1027.5,433.9c3.1,3.1,4.6,7.4,4.6,12.8v132.6c-11.8,0.1-23.4,0.3-34.9,0.5V446.7
	c0-5.4,1.6-9.7,4.9-12.8c3.3-3.1,7.5-4.6,12.5-4.6C1020.2,429.2,1024.4,430.8,1027.5,433.9z"/>
<path opacity="0.15" fill="#FFFFFF" d="M1041.5,335.1c0,7.8-2.6,14.3-7.9,19.5c-5.2,5.2-11.7,7.8-19.5,7.8c-7.8,0-14.2-2.6-19.2-7.8
	c-5-5.2-7.6-11.7-7.6-19.5c0-8.5,2.7-15.1,8.1-19.8c5.4-4.7,11.8-7,19.2-7c7.3,0,13.7,2.3,18.9,7
	C1038.9,319.9,1041.5,326.5,1041.5,335.1z"/>
<path opacity="0.15" fill="#FFFFFF" d="M1406,573.4v6c-11.6-0.2-23.3-0.3-34.9-0.5v-5.5c0-36.8-10.4-64.9-31.1-84.3
	c-20.7-19.4-47.8-29.1-81.1-29.1c-20.5,0-39.2,4-56.1,11.9c-16.9,7.9-30.1,19-39.8,33.1c-9.7,14.2-14.5,29.8-14.5,46.8v26.3
	c-11.7,0.1-23.3,0.1-34.9,0.2V446.7c0-5.4,1.6-9.7,4.9-12.8c3.3-3.1,7.5-4.6,12.5-4.6c5.4,0,9.7,1.6,12.8,4.6
	c3.1,3.1,4.6,7.4,4.6,12.8v30.2c13.2-16.3,29.3-29,48.3-38.1c19-9.1,39.7-13.7,62.2-13.7c28.3,0,53.6,5.8,75.9,17.4
	c22.3,11.6,39.7,28.6,52.3,50.9C1399.7,515.8,1406,542.4,1406,573.4z"/>
<path opacity="0.15" fill="#FFFFFF" d="M1500.2,297.9c3.1,3.1,4.7,7.4,4.7,12.8v270.6c-11.6-0.3-23.3-0.5-34.9-0.8V310.6
	c0-5.4,1.6-9.7,4.9-12.8c3.3-3.1,7.5-4.7,12.5-4.7C1492.8,293.2,1497.1,294.8,1500.2,297.9z"/>
<path opacity="0.15" fill="#FFFFFF" d="M1707.2,432.1c3.5,3.5,5.2,7.2,5.2,11.1c0,3.9-1.9,7.6-5.8,11.1l-123.3,112.2l14.3,17.6
	c-25.9-0.9-52.1-1.7-78.2-2.4L1685.1,431c3.9-3.1,7.6-4.7,11-4.7C1700,426.3,1703.7,428.3,1707.2,432.1z"/>
<path opacity="0.15" fill="#FFFFFF" d="M1947.8,444.9c0,1.9-0.2,3.5-0.6,4.7c-1.2,4.3-3,7.3-5.5,9c-2.5,1.7-5.9,2.6-10.2,2.6
	c-3.5,0-8.1-0.4-13.7-1.2c-5.6-0.8-10.4-1.2-14.2-1.2c-19.4,0-36.6,4.1-51.7,12.2c-15.1,8.1-26.9,19.4-35.5,33.7
	c-8.5,14.3-12.8,30.4-12.8,48.3v40.2c-11.7-0.5-23.4-1-34.9-1.6V446.7c0-5.4,1.6-9.7,4.9-12.8c3.3-3.1,7.5-4.6,12.5-4.6
	c5.4,0,9.7,1.6,12.8,4.6c3.1,3.1,4.6,7.4,4.6,12.8v36c11.2-17.8,25.6-31.8,43-41.9c17.4-10.1,36.4-15.1,57-15.1
	C1933.1,425.8,1947.8,432.1,1947.8,444.9z"/>
<path opacity="0.15" fill="#FFFFFF" d="M2272.8,588.5c0,4.5-0.2,9-0.5,13.3c-11.6,0-23.3,0-35,0c0.4-4.3,0.6-8.8,0.6-13.3
	c0-24.4-5.5-46.5-16.6-66.3c-11.1-19.8-26.3-35.4-45.6-46.8c-19.4-11.4-41.1-17.2-65.1-17.2c-24,0-45.7,5.7-65.1,17.2
	c-19.4,11.4-34.7,27-45.9,46.8c-11.2,19.8-16.9,41.9-16.9,66.3c0,3.5,0.1,7,0.4,10.4c-11.7-0.3-23.4-0.5-35-0.8
	c-0.2-3.2-0.3-6.4-0.3-9.6c0-30.6,7.1-58.3,21.2-83.1c14.1-24.8,33.6-44.3,58.4-58.4c24.8-14.1,52.5-21.2,83.1-21.2
	c30.2,0,57.7,7.1,82.6,21.2c24.8,14.2,44.3,33.6,58.4,58.4C2265.7,530.2,2272.8,557.9,2272.8,588.5z"/>
<path opacity="0.15" fill="#FFFFFF" d="M2367,433.9c3.1,3.1,4.6,7.4,4.6,12.8v154.9c-11.6,0.1-23.2,0.1-34.9,0.2V446.7
	c0-5.4,1.6-9.7,4.9-12.8c3.3-3.1,7.5-4.6,12.5-4.6C2359.6,429.2,2363.9,430.8,2367,433.9z"/>
<path opacity="0.15" fill="#FFFFFF" d="M2381,335.1c0,7.8-2.6,14.3-7.8,19.5c-5.2,5.2-11.7,7.8-19.5,7.8c-7.8,0-14.1-2.6-19.2-7.8
	c-5.1-5.2-7.6-11.7-7.6-19.5c0-8.5,2.7-15.1,8.1-19.8c5.4-4.7,11.8-7,19.2-7s13.7,2.3,18.9,7C2378.3,319.9,2381,326.5,2381,335.1z"
	/>
<path opacity="0.15" fill="#FFFFFF" d="M2760.6,310.6v280.8c0,1.5-0.1,2.9-0.1,4.4c-11.3,0.3-23,0.5-35,0.8c0.2-2.9,0.2-5.8,0.2-8.7
	c0-24.4-5.5-46.5-16.6-66.3c-11-19.8-26.3-35.3-45.6-46.5c-19.4-11.2-41.1-16.9-65.1-16.9c-24,0-45.7,5.6-65.1,16.9
	c-19.4,11.2-34.7,26.7-45.9,46.5c-11.3,19.8-16.9,41.9-16.9,66.3c0,4.4,0.2,8.7,0.5,12.9c-11.6,0.1-23.2,0.2-35,0.3
	c-0.3-4.3-0.5-8.7-0.5-13.2c0-30.2,7.1-57.7,21.2-82.6c14.1-24.8,33.6-44.3,58.4-58.4c24.8-14.1,52.5-21.2,83.1-21.2
	c27.5,0,52.4,5.9,74.7,17.7c22.3,11.8,39.8,28,52.6,48.6V310.6c0-5.4,1.7-9.7,4.9-12.8c3.3-3.1,7.5-4.7,12.5-4.7
	c5.4,0,9.7,1.6,12.8,4.7C2759,301,2760.6,305.2,2760.6,310.6z"/>
</svg>
