<?xml version="1.0" encoding="utf-8"?>
<!-- Generator: Adobe Illustrator 18.0.0, SVG Export Plug-In . SVG Version: 6.00 Build 0)  -->
<!DOCTYPE svg PUBLIC "-//W3C//DTD SVG 1.1//EN" "http://www.w3.org/Graphics/SVG/1.1/DTD/svg11.dtd">
<svg version="1.1" id="Layer_1" xmlns="http://www.w3.org/2000/svg" xmlns:xlink="http://www.w3.org/1999/xlink" x="0px" y="0px"
	 viewBox="0 0 300 300" enable-background="new 0 0 300 300" xml:space="preserve">
<path fill="#1E2430" d="M246.4,230.2c-53.3,30.8-139.6,30.8-192.9,0s-53.3-80.5,0-111.3s139.6-30.8,192.9,0S299.8,199.5,246.4,230.2
	z"/>
<path fill="#323A4F" d="M246.4,233.7c-53.3,30.8-139.6,30.8-192.9,0s-53.3-80.5,0-111.3s139.6-30.8,192.9,0S299.8,203,246.4,233.7z"
	/>
<path fill="#FDC830" d="M115.4,144.6l121.1,70.1c2.3,1.3,5.2-0.3,5.2-3V118c0-2.5-1.3-4.8-3.4-6L117.1,41.9c-2.3-1.3-5.2,0.3-5.2,3
	v93.8C111.9,141.1,113.2,143.4,115.4,144.6z"/>
<path fill="#FFFFFF" stroke="#1E2430" stroke-width="2.0249" stroke-miterlimit="10" d="M111.9,145.5L233,215.6
	c2.3,1.3,5.2-0.3,5.2-3v-93.8c0-2.5-1.3-4.8-3.4-6l-121.1-70c-2.3-1.3-5.2,0.3-5.2,3v93.8C108.5,142,109.8,144.3,111.9,145.5z"/>
<path fill="#1E2430" d="M118.1,92.4l23.4,13.5c0.4,0.3,1-0.1,1-0.6V87.3c0-0.5-0.3-0.9-0.7-1.2l-23.4-13.5c-0.4-0.3-1,0.1-1,0.6
	v18.1C117.5,91.7,117.7,92.2,118.1,92.4z"/>
<path fill="#1E2430" d="M147.2,108.8l23.4,13.5c0.4,0.3,1-0.1,1-0.6v-18.1c0-0.5-0.3-0.9-0.7-1.2L147.5,89c-0.4-0.3-1,0.1-1,0.6
	v18.1C146.5,108.2,146.8,108.6,147.2,108.8z"/>
<path fill="#1E2430" d="M176.5,125.6l23.4,13.5c0.4,0.3,1-0.1,1-0.6v-18.1c0-0.5-0.3-0.9-0.7-1.2l-23.4-13.5c-0.4-0.3-1,0.1-1,0.6
	v18.1C175.9,124.9,176.1,125.4,176.5,125.6z"/>
<path fill="#1E2430" d="M204.8,142.4l23.4,13.5c0.4,0.3,1-0.1,1-0.6v-18.1c0-0.5-0.3-0.9-0.7-1.2l-23.4-13.5c-0.4-0.3-1,0.1-1,0.6
	v18.1C204.2,141.7,204.4,142.1,204.8,142.4z"/>
<path fill="#1E2430" d="M118.1,117.4l23.4,13.5c0.4,0.3,1-0.1,1-0.6v-18.1c0-0.5-0.3-0.9-0.7-1.2l-23.4-13.5c-0.4-0.3-1,0.1-1,0.6
	v18.1C117.5,116.7,117.7,117.2,118.1,117.4z"/>
<path fill="#1E2430" d="M147.2,133.8l23.4,13.5c0.4,0.3,1-0.1,1-0.6v-18.1c0-0.5-0.3-0.9-0.7-1.2L147.5,114c-0.4-0.3-1,0.1-1,0.6
	v18.1C146.5,133.1,146.8,133.6,147.2,133.8z"/>
<path fill="#1E2430" d="M176.5,150.6l23.4,13.5c0.4,0.3,1-0.1,1-0.6v-18.1c0-0.5-0.3-0.9-0.7-1.2l-23.4-13.5c-0.4-0.3-1,0.1-1,0.6
	v18.1C175.9,149.9,176.1,150.4,176.5,150.6z"/>
<path fill="#1E2430" d="M204.8,167.4l23.4,13.5c0.4,0.3,1-0.1,1-0.6v-18.1c0-0.5-0.3-0.9-0.7-1.2l-23.4-13.5c-0.4-0.3-1,0.1-1,0.6
	v18.1C204.2,166.7,204.4,167.1,204.8,167.4z"/>
<path fill="#1E2430" d="M118.1,140.4l23.4,13.5c0.4,0.3,1-0.1,1-0.6v-18.1c0-0.5-0.3-0.9-0.7-1.2l-23.4-13.5c-0.4-0.3-1,0.1-1,0.6
	v18.1C117.5,139.7,117.7,140.2,118.1,140.4z"/>
<path fill="#1E2430" d="M147.2,156.8l23.4,13.5c0.4,0.3,1-0.1,1-0.6v-18.1c0-0.5-0.3-0.9-0.7-1.2L147.5,137c-0.4-0.3-1,0.1-1,0.6
	v18.1C146.5,156.1,146.8,156.6,147.2,156.8z"/>
<path fill="#1E2430" d="M176.5,173.6l23.4,13.5c0.4,0.3,1-0.1,1-0.6v-18.1c0-0.5-0.3-0.9-0.7-1.2l-23.4-13.5c-0.4-0.3-1,0.1-1,0.6
	v18.1C175.9,172.9,176.1,173.4,176.5,173.6z"/>
<path fill="#1E2430" d="M204.8,190.4l23.4,13.5c0.4,0.3,1-0.1,1-0.6v-18.1c0-0.5-0.3-0.9-0.7-1.2l-23.4-13.5c-0.4-0.3-1,0.1-1,0.6
	v18.1C204.2,189.7,204.4,190.1,204.8,190.4z"/>
<polygon fill="#F37335" points="219,110.7 127.7,58 127.7,63.8 219,116.4 "/>
<g>
	<path fill="#FFFFFF" d="M160.4,162.8c1.4,0.7,0.7,1.9,0.7,2.8c-0.5,18.5-1,37.1-1.6,55.6c-0.1,1.2-0.2,2.4-0.1,3.7
		c0.1,1.1-0.6,1.3-1.3,1.4c-0.2-0.1-0.3-0.1-0.4,0.1c-1.5-0.2-2.9-0.4-4.4-0.6c-1.8-1-2.4-2.3-2.5-4.6c-0.2-8.4-0.6-16.8-1-25
		c-0.3-6.8-0.7-13.5-0.9-20.4c-1.1,0.8-1.1,1.8-1,2.8c0.1,13.7,0.2,27.4,0.3,41c0.1,1.6-0.5,2.1-1.8,2.3c-1.8-0.1-3.3-0.5-4.9-1.1
		c-1.5-0.7-1.9-2-1.8-3.5c0.3-4.8-0.2-9.4-0.5-14.1c-0.3-4-0.5-8-0.6-12c-0.2-4-0.5-8-0.7-12c-0.3-5.3,0.2-10.7-1.2-15.9
		c-0.8-3.1,0.2-6.1-0.4-9.1c-0.1-0.3,0.3-0.6,0.4-0.9c2.1,1.8,3.8,3.9,6.3,5.3C148.2,161.4,154.1,162.7,160.4,162.8z"/>
	<path fill="#FDC830" d="M193.2,115.6c-0.3,0.5-0.8,1.2-0.7,1.5c1.3,2.6-0.8,3.5-2.3,4.5c-0.8,0.6-1.2,1.2-1.1,2.1
		c0.1,0.8-0.1,1.8-0.1,2.6c-0.3-3.5-0.3-3.5-3.5-1.8c-5.2,2.7-10.4,5.3-16.4,5.8c-2.4,2.2-5.4,1.6-8.3,1.7c-0.9,0.1-1.3,0.6-1.2,1.3
		c0.2,1.8,0.3,3.4,0.3,5.1c0.3,6.9,0.7,13.8,0.9,20.7c0.1,1.2,1.3,2.7-0.6,3.7c-6.3-0.1-12.1-1.3-17.7-4.3c-2.5-1.3-4.1-3.6-6.3-5.3
		c-0.6-0.8-0.3-1.8-0.4-2.7c-0.2-6.6,0.3-13.3-0.2-19.9c1,0.1,2,0.1,3,0.2c5.1,0.4,8.8-3.3,8.3-8.5c-0.3-2.5-1.2-4.8-2.1-7.2l0,0
		c3.2,0.6,4.3,0.1,5.8-2.8c0.3-0.5,0.3-1,1.1-1.1c3.2-0.3,5.1-2.3,6.7-4.8c1.5,3.8-0.1,8.3-3.7,10.4c-1.3,0.8-0.9,2-1.1,3.1
		c-0.1,0.3,0,0.5,0.1,0.7l0,0c0.3,0.5,0.8,0.6,1.3,0.9c3.3,2,6.8,1.9,10.4,2.5c0.8,0.2,1.4,0.2,2.2,0.3c6.9,0.4,12.9-2.4,19.1-4.8
		c1.5-0.6,2.2-1.6,2-3.2c0.2,1.1,0.5,1.8,1.7,0.8C191.4,116.4,192.1,115.7,193.2,115.6L193.2,115.6L193.2,115.6z"/>
	<path fill="#323A4F" d="M158.6,106.4c-1.6,2.4-3.5,4.5-6.7,4.8c-0.8,0.1-0.8,0.6-1.1,1.1c-1.5,2.8-2.7,3.4-5.8,2.8l-0.1-0.1
		c-0.3-3.3-2.5-5.2-5.3-6.7c-0.3-4.5,0.7-8.7,3.9-11.9c3.8-3.7,13-1.7,14.8,3.1C159.4,101.8,159.2,104.1,158.6,106.4z"/>
	<path fill="#323A4F" d="M145,115.1c0.9,2.3,1.8,4.7,2.1,7.2c0.5,5.1-3.2,8.9-8.3,8.5c-1-0.1-2-0.1-3-0.2c-3.2-0.5-5-3.5-4.2-7.1
		c1.3-5.3,4-9.9,7.3-14.2c0.2-0.3,0.5-0.3,0.8-0.4C142.4,110.1,143.4,112.9,145,115.1L145,115.1z"/>
	<path fill="#FDC830" d="M141.3,230.7c-0.7-1.3-0.6-2.8-0.2-4.2c0.1-0.1,0.2-0.1,0.3-0.2c1.7,0.9,3.3,1.6,4.8-0.4
		c1.7,0.3,3.3-0.1,4.9,0.8c0.3,0.3,0.6,0.5,0.9,0.8l0,0c0,0.6,0,1.2,0,1.8l0,0c-1.6,0.3-3.2,0.5-4.8,0.8c-1.2,0.3-2.6-0.4-3.5,0.8
		C142.9,230.7,142,230.7,141.3,230.7z"/>
	<path fill="#FDC830" d="M152.8,230.7c-0.2-1.2,0.3-1.1,1.2-0.8c1,0.4,2.2,0.8,2.9-0.5c0.2-0.2,0.3-0.3,0.6-0.5
		c1.3,0.1,2.6,0.1,3.9,0.2c0.5,0.2,0.9,0.3,1.4,0.5c0.8,0.3,1.3,0.8,1.1,1.6c-0.2,0.8-0.8,1.6-1.5,1.5c-1-0.2-1.8,0.6-2.7,0.3
		c-2.3-0.3-4.7,0.4-6.9-0.4v0.1C152.8,232,152.8,231.3,152.8,230.7z"/>
	<path fill="#FFE5CF" d="M146.1,226c-1.4,2-3.1,1.3-4.8,0.4c-0.3-1.9-0.2-3.8-0.1-5.8c1.6,0.7,3.3,1.1,4.9,1.1
		C146.8,223.2,146.8,224.6,146.1,226z"/>
	<path fill="#FFE5CF" d="M157.4,229c-0.2,0.2-0.3,0.3-0.6,0.5c-3.4,0.5-3.8,0.3-3.8-3.8c1.5,0.2,2.9,0.4,4.4,0.6
		c0.1,0.3,0.1,0.4,0.2,0.7c0,0.3,0,0.7,0,1S157.5,228.7,157.4,229z"/>
	<path fill="#F9D86C" d="M145,115c-1.7-2.2-2.5-4.9-5.3-6.1c0-0.3,0.1-0.4,0.1-0.6C142.4,109.9,144.6,111.8,145,115z"/>
	<path fill="#2F3891" d="M143.6,230.7c0.9-1.3,2.3-0.7,3.5-0.8c1.6-0.3,3.2-0.5,4.8-0.8c-0.3,0.8-1.2,0.7-1.8,1
		C147.9,230.4,145.8,230.6,143.6,230.7z"/>
	<path fill="#2F3891" d="M152.8,232.6c2.3,0.8,4.7,0.1,6.9,0.4c-1.3,0.9-3,0.3-4.3,0.9C154.4,233.6,152.9,234.5,152.8,232.6z"/>
	<path fill="#F3F3F4" d="M157.4,229c0.1-0.3,0.2-0.7,0.3-1.1c0.8,1.6,2.6,0.2,3.7,1.2C160.1,229.1,158.7,229.1,157.4,229z"/>
	<path fill="#F3F3F4" d="M157.7,226.9c-0.1-0.3-0.1-0.4-0.2-0.7c0.2-0.1,0.3-0.1,0.4-0.1C157.9,226.5,157.8,226.7,157.7,226.9z"/>
	<path fill="#2F3891" d="M152,229.2c0-0.6,0-1.2,0-1.8C152.6,228,152.5,228.6,152,229.2z"/>
	<path fill="#2F3891" d="M152.8,230.7c0,0.7,0,1.3,0,1.9C152.3,232,152.5,231.3,152.8,230.7z"/>
	<path fill="#2F3891" d="M152,227.5c-0.3-0.3-0.6-0.5-0.9-0.8C151.4,226.8,151.9,226.9,152,227.5z"/>
	<path fill="#FFE5CF" d="M155,116.8c-1.3,0.8-0.9,2-1.1,3.1c-0.1,0.3,0,0.5,0.1,0.7c-0.2-0.1-6.2-2.9-8.9-5.4
		c3.2,0.6,4.3,0.1,5.8-2.8c0.3-0.5,0.3-1,1.1-1.1c3.2-0.3,5.1-2.3,6.7-4.8C160.1,110.2,158.6,114.8,155,116.8z"/>
	<path fill="#FFE5CF" d="M193.2,115.6c-0.3,0.5-0.8,1.2-0.7,1.5c1.3,2.6-0.8,3.5-2.3,4.5c-0.8,0.6-1.2,1.2-1.1,2.1
		c0.1,0.8-0.1,1.8-0.1,2.6c-0.3-3.5-0.3-3.5-3.5-1.8c-5.2,2.7-10.4,5.3-16.4,5.8c0,0,0.8-4.6-1.4-5.8l0.2-0.3
		c6.9,0.4,12.9-2.4,19.1-4.8c1.5-0.6,2.2-1.6,2-3.2c0.2,1.1,0.5,1.8,1.7,0.8C191.4,116.4,192.1,115.7,193.2,115.6L193.2,115.6z"/>
</g>
<g>
	<linearGradient id="SVGID_1_" gradientUnits="userSpaceOnUse" x1="88.0056" y1="204.9334" x2="88.0056" y2="149.1334">
		<stop  offset="0" style="stop-color:#D45011"/>
		<stop  offset="0.457" style="stop-color:#FF8245"/>
	</linearGradient>
	<polygon fill="url(#SVGID_1_)" points="80.7,204.9 80.7,155.6 95.4,149.1 95.4,198.3 	"/>
	<polygon fill="#FF8245" points="65.2,197.7 65.2,148.4 79.9,141.8 79.9,191.1 	"/>
	<linearGradient id="SVGID_2_" gradientUnits="userSpaceOnUse" x1="72.9056" y1="205.0334" x2="72.9056" y2="148.4334">
		<stop  offset="0" style="stop-color:#D45011"/>
		<stop  offset="1" style="stop-color:#FF8245"/>
	</linearGradient>
	<polygon fill="url(#SVGID_2_)" points="65.2,197.7 65.2,148.4 80.7,155.8 80.7,205 	"/>
	<linearGradient id="SVGID_3_" gradientUnits="userSpaceOnUse" x1="65.1556" y1="148.8334" x2="95.3159" y2="148.8334">
		<stop  offset="0" style="stop-color:#D45011"/>
		<stop  offset="0.4409" style="stop-color:#FF8245"/>
	</linearGradient>
	<polygon fill="url(#SVGID_3_)" points="65.2,148.4 80.7,155.8 95.4,149.2 79.9,141.8 	"/>
</g>
<g>
	<polygon fill="#FFFFFF" points="71.3,124 88.4,114.4 88.4,113.1 71.3,122.9 	"/>
	<polygon fill="#FFFFFF" points="76.5,126.4 88.4,119.7 88.4,118.4 76.5,125.3 	"/>
	<polygon fill="#FFFFFF" points="78,122.9 88.4,117 88.4,115.8 78,121.7 	"/>
	<polygon fill="#FFFFFF" points="71.3,126.8 76.5,123.9 76.5,122.6 71.3,125.6 	"/>
	<polygon fill="#FFFFFF" points="71.3,134.4 88.4,124.6 88.4,123.5 71.3,133.1 	"/>
	<polygon fill="#FFFFFF" points="76.5,136.8 88.4,129.9 88.4,128.8 76.5,135.6 	"/>
	<polygon fill="#FFFFFF" points="78,133.3 88.4,127.2 88.4,126.1 78,132 	"/>
	<polygon fill="#FFFFFF" points="71.3,137 76.5,134.1 76.5,132.8 71.3,135.8 	"/>
	<polygon fill="#FFFFFF" points="71.3,144.6 88.4,134.9 88.4,133.7 71.3,143.3 	"/>
	<polygon fill="#FFFFFF" points="76.5,147 88.4,140.1 88.4,139 76.5,145.8 	"/>
	<polygon fill="#FFFFFF" points="78,143.3 88.4,137.6 88.4,136.3 78,142.3 	"/>
	<polygon fill="#FFFFFF" points="71.3,147.2 76.5,144.3 76.5,143.2 71.3,146.1 	"/>
</g>
</svg>
