<?xml version="1.0" encoding="utf-8"?>
<!-- Generator: Adobe Illustrator 18.0.0, SVG Export Plug-In . SVG Version: 6.00 Build 0)  -->
<!DOCTYPE svg PUBLIC "-//W3C//DTD SVG 1.1//EN" "http://www.w3.org/Graphics/SVG/1.1/DTD/svg11.dtd">
<svg version="1.1" id="Layer_1" xmlns="http://www.w3.org/2000/svg" xmlns:xlink="http://www.w3.org/1999/xlink" x="0px" y="0px"
	 viewBox="0 0 300 300" enable-background="new 0 0 300 300" xml:space="preserve">
<g>
	<path fill="#1E2430" d="M246,238.3c-53.3,30.8-139.6,30.8-192.9,0s-53.3-80.5,0-111.3s139.6-30.8,192.9,0S299.3,207.6,246,238.3z"
		/>
	<path fill="#323A4F" d="M246,241.8c-53.3,30.8-139.6,30.8-192.9,0s-53.3-80.5,0-111.3s139.6-30.8,192.9,0S299.3,211.1,246,241.8z"
		/>
	<g>
		<path fill="#FDC830" d="M129.7,130.4l121.1,70.1c2.3,1.3,5.2-0.3,5.2-3v-93.7c0-2.5-1.3-4.8-3.4-6L131.4,27.7
			c-2.3-1.3-5.2,0.3-5.2,3v93.8C126.2,126.9,127.5,129.2,129.7,130.4z"/>
		<path fill="#1E2430" d="M126.2,131.3l121.1,70.1c2.3,1.3,5.2-0.3,5.2-3v-93.8c0-2.5-1.3-4.8-3.4-6L128,28.6
			c-2.3-1.3-5.2,0.3-5.2,3v93.8C122.8,127.8,124.1,130.1,126.2,131.3z"/>
		<polygon fill="#F4F4F4" points="242.4,102.4 151.2,49.7 151.2,55.5 242.4,108.1 		"/>
		
			<ellipse transform="matrix(0.9864 -0.1645 0.1645 0.9864 -5.1843 21.9983)" fill="#F4256A" cx="130.2" cy="42.3" rx="2.2" ry="3.8"/>
		
			<ellipse transform="matrix(0.9864 -0.1645 0.1645 0.9864 -5.7169 23.178)" fill="#FFDE39" cx="137.1" cy="46.1" rx="2.2" ry="3.8"/>
		
			<ellipse transform="matrix(0.9864 -0.1645 0.1645 0.9864 -6.2962 24.4301)" fill="#3AEF83" cx="144.4" cy="50.2" rx="2.2" ry="3.8"/>
		<path fill="#F4F4F4" d="M240.5,120.2l-99.9-57.8c-0.6-0.3-1.2,0.1-1.2,0.7v10.7c0,0.6,0.3,1.1,0.8,1.5L240,133
			c0.6,0.3,1.2-0.1,1.2-0.7v-10.6C241.4,121.1,241,120.5,240.5,120.2z"/>
		<g>
			<polygon fill="#FFFFFF" points="149.2,112.1 149.2,114.3 167.8,125 167.8,122.8 			"/>
			<polygon fill="#FDC830" points="149.2,119.9 149.2,122 156,126.1 156,123.9 			"/>
			<polygon fill="#FDC830" points="184.3,140.5 184.3,142.6 191.1,146.6 191.1,144.5 			"/>
			<polygon fill="#F37335" points="149.2,104.3 149.2,106.4 167.8,117.2 167.8,114.9 			"/>
			<polygon fill="#F37335" points="173.1,117.7 173.1,119.9 191.7,130.6 191.7,128.4 			"/>
			<polygon fill="#FFFFFF" points="173.1,126.3 173.1,128.5 191.7,139.2 191.7,137.1 			"/>
		</g>
		
			<ellipse transform="matrix(0.9864 -0.1645 0.1645 0.9864 -16.8527 23.9388)" fill="#323A4F" cx="136.1" cy="113.7" rx="7" ry="11.9"/>
		<g>
			<path fill="#323A4F" d="M142.6,68.2l0.6,2.8c0.2,0.6,0.2,1.1,0.3,1.7h0.1c0.1-0.4,0.2-0.8,0.4-1.2l0.8-2l0.7,0.4l0.7,2.8
				c0.2,0.7,0.2,1.2,0.4,1.8h0.1c0.1-0.5,0.2-0.8,0.4-1.3l0.7-2l0.8,0.5l-1.5,3.8l-0.8-0.4l-0.7-2.6c-0.2-0.6-0.2-1.1-0.4-1.8l0,0
				c-0.2,0.5-0.2,0.9-0.5,1.3l-0.8,1.8l-0.8-0.4l-1.4-5.4L142.6,68.2z"/>
			<path fill="#323A4F" d="M149.6,72.1l0.5,2.7c0.2,0.6,0.2,1.1,0.3,1.6h0.1c0.2-0.4,0.2-0.8,0.5-1.2l0.8-1.9l0.7,0.4l0.6,2.7
				c0.2,0.6,0.2,1.2,0.4,1.7h0.1c0.1-0.4,0.2-0.8,0.4-1.3l0.7-1.9l0.8,0.5l-1.6,3.8l-0.7-0.4l-0.6-2.5c-0.2-0.6-0.2-1.1-0.4-1.8l0,0
				c-0.2,0.5-0.2,0.9-0.5,1.3l-0.8,1.8l-0.8-0.4l-1.2-5.4L149.6,72.1z"/>
			<path fill="#323A4F" d="M156.5,76l0.5,2.6c0.1,0.6,0.2,1.1,0.2,1.6h0.1c0.2-0.4,0.2-0.8,0.5-1.2l0.8-1.9l0.7,0.4l0.6,2.6
				c0.2,0.6,0.2,1.1,0.3,1.6h0.1c0.1-0.4,0.2-0.8,0.4-1.2l0.8-1.9l0.8,0.5l-1.6,3.6l-0.7-0.4l-0.6-2.5c-0.2-0.6-0.2-1.1-0.3-1.7l0,0
				c-0.2,0.5-0.3,0.9-0.5,1.2l-0.8,1.8l-0.7-0.4l-1.1-5.2L156.5,76z"/>
			<path fill="#323A4F" d="M162.1,83.2c0-0.4,0.2-0.5,0.6-0.2c0.3,0.2,0.5,0.5,0.5,0.8s-0.2,0.5-0.6,0.2
				C162.2,83.9,162,83.5,162.1,83.2z"/>
		</g>
		<g>
			<g>
				<path fill="#FDC830" d="M162.1,94l0.1-3.7c0-0.2-0.1-0.3-0.2-0.4l-1.3-0.8c-0.2-0.1-0.2-0.3-0.2-0.5l2-5.2
					c0.2-0.4,0.7-0.4,0.8,0l2.9,8.3c0.2,0.4-0.3,0.8-0.7,0.5l-0.7-0.5c-0.3-0.2-0.7,0-0.7,0.4v2.7c0,0.4-0.4,0.5-0.7,0.4l-1.1-0.7
					C162.2,94.2,162.1,94.1,162.1,94z"/>
				<path fill="#FDC830" d="M163.7,95.6c-0.1,0-0.3,0-0.4-0.1l-1.1-0.7c-0.3-0.3-0.5-0.5-0.5-0.8l0.1-3.7l-1.4-0.9
					c-0.3-0.1-0.4-0.6-0.3-1l2-5.2c0.1-0.3,0.4-0.5,0.8-0.5c0.3,0,0.6,0.2,0.8,0.5l2.9,8.3c0.1,0.2,0.1,0.5-0.1,0.7
					c-0.2,0.4-0.8,0.5-1.2,0.3l-0.7-0.5c-0.1,0-0.1,0-0.1,0.1v2.7C164.6,95.2,164.2,95.6,163.7,95.6z M162.5,94c0,0,0.1,0.1,0.2,0.2
					l1,0.6l0,0c0.1,0,0.1,0,0.1-0.1V92c0-0.5,0.4-0.9,0.8-0.9c0.2,0,0.3,0.1,0.5,0.2l0.7,0.4h0.1l-2.9-8.3l-0.5-0.1l0.4,0.1l-2,5.2
					v0.1l1.3,0.8c0.2,0.1,0.4,0.4,0.4,0.7L162.5,94L162.5,94z"/>
			</g>
		</g>
		<path fill="#FDC830" d="M132.2,109.7v5.4c0,0,1.8-0.9,9.3,0c0,0-5.6-2.1-8.3-2L132.2,109.7z"/>
	</g>
	<g>
		<polyline fill="none" stroke="#FDC830" stroke-miterlimit="10" points="196.8,147.9 201.6,141 206.4,153.5 211.2,145.1 
			216.1,159.1 220.9,152.1 224.6,161.8 230.4,156.2 235.3,168.8 244.9,157.6 		"/>
		<polyline fill="none" stroke="#FFFFFF" stroke-width="1.3392" stroke-miterlimit="10" points="196.8,121.6 196.8,157.6 
			244.9,185.1 		"/>
	</g>
	<g>
		<linearGradient id="SVGID_1_" gradientUnits="userSpaceOnUse" x1="67.6179" y1="180.2563" x2="67.6179" y2="94.4563">
			<stop  offset="0" style="stop-color:#FD980C"/>
			<stop  offset="0.457" style="stop-color:#FDC830"/>
		</linearGradient>
		<polygon fill="url(#SVGID_1_)" points="60.3,180.3 60.3,101 75,94.5 75,173.7 		"/>
		<polygon fill="#FDC830" points="44.8,173.1 44.8,93.8 59.5,87.2 59.5,166.5 		"/>
		<linearGradient id="SVGID_2_" gradientUnits="userSpaceOnUse" x1="52.5179" y1="180.3563" x2="52.5179" y2="93.7563">
			<stop  offset="0" style="stop-color:#FD980C"/>
			<stop  offset="1" style="stop-color:#FDC830"/>
		</linearGradient>
		<polygon fill="url(#SVGID_2_)" points="44.8,173.1 44.8,93.8 60.3,101.1 60.3,180.4 		"/>
		<linearGradient id="SVGID_3_" gradientUnits="userSpaceOnUse" x1="44.8012" y1="94.1063" x2="74.9615" y2="94.1063">
			<stop  offset="0" style="stop-color:#FD980C"/>
			<stop  offset="1" style="stop-color:#FDC830"/>
		</linearGradient>
		<polygon fill="url(#SVGID_3_)" points="44.8,93.8 60.3,101.1 75,94.6 59.5,87.2 		"/>
	</g>
	<g>
		<linearGradient id="SVGID_4_" gradientUnits="userSpaceOnUse" x1="97.8179" y1="168.8563" x2="97.8179" y2="113.0563">
			<stop  offset="0" style="stop-color:#D45011"/>
			<stop  offset="0.457" style="stop-color:#FF8245"/>
		</linearGradient>
		<polygon fill="url(#SVGID_4_)" points="90.5,168.9 90.5,119.6 105.2,113.1 105.2,162.3 		"/>
		<polygon fill="#FF8245" points="75,161.7 75,112.4 89.7,105.8 89.7,155.1 		"/>
		<linearGradient id="SVGID_5_" gradientUnits="userSpaceOnUse" x1="82.7179" y1="168.9563" x2="82.7179" y2="112.3563">
			<stop  offset="0" style="stop-color:#D45011"/>
			<stop  offset="1" style="stop-color:#FF8245"/>
		</linearGradient>
		<polygon fill="url(#SVGID_5_)" points="75,161.7 75,112.4 90.5,119.8 90.5,169 		"/>
		<linearGradient id="SVGID_6_" gradientUnits="userSpaceOnUse" x1="75.0179" y1="112.7563" x2="105.1782" y2="112.7563">
			<stop  offset="0" style="stop-color:#D45011"/>
			<stop  offset="0.4409" style="stop-color:#FF8245"/>
		</linearGradient>
		<polygon fill="url(#SVGID_6_)" points="75,112.4 90.5,119.8 105.2,113.2 89.7,105.8 		"/>
	</g>
	<line fill="none" stroke="#FDC830" stroke-miterlimit="10" x1="103.1" y1="168.8" x2="184.3" y2="215.6"/>
	<line fill="none" stroke="#FDC830" stroke-miterlimit="10" x1="72.1" y1="179.7" x2="153.2" y2="226.5"/>
	<g>
		<path fill="#FFFFFF" d="M193.8,216.9c-0.2-0.1-0.4-0.2-0.7-0.3c-1.6-0.6-3.3-0.1-4.5,0.6l0,0c0.7-0.2,1.6-0.1,2.3,0.2
			c1.1,0.6,1.1,1.8-0.1,2.8c-1.2,1-3.1,1.4-4.4,0.6c-1.3-0.8-1.1-2.1,0.5-3.5c1.3-1,2.7-1.6,4-1.8c1.1-0.1,2.1,0,3,0.3
			c0.3,0.1,0.5,0.2,0.7,0.3L193.8,216.9z M189.8,219.8c0.9-0.8,1-1.5,0.2-1.9c-0.5-0.3-1.3-0.3-2,0c-0.2,0-0.3,0.1-0.5,0.3
			c-1,0.9-1.3,1.8-0.5,2.3C187.8,220.8,188.9,220.5,189.8,219.8z"/>
		<path fill="#FFFFFF" d="M197.2,222.2c-2.3,1.8-4.4,2.4-5.9,1.5c-1.3-0.7-0.9-2.2,1.2-4c2.2-1.8,4.4-2.2,5.8-1.5
			C199.7,219,199.3,220.5,197.2,222.2z M193.4,220.3c-1.7,1.4-2.2,2.5-1.3,2.9c0.9,0.5,2.4-0.1,4.1-1.5c1.6-1.3,2.3-2.4,1.3-3
			C196.7,218.4,195.2,218.8,193.4,220.3z"/>
		<path fill="#FFFFFF" d="M202.6,223.3c-1.4,1.2-2.9,1.3-3.8,0.8c-0.9-0.5-0.9-1.4,0.4-2.6c1.3-1.1,2.9-1.3,3.8-0.8
			C204,221.3,203.9,222.3,202.6,223.3z M200,222c-0.9,0.7-1.2,1.4-0.6,1.7c0.6,0.3,1.6,0,2.5-0.8c0.8-0.7,1.3-1.4,0.6-1.7
			C201.8,220.9,200.8,221.3,200,222z M195.9,226.4l11.3-3.4l0.6,0.3l-11.3,3.4L195.9,226.4z M204.5,228.3c-1.5,1.2-3,1.3-3.9,0.8
			c-0.9-0.5-1-1.5,0.4-2.6c1.4-1.1,2.9-1.3,3.9-0.8C205.9,226.2,205.9,227.2,204.5,228.3z M201.8,226.8c-0.9,0.7-1.2,1.5-0.6,1.8
			c0.6,0.4,1.6,0,2.5-0.7c0.8-0.7,1.3-1.4,0.6-1.8C203.7,225.8,202.7,226.1,201.8,226.8z"/>
	</g>
	<g>
		<path fill="#FFFFFF" d="M155.6,232c0.2,0.1,0.4,0.2,0.7,0.3c0.6,0.2,1.3,0.3,2,0.1c0.8-0.1,1.6-0.5,2.5-1.1l0,0
			c-0.8,0.2-1.5,0.2-2.2-0.2c-1.2-0.6-1.1-1.8-0.1-2.7c1.1-1.1,3-1.6,4.4-0.9c1.4,0.7,1.2,2-0.3,3.5c-1.3,1.3-2.7,1.9-4,2.2
			c-1,0.2-2,0.1-2.7-0.2c-0.4-0.1-0.7-0.3-0.9-0.4L155.6,232z M159.4,228.9c-0.7,0.7-0.8,1.5,0,1.9c0.6,0.3,1.3,0.3,1.9,0.1
			c0.1,0,0.2-0.1,0.4-0.2c1-1,1.4-1.9,0.4-2.4C161.3,227.7,160.2,228.1,159.4,228.9z"/>
		<path fill="#FFFFFF" d="M169.1,231.8l-2.6-1.3l-1.8,1.4c0.2,0.1,0.3,0.1,0.6,0.2c0.5,0.3,1,0.6,1.2,1.1c0.3,0.5,0.2,1.3-0.6,2
			c-1.2,1.2-3.1,1.5-4.6,0.7c-0.7-0.4-1.2-0.9-1.3-1.2l0.9-0.5c0.1,0.3,0.5,0.8,1.1,1.1c0.9,0.5,2.1,0.3,2.9-0.5
			c0.8-0.8,0.7-1.6-0.6-2.3c-0.4-0.2-0.7-0.3-1-0.4l3.3-2.6l3.3,1.6L169.1,231.8z"/>
		<path fill="#FFFFFF" d="M172.6,235.1c-1.3,1.3-2.7,1.5-3.6,1.1c-0.9-0.4-1-1.4,0.2-2.6c1.2-1.2,2.6-1.5,3.6-1
			C173.8,233,173.8,233.9,172.6,235.1z M170,233.9c-0.8,0.8-1,1.5-0.4,1.8c0.6,0.3,1.5-0.1,2.3-0.9c0.7-0.7,1.1-1.5,0.4-1.8
			C171.7,232.7,170.8,233.1,170,233.9z M166.4,238.7l10.4-4.2l0.6,0.3L167,239L166.4,238.7z M174.9,240c-1.3,1.3-2.7,1.6-3.7,1.1
			c-0.9-0.5-1.1-1.5,0.1-2.7c1.2-1.2,2.7-1.5,3.6-1.1C176,237.8,176,238.8,174.9,240z M172.1,238.7c-0.8,0.8-1,1.6-0.4,1.9
			c0.6,0.3,1.5-0.1,2.3-0.9c0.7-0.8,1.1-1.5,0.4-1.9C173.8,237.5,172.9,237.9,172.1,238.7z"/>
	</g>
</g>
</svg>
