<?xml version="1.0" encoding="utf-8"?>
<!-- Generator: Adobe Illustrator 18.0.0, SVG Export Plug-In . SVG Version: 6.00 Build 0)  -->
<!DOCTYPE svg PUBLIC "-//W3C//DTD SVG 1.1//EN" "http://www.w3.org/Graphics/SVG/1.1/DTD/svg11.dtd">
<svg version="1.1" id="Layer_1" xmlns="http://www.w3.org/2000/svg" xmlns:xlink="http://www.w3.org/1999/xlink" x="0px" y="0px"
	 viewBox="0 0 300 300" enable-background="new 0 0 300 300" xml:space="preserve">
<path fill="#1E2430" d="M249.3,245.7c-53.3,30.8-139.6,30.8-192.9,0s-53.3-80.5,0-111.3s139.6-30.8,192.9,0S302.6,215,249.3,245.7z"
	/>
<path fill="#323A4F" d="M249.3,249.2C196,280,109.7,280,56.5,249.2s-53.3-80.5,0-111.3s139.6-30.8,192.9,0S302.6,218.5,249.3,249.2z
	"/>
<path fill="#323A4F" d="M249.3,249.2C196,280,109.7,280,56.5,249.2s-53.3-80.5,0-111.3s139.6-30.8,192.9,0S302.6,218.5,249.3,249.2z
	"/>
<g>
	<polygon fill="#1E2430" points="150.7,190.1 154.5,187.9 154.4,245.9 150.7,248.1 	"/>
	<polygon fill="#AF9964" points="147.5,188.3 151.3,186.1 154.5,187.9 150.7,190.1 	"/>
	<polygon fill="#1E2430" points="150.7,190.1 150.7,248.1 147.4,246.1 147.5,188.3 	"/>
	<polygon fill="#1E2430" points="189.6,181.9 193.4,179.7 193.3,223.4 189.6,225.6 	"/>
	<polygon fill="#AF9964" points="186.4,180 190.1,177.8 193.4,179.7 189.6,181.9 	"/>
	<polygon fill="#1E2430" points="189.6,181.9 189.6,225.6 186.3,223.6 186.4,180 	"/>
	<polygon fill="#1E2430" points="62.7,154.7 66.4,152.5 66.4,196.2 62.6,198.4 	"/>
	<polygon fill="#AF9964" points="59.4,152.8 63.2,150.7 66.4,152.5 62.7,154.7 	"/>
	<polygon fill="#1E2430" points="62.7,154.7 62.6,198.4 59.4,196.4 59.4,152.8 	"/>
	<g>
		<polygon fill="#F37335" points="201.3,180 201.3,183.5 151.5,212.6 151.5,209.1 		"/>
	</g>
	<g>
		<polygon fill="#F37335" points="151.5,209.1 151.5,212.6 49.8,154.2 49.8,150.7 		"/>
	</g>
	<g>
		<polygon fill="#FFFFFF" points="201.3,180 151.5,209.1 49.8,150.7 99.7,121.5 		"/>
	</g>
	<g>
		<g>
			<path fill="#1E2430" d="M170.5,170.2l-11.2,6.4c-0.5,0.3-1.2,0.3-1.6,0l-5.4-3.2c-0.3-0.2-0.4-0.3-0.4-0.5c0,0.3,0,0.7,0,1
				c0,0.2,0.1,0.4,0.4,0.5l5.4,3.2c0.5,0.3,1.2,0.3,1.6,0l11.2-6.4c0.3-0.2,0.4-0.3,0.4-0.5c0-0.3,0-0.6,0-1
				C170.8,169.8,170.7,170,170.5,170.2z"/>
			<g>
				<path fill="#1E2430" d="M168.1,168.3c0.1,0.1,0.1,0.2,0,0.2c-0.1,0.1-0.3,0.1-0.4,0l-1.5-1c-0.1-0.1-0.1-0.2,0-0.2
					c0.1-0.1,0.3-0.1,0.4,0L168.1,168.3z"/>
			</g>
			<g>
				<path fill="#FF8B38" d="M170.5,169.1c0.5,0.3,0.5,0.7,0,1l-11.2,6.4c-0.5,0.3-1.2,0.3-1.6,0l-5.4-3.2c-0.5-0.3-0.5-0.7,0-1
					l11.2-6.4c0.5-0.3,1.2-0.3,1.6,0L170.5,169.1z M160.2,175.7l9.3-5.4c0.2-0.1,0.2-0.3,0-0.4l-5.5-3.2c-0.2-0.1-0.5-0.1-0.7,0
					l-9.3,5.4c-0.2,0.1-0.2,0.3,0,0.4l5.5,3.2C159.6,175.8,159.9,175.8,160.2,175.7L160.2,175.7z M166.6,167.4
					c-0.1-0.1-0.3-0.1-0.4,0s-0.1,0.2,0,0.2l1.5,1c0.1,0.1,0.3,0.1,0.4,0c0.1-0.1,0.1-0.2,0-0.2L166.6,167.4L166.6,167.4z"/>
			</g>
			<g>
				<path fill="#FFFFFF" d="M169.5,169.8c0.2,0.1,0.2,0.3,0,0.4l-10.2,5.9c-0.4,0.2-0.9,0.2-1.1,0l-5-3c-0.3-0.2-0.3-0.4,0-0.6
					l10.2-5.9c0.2-0.1,0.5-0.1,0.7,0L169.5,169.8z"/>
			</g>
			<g>
				<path fill="#1E2430" d="M168.8,168.9c0.1-0.1,0.1-0.2,0-0.2l0,0c-0.1-0.1-0.3-0.1-0.4,0c-0.1,0.1-0.1,0.2,0,0.2l0,0
					C168.5,169,168.7,169,168.8,168.9z"/>
			</g>
		</g>
	</g>
	<g>
		<g>
			<path fill="#1E2430" d="M159.6,183.3l-16.4,9.6c-0.5,0.3-1.3,0.3-1.8,0l-9.3-5.4c-0.3-0.2-0.4-0.4-0.4-0.6c0,0.4,0,0.7,0,1.1
				c0,0.2,0.2,0.4,0.4,0.6l9.3,5.4c0.5,0.3,1.3,0.3,1.8,0l16.4-9.6c0.3-0.2,0.4-0.4,0.4-0.6c0-0.4,0-0.7,0-1.1
				C159.9,183,159.8,183.2,159.6,183.3z"/>
			<g>
				<path fill="#FF8B38" d="M159.5,182.3c0.5,0.3,0.5,0.8,0,1.1l-16.4,9.6c-0.5,0.3-1.3,0.3-1.8,0l-9.3-5.4c-0.5-0.3-0.5-0.8,0-1.1
					l16.4-9.6c0.5-0.3,1.3-0.3,1.8,0L159.5,182.3z M144.1,191.8l14.3-8.4c0.2-0.1,0.2-0.3,0-0.5l-9.3-5.4c-0.2-0.1-0.6-0.1-0.8,0
					L134,186c-0.2,0.1-0.2,0.3,0,0.5l9.3,5.4C143.5,191.9,143.9,191.9,144.1,191.8L144.1,191.8z"/>
			</g>
			<g>
				<path fill="#FFFFFF" d="M158.3,183c0.2,0.1,0.2,0.3,0,0.5l-15.2,9c-0.4,0.2-1,0.2-1.2,0l-8.8-5.1c-0.3-0.2-0.3-0.5,0-0.7l15.3-9
					c0.2-0.1,0.6-0.1,0.8,0L158.3,183z"/>
			</g>
			<g>
				<path fill="#1E2430" d="M154.6,179.9c0.1,0.1,0.1,0.2,0,0.3c-0.1,0.1-0.3,0.1-0.4,0l-1.7-1.1c-0.1-0.1-0.1-0.2,0-0.3
					c0.1-0.1,0.3-0.1,0.4,0L154.6,179.9z"/>
			</g>
			<g>
				<path fill="#1E2430" d="M155.2,180.5c0.1-0.1,0.1-0.2,0-0.3l0,0c-0.1-0.1-0.3-0.1-0.4,0c-0.1,0.1-0.1,0.2,0,0.3l0,0
					C154.9,180.5,155.1,180.5,155.2,180.5z"/>
			</g>
		</g>
	</g>
	<g>
		<g>
			<path fill="#FFFFFF" d="M122,130c-0.5-0.3-0.9-0.1-0.9,0.5l-0.1,17.7c0,0.6,0.4,1.2,0.9,1.4l27.9,16.1c0.5,0.3,0.9,0.1,0.9-0.5
				l0.1-17.7c0-0.6-0.4-1.2-0.9-1.4L122,130z"/>
			<g>
				<path fill="#1E2430" d="M101.2,161.2L101.2,161.2L101.2,161.2v0.2v0.1v0.1c0,0,0,0.1,0.1,0.1c0,0,0,0.1,0.1,0.1l0.1,0.1
					c0,0,0,0.1,0.1,0.1c0,0.1,0.1,0.1,0.1,0.1l0.1,0.1l0.1,0.1l0.1,0.1l0.1,0.1c0.1,0,0.1,0.1,0.1,0.1l10.9,6.3v-0.7l2.4-1.4l-3.5-2
					v-0.3l-0.3,0.2l-4.7-2.7v-1.6l2.2-1.2l0.5,0.3v-0.6l0.8-0.5l1.4-0.9l2.6-1.4l0.7,0.4v-0.8l2.2-1.2l0.5,0.3v-0.6l2.2-1.2l2.3,1.3
					v0.5l0.5-0.3l2.3,1.3v0.5l0.5-0.3l2.3,1.3v0.5l0.5-0.3l2.3,1.3v0.5l0.5-0.3l2.3,1.3v0.5l0.5-0.3l2.3,1.3v0.5l0.5-0.3l2.3,1.3
					v0.5l0.5-0.3l2.3,1.3v0.5l0.5-0.3l2.3,1.3v1.6l-1.2,0.8l0.6,0.4v-0.6l2.2-1.2l2.3,1.3v1.6l-2.2,1.2l-0.5-0.3v0.6l-2.2,1.2
					l-0.5-0.3v0.6l-2.2,1.2l-0.5-0.3v0.6l-2.2,1.2l-0.5-0.3v0.6l-2.2,1.2l-4.9-2.9v-0.4l-0.3,0.2l-3.6-2.1v-0.7l-0.4,0.2l-1.3-0.8
					v0.7l-2.4,1.4l8.9,5.2c0.1,0.1,0.2,0.1,0.3,0.2c0.1,0,0.1,0,0.1,0.1c0.1,0,0.2,0.1,0.2,0.1c0.1,0,0.1,0.1,0.2,0.1
					c0.1,0,0.2,0.1,0.3,0.1h0.1c0.1,0,0.3,0,0.4,0h0.1c0.1,0,0.3,0,0.4,0h0.1c0.1,0,0.2-0.1,0.4-0.1h0.1c0.1-0.1,0.2-0.1,0.3-0.1
					c0,0,0,0,0.1,0c0.1-0.1,0.2-0.1,0.3-0.2l16.7-9.7c0.4-0.3,0.6-0.6,0.6-0.9c0,0.6,0,1.1,0,1.6c0,0.3-0.2,0.6-0.6,0.9l-16.7,9.7
					c-0.1,0.1-0.2,0.1-0.3,0.2l0,0c0,0,0,0-0.1,0c-0.1,0.1-0.2,0.1-0.2,0.1c-0.1,0-0.1,0-0.1,0h-0.1h-0.1c-0.1,0-0.2,0-0.2,0.1h-0.1
					h-0.1c-0.1,0-0.1,0-0.1,0c-0.1,0-0.2,0-0.2,0H133h-0.1c-0.1,0-0.1,0-0.1,0c-0.1,0-0.2,0-0.3,0l0,0h-0.1c-0.1,0-0.2,0-0.2-0.1
					c-0.1,0-0.1,0-0.1,0s-0.1-0.1-0.2-0.1c-0.1,0-0.1,0-0.1-0.1c-0.1,0-0.1,0-0.1-0.1c-0.1,0-0.1,0-0.1-0.1
					c-0.1-0.1-0.2-0.1-0.3-0.2l-29.7-16.9l-0.1-0.1c0,0,0,0-0.1-0.1l-0.1-0.1l-0.1-0.1l-0.1-0.1l0,0c0,0,0,0,0-0.1
					c-0.1-0.1-0.1-0.1-0.1-0.1l0,0l0,0c0-0.1-0.1-0.1-0.1-0.1s0,0,0-0.1l0,0c0,0,0-0.1-0.1-0.1c0,0,0,0,0-0.1l0,0v-0.1v-0.1l0,0V162
					v-0.1l0,0C101.2,162.3,101.2,161.8,101.2,161.2z"/>
				<g>
					<path fill="#1E2430" d="M101.7,160.4l16.7-9.7c0.8-0.5,2-0.5,2.9,0l29,16.8c0.8,0.5,0.8,1.2,0,1.6l-16.7,9.7
						c-0.8,0.5-2,0.5-2.9,0l-29-16.8C101,161.6,101,160.8,101.7,160.4z"/>
					<g>
						<polygon fill="#FFD447" points="119.5,157.3 121,158.1 122.5,157.4 120.9,156.4 						"/>
						<polygon fill="#FFD447" points="115.9,158.3 117.5,159.3 119,158.4 117.4,157.6 						"/>
						<polygon fill="#FFD447" points="113.3,160 114.8,159.2 113.6,158.4 116.2,157 114.2,155.8 110.1,158.1 						"/>
						<polygon fill="#FFD447" points="121.6,160 119.9,159 118.5,159.9 120,160.8 						"/>
						<polygon fill="#FFD447" points="112.9,161.2 108.9,158.9 107.4,159.8 111.4,162.1 						"/>
						<polygon fill="#FFD447" points="116.7,163.4 113.9,161.8 112.4,162.6 115.3,164.3 						"/>
						<polygon fill="#FFD447" points="122.5,163.6 120.9,162.7 119.5,163.6 121,164.5 						"/>
						<polygon fill="#FFD447" points="121.4,153.5 119.8,152.6 118.3,153.4 119.8,154.4 						"/>
						<polygon fill="#FFD447" points="121,155.1 122.6,155.9 124.1,155.1 122.5,154.2 						"/>
						<polygon fill="#FFD447" points="119.8,155.8 117.1,154.2 115.5,155.1 118.4,156.7 						"/>
						<polygon fill="#FFD447" points="123.8,156.7 125.3,157.6 126.7,156.7 125.2,155.7 						"/>
						<polygon fill="#FFD447" points="126.5,158.2 128.1,159.2 129.5,158.2 128,157.4 						"/>
						<polygon fill="#FFD447" points="122.1,158.8 123.6,159.8 125.1,158.9 123.6,157.9 						"/>
						<polygon fill="#FFD447" points="129.2,159.9 130.8,160.7 132.3,159.9 130.8,159 						"/>
						<polygon fill="#FFD447" points="124.7,160.3 126.3,161.2 127.7,160.3 126.2,159.5 						"/>
						<polygon fill="#FFD447" points="117.4,160.6 115.7,159.8 114.3,160.6 115.9,161.5 						"/>
						<polygon fill="#FFD447" points="131.9,161.4 133.5,162.3 135,161.4 133.4,160.5 						"/>
						<polygon fill="#FFD447" points="121.1,161.4 122.6,162.3 124.2,161.4 122.5,160.5 						"/>
						<polygon fill="#FFD447" points="127.3,161.9 128.8,162.7 130.4,161.9 128.8,161 						"/>
						<polygon fill="#FFD447" points="119.9,162.2 118.4,161.2 116.9,162.2 118.4,163 						"/>
						<polygon fill="#FFD447" points="123.7,162.9 125.2,163.8 126.6,162.9 125.1,162.1 						"/>
						<polygon fill="#FFD447" points="134.7,163 136.3,163.9 137.8,163 136.2,162.2 						"/>
						<polygon fill="#FFD447" points="129.9,163.3 131.4,164.3 133,163.4 131.4,162.5 						"/>
						<polygon fill="#FFD447" points="126.3,164.4 127.8,165.3 129.3,164.5 127.7,163.5 						"/>
						<polygon fill="#FFD447" points="137.5,164.6 139,165.5 140.4,164.6 138.9,163.7 						"/>
						<polygon fill="#FFD447" points="132.6,164.9 134.1,165.8 135.6,164.9 134,164 						"/>
						<polygon fill="#FFD447" points="125.2,165.2 123.6,164.3 122.1,165.1 123.7,166.1 						"/>
						<polygon fill="#FFD447" points="128.8,165.9 130.4,166.8 131.9,165.9 130.3,165 						"/>
						<polygon fill="#FFD447" points="140.2,166.2 141.8,167 143.2,166.2 141.7,165.3 						"/>
						<polygon fill="#FFD447" points="138.2,166.5 136.6,165.5 135.1,166.4 136.7,167.3 						"/>
						<polygon fill="#FFD447" points="127.7,166.7 126.2,165.8 124.7,166.6 126.3,167.5 						"/>
						<polygon fill="#FFD447" points="131.4,167.4 133,168.3 134.5,167.4 133,166.5 						"/>
						<polygon fill="#FFD447" points="130.3,168.2 128.8,167.3 127.3,168.1 128.8,169.1 						"/>
						<polygon fill="#FFD447" points="147,168.4 145.4,167.5 144,168.4 145.5,169.2 						"/>
						<polygon fill="#FFD447" points="137.1,169 135.6,168 134,168.9 135.6,169.7 						"/>
						<polygon fill="#FFD447" points="127,169.4 117.6,164 116.2,164.8 125.6,170.3 						"/>
						<polygon fill="#FFD447" points="129.8,169.6 131.3,170.5 132.9,169.6 131.3,168.8 						"/>
						<polygon fill="#FFD447" points="137.9,168 142.8,170.9 144.3,170 139.4,167.1 						"/>
						<polygon fill="#FFD447" points="116,166.3 113.4,167.7 121,172 123.5,170.6 						"/>
						<polygon fill="#FFD447" points="136.6,170.4 140.1,172.4 141.6,171.5 138.1,169.5 						"/>
						<polygon fill="#FFD447" points="131,171.7 128.1,170.1 126.6,170.9 129.4,172.5 						"/>
						<polygon fill="#FFD447" points="132.5,171.2 137.4,173.9 138.9,173.2 133.9,170.3 						"/>
						<polygon fill="#FFD447" points="130.5,173.2 134.6,175.6 136.1,174.7 132,172.3 						"/>
					</g>
				</g>
			</g>
			<g>
				<path fill="#1E2430" d="M120.4,128C120.4,128,120.5,128,120.4,128c0.2-0.2,0.4-0.2,0.5-0.3c0.2-0.1,0.3-0.2,0.4-0.3
					c0.3-0.2,0.7-0.2,1.1,0.1l29,16.8c0.8,0.5,1.4,1.5,1.4,2.5l-0.1,19.2c0,0.5-0.2,0.8-0.5,1c-0.4,0.2-0.7,0.4-1.1,0.6
					c0.3-0.2,0.5-0.5,0.5-1l0.1-19.2c0-1-0.7-2-1.4-2.5l-28.9-16.8C121,127.8,120.6,127.8,120.4,128
					C120.3,128.1,120.4,128.1,120.4,128z"/>
			</g>
			<g>
				<path fill="#1E2430" d="M150.3,145c0.8,0.5,1.4,1.5,1.4,2.5l-0.1,19.2c0,1-0.7,1.2-1.4,0.9l-29-16.8c-0.8-0.5-1.4-1.5-1.4-2.5
					l0.1-19.2c0-1,0.7-1.2,1.4-0.9L150.3,145z M121,148.2c0,0.6,0.4,1.2,0.9,1.4l27.9,16.1c0.5,0.3,0.9,0.1,0.9-0.5l0.1-17.7
					c0-0.6-0.4-1.2-0.9-1.4L122,130c-0.5-0.3-0.9-0.1-0.9,0.5L121,148.2L121,148.2z"/>
			</g>
		</g>
	</g>
	<g>
		<path fill="#1E2430" d="M115.5,143.7c0.1,0,0.1,0,0.2,0.1c0.2,0.1,0.3,0.3,0.3,0.5c0,0.1,0,0.1-0.1,0.2c0.2-0.3,0.4-0.5,0.6-0.8
			C116.2,143.6,115.9,143.6,115.5,143.7z"/>
		<path fill="#FFFFFF" d="M115.6,143.7c-0.1-0.1-0.1-0.1-0.2-0.1c-0.5,0.1-0.9,0.2-1.3,0.2c0,0,0,0-0.1,0h0.1h0.1
			c0.1,0,0.2,0.1,0.3,0.1c0.1,0.1,0.2,0.1,0.3,0.2c0.2,0.2,0.3,0.4,0.4,0.6c0.1,0.1,0.1,0.2,0.1,0.3c0,0.1,0,0.2-0.1,0.3l-0.1,0.1
			l-0.1,0.1h0.1c0.3-0.4,0.6-0.8,0.9-1.1c0-0.1,0.1-0.1,0.1-0.2C115.9,144,115.8,143.8,115.6,143.7z"/>
		<path fill="#FF8B38" d="M115.1,145.3C115.1,145.2,115.1,145.2,115.1,145.3c0.1-0.1,0.1-0.2,0.1-0.3c0-0.1,0-0.2-0.1-0.3
			c-0.1-0.2-0.2-0.4-0.4-0.6c-0.1-0.1-0.2-0.2-0.3-0.2c-0.1-0.1-0.2-0.1-0.3-0.1H114h-0.1h-0.1l0,0l0,0l-8.8,5.1
			c0.1,0,0.1-0.1,0.2-0.1h0.1c0.1,0,0.2,0.1,0.3,0.1c0.4,0.2,0.7,0.7,0.7,1.1c0,0.1,0,0.2-0.1,0.3l0,0c0,0.1-0.1,0.1-0.1,0.1
			c0,0.1-0.1,0.1-0.1,0.1l0,0c2.6-1.5,6.2-3.6,8.8-5.1l0,0L115.1,145.3L115.1,145.3z"/>
		<path fill="#FFFFFF" d="M105.5,148.9L105.5,148.9L105.5,148.9z"/>
		<path fill="#FFFFFF" d="M106.2,150.4C106.2,150.5,106.2,150.5,106.2,150.4L106.2,150.4z"/>
		<path fill="#FFFFFF" d="M106.3,150.1c0,0.1,0,0.2-0.1,0.3C106.3,150.3,106.3,150.2,106.3,150.1z"/>
		<path fill="#FFFFFF" d="M104.7,151.2c0.1,0,0.1,0,0.2-0.1l0,0C104.8,151.2,104.8,151.2,104.7,151.2z"/>
		<path fill="#FFFFFF" d="M104,149.7L104,149.7c0.1,0,0.1,0,0.2-0.1C104,149.7,104,149.7,104,149.7z"/>
		<path fill="#FFFFFF" d="M104.1,149.7c0.1,0,0.2,0.1,0.3,0.1C104.3,149.7,104.2,149.7,104.1,149.7z"/>
		<path fill="#FFFFFF" d="M103.9,149.9C103.9,149.8,103.9,149.8,103.9,149.9C103.9,149.8,103.9,149.9,103.9,149.9z"/>
		<path fill="#FFFFFF" d="M105,151.1L105,151.1L105,151.1z"/>
		<path fill="#FFFFFF" d="M104.6,151.3c-0.1,0-0.2-0.1-0.3-0.1C104.5,151.2,104.6,151.2,104.6,151.3z"/>
		<path fill="#1E2430" d="M106.2,150.5C106.2,150.5,106.2,150.4,106.2,150.5l0.2-0.2l0,0c0.1-0.1,0.1-0.2,0.1-0.3
			c0-0.4-0.3-0.9-0.7-1.1c-0.1-0.1-0.2-0.1-0.3-0.1h-0.1c-0.1,0-0.1,0-0.2,0.1l-1.3,0.8c0.1,0,0.1,0,0.2-0.1c-0.1,0-0.1,0-0.2,0.1
			c-0.1,0-0.1,0.1-0.1,0.1l-0.1,0.1c-0.1,0.1-0.1,0.2-0.1,0.3c0,0.4,0.3,0.9,0.7,1.1c0.1,0.1,0.2,0.1,0.3,0.1h0.1
			c0.1,0,0.1,0,0.2-0.1l0,0L106.2,150.5L106.2,150.5z M104.1,149.7c0.1,0,0.2,0.1,0.3,0.1C104.3,149.7,104.2,149.7,104.1,149.7z
			 M105,151.1L105,151.1L105,151.1z"/>
	</g>
	<g>
		<g enable-background="new    ">
			<path fill="#242629" d="M88,187.6c0.5,0.3,0.8,0.7,0.9,1.3v0.1v8.5l-1.3-0.8v-8.6l0,0c-0.1-0.7-0.4-1.1-0.9-1.3L88,187.6z"/>
		</g>
	</g>
	<g>
		<g>
			<path fill="#1E2430" d="M114.6,217.3L114.6,217.3c0,0-0.2-2.3-7.7-0.3l-7.3,2c-1.2,2.5-0.9,5-0.6,6.1c0.1,0.5,0.4,0.8,0.8,1
				l1.3,0.8c0.5,0.3,1.1,0.3,1.5,0l2.3-1.4c0.2-0.2,0.4-0.3,0.5-0.5c0.5-0.8,1.7-1.1,3.3-1.4c0.2-0.1,0.3-0.1,0.5-0.2
				c0.1,0,0.2-0.1,0.2-0.1c0.2-0.1,0.4-0.2,0.5-0.2c2-0.8,2.9-2,4-3.6C114.6,218.4,114.9,217.7,114.6,217.3z"/>
			<path fill="#1E2430" d="M99.1,219.1c0,1.1,0.6,2,1.5,2.4c0.8,0.4,1.7,0.6,2.5,0.7c1.4,0.2,2.9-0.2,4.2-1.1c1.2-0.8,2-2.2,2-3.7
				l-0.2-23c0.2-6.9-4.4-6.9-7.3-7.1c-3.2-0.3-2.6,0.8-2.6,3.9L99.1,219.1z"/>
			<path fill="#1E2430" d="M124.6,223.4L124.6,223.4c0,0-0.2-2.3-7.7-0.3l-7.3,2c-1.2,2.5-0.9,5-0.6,6.1c0.1,0.5,0.4,0.8,0.8,1
				l1.3,0.8c0.5,0.3,1.1,0.3,1.5,0l2.3-1.4c0.2-0.2,0.4-0.3,0.5-0.5c0.5-0.8,1.7-1.1,3.3-1.4c0.2-0.1,0.3-0.1,0.5-0.2
				c0.1,0,0.2-0.1,0.2-0.1c0.2-0.1,0.4-0.2,0.5-0.2c2-0.8,2.9-2,4-3.6C124.6,224.6,124.8,223.9,124.6,223.4z"/>
			<path fill="#1E2430" d="M109.1,225.3c0,1.1,0.6,2,1.5,2.4c0.8,0.4,1.7,0.6,2.5,0.7c1.4,0.2,2.9-0.2,4.2-1.1c1.2-0.8,2-2.2,2-3.7
				l-0.2-23c0.2-6.9-4.4-6.9-7.3-7.1c-3.2-0.3-2.6,0.8-2.6,3.9L109.1,225.3z"/>
		</g>
		<path fill="#1E2430" d="M103.1,247.8l-0.2-0.2l0.5-0.3V246c0-0.9-0.5-1.7-1.2-2.1l-7.3-4.2l5.4-3.1c0.2,0.2,0.3,0.2,0.4,0.3
			c0.4,0.2,0.7,0.2,0.8-0.1c-0.1,0.1-0.1,0.2-0.2,0.2l1.2-0.7c0.2-0.2,0.3-0.3,0.3-0.6c0-0.2-0.1-0.3-0.1-0.5c0-0.1,0-0.1-0.1-0.1
			l0.1-0.1v-1.2c0-0.9-0.5-1.7-1.3-2.2l-0.8-0.5c-0.4-0.2-0.9-0.2-1.3,0l-6.9,4l-0.1-26.1h-2.6h-3.1l0.1,25.9l-7-4.1
			c-0.4-0.2-0.9-0.2-1.3,0l-1.1,0.7c-0.6,0.4-1,1-1,1.7v1.5l0.1,0.1v0.1c0,0.1-0.1,0.1-0.1,0.2c-0.1,0.2-0.1,0.3-0.1,0.5
			c0,0.3,0.2,0.5,0.3,0.6l1.2,0.7c-0.1-0.1-0.1-0.1-0.2-0.2c0.2,0.2,0.5,0.3,0.8,0.1c0.2-0.1,0.3-0.2,0.5-0.4l5.9,3.4l-7,4
			c-0.8,0.5-1.2,1.2-1.2,2.1v1.2l0.5,0.3l-0.2,0.2l0,0l0,0l0,0c-0.2,0.2-0.3,0.3-0.3,0.6c0,0.6,0.5,1.4,1,1.7
			c0.4,0.2,0.7,0.2,0.8-0.1c-0.1,0.1-0.1,0.2-0.2,0.2l1.2-0.7c0.2-0.2,0.3-0.3,0.3-0.6v-0.1l10.1-5.7l10.4,6c0,0.1,0,0.1,0,0.2
			c0,0.3,0.2,0.5,0.3,0.6l1.2,0.7c-0.1-0.1-0.1-0.2-0.2-0.2c0.2,0.2,0.5,0.3,0.8,0.1c0.5-0.3,1-1.1,1-1.7
			C103.4,248.1,103.3,247.8,103.1,247.8L103.1,247.8z"/>
		<path fill="#FDC830" d="M109.5,206.6c0-0.3-0.1-0.5-0.1-0.8c-0.3,1.5-1.5,3-3.6,4.2l-7.8,4.5c-2.3,1.4-5.4,2-8.5,2
			c-3.3,0.1-6.5-0.7-8.9-2l-7.7-4.5c-1.7-1-2.7-2-3.3-3.3c-0.2-0.3-0.2-0.5-0.3-0.8c-0.1,0.3-0.2,0.6-0.1,0.9c0-0.1,0-0.1,0-0.2v2.4
			c0,0.1,0,0.2,0,0.2v0.5c0,0.6,0.2,1.1,0.4,1.7c0.5,1.2,1.6,2.3,3.3,3.3l7.7,4.5c2.5,1.4,5.7,2.1,8.9,2c3.1-0.1,6.1-0.8,8.5-2
			l7.8-4.5c2.4-1.4,3.6-3.3,3.6-5.1V206.6L109.5,206.6z"/>
		<path fill="#F3F3F3" d="M72.9,209.9l7.7,4.5c2.5,1.4,5.7,2.1,8.9,2c3.1-0.1,6.1-0.8,8.5-2l7.8-4.5c2-1.2,3.3-2.6,3.6-4.2
			c-0.3-1.5-1.4-3-3.5-4.2l-7.7-4.5c-4.8-2.8-12.6-2.8-17.5,0l-7.8,4.5c-2,1.2-3.3,2.7-3.6,4.2c0.1,0.3,0.2,0.5,0.3,0.8
			C70.3,207.8,71.3,209,72.9,209.9z"/>
		<path fill="#1E2430" d="M69.7,210.8c0.5,1.2,1.6,2.3,3.3,3.3l7.7,4.5c2.5,1.4,5.7,2.1,8.9,2c3.1-0.1,6.1-0.8,8.5-2l7.8-4.5
			c2.4-1.4,3.6-3.3,3.6-5.1v3.1c0,1.8-1.2,3.6-3.6,5.1l-7.8,4.5c-2.3,1.4-5.4,2-8.5,2c-3.3,0.1-6.5-0.7-8.9-2l-7.7-4.5
			c-1.7-1-2.7-2-3.3-3.3c-0.2-0.5-0.4-1.1-0.4-1.7v-3.1C69.3,209.7,69.5,210.2,69.7,210.8z"/>
		<g>
			<path fill="#1E2430" d="M104.7,194.7l-10.4,4.8c-8.7-2.3-20.6-4.6-21.8-0.6c-1.9,6.5,0.2,9.7,3.4,11.6c3.3,2,12.7,4.7,19.4,1.1
				l19.4-11.3L104.7,194.7z"/>
		</g>
		<path fill="#FFFFFF" d="M91.9,163.2c0.1-0.5-1.7-3.8-2.1-3.4c-1.7,1.3-6.5,1.1-7.7,0.5c-1.1-0.5-0.9-2.1-0.9-2.1s-6.7,5.8,2.6,7.6
			c1.8,0.4,3.9,0.2,5.6-0.6C90.8,164.5,93.3,164.6,91.9,163.2z"/>
		<g>
			<path fill="#FDC830" d="M100.9,199.8v0.7C100.9,200.1,100.9,199.8,100.9,199.8z"/>
			<path fill="#FDC830" d="M92.2,210.1c7.7-1.1,8.7-7.6,8.8-9.7v-0.7l0,0c0,0-0.7-1.3-1.5-4.1c-0.8-2.8,2.7-20.7-3.2-29.9
				c-1.8-2-3.6-3-4.8-3.5c0,0-2.6,2.9-8.1,1.7c-5.7-1.3-3.6-4.7-3.6-4.7c-7.5,0.2-7.5,9.8-7.6,13.2c-0.4,6.2-0.8,19.1-0.7,29.6
				c0.5,0.9,1.1,1.8,1.7,2.6C77.9,210.4,83,211.5,92.2,210.1z"/>
		</g>
		<g>
			<g enable-background="new    ">
				<g>
					<polygon fill="#1E2430" points="76.9,189.3 78.3,188.6 74.9,186.5 73.5,187.4 					"/>
				</g>
				<path fill="#1E2430" d="M76.9,189.3l-3.4-2l-0.1,30.9c0,0.4,0.2,0.8,0.5,0.9l1.8,1.1c0.7,0.4,1.4,0.4,2,0l0.3-0.2l0.1-31.5
					L76.9,189.3z"/>
			</g>
		</g>
		<path fill="#1E2430" d="M89.5,198.5l-1.4-16.8c-0.2-1.6-0.6-3.3-1.4-5c-0.8-1.9-2-3.8-3.4-5.4c-1.7-2-3.6-3.8-5.7-5
			c-1.2-0.7-2.5-1.2-3.6-1.4c-1.7-0.4-3.2-0.2-4.4,0.5c-0.1,0.1-0.2,0.1-0.2,0.2l-2.3,1.4c0.1-0.1,0.2-0.1,0.2-0.2
			c0,0,0.1,0,0.1-0.1c-0.2,0.1-0.3,0.2-0.4,0.2c0.8-0.1,1.5-0.1,2.4,0.2c1.1,0.2,2.3,0.7,3.6,1.4c2,1.2,4,2.9,5.7,5
			c1.4,1.7,2.6,3.6,3.4,5.4c0.8,1.7,1.2,3.4,1.4,5l1.4,16.8c0.2,2.3-0.5,3.9-1.7,4.8c0.8-0.1,1.5-0.3,2.1-0.6
			c-0.1,0.1-0.1,0.1-0.2,0.1l2.3-1.4C89,202.8,89.8,201.1,89.5,198.5z"/>
		<path fill="#FDC830" d="M84.9,200.7l-1.4-16.8c-0.2-1.6-0.6-3.3-1.4-5c-0.8-1.9-2-3.8-3.4-5.4c-1.7-2-3.6-3.8-5.7-5
			c-1.2-0.7-2.5-1.2-3.6-1.4c-0.8-0.2-1.7-0.2-2.4-0.2c-1.3,0.8-2.1,2.2-2.3,4.1l-1.4,15.2c-0.5,4.9,3.6,11.4,9.1,14.5l5.7,3.3
			c1.9,1.1,3.6,1.6,5.1,1.5C84.5,204.7,85.1,203,84.9,200.7z"/>
		<path fill="#FFC3A9" d="M94.6,140.3c0,0,0.4,3.7-0.1,6.4c0,0,0.8,1.3,1.2,2.1c0.4,0.9-1.2,1.7-1.2,1.7s0.2,1.9-0.4,4.1
			c-0.5,2.3-2.5,2.6-4.3,2.9c0,0-0.2,1.1,0,2c0,0-1,1.1-3.9,1.1c-2.9,0.1-4.9-0.6-4.9-2.4c0-1.8,0-4.4,0-4.4v-13.7L94.6,140.3z"/>
		<path fill="#1E2430" d="M86.3,155.5c-1.9-1.7-1.7-5.5,0.2-5.5c1.8,0,1.5,3,1.5,3s0.8,0.4,1.6-0.4c0,0-0.8-3.7,0-6.7
			c0.8-2.9,2.3-3.9,2.3-3.9s2.1,1.2,3.7,0.9c0,0,0.2-1.1,0.5-2.6c0.5-2.3-0.9-4.5-3.1-5.3c-2.6-0.8-6.4-1.4-11.4-0.2
			c-9.9,2.5-6.5,13.3-4.5,16.6c2,3.4,4.3,5.1,4.3,5.1s1.7,1.7,6,1.3c0,0-0.4-0.5-0.6-1.2C86.4,156.1,86.3,155.5,86.3,155.5z"/>
		<path fill="#FFC3A9" d="M101.3,171.9c0,0,1.2,0.1,2.6,0.8c1.4,0.7,2.3,1.4,2.6,1.4c0.3,0.1,0.5-0.4,0.2-0.9
			c-0.4-0.5-1.1-1.1-1.1-1.1s2.2-0.7,3.2-1.4c1.1-0.7-0.8-2-1.1-2.5c-0.6-0.6-2.1-0.5-3.6-0.2c-1.5,0.2-2,0.5-3.5,0.6
			C99,168.7,101.3,171.9,101.3,171.9z"/>
		<path fill="#FDC830" d="M100.6,168.1c0,0,2,1.7,1.5,4.3c0,0-3.5,1.9-9.8,2l-1.8-5.9C90.5,168.7,95.9,167.2,100.6,168.1"/>
		<path fill="#FFC3A9" d="M113.2,182.4c0,0,0.8-0.9,1.2-2.4c0.5-1.5,0.5-2.7,0.7-2.9c0.2-0.2,0.6-0.2,0.8,0.5
			c0.2,0.6,0.2,1.5,0.2,1.5s1.4-0.9,2.7-1.2c1.2-0.3,2.6,1.3,2.6,2c0.1,0.9-1.5,2.1-2.6,3.1c-1.1,1-2.3,1.2-3.4,2.3
			C114.1,186.1,113.2,182.4,113.2,182.4z"/>
		<path fill="#FDC830" d="M96.9,166.7c5.8,5.1,7.6,17.2,7.6,17.2s4.6-1.9,8.5-2.6c0,0,2.6,0.2,3.2,4.3c0,0-6.3,4.4-10.9,6.7
			c-4.6,2.3-7,1.9-8.1-0.2c-1.1-2-6.4-11-7.4-20.4c0,0-0.5-3.5,2.3-4.9c1-0.5,1.8-0.7,2.5-0.8C95.4,165.8,96.3,166.1,96.9,166.7z"/>
	</g>
	<g>
		<polygon fill="#E27629" points="144.4,147.5 123.2,135.4 123.2,134.8 144.4,146.8 		"/>
		<polygon fill="#E27629" points="136.1,144.9 123.2,137.5 123.2,136.9 136.1,144.2 		"/>
		<polygon fill="#E27629" points="124.4,139.7 123.2,139 123.2,138.3 124.4,139.1 		"/>
		<polygon fill="#F1903B" points="126.6,140.9 125.3,140.2 125.3,139.6 126.6,140.2 		"/>
		<polygon fill="#841507" points="130.7,146.2 125.3,143.1 125.3,142.4 130.7,145.6 		"/>
		<polygon fill="#841507" points="130.7,147.6 125.3,144.5 125.3,143.9 130.7,147 		"/>
		<polygon fill="#841507" points="145.5,156.1 143.4,155 143.4,154.3 145.5,155.5 		"/>
		<polygon fill="#841507" points="130.7,149.1 125.3,146.1 125.3,145.4 130.7,148.5 		"/>
		<polygon fill="#841507" points="145.5,157.6 140.2,154.5 140.2,153.9 145.5,157 		"/>
		<polygon fill="#841507" points="130.7,150.6 125.3,147.5 125.3,146.8 130.7,149.9 		"/>
		<polygon fill="#841507" points="145.5,159.1 134.1,152.5 134.1,151.9 145.5,158.4 		"/>
		<polygon fill="#F1903B" points="128.7,142.1 127.4,141.4 127.4,140.7 128.7,141.5 		"/>
		<polygon fill="#F1903B" points="130.9,143.4 129.5,142.6 129.5,141.9 130.9,142.7 		"/>
		<polygon fill="#F1903B" points="133.1,144.6 131.8,144 131.8,143.3 133.1,144 		"/>
		<polygon fill="#F1903B" points="140.7,149 134,145.2 134,144.4 140.7,148.4 		"/>
		<polygon fill="#E27629" points="124.4,141.2 123.2,140.4 123.2,139.8 124.4,140.5 		"/>
		<polygon fill="#F68331" points="145.1,153 125.3,141.7 125.3,141 145.1,152.3 		"/>
		<polygon fill="#E27629" points="124.4,142.6 123.2,141.9 123.2,141.3 124.4,141.9 		"/>
		<polygon fill="#E27629" points="124.4,144.1 123.2,143.4 123.2,142.7 124.4,143.5 		"/>
		<polygon fill="#E27629" points="140.7,147.5 138.1,146.1 138.1,145.4 140.7,146.9 		"/>
		<polygon fill="#E27629" points="147,149 145.2,148.1 145.2,147.4 147,148.4 		"/>
		<polygon fill="#F68331" points="148,154.6 146.2,153.6 146.2,153 148,153.9 		"/>
	</g>
	<path fill="#281E13" d="M173.6,149l1.3-0.8l0,0L173.6,149L173.6,149L173.6,149z"/>
	<path fill="none" d="M173.6,149l0.8,0.5L173.6,149z"/>
</g>
<g>
	<path fill="#1E2430" d="M152.3,50.2v65.5c0,0.8,0.4,1.6,1.1,2l97.1,56c1.6,0.9,3.4-0.2,3.4-2v-66.6c0-0.8-0.4-1.6-1.1-2l-97.1-55
		C154.3,47.3,152.3,48.5,152.3,50.2z"/>
	<path fill="#FFFFFF" d="M249.1,169.9l-93.6-53.3c-0.3-0.3-0.5-0.5-0.5-0.8V56.2c0-0.3,0.3-0.5,0.5-0.3l93.6,53.3
		c0.3,0.3,0.5,0.5,0.5,0.8v59.8C249.7,170.2,249.4,170.2,249.1,169.9z"/>
	<g>
		<polygon fill="#1E2430" points="232.3,112.3 162.9,72.9 162.9,70.4 232.3,109.8 		"/>
		<polygon fill="#1E2430" points="205.3,104.9 162.9,80.9 162.9,78.6 205.3,102.7 		"/>
		<polygon fill="#1E2430" points="167.1,89.1 162.9,86.5 162.9,84.2 167.1,86.5 		"/>
		<polygon fill="#F1903B" points="174.2,93.1 169.9,90.5 169.9,88 174.2,90.2 		"/>
		<polygon fill="#1E2430" points="187.5,112 169.9,101.9 169.9,99.6 187.5,109.5 		"/>
		<polygon fill="#1E2430" points="187.5,117.8 169.9,107.8 169.9,104.9 187.5,115.2 		"/>
		<polygon fill="#1E2430" points="236,145.3 229.2,141.5 229.2,139 236,143 		"/>
		<polygon fill="#1E2430" points="187.5,123.4 169.9,113.2 169.9,110.9 187.5,120.8 		"/>
		<polygon fill="#1E2430" points="236,151.2 218.4,141 218.4,138.5 236,148.6 		"/>
		<polygon fill="#1E2430" points="187.5,129.1 169.9,119.1 169.9,116.6 187.5,126.6 		"/>
		<polygon fill="#1E2430" points="236,156.9 198.9,135.3 198.9,133 236,154.3 		"/>
		<polygon fill="#F1903B" points="181,96.8 176.7,94.5 176.7,92.2 181,94.5 		"/>
		<polygon fill="#F1903B" points="188.1,100.9 183.8,98.4 183.8,95.9 188.1,98.4 		"/>
		<path fill="#FDC830" d="M235.2,98.5l-3.1-1.7c-0.3-0.3-0.5-0.5-0.5-0.8v-1.7c0-0.3,0.3-0.5,0.5-0.3l3.1,1.7
			c0.3,0.3,0.5,0.5,0.5,0.8v1.7C235.8,98.5,235.5,98.5,235.2,98.5z"/>
		<path fill="#FDC830" d="M242.3,102.5l-3.1-1.7c-0.3-0.3-0.5-0.5-0.5-0.8v-1.7c0-0.3,0.3-0.5,0.5-0.3l3.1,1.7
			c0.3,0.3,0.5,0.5,0.5,0.8v1.7C242.9,102.5,242.7,102.5,242.3,102.5z"/>
		<path fill="#FDC830" d="M249.4,106.5l-3.1-1.7c-0.3-0.3-0.5-0.5-0.5-0.8v-1.7c0-0.3,0.3-0.5,0.5-0.3l3.1,1.7
			c0.3,0.3,0.5,0.5,0.5,0.8v1.7C249.7,106.5,249.7,106.8,249.4,106.5z"/>
		<polygon fill="#F1903B" points="195.4,104.9 191.2,102.7 191.2,100.4 195.4,102.7 		"/>
		<polygon fill="#F1903B" points="220.4,119.4 198.3,106.7 198.3,104.1 220.4,116.8 		"/>
		<polygon fill="#1E2430" points="167.1,94.8 162.9,92.5 162.9,89.7 167.1,92.2 		"/>
		<polygon fill="#F18C33" points="234.8,133.3 169.9,96.1 169.9,93.6 234.8,130.7 		"/>
		<polygon fill="#1E2430" points="167.1,100.4 162.9,97.9 162.9,95.6 167.1,97.9 		"/>
		<polygon fill="#1E2430" points="167.1,106.1 162.9,103.9 162.9,101.3 167.1,103.6 		"/>
		<polygon fill="#1E2430" points="220.4,113.8 211.6,108.7 211.6,106.1 220.4,111.2 		"/>
		<polygon fill="#1E2430" points="241.1,117.5 235.1,114 235.1,111.5 241.1,114.6 		"/>
		<polygon fill="#F18C33" points="243.9,138.5 238.6,135.3 238.6,132.7 243.9,135.9 		"/>
	</g>
</g>
<polygon fill="#1E2430" points="147.6,74.7 138.5,69.6 138.5,64.9 147.6,70.2 "/>
<polygon fill="#1E2430" points="147.6,85.4 138.5,80 138.5,75.3 147.6,80.6 "/>
<polygon fill="#1E2430" points="147.6,95.7 138.5,90.7 138.5,86 147.6,90.9 "/>
<polygon fill="#1E2430" points="147.6,106.3 138.5,101 138.5,96.3 147.6,101.6 "/>
<g>
	<path fill="#1E2430" d="M168.4,127.4l-17.8-10.3c-1-0.5-1.6-0.5-2.1-0.3l-1.8,1c0.5-0.4,1.4-0.3,2.1,0.3l17.8,10.3
		c1.7,0.9,3,3.2,3,5.2l-0.1,12.8c0,1-0.3,1.6-0.9,2l1.8-1c0.5-0.4,0.9-1.1,0.9-2l0.1-12.8C171.4,130.8,169.9,128.4,168.4,127.4z"/>
	<polygon fill="none" points="151.8,139.8 152.2,140.1 152.2,140.1 	"/>
	<path fill="#FDC830" d="M166.5,128.6l-17.8-10.4c-1.7-0.9-3-0.3-3,1.7l-0.1,12.8c0,1.9,1.3,4.3,3,5.2l3.1,1.8l-0.1-0.1l0.1,0.1
		l0.5,0.3l0,0l7.6,4.4l0,0l1,0.7l0.1,0.1l-0.1-0.1l5.6,3.3c1.7,0.9,3,0.3,3-1.7l0.1-12.8C169.5,131.9,168.2,129.5,166.5,128.6z"/>
	<path fill="#FFFFFF" d="M155.2,131.5l-2.7-0.8l2.7,2.8v1l-3.9-4.1v-1.1l3.9,1.2V131.5z"/>
	<path fill="#FFFFFF" d="M158.2,130.5l1.1,0.8l-2.7,6l-1.1-0.8L158.2,130.5z"/>
	<path fill="#FFFFFF" d="M163.4,137.5v1.1l-3.9-1.2v-1l2.7,0.8l-2.7-2.8v-1L163.4,137.5z"/>
</g>
<g>
	<g>
		<path fill="#FDC830" d="M241.4,168.5c-6.8,5.1-14.7,7.8-22.9,7.8c-12,0-23.3-5.9-31.8-16.6c-17.5-22-17.5-57.8,0-79.9
			c8.5-10.7,19.8-16.6,31.8-16.6c12,0,23.4,5.9,31.8,16.6c4.3,5.5,7.6,11.8,9.9,18.8l-0.6,0.2c-2.2-6.9-5.5-13.1-9.8-18.6
			c-8.4-10.6-19.5-16.4-31.4-16.4c-11.8,0-23,5.8-31.4,16.4c-17.3,21.9-17.3,57.4,0,79.2c8.4,10.6,19.5,16.4,31.4,16.4
			c8,0,15.6-2.6,22.3-7.5"/>
		<path fill="#FDC830" d="M254,153.2c6.5-10.9,9.6-24.3,8.7-38l0.6,0c0.9,14.1-2.4,28-9.3,39.1"/>
	</g>
	
		<linearGradient id="SVGID_1_" gradientUnits="userSpaceOnUse" x1="107.1154" y1="133.8853" x2="121.01" y2="133.8853" gradientTransform="matrix(-0.5652 0 0 1.2329 327.4811 -48.8496)">
		<stop  offset="0" style="stop-color:#FD980C"/>
		<stop  offset="0.457" style="stop-color:#FDC830"/>
	</linearGradient>
	<path fill="url(#SVGID_1_)" d="M264,112.8l2.7,5.2c0.5,0.7,0.2,2.3-0.4,2.3l-6.7,0.2c-0.6,0-0.8-1.4-0.4-2.2l2.8-5.3
		C262.6,111.8,263.4,111.7,264,112.8z"/>
</g>
<g>
	<g>
		<path fill="#FDC830" d="M123.5,105.5c-1-15.5,3.5-30.9,12.3-42c8-10.1,18.7-15.7,30.1-15.7s22,5.6,30.1,15.7
			c2.6,3.3,5.1,7.4,7,11.5l-0.9-0.5c-1.8-4-3.9-7.3-6.5-10.6c-7.9-10-18.4-15.5-29.6-15.5s-21.7,5.5-29.6,15.5
			c-8.7,11-13.2,26.2-12.2,41.6L123.5,105.5z"/>
	</g>
	<g>
		<g>
			<defs>
				<path id="SVGID_2_" d="M122.9,107.8l-2.6-4.9c-0.4-0.7-0.2-2.1,0.4-2.1l6.3-0.2c0.5,0,0.7,1.4,0.4,2l-2.6,5
					C124.2,108.7,123.5,108.8,122.9,107.8z"/>
			</defs>
			<clipPath id="SVGID_3_">
				<use xlink:href="#SVGID_2_"  overflow="visible"/>
			</clipPath>
			<rect x="119.9" y="100.5" clip-path="url(#SVGID_3_)" fill="#FD980C" width="0.2" height="8.3"/>
			<rect x="120.1" y="100.5" clip-path="url(#SVGID_3_)" fill="#FD980C" width="0.1" height="8.3"/>
			<rect x="120.2" y="100.5" clip-path="url(#SVGID_3_)" fill="#FD990D" width="0.1" height="8.3"/>
			<rect x="120.3" y="100.5" clip-path="url(#SVGID_3_)" fill="#FD9A0E" width="0.1" height="8.3"/>
			<rect x="120.4" y="100.5" clip-path="url(#SVGID_3_)" fill="#FD9B0E" width="0.1" height="8.3"/>
			<rect x="120.4" y="100.5" clip-path="url(#SVGID_3_)" fill="#FD9C0F" width="0.1" height="8.3"/>
			<rect x="120.5" y="100.5" clip-path="url(#SVGID_3_)" fill="#FD9D10" width="0.1" height="8.3"/>
			<rect x="120.6" y="100.5" clip-path="url(#SVGID_3_)" fill="#FD9E11" width="0.1" height="8.3"/>
			<rect x="120.6" y="100.5" clip-path="url(#SVGID_3_)" fill="#FD9F11" width="0.1" height="8.3"/>
			<rect x="120.7" y="100.5" clip-path="url(#SVGID_3_)" fill="#FDA012" width="0.1" height="8.3"/>
			<rect x="120.8" y="100.5" clip-path="url(#SVGID_3_)" fill="#FDA113" width="0.1" height="8.3"/>
			<rect x="120.9" y="100.5" clip-path="url(#SVGID_3_)" fill="#FDA214" width="0.1" height="8.3"/>
			<rect x="120.9" y="100.5" clip-path="url(#SVGID_3_)" fill="#FDA314" width="0.1" height="8.3"/>
			<rect x="121" y="100.5" clip-path="url(#SVGID_3_)" fill="#FDA415" width="0.1" height="8.3"/>
			<rect x="121.1" y="100.5" clip-path="url(#SVGID_3_)" fill="#FDA516" width="0.1" height="8.3"/>
			<rect x="121.1" y="100.5" clip-path="url(#SVGID_3_)" fill="#FDA617" width="0.1" height="8.3"/>
			<rect x="121.2" y="100.5" clip-path="url(#SVGID_3_)" fill="#FDA717" width="0.1" height="8.3"/>
			<rect x="121.3" y="100.5" clip-path="url(#SVGID_3_)" fill="#FDA818" width="0.1" height="8.3"/>
			<rect x="121.3" y="100.5" clip-path="url(#SVGID_3_)" fill="#FDA919" width="0.1" height="8.3"/>
			<rect x="121.4" y="100.5" clip-path="url(#SVGID_3_)" fill="#FDAA1A" width="0.1" height="8.3"/>
			<rect x="121.5" y="100.5" clip-path="url(#SVGID_3_)" fill="#FDAB1B" width="0.1" height="8.3"/>
			<rect x="121.6" y="100.5" clip-path="url(#SVGID_3_)" fill="#FDAC1B" width="0.1" height="8.3"/>
			<rect x="121.6" y="100.5" clip-path="url(#SVGID_3_)" fill="#FDAD1C" width="0.1" height="8.3"/>
			<rect x="121.7" y="100.5" clip-path="url(#SVGID_3_)" fill="#FDAE1D" width="0.1" height="8.3"/>
			<rect x="121.8" y="100.5" clip-path="url(#SVGID_3_)" fill="#FDAF1E" width="0.1" height="8.3"/>
			<rect x="121.8" y="100.5" clip-path="url(#SVGID_3_)" fill="#FDB11E" width="0.1" height="8.3"/>
			<rect x="121.9" y="100.5" clip-path="url(#SVGID_3_)" fill="#FDB21F" width="0.1" height="8.3"/>
			<rect x="122" y="100.5" clip-path="url(#SVGID_3_)" fill="#FDB320" width="0.1" height="8.3"/>
			<rect x="122.1" y="100.5" clip-path="url(#SVGID_3_)" fill="#FDB421" width="0.1" height="8.3"/>
			<rect x="122.1" y="100.5" clip-path="url(#SVGID_3_)" fill="#FDB521" width="0.1" height="8.3"/>
			<rect x="122.2" y="100.5" clip-path="url(#SVGID_3_)" fill="#FDB622" width="0.1" height="8.3"/>
			<rect x="122.3" y="100.5" clip-path="url(#SVGID_3_)" fill="#FDB723" width="0.1" height="8.3"/>
			<rect x="122.3" y="100.5" clip-path="url(#SVGID_3_)" fill="#FDB824" width="0.1" height="8.3"/>
			<rect x="122.4" y="100.5" clip-path="url(#SVGID_3_)" fill="#FDB925" width="0.1" height="8.3"/>
			<rect x="122.5" y="100.5" clip-path="url(#SVGID_3_)" fill="#FDBA25" width="0.1" height="8.3"/>
			<rect x="122.5" y="100.5" clip-path="url(#SVGID_3_)" fill="#FDBB26" width="0.1" height="8.3"/>
			<rect x="122.6" y="100.5" clip-path="url(#SVGID_3_)" fill="#FDBC27" width="0.1" height="8.3"/>
			<rect x="122.7" y="100.5" clip-path="url(#SVGID_3_)" fill="#FDBD28" width="0.1" height="8.3"/>
			<rect x="122.8" y="100.5" clip-path="url(#SVGID_3_)" fill="#FDBE28" width="0.1" height="8.3"/>
			<rect x="122.8" y="100.5" clip-path="url(#SVGID_3_)" fill="#FDBF29" width="0.1" height="8.3"/>
			<rect x="122.9" y="100.5" clip-path="url(#SVGID_3_)" fill="#FDC02A" width="0.1" height="8.3"/>
			<rect x="123" y="100.5" clip-path="url(#SVGID_3_)" fill="#FDC12B" width="0.1" height="8.3"/>
			<rect x="123" y="100.5" clip-path="url(#SVGID_3_)" fill="#FDC22B" width="0.1" height="8.3"/>
			<rect x="123.1" y="100.5" clip-path="url(#SVGID_3_)" fill="#FDC32C" width="0.1" height="8.3"/>
			<rect x="123.2" y="100.5" clip-path="url(#SVGID_3_)" fill="#FDC42D" width="0.1" height="8.3"/>
			<rect x="123.3" y="100.5" clip-path="url(#SVGID_3_)" fill="#FDC52E" width="0.1" height="8.3"/>
			<rect x="123.3" y="100.5" clip-path="url(#SVGID_3_)" fill="#FDC62E" width="0.1" height="8.3"/>
			<rect x="123.4" y="100.5" clip-path="url(#SVGID_3_)" fill="#FDC72F" width="0.1" height="8.3"/>
			<rect x="123.5" y="100.5" clip-path="url(#SVGID_3_)" fill="#FDC830" width="0.1" height="8.3"/>
			<rect x="123.5" y="100.5" clip-path="url(#SVGID_3_)" fill="#FDC830" width="4.2" height="8.3"/>
		</g>
	</g>
</g>
</svg>
