<?xml version="1.0" encoding="utf-8"?>
<!-- Generator: Adobe Illustrator 18.0.0, SVG Export Plug-In . SVG Version: 6.00 Build 0)  -->
<!DOCTYPE svg PUBLIC "-//W3C//DTD SVG 1.1//EN" "http://www.w3.org/Graphics/SVG/1.1/DTD/svg11.dtd">
<svg version="1.1" id="Layer_1" xmlns="http://www.w3.org/2000/svg" xmlns:xlink="http://www.w3.org/1999/xlink" x="0px" y="0px"
	 viewBox="0 0 300 300" enable-background="new 0 0 300 300" xml:space="preserve">
<g>
	<polyline fill="none" stroke="#F37335" stroke-width="1.1248" stroke-miterlimit="10" points="69.5,107.6 68.5,66.6 135.3,97.7 	
		"/>
	<path fill="#1E2430" d="M249.7,223.1c-53.3,30.8-139.6,30.8-192.9,0s-53.3-80.5,0-111.3s139.6-30.8,192.9,0
		S303.1,192.4,249.7,223.1z"/>
	<path fill="#323A4F" d="M249.7,226.6c-53.3,30.8-139.6,30.8-192.9,0s-53.3-80.5,0-111.3s139.6-30.8,192.9,0
		S303.1,195.9,249.7,226.6z"/>
	<polyline fill="none" stroke="#FDC830" stroke-width="1.8725" stroke-miterlimit="10" points="217.4,118.4 245,132.1 246,195 	"/>
	<path fill="#FDC830" d="M107.6,134.7L221,200.3c2.2,1.2,4.9-0.3,4.9-2.8v-87.7c0-2.3-1.2-4.5-3.2-5.6L109.2,38.5
		c-2.2-1.2-4.9,0.3-4.9,2.8v87.8C104.4,131.4,105.6,133.5,107.6,134.7z"/>
	<path fill="#FFFFFF" stroke="#1E2430" stroke-width="1.8958" stroke-miterlimit="10" d="M104.4,135.5l113.4,65.6
		c2.2,1.2,4.9-0.3,4.9-2.8v-87.8c0-2.3-1.2-4.5-3.2-5.6L106,39.4c-2.2-1.2-4.9,0.3-4.9,2.8V130C101.2,132.2,102.4,134.4,104.4,135.5
		z"/>
	<path fill="#FDC830" d="M181.7,101.2l-39-22.8c-4.2-2.4-9.4,0.6-9.4,5.4v51.6c0,2.2,1.2,4.3,3.1,5.4l39.3,22.5
		c4.2,2.4,9.3-0.6,9.3-5.4l-0.3-51.4C184.8,104.4,183.6,102.3,181.7,101.2z"/>
	<path fill="#323232" d="M132.3,90.5c-0.2-0.1-0.3-0.2-0.3-0.4c0-1.4,0-2.7,0-4.1c0-0.1-0.1-0.3,0.1-0.4c0.4-0.2,0.8-0.6,1.3-0.6
		c-0.1,0.4,0.1,0.6,0.4,0.9c1.9,1.1,3.9,2.2,5.8,3.3c0.2,0.1,0.4,0.1,0.4,0.5c0,1.4,0,2.9,0,4.2c0,0.4-0.7,0.7-1,0.6
		c-0.5-0.3-1-0.6-1.5-0.9c-1.4-0.7-2.7-1.7-4-2.3C133.1,90.9,132.8,90.7,132.3,90.5z M136.2,91.9c0.3,0.2,0.6,0.3,0.9,0.1
		c0.4-0.1,0.4-0.5,0.4-0.9c-0.1-0.9-0.5-1.5-1.2-1.9c-0.6-0.4-1.2-0.1-1.2,0.9C135.2,90.7,135.6,91.4,136.2,91.9z"/>
	<path fill="#323232" d="M132.1,125.7c-0.1-0.1-0.1-0.2-0.1-0.4c0-1.1-0.1-2.1-0.1-3.1c0-1.4,0-1.4,1.3-2.1
		c-0.1,0.4,0.1,0.6,0.5,0.9c1.9,1.1,3.9,2.2,5.8,3.3c0.3,0.1,0.4,0.3,0.4,0.6c0,1.4,0,2.7,0,4c0,0.3-0.1,0.4-0.3,0.5
		c-0.4,0.3-0.6,0.3-0.9,0c-0.4-0.2-0.7-0.4-1.1-0.6c-0.5-0.3-0.5-0.3-0.2-0.8c0.1-0.1,0.3-0.2,0.1-0.4c-0.2-0.2-0.3,0-0.4,0.1
		c-0.3,0.4-0.6,0.6-0.9,0.1c-0.1-0.1-0.2-0.1-0.3-0.1c-0.5-0.2-0.9-0.4-1.2-0.9c-0.2-0.5-0.6-0.6-1.2-0.4
		C133,126.3,132.6,125.9,132.1,125.7z M136.3,127.1c0.6,0.3,1.1,0,1.1-0.6c0-0.9-0.4-1.6-1.2-2.1c-0.3-0.2-0.6-0.3-0.9-0.1
		c-0.3,0.2-0.3,0.5-0.4,0.9C135.1,125.9,135.4,126.6,136.3,127.1z"/>
	<path fill="#E1E1E1" d="M185.5,39.7c-0.2-0.4-0.4-0.5-0.7-0.1c-0.2,0.2-0.4,0.4-0.6,0.7c-0.1-0.3-0.2-0.6-0.6-0.8
		c0.2,0.4,0.4,0.7,0.4,1.2c0,0.2,0.2,0.1,0.3-0.1c0.2-0.2,0.4-0.4,0.6-0.6C184.9,39.7,185.1,39.6,185.5,39.7L185.5,39.7z"/>
	<path fill="#E1E1E1" d="M174.2,161.8c-0.4,0.4-0.5,0.8-0.1,1.3C174,162.6,173.9,162.2,174.2,161.8z"/>
	<path fill="#E1E1E1" d="M185.5,41.3c-0.1-0.4-0.4-0.4-0.5-0.7c-0.1-0.1-0.2,0-0.3,0.1c-0.1,0.1-0.1,0.2-0.1,0.2
		C185,40.8,185.2,41.3,185.5,41.3L185.5,41.3z"/>
	<path fill="#E1E1E1" d="M185.5,39.7c-0.1,0.2-0.3,0.3-0.4,0.6c0.3-0.1,0.4-0.3,0.5-0.4C185.6,39.8,185.5,39.7,185.5,39.7
		L185.5,39.7z"/>
	<path fill="#E1E1E1" d="M184,41.3c-0.1,0.2-0.3,0.4-0.1,0.7C184,41.8,184,41.5,184,41.3z"/>
	<path fill="#E1E1E1" d="M139.5,67.8c-0.2,0.1-0.4,0.1-0.4,0.4C139.3,68.2,139.5,68,139.5,67.8L139.5,67.8z"/>
	<path fill="#E1E1E1" d="M138.8,68.5c0.1,0,0.1,0,0.1-0.1l-0.1-0.1C138.9,68.3,138.9,68.5,138.8,68.5
		C138.9,68.5,138.8,68.5,138.8,68.5z"/>
	<path fill="#E1E1E1" d="M184.7,41.3c-0.1-0.1-0.1-0.1-0.1-0.1C184.5,41.3,184.7,41.3,184.7,41.3L184.7,41.3z"/>
	<path fill="#E1E1E1" d="M174.3,161.6L174.3,161.6L174.3,161.6z"/>
	<path fill="#323232" d="M143.3,111.9c0-1.4,0-2.7,0-4.2c0-4.7,0.1-9.3,0.1-14c0-0.6,0.1-1.1,0.7-1.4c0.4-0.2,0.9-0.4,1.2-0.7
		c0.3-0.2,0.4-0.1,0.6,0c1.1,0.6,2.2,1.2,3.2,1.9c5.5,3.2,10.9,6.3,16.3,9.4c3.2,1.9,6.3,3.7,9.4,5.5c0.2,0.1,0.4,0.3,0.4,0.5
		c-0.1,0.9,0,2-0.1,3c0,0.4,0.1,0.4,0.4,0.5c0.8,0.1,0.9,0.4,0.9,1.2c0,1.9,0,3.7,0,5.5c0,0.9-0.2,1.2-1.1,1.2
		c-0.3,0.1-0.4,0.1-0.4,0.4c0,4.3-0.1,8.6-0.1,12.9c0,0.3,0.1,0.4,0.4,0.4c0.8,0.1,1.1,0.4,1.1,1.2c0,1.9,0,3.7,0,5.5
		c0,0.9-0.3,1.2-1.2,1.2c-0.4,0.1-0.4,0.1-0.4,0.4c0,1.2,0,2.4,0,3.5c0,0.3-0.1,0.4-0.4,0.6c-0.6,0.3-1.1,0.6-1.7,0.9
		c-0.3,0.1-0.4,0.1-0.7,0c-3.2-1.9-6.3-3.7-9.5-5.5c-6.5-3.7-12.9-7.4-19.3-11.2c-0.4-0.2-0.5-0.4-0.5-0.9c0-6,0-12.1,0-18.1
		C143.2,111.9,143.2,111.9,143.3,111.9z M164.5,131.4c0.2,0.1,0.3-0.1,0.4-0.1c2.1-1.1,3-2.9,3.1-5c0.3-2.9-0.4-5.6-1.7-8.1
		c-1.4-3-3.2-5.5-5.8-7.6c-1.5-1.2-3.2-2.2-5.1-2.4c-1.4-0.2-2.7,0.2-4,1.1c-0.1,0.1-0.1,0.1-0.1,0.1c0.4,0,0.9-0.2,1.2-0.2
		c1.7-0.1,3.3,0.6,4.8,1.4c2.7,1.7,4.8,4.2,6.3,7.1c1.3,2.3,2.2,4.8,2.4,7.5c0.1,1.9,0,3.7-1,5.3
		C165.1,130.8,164.7,131.1,164.5,131.4c-0.1,0.1-0.1,0.1-0.1,0.1c-0.1,0-0.1,0.1-0.1,0.1s0.1,0,0.1,0.1c0-0.1,0.1-0.1,0.1-0.1
		C164.5,131.5,164.6,131.6,164.5,131.4z M153.2,127.1c1.5,1.9,3.2,3.3,5.5,4.2c1.4,0.5,2.8,0.6,4.2-0.1c1.5-0.9,2.2-2.2,2.4-3.9
		c0.4-2.1,0-4.1-0.6-6.1c-1.4-4-3.6-7.3-7.1-9.6c-1.2-0.8-2.5-1.4-4-1.4c-2.1-0.1-3.5,0.9-4.2,3c-0.4,1-0.5,2-0.5,3.3
		C149,120.3,150.6,123.9,153.2,127.1z"/>
	<path fill="#FEFEFE" d="M185.2,42.4c-0.1,0-0.1,0-0.1,0.1l0.1,0.1C185.2,42.6,185.2,42.5,185.2,42.4L185.2,42.4z"/>
	<path fill="#FEFEFE" d="M133.6,126.7C133.7,126.7,133.7,126.7,133.6,126.7C133.7,126.7,133.7,126.7,133.6,126.7
		C133.7,126.7,133.6,126.7,133.6,126.7z"/>
	<path fill="#FEFEFE" d="M135.1,90c0.1,0.7,0.4,1.4,1.2,1.9c0.3,0.2,0.6,0.3,0.9,0.1c0.4-0.1,0.4-0.5,0.4-0.9
		c-0.1-0.9-0.5-1.5-1.2-1.9C135.6,88.8,135.1,89.1,135.1,90z"/>
	<path fill="#E1E1E1" d="M135,125c0.1,0.9,0.5,1.6,1.3,2c0.6,0.3,1.1,0,1.1-0.6c0-0.9-0.4-1.6-1.2-2.1c-0.3-0.2-0.6-0.3-0.9-0.1
		C135.1,124.4,135.1,124.7,135,125z"/>
	<path fill="#E1E1E1" d="M149.3,113.1c0.7-1.9,2.2-3,4.2-3c1.4,0.1,2.7,0.6,4,1.4c3.5,2.3,5.8,5.7,7.1,9.6c0.6,2,1,4,0.6,6.1
		c-0.3,1.7-0.9,3.1-2.4,3.9c-1.4,0.7-2.7,0.6-4.2,0.1c-2.2-0.9-4-2.3-5.5-4.2c-2.6-3.2-4.2-6.7-4.4-10.7
		C148.9,115.1,149,114.1,149.3,113.1z M156.2,122.9c-0.1-0.4-0.2-0.7,0-1.2c0.2-0.5-0.3-1.4-0.9-1.7c-0.4-0.1-0.6,0-0.7,0.4
		c0,0.1-0.1,0.2,0,0.4c0.3,0.6,0.1,1.1-0.1,1.6c-0.1,0.3-0.1,0.5,0.2,0.6c0.6,0.3,1.2,0.6,1.7,1
		C156.3,123.6,156.2,123.3,156.2,122.9z M162.9,128.3c0.3,0.4,0.6,0.7,0.9,1.1c0.1,0.1,0.1,0.1,0.1,0.1c0.1-0.1,0.1-0.1,0.1-0.2
		c-0.3-0.4-0.6-0.7-0.9-1.2c0-0.1-0.1-0.1-0.1-0.1C163,128.1,162.9,128.1,162.9,128.3z M150.3,112.6c0.3,0.4,0.6,0.7,0.9,1.1
		c0.1,0.1,0.2,0,0.2-0.1c0.1-0.1-0.9-1.2-0.9-1.3C150.3,112.3,150.3,112.4,150.3,112.6z M163.9,120.6c0.1-0.1,0.3,0.1,0.3-0.1
		c-0.1-0.1-0.1-0.4-0.3-0.4s-0.4,0.1-0.6,0.1c-0.1,0-0.3-0.1-0.3,0.1c0.1,0.1,0.1,0.4,0.3,0.4c0.1,0,0.1,0,0.2,0
		C163.6,120.6,163.7,120.6,163.9,120.6z M157.3,113.2c0.2-0.9,0.1-1.4-0.4-1.5C157.2,112.2,156.7,112.8,157.3,113.2z M149.5,116.6
		c0.3,0.1,0.5,0.3,0.7,0.4c0.1,0.1,0.2,0.2,0.3,0.1s0.1-0.3-0.1-0.4c-0.3-0.2-0.6-0.4-0.9-0.5c-0.1-0.1-0.2-0.1-0.2,0.1
		C149.2,116.5,149.3,116.6,149.5,116.6z M164,124.6c-0.1,0.4,0,0.5,1.1,0.9C165.1,125.2,164.9,125,164,124.6z M153.9,112.1
		c-0.1-0.4-0.4-0.9-0.5-1.3c-0.1-0.1-0.1-0.1-0.2-0.1c-0.1,0.1-0.1,0.1-0.1,0.2c0.1,0.4,0.3,0.8,0.4,1.2c0.1,0.1,0.1,0.1,0.2,0.1
		C153.9,112.2,153.9,112.2,153.9,112.1z M160.9,131c0.1,0.1,0.1,0.1,0.2,0.1c0.1-0.1,0.1-0.1,0.1-0.2c-0.1-0.4-0.3-0.8-0.4-1.2
		c-0.1-0.1-0.1-0.2-0.2-0.1c-0.1,0.1-0.1,0.1-0.1,0.1C160.6,130.1,160.8,130.5,160.9,131z M156.9,129.6c0,0.2,0.1,0.4,0.3,0.4
		s0.1-0.2,0.1-0.4c0.1-0.2,0-0.4,0.1-0.6c0.1-0.3-0.1-0.4-0.4-0.4C156.9,128.9,157,129.3,156.9,129.6z M151.3,121.7
		c0.1-0.1,0.1-0.1,0-0.3s-0.1-0.2-0.3-0.2c-0.3,0.1-0.6,0.1-0.9,0.1C150.3,121.7,151,121.9,151.3,121.7z M160.6,116.3
		c0.1,0.1,0.1-0.1,0.2-0.1c0.1-0.2,0.3-0.4,0.4-0.5c0.1-0.1-0.1-0.3-0.1-0.4c-0.1-0.1-0.2,0.1-0.2,0.1c-0.1,0.2-0.3,0.4-0.4,0.6
		C160.5,116,160.5,116.2,160.6,116.3z M153.4,126.6c0.1,0.1,0.1-0.1,0.2-0.1c0.1-0.1,0.2-0.3,0.4-0.4c0.1-0.2,0.1-0.3-0.1-0.4
		c-0.2-0.1-0.2,0.1-0.3,0.1c-0.1,0.2-0.3,0.4-0.4,0.6C153.1,126.4,153.2,126.5,153.4,126.6z"/>
	<path fill="#E1E1E1" d="M164.5,131.4c0.2,0.1,0.3-0.1,0.4-0.1c2.1-1.1,3-2.9,3.1-5c0.3-2.9-0.4-5.6-1.7-8.1c-1.4-3-3.2-5.5-5.8-7.6
		c-1.5-1.2-3.2-2.2-5.1-2.4c-1.4-0.2-2.7,0.2-4,1.1c-0.1,0.1-0.1,0.1-0.1,0.1c0.4,0,0.9-0.2,1.2-0.2c1.7-0.1,3.3,0.6,4.8,1.4
		c2.7,1.7,4.8,4.2,6.3,7.1c1.3,2.3,2.2,4.8,2.4,7.5c0.1,1.9,0,3.7-1,5.3C165.1,130.8,164.7,131.1,164.5,131.4L164.5,131.4z"/>
	<path fill="#E1E1E1" d="M164.5,131.4c-0.1,0-0.1,0-0.1,0.1l0,0C164.5,131.5,164.6,131.6,164.5,131.4L164.5,131.4z"/>
	<path fill="#E1E1E1" d="M164.4,131.5C164.4,131.5,164.4,131.6,164.4,131.5C164.4,131.6,164.4,131.6,164.4,131.5
		C164.4,131.6,164.4,131.6,164.4,131.5L164.4,131.5z"/>
	<path fill="#323232" d="M156.4,124c-0.1-0.4-0.2-0.8-0.3-1.2c-0.1-0.4-0.2-0.7,0-1.2c0.2-0.5-0.3-1.4-0.9-1.7
		c-0.4-0.1-0.6,0-0.7,0.4c0,0.1-0.1,0.2,0,0.4c0.3,0.6,0.1,1.1-0.1,1.6c-0.1,0.3-0.1,0.5,0.2,0.6C155.2,123.3,155.8,123.7,156.4,124
		z"/>
	<path fill="#323232" d="M163.1,128c-0.1,0.1-0.3,0.1-0.1,0.3c0.3,0.4,0.6,0.7,0.9,1.1c0.1,0.1,0.1,0.1,0.1,0.1
		c0.1-0.1,0.1-0.1,0.1-0.2C163.7,128.9,163.4,128.5,163.1,128C163.1,128.1,163.1,128.1,163.1,128z"/>
	<path fill="#323232" d="M150.5,112.3c-0.1,0.1-0.2,0.1-0.1,0.3c0.3,0.4,0.6,0.7,0.9,1.1c0.1,0.1,0.2,0,0.2-0.1
		C151.5,113.5,150.6,112.3,150.5,112.3z"/>
	<path fill="#323232" d="M163.5,120.6c0.1,0,0.2,0,0.4-0.1s0.3,0.1,0.3-0.1c-0.1-0.1-0.1-0.4-0.3-0.4s-0.4,0.1-0.6,0.1
		c-0.1,0-0.3-0.1-0.3,0.1c0.1,0.1,0.1,0.4,0.3,0.4C163.4,120.6,163.4,120.6,163.5,120.6z"/>
	<path fill="#323232" d="M157,111.7c0.2,0.5-0.3,1.2,0.4,1.5C157.5,112.3,157.5,111.9,157,111.7z"/>
	<path fill="#323232" d="M149.2,116.3c-0.1,0.1,0.1,0.2,0.2,0.3c0.3,0.1,0.5,0.3,0.7,0.4c0.1,0.1,0.2,0.2,0.3,0.1s0.1-0.3-0.1-0.4
		c-0.3-0.2-0.6-0.4-0.9-0.5C149.3,116.1,149.2,116.2,149.2,116.3z"/>
	<path fill="#323232" d="M165.1,125.6c0-0.4-0.1-0.5-1.1-0.9C163.9,125,164,125.1,165.1,125.6z"/>
	<path fill="#323232" d="M153.9,112.3c0.1-0.1,0.1-0.1,0.1-0.2c-0.1-0.4-0.4-0.9-0.5-1.3c-0.1-0.1-0.1-0.1-0.2-0.1
		c-0.1,0.1-0.1,0.1-0.1,0.2c0.1,0.4,0.3,0.8,0.4,1.2C153.6,112.2,153.7,112.3,153.9,112.3z"/>
	<path fill="#323232" d="M160.4,129.6c0.2,0.4,0.4,0.9,0.5,1.3c0.1,0.1,0.1,0.1,0.2,0.1c0.1-0.1,0.1-0.1,0.1-0.2
		c-0.1-0.4-0.3-0.8-0.4-1.2c-0.1-0.1-0.1-0.2-0.2-0.1C160.5,129.6,160.4,129.6,160.4,129.6z"/>
	<path fill="#323232" d="M156.9,128.5c0,0.4,0,0.7,0,1.1c0,0.2,0.1,0.4,0.3,0.4s0.1-0.2,0.1-0.4c0.1-0.2,0-0.4,0.1-0.6
		C157.5,128.7,157.2,128.6,156.9,128.5z"/>
	<path fill="#323232" d="M150.3,121.2c0.1,0.4,0.8,0.6,1.1,0.4c0.1-0.1,0.1-0.1,0-0.3s-0.1-0.2-0.3-0.2
		C150.8,121.2,150.5,121.2,150.3,121.2z"/>
	<path fill="#323232" d="M160.5,115.9c0.1,0.1,0.1,0.2,0.2,0.3c0.1,0.1,0.1-0.1,0.2-0.1c0.1-0.2,0.3-0.4,0.4-0.5
		c0.1-0.1-0.1-0.3-0.1-0.4c-0.1-0.1-0.2,0.1-0.2,0.1C160.7,115.5,160.5,115.8,160.5,115.9z"/>
	<path fill="#323232" d="M153.1,126.3c0.1,0.2,0.1,0.3,0.2,0.3c0.1,0.1,0.1-0.1,0.2-0.1c0.1-0.1,0.2-0.3,0.4-0.4
		c0.1-0.2,0.1-0.3-0.1-0.4c-0.2-0.1-0.2,0.1-0.3,0.1C153.4,125.9,153.2,126.1,153.1,126.3z"/>
	<path fill="#FDC830" d="M257.8,184.5l-22.5-13c-0.4-0.3-0.9-0.3-1.2-0.1l0,0l-2.2,1.3c0,0,1,0.4,1.5,0.6v16.4
		c0,1.4,0.9,2.9,1.9,3.5l21.6,12.5v1.9l2.2-1.3l0,0c0.4-0.3,0.6-0.7,0.6-1.4V188C259.6,186.5,258.8,185,257.8,184.5z"/>
	<path fill="#1E2430" d="M255.5,207.4l-22.5-13c-1-0.6-1.9-2.2-1.9-3.5v-16.8c0-1.4,0.9-1.9,1.9-1.4l22.5,13c1,0.6,1.9,2.2,1.9,3.5
		V206C257.4,207.3,256.5,207.9,255.5,207.4z"/>
	<path fill="#FFFFFF" d="M255.5,185.8l-22.5-13c-0.6-0.4-1.1-0.3-1.4,0.1c0.3,0,0.5,0.1,0.9,0.1l22.5,13c1,0.6,1.9,2.2,1.9,3.5v16.8
		c0,0.6-0.1,1-0.4,1.3c0.6-0.1,1-0.6,1-1.6v-16.8C257.4,187.9,256.5,186.3,255.5,185.8z"/>
	<path fill="#FFFFFF" d="M240.6,188.6c0,1-0.7,1.4-1.5,0.9c-0.9-0.4-1.5-1.7-1.5-2.7s0.7-1.4,1.5-0.9
		C239.8,186.4,240.6,187.6,240.6,188.6z"/>
	<path fill="#FFFFFF" d="M245.2,191.2c0,1-0.7,1.4-1.5,0.9c-0.9-0.4-1.5-1.7-1.5-2.7s0.7-1.4,1.5-0.9
		C244.5,189.1,245.2,190.3,245.2,191.2z"/>
	<path fill="#FFFFFF" d="M249.8,193.9c0,1-0.7,1.4-1.5,0.9c-0.9-0.4-1.5-1.7-1.5-2.7s0.7-1.4,1.5-0.9
		C249.1,191.7,249.8,192.9,249.8,193.9z"/>
	<path fill="#FDC830" d="M148,176.1l-22.5-13c-0.4-0.3-0.9-0.3-1.2-0.1l0,0l-2.2,1.3c0,0,1,0.4,1.5,0.6v16.4c0,1.4,0.9,2.9,1.9,3.5
		l21.6,12.5v1.9l2.2-1.3l0,0c0.4-0.3,0.6-0.7,0.6-1.4v-16.7C149.8,178.1,149,176.6,148,176.1z"/>
	<path fill="#1E2430" d="M145.7,198.9l-22.5-13c-1-0.6-1.9-2.2-1.9-3.5v-16.8c0-1.4,0.9-1.9,1.9-1.4l22.5,13c1,0.6,1.9,2.2,1.9,3.5
		v16.8C147.5,198.9,146.7,199.5,145.7,198.9z"/>
	<path fill="#FFFFFF" d="M145.7,177.3l-22.5-13c-0.6-0.4-1.1-0.3-1.4,0.1c0.3,0,0.5,0.1,0.9,0.1l22.5,13c1,0.6,1.9,2.2,1.9,3.5v16.8
		c0,0.6-0.1,1-0.4,1.3c0.6-0.1,1-0.6,1-1.6v-16.8C147.5,179.5,146.7,177.9,145.7,177.3z"/>
	<path fill="#FFFFFF" d="M130.8,180.2c0,1-0.7,1.4-1.5,0.9c-0.9-0.4-1.5-1.7-1.5-2.7s0.7-1.4,1.5-0.9
		C130,178,130.8,179.1,130.8,180.2z"/>
	<path fill="#FFFFFF" d="M135.4,182.8c0,1-0.7,1.4-1.5,0.9c-0.9-0.4-1.5-1.7-1.5-2.7s0.7-1.4,1.5-0.9
		C134.7,180.7,135.4,181.9,135.4,182.8z"/>
	<path fill="#FFFFFF" d="M140,185.5c0,1-0.7,1.4-1.5,0.9c-0.9-0.4-1.5-1.7-1.5-2.7s0.7-1.4,1.5-0.9C139.3,183.3,140,184.5,140,185.5
		z"/>
	<path fill="#1E2430" d="M84.1,162.2l-22.5-13c-1-0.6-1.9-2.2-1.9-3.5v-37.8c0-1.4,0.9-1.9,1.9-1.4l22.5,13c1,0.6,1.9,2.2,1.9,3.5
		v37.7C85.9,162.1,85.1,162.7,84.1,162.2z"/>
	<path fill="#F37335" d="M81.9,114.6l-22.5-13.1c-0.4-0.3-0.9-0.3-1.2-0.1l0,0l-2.2,1.3c0,0,1,0.4,1.5,0.6v37.4
		c0,1.4,0.9,2.9,1.9,3.5L81,156.5v1.9l2.2-1.3l0,0c0.4-0.3,0.6-0.7,0.6-1.4V118C83.8,116.7,82.8,115.2,81.9,114.6z"/>
	<path fill="#1E2430" d="M79.7,158.4l-22.5-13c-1-0.6-1.9-2.2-1.9-3.5v-37.8c0-1.4,0.9-1.9,1.9-1.4l22.5,13c1,0.6,1.9,2.2,1.9,3.5
		V157C81.5,158.4,80.7,159,79.7,158.4z"/>
	<path fill="#FFFFFF" d="M79.7,115.9l-22.5-13c-0.6-0.4-1.1-0.3-1.4,0.1c0.3,0,0.5,0.1,0.9,0.1l22.5,13c1,0.6,1.9,2.2,1.9,3.5v37.7
		c0,0.6-0.1,1-0.4,1.3c0.6-0.1,1-0.6,1-1.6v-37.8C81.5,118,80.7,116.4,79.7,115.9z"/>
	<polygon fill="#FFFFFF" points="75.6,124.4 60.4,115.6 60.4,114.6 75.6,123.3 	"/>
	<polygon fill="#FFFFFF" points="70.9,126.5 60.4,120.4 60.4,119.3 70.9,125.4 	"/>
	<polygon fill="#FFFFFF" points="69.5,123.3 60.4,118 60.4,116.9 69.5,122.1 	"/>
	<polygon fill="#FFFFFF" points="75.6,126.7 70.9,124.2 70.9,123 75.6,125.7 	"/>
	<polygon fill="#FFFFFF" points="75.6,133.6 60.4,124.8 60.4,123.8 75.6,132.4 	"/>
	<polygon fill="#FFFFFF" points="70.9,135.7 60.4,129.5 60.4,128.5 70.9,134.7 	"/>
	<polygon fill="#FFFFFF" points="69.5,132.5 60.4,127.2 60.4,126.1 69.5,131.3 	"/>
	<polygon fill="#FFFFFF" points="75.6,136 70.9,133.3 70.9,132.2 75.6,134.8 	"/>
	<polygon fill="#FFFFFF" points="75.6,142.7 60.4,134 60.4,132.9 75.6,141.6 	"/>
	<polygon fill="#FFFFFF" points="70.9,144.9 60.4,138.8 60.4,137.8 70.9,143.7 	"/>
	<polygon fill="#FFFFFF" points="69.5,141.6 60.4,136.5 60.4,135.3 69.5,140.6 	"/>
	<polygon fill="#FFFFFF" points="75.6,145.1 70.9,142.5 70.9,141.4 75.6,144 	"/>
</g>
</svg>
