<?xml version="1.0" encoding="utf-8"?>
<!-- Generator: Adobe Illustrator 18.0.0, SVG Export Plug-In . SVG Version: 6.00 Build 0)  -->
<!DOCTYPE svg PUBLIC "-//W3C//DTD SVG 1.1//EN" "http://www.w3.org/Graphics/SVG/1.1/DTD/svg11.dtd">
<svg version="1.1" id="Layer_1" xmlns="http://www.w3.org/2000/svg" xmlns:xlink="http://www.w3.org/1999/xlink" x="0px" y="0px"
	 viewBox="0 0 300 300" enable-background="new 0 0 300 300" xml:space="preserve">
<path fill="#1E2430" d="M245.6,213.2C192.3,244,106,244,52.7,213.2s-53.3-80.5,0-111.3s139.6-30.8,192.9,0S298.9,182.5,245.6,213.2z
	"/>
<path fill="#323A4F" d="M245.6,216.7c-53.3,30.8-139.6,30.8-192.9,0s-53.3-80.5,0-111.3s139.6-30.8,192.9,0S298.9,186,245.6,216.7z"
	/>
<g>
	<g>
		<g>
			<path fill="#292929" d="M140.4,148.1c0-0.9,0.3-1.8,0-2.8c-0.2-0.8-0.2-2,1.3-2.1c3.1,2.3,6.7,3,10.4,3.3c0.5,0,0.9-0.1,1-0.7
				c0.2-1.7,1.5-2.4,2.9-2.9c1.5-0.5,3.1-0.7,4.7-0.3c1.8,0.5,3.4,1.1,5.3,0.4c1.1-0.4,0.5,0.8,0.9,1.2c-0.2,1.2-2.1,0.8-2.1,2.3
				c0,2.9-1.9,4.6-4,6.2c-1.9,1.4-4.1,1.9-6.2,2.6c-1.4,0.2-2.7,0.4-4.1,0.6c-1.7,0-3.4,0-5.1,0.1c-1.6-0.4-3.2-0.7-4.8-1.1
				c1.3-0.7,2.8-0.2,4.1-0.9c0.8-0.1,1.6,0,2.5-0.9c-1.3-0.3-2.3-0.5-3.4-0.8c-0.3-0.4-0.7-0.8-1-1.2c0.3-0.4,1.1,0.1,1.1-0.7
				C142.6,150,141.6,148.9,140.4,148.1z"/>
		</g>
		<g>
			<path fill="#292929" d="M84.4,142.3c0.8,0.8,1.7,1.2,2.7,1.5c2.2,1.6,3.4,3.6,3.2,6.4c-0.1,0.2-0.2,0.5-0.3,0.7
				c-0.5,0.7-0.9,1.6-1.5,2c-3,2-5.5,4.6-8.8,6.3c-0.8,0-1.7,0-2.5,0c-0.5,0-0.9-0.1-1.4-0.1c-1.6-0.5-3.2-1-4.8-1.5
				c-0.4-0.5-0.9-1-1.5-1.2c-0.4-0.7-1-1.1-1.8-1.2c-1.7-1.2-3.4-2.4-4.3-4.4c-0.5-3,0.8-5.2,3.3-6.8c1.5-1,3-1.9,4.4-3.1
				c2.9-2.5,9.3-2,12.3,0.7C83.8,141.7,84.1,142,84.4,142.3z M78.2,143.4c-0.9,0-1.6,0-2.4,0.3c-2.9,0.9-3.3,2.6-1.3,4.9
				c0.7,0.8,1.5,1.4,2.3,2.1c0.7,0.7,0.5,1.3-0.4,1.7c-2,0.9-5.1-0.6-5.3-2.7c-0.1-0.8,0-1.7-1.1-1.8c-0.8-0.1-1.6-0.2-2.2,0.6
				c-0.6,0.8-0.4,1.6,0.1,2.4c2,3.7,9.4,5.3,12.7,2.8c1.2-0.9,1.5-1.9,0.4-3.1c-1-1-2-2-3-3c-0.4-0.4-1-0.7-0.6-1.4
				c0.3-0.5,0.9-0.5,1.5-0.6c2.1-0.1,3.7,1.1,4.2,3.2c0.2,0.7,0.6,1.1,1.2,1.2c0.7,0.1,1.5,0.1,2-0.5c0.5-0.6,0.4-1.2,0.1-1.9
				c-0.4-0.8-1-1.5-1.8-2C82.6,144.2,80.4,143.5,78.2,143.4z"/>
			<path fill="#292929" d="M78.2,143.4c2.2,0.1,4.5,0.8,6.5,2.2c0.8,0.5,1.4,1.2,1.8,2c0.3,0.6,0.5,1.3-0.1,1.9
				c-0.6,0.6-1.3,0.6-2,0.5c-0.6-0.1-1.1-0.4-1.2-1.2c-0.5-2.1-2.1-3.2-4.2-3.2c-0.6,0-1.2,0-1.5,0.6c-0.4,0.7,0.3,1,0.6,1.4
				c1,1,2,1.9,3,3c1.1,1.1,0.8,2.2-0.4,3.1c-3.3,2.5-10.7,0.9-12.7-2.8c-0.4-0.8-0.6-1.6-0.1-2.4c0.5-0.8,1.4-0.7,2.2-0.6
				c1,0.2,1,1,1.1,1.8c0.2,2.1,3.3,3.7,5.3,2.7c0.9-0.4,1.1-1,0.4-1.7c-0.7-0.7-1.6-1.4-2.3-2.1c-2-2.2-1.6-3.9,1.3-4.9
				C76.5,143.4,77.2,143.4,78.2,143.4z"/>
		</g>
		<g>
			<path fill="#292929" d="M103.4,209.7c-0.6-0.5-1.3-0.9-1.2-1.8c0.1-1.8,1.4-2.7,2.5-3.9c0.6-0.7,1.2-1.3,1.8-2
				c1.1-1,2.8-1.7,2.7-3.3c-0.1-1.3-1.8-0.4-2.6-1.1c0-0.9,0.5-1.1,1.3-1.1c2.6,0.2,5.2,0.2,7.8,0.4c1.9,0.2,2.5,0.9,2.4,2.8
				c-2.2,1.7-4.1,3.6-6.1,5.5c-0.3,0.3-0.9,0.7-0.7,1.2c0.2,0.6,0.9,0.5,1.4,0.5c1.9-0.1,3.9-0.3,5.7-1c0.3-0.1,0.6-0.1,0.9-0.2
				c0.5-0.2,1.1-0.4,1.1-1c0-0.5-0.5-0.8-0.9-1c-0.3-0.1-0.5-0.2-0.8-0.4c0-0.1,0-0.2-0.1-0.3c3-1.1,5.9-1.1,8.9,0
				c1.6,0.6,2.6,1.6,2.2,3.5c-2,1.6-4.5,2.2-6.9,2.8c-2.9,0.3-5.9,0.6-8.8,1c-0.7,0-1.5,0-2.2,0c-2.1,0.2-4.2-0.6-6.3,0
				C104.8,210.2,104.1,209.9,103.4,209.7z"/>
		</g>
		<g>
			<path fill="#292929" d="M136.6,175.7c0-1.4,0.8-2.2,1.9-2.9c2.1-1.3,4.2-2.7,6.3-4c1.8-1,3.7-1.7,5.7-2.2c0.6,0,1.2,0.1,1.8,0.1
				c6.7,3,12.9,6.8,19.1,10.7c1,0.6,1.4,1.5,1.2,2.6c-3.8,3.4-8.1,5.8-12.9,7.5c-0.6,0.1-1.2,0.1-1.8,0.2c-0.6,0-1.1-0.2-1.7-0.4
				c-3.2-1.3-6.1-3.3-9.2-4.7c-3.3-2.4-7.1-4.1-10.3-6.7C136.7,175.9,136.6,175.8,136.6,175.7z M158.9,179.3c-1-1.9-1.8-3.5-2.6-5
				c-0.2-0.4-0.5-0.7-1-0.3c-1.9,1.1-3.8,2.3-6.2,3.6C152.5,178.2,155.5,178.7,158.9,179.3z"/>
			<path fill="#292929" d="M158.9,179.3c-3.4-0.6-6.4-1.1-9.8-1.7c2.3-1.4,4.2-2.5,6.2-3.6c0.5-0.3,0.8-0.1,1,0.3
				C157.1,175.8,157.9,177.4,158.9,179.3z"/>
		</g>
		<g>
			<path fill="#292929" d="M166.7,198.7c3.5,2.1,7.1,4.2,10.6,6.3c0.7,0.4,1.4,0.8,0.9,1.9c-2.2,1.2-4.4,2.5-6.7,3.7
				c-4.1,2.2-7.9,4.9-12.2,6.8c-0.6-0.1-1.2-0.2-1.7-0.3c-5.7-3.3-11.4-6.7-17.1-10c-0.2-0.1-0.6-0.1-0.9-0.2
				c-0.3-1.3,0.6-1.7,1.5-2.2c2.8-1.7,5.6-3.4,8.4-5c0.1,0,0.2,0,0.3-0.1c2.3-1.3,4.5-2.6,6.8-3.9c1.6-0.9,3.1-0.9,4.6,0.1
				C163,196.7,164.8,197.7,166.7,198.7z M155.5,213.2c1.6,0.5,2.6,2.1,3.7,1.5c2.6-1.2,5-2.8,7.4-4.4c1.2-0.8,1.1-2.1,0-3.1
				c-1.1-0.9-2.4-1.4-3.8-1.5c-0.4,0-0.9,0.3-0.9-0.7c0.1-0.7-2.7-1.7-3.4-1.4c-3.2,1.8-6.3,3.7-9.5,5.5c2.9,2.2,2.9,2.2,5.8,0.5
				c1-0.6,2-1.2,3-1.7c0.9-0.5,1.8-0.8,2.8-0.5c0.7,0.2,1.6,0.3,1.7,1.2c0.1,0.8-0.7,1.1-1.2,1.4C159.4,211,157.7,212,155.5,213.2z
				 M143.6,206.3c1.7,0.4,2.5,2.3,4.2,1.4c3.1-1.7,6.2-3.6,9.5-5.5c-1.4-0.6-2.4-2.3-3.8-1.6C150.2,202.3,147.1,204.3,143.6,206.3z
				 M158.9,200.9c1-0.3,2.6-0.1,2.5-1.7c-0.1-1.3-1.5-1.5-2.6-1.4c-1.1,0-2.5,0.1-2.5,1.5C156.4,200.7,157.8,200.7,158.9,200.9z"/>
			<path fill="#EDEDED" d="M155.5,213.2c2.1-1.2,3.9-2.2,5.7-3.3c0.6-0.3,1.4-0.7,1.2-1.4c-0.1-0.8-1-1-1.7-1.2
				c-1-0.3-1.9,0.1-2.8,0.5c-1,0.6-2,1.1-3,1.7c-2.9,1.7-2.9,1.7-5.8-0.5c3.2-1.9,6.3-3.7,9.5-5.5c0.6-0.4,3.4,0.7,3.4,1.4
				c-0.1,1,0.4,0.7,0.9,0.7c1.4,0.1,2.7,0.6,3.8,1.5c1.2,1,1.3,2.2,0,3.1c-2.4,1.6-4.8,3.2-7.4,4.4
				C158.1,215.3,157.1,213.7,155.5,213.2z"/>
			<path fill="#EDEDED" d="M143.6,206.3c3.5-2,6.6-4,9.9-5.7c1.4-0.7,2.4,1,3.8,1.6c-3.3,1.9-6.4,3.8-9.5,5.5
				C146.2,208.6,145.3,206.7,143.6,206.3z"/>
			<path fill="#EDEDED" d="M158.9,200.9c-1.1-0.2-2.5-0.2-2.5-1.6c0-1.4,1.4-1.5,2.5-1.5c1.1,0,2.5,0.2,2.6,1.4
				C161.5,200.7,159.9,200.6,158.9,200.9z"/>
		</g>
		<g>
			<path fill="#292929" d="M190.9,171c5.2-0.9,10.3-0.4,14.9,2.4c1.9,1.2,3.3,2.8,3.7,5.1c-1.8,0-3.6,0-5.4,0c0-0.1-0.1-0.2-0.1-0.2
				c-0.1-0.2-0.2-0.4-0.2-0.5c-0.3-1.2-1.1-2-2.2-2.5c-1.5-1.1-3.3-1.5-5.2-1.5c-0.6-0.3-1.2-0.2-1.8-0.1c-1.1,0.1-2.1,0.2-3.2,0.3
				C191.2,173.1,191.1,172,190.9,171z"/>
			<path fill="#292929" d="M180.2,181c-0.1-1.6-0.2-3.1,0.7-4.6c1.7,0.2,3.5,0.4,5.2,0.5c-1,3.5,0,5.3,3.5,6.6
				c1.1,0.4,2.1,0.8,3.3,0.7c0.1,0.1,0.3,0.2,0.4,0.3c0.1,1,0.2,2,0.3,2.9c-0.2,0.2-0.5,0.3-0.7,0.5c-3.1-1-6.3-1.4-9.1-3.1
				C182.6,183.7,181.2,182.5,180.2,181z"/>
			<path fill="#292929" d="M186.2,177c-1.7-0.2-3.5-0.4-5.2-0.5c2.4-3.5,5.9-4.9,9.9-5.4c0.2,1,0.3,2,0.5,3.1
				c-0.2,0.2-0.5,0.4-0.7,0.5C188.8,174.7,187.6,176.1,186.2,177z"/>
			<path fill="#292929" d="M195.7,178.8c0.1-0.1,0.2-0.2,0.3-0.3c1.5,0.1,2.5,1.4,3.8,1.8c0.9,0.9,2.1,1.4,3.3,1.9
				c0.6,1,2.4,0.7,2.3,2.3c-2.3,1.4-4.8,2.4-7.4,3c-1.3,0.1-2.6,0.1-3.9,0.2c-0.1,0-0.2-0.1-0.3-0.1c-0.1-1-0.2-2-0.3-2.9
				c0.7,0,1.5,0,2.2-0.1c0.3,0.1,0.7,0,0.9-0.2c0.2,0,0.5,0,0.7,0c0.5-0.1,1.3,0,1.3-0.7c0.1-0.6-0.7-0.6-1.1-0.8
				c-1.3-0.8-2.6-1.5-4-2.3C193.8,179.5,195.2,179.6,195.7,178.8z"/>
		</g>
		<g>
			<path fill="#404040" d="M101.6,148c0.2-3.5,2.3-5.7,5.4-7c6.5-2.7,13.1-2.7,19.4,0.8c2.7,1.5,4.4,3.7,3.8,7
				c-0.3,1.1-1,1.9-1.7,2.7c-1.5,1.6-3.5,2.3-5.4,3.3c-1.8,0.3-3.7,0.6-5.5,0.9c-1.2,0-2.4,0-3.7,0c-2.7-0.5-5.5-0.8-8-2.3
				c-1.6-1.3-3.3-2.5-4-4.5C101.8,148.7,101.7,148.4,101.6,148z M116.2,152.6c3.2,0,5.9-0.7,8.3-2.4c2-1.5,2.1-3.8,0.2-5.4
				c-1.8-1.6-4-2.5-6.4-2.9c-3.5-0.5-6.8-0.2-9.7,2.2c-0.8,0.7-1.3,1.6-0.4,2.4c0.7,0.6,1.6,0.1,2.2-0.6c2.7-3.2,9.1-3.4,12-0.4
				c0.7,0.8,1.1,1.6,0.4,2.6c-1.4,2-6.8,3.5-9.1,2.5c-0.5-0.2-1.1-0.5-1.1-1.1c0-0.7,0.5-0.9,1.1-1.1c1.3-0.5,2.7-0.9,4-1.4
				c0.5-0.2,1.1-0.5,1-1.2c-0.1-0.6-0.7-0.9-1.2-0.9c-1.4-0.2-2.8-0.2-3.9,0.7c-1.3,1.2-3,1.6-4.6,2.2c-1.5,0.6-3.1,1.1-4.6,1.8
				c-0.4,0.2-1.1,0.3-0.9,0.9c0.2,0.6,0.8,0.7,1.4,0.6c1.5-0.2,2.9-0.8,4.4-1.2c0.4-0.1,0.9-0.6,1.2,0.1
				C111.7,152.5,114.2,152.3,116.2,152.6z"/>
			<path fill="#EDEDED" d="M116.2,152.6c-2-0.3-4.5-0.1-5.8-2.7c-0.4-0.7-0.8-0.2-1.2-0.1c-1.5,0.4-2.9,1.1-4.4,1.2
				c-0.6,0.1-1.2,0-1.4-0.6c-0.2-0.6,0.5-0.8,0.9-0.9c1.5-0.6,3.1-1.2,4.6-1.8c1.6-0.6,3.2-1,4.6-2.2c1.1-0.9,2.5-0.9,3.9-0.7
				c0.6,0.1,1.1,0.3,1.2,0.9c0.1,0.6-0.4,1-1,1.2c-1.3,0.5-2.7,0.9-4,1.4c-0.5,0.2-1.1,0.4-1.1,1.1c0,0.6,0.6,0.9,1.1,1.1
				c2.3,1,7.7-0.5,9.1-2.5c0.7-1,0.3-1.8-0.4-2.6c-2.9-3-9.4-2.8-12,0.4c-0.6,0.7-1.5,1.3-2.2,0.6c-0.9-0.7-0.3-1.7,0.4-2.4
				c2.8-2.4,6.2-2.8,9.7-2.2c2.4,0.4,4.6,1.3,6.4,2.9c1.9,1.7,1.8,3.9-0.2,5.4C122.1,151.9,119.4,152.5,116.2,152.6z"/>
		</g>
		<g>
			<path fill="#292929" d="M111.4,170.7c-0.2,1,1,0.6,1.1,1.3c-0.6,0.2-1.1,0.3-1.7,0.5c-0.9,0.3-1.5,0.9-1.6,1.9
				c-0.1,1,0.6,1.6,1.4,1.9c0.6,0.3,1.3,0.5,2,0.8c0.3,0.2,0.6,0.4,0.9,0.6c-0.6,0.2-1.5-0.1-2,0.5c-2.8-0.4-4.7-1.9-4.8-3.7
				C106.6,172.7,108.3,171.4,111.4,170.7z"/>
			<g>
				<path fill="#292929" d="M129.6,176.1c-2.8,2.1-5.9,3.8-8.9,5.6c-1.4,0.8-2.9,1.5-4.5,2c-2,0-4,0.3-5.9-0.4c0.1-0.8,1-0.5,1.4-1
					c0.8-0.3,1.4,0.4,2.4,0.2c4.4-1,7.9-3.7,11.6-6c2-1.2,1.9-2.8-0.2-4.1c-2.8-1.8-5.7-3.4-8.7-5c-2-1.1-4.2-1.1-6.3-0.1
					c-1.8,0.9-3.5,1.9-5.3,2.8c-0.8,0-0.4-1.2-1.2-1.2c1-0.7,2-1.4,3-2c0.2-0.1,0.5-0.2,0.7-0.4c0.4-0.2,0.9-0.5,1.3-0.7
					c0,0,0.1,0,0.1,0c0.6-0.2,1.2-0.3,1.9-0.5c5.3-0.8,9.5,1.6,13.5,4.5c0.8,0.6,1.6,1,2.5,1.4c1.6,0.8,2.7,1.9,2.5,3.8
					c0,0.2,0,0.4,0.1,0.6c0,0,0.1,0,0.1,0C129.7,175.9,129.7,176,129.6,176.1z"/>
				<path fill="#292929" d="M105.2,170.2c1.8-0.9,3.5-1.9,5.3-2.8c2.1-1,4.3-1,6.3,0.1c3,1.5,5.9,3.2,8.7,5c2.1,1.3,2.2,2.9,0.2,4.1
					c-3.7,2.2-7.2,5-11.6,6c-1,0.2-1.6-0.5-2.4-0.2c-0.2,0-0.4,0-0.6,0c-0.2-0.4-0.5-0.5-0.8-0.6c-2.9-1.7-5.8-3.3-8.7-5.1
					c-2.1-1.3-2-2.9,0-4.3C102.8,171.6,104.1,170.9,105.2,170.2z M111.4,178.3c2.5,0.7,5,0.3,7.2-1c2.6-1.5,2.6-4,0-5.5
					c-2.3-1.3-4.7-1.5-7.2-1c-3.1,0.6-4.7,2-4.7,3.8C106.7,176.4,108.6,177.9,111.4,178.3z M123.8,173.6c-0.7,0.1-1.5,0.2-1.5,1
					c0.1,0.9,1,0.9,1.7,0.9c0.6,0,1.4,0,1.4-0.8C125.4,173.6,124.5,173.7,123.8,173.6z"/>
				<path fill="#292929" d="M111.2,182.3c0.2,0,0.4,0,0.6,0c-0.4,0.5-1.3,0.2-1.4,1c-4.5-2.1-9.1-4.1-12.6-7.7
					c-0.3-1.9,0.5-3.3,2.1-4.2c1-0.6,1.9-1.2,2.9-1.8c0.5-0.2,0.9-0.4,1.4-0.6c0.8,0,0.4,1.2,1.2,1.2c-1.2,0.7-2.4,1.4-3.5,2.2
					c-2.1,1.4-2.1,2.9,0,4.3c2.8,1.8,5.8,3.4,8.7,5.1C110.5,182.1,110.8,182.3,111.2,182.3z"/>
				<path fill="#292929" d="M111.4,170.7c2.5-0.5,5-0.3,7.2,1c2.6,1.5,2.6,4,0,5.5c-2.2,1.3-4.7,1.6-7.2,1c0.5-0.6,1.4-0.3,2-0.5
					c-0.3-0.2-0.6-0.4-0.9-0.6c1.2,0,2.4,0,3.6-0.5c1-0.4,2-0.9,2-2.1c0-1.3-1-1.8-2-2.3c-1.2-0.5-2.4-0.2-3.6-0.3
					C112.4,171.3,111.1,171.7,111.4,170.7z"/>
				<path fill="#292929" d="M123.8,173.6c0.7,0.1,1.6,0,1.6,1c0,0.8-0.8,0.8-1.4,0.8c-0.7,0-1.6,0-1.7-0.9
					C122.3,173.8,123.2,173.7,123.8,173.6z"/>
				<path fill="#292929" d="M112.5,177.2c-0.7-0.3-1.4-0.5-2-0.8c-0.8-0.4-1.4-0.9-1.4-1.9c0.1-1,0.6-1.6,1.6-1.9
					c0.6-0.2,1.1-0.4,1.7-0.5c1.2,0.2,2.4-0.2,3.6,0.3c1,0.5,2.1,1,2,2.3c0,1.2-1,1.7-2,2.1C114.9,177.2,113.7,177.2,112.5,177.2z"
					/>
			</g>
		</g>
		<g>
			<path fill="#292929" d="M59.6,178.9c1.6-1,2.1-2.5,1.9-4.3c-0.1-1.9,0.6-3.6,1.8-5c0.4-0.3,0.9-0.6,1.1-1.2l0.1,0
				c0.7,0,1.1-0.5,1.6-0.7c6.9-3.4,13.8-3.3,20.5,0.5c2.1,1.2,3.7,3,3.8,5.6c0,0.4,0,0.7,0,1.1c0,0.2-0.1,0.5-0.1,0.7
				c-1.6,2.2-3.7,3.9-6.3,4.9c-0.9,0.4-2.1,0.3-2.7,1.2c-2,0.1-4,0.1-6,0.2c-0.8,0-1.7-0.1-2.5-0.1c-1.8-0.5-3.6-1-5.4-1.4
				c-0.4-0.5-0.9-0.7-1.5-0.9c-0.5-0.6-1.1-0.6-1.8-0.6C62.6,179,61.1,179,59.6,178.9z M79.6,178.9c1.2,0,2-0.2,2.9-0.7
				c0.5-0.3,0.9-0.7,0.4-1.1c-1-0.8-2-1.9-3.6-1.5c-2.9,0.7-4.8,0-6.6-2.3c-0.5-0.6-0.7-1.1,0.4-1.4c1.1-0.3,1.4-1.1,1.1-2.1
				c-0.3-1.1-1-1.6-2.2-1.5c-2.7,0.3-4,2.7-2.4,4.9C72.1,176.6,75.6,178.5,79.6,178.9z"/>
			<path fill="#292929" d="M79.6,178.9c-4-0.4-7.5-2.3-10-5.7c-1.6-2.2-0.3-4.6,2.4-4.9c1.1-0.1,1.9,0.3,2.2,1.5
				c0.3,1.1,0,1.8-1.1,2.1c-1.1,0.3-0.8,0.8-0.4,1.4c1.7,2.3,3.7,3,6.6,2.3c1.6-0.4,2.5,0.7,3.6,1.5c0.5,0.4,0.1,0.9-0.4,1.1
				C81.7,178.7,80.8,178.8,79.6,178.9z"/>
		</g>
		<g>
			<path fill="#292929" d="M200.8,150.7c1.1,0.8,2.1,1.7,1.1,3.2c-0.9,0.3-1.9,0.7-2.8,1c0,0-0.1,0-0.1,0s-0.1,0-0.1,0
				c-0.2-0.2-0.4-0.2-0.6,0c-0.6-0.3-1,0-1.4,0.5c-0.9,0.3-1.7,0.6-2.6,0.9c-0.1,0.1-0.2,0.1-0.4,0.2c-0.5,0-1,0.1-1.5,0.1
				c-1.1,0-2.2,0-3.3-0.1c-2.4-0.5-4.7-1-6.9-2c-1.2-0.9-2.4-1.7-3.6-2.6c-0.7-0.7-1-1.8-1.9-2.3c-0.5-2.4,0.7-3.9,2.5-5.2
				c0.1-0.1,0.4-0.2,0.5-0.3c0.1-1.2,0.9-2.1,2-2.3c1.6-0.2,3.3-0.1,4.9,0.4c0.2,0,0.4,0.1,0.5,0.2c1.4,2.9,4.5,2.2,6.8,3
				c1.2,0.4,2.7-0.6,3.9-1.2c1.8-0.9,3.3-0.7,4.3,1.1c0.6,1,1.6,0.2,2.4,0.6c1.2,0.6,1.8,1.1,1.6,2.4c-0.5,0.3-1,0.6-1.5,0.8
				c-0.2,0.1-0.4,0.1-0.7,0.2c-0.8-0.2-1.7-0.4-2.5-0.5c-0.6-0.5-1.1-1-0.7-1.8c0.5-1-0.2-1.1-0.8-1.4c-1.8-0.8-2.9,0.8-4.8,0.8
				c1.4,1.2,2.5,2,3.2,3.3c0.3,0.6,0.9,0.6,1.4,0.5C200,150.5,200.4,150.6,200.8,150.7z M183.5,142.4c-1.1,0.3-2.7,0.1-2.4,2.1
				c0.1,0.6-0.6,0.5-0.9,0.7c-2.6,1.5-2.9,3.4-1.1,5.7c3.1,3.8,11.5,6.1,16,4.2c1.3-0.5,2.4-1.2,3.9-1c0.9,0.1,2.2-0.3,2.2-1.5
				c0-1.2-1.3-1.3-2.2-1.5c-0.6-0.1-1.2,0.1-1.6-0.6c-2.1-3.7-5.7-4.9-9.5-5.8c-0.5-0.1-1.3,0.1-1.5-0.7
				C186,142.5,184.7,142.5,183.5,142.4z M203.3,148.7c0.7-0.2,1.7-0.1,1.6-1.1c-0.1-0.9-1-1-1.7-0.9c-0.7,0-1.5,0.1-1.5,1
				C201.7,148.6,202.7,148.5,203.3,148.7z"/>
			<path fill="#292929" d="M183.5,142.4c1.2,0.2,2.4,0.1,2.8,1.6c0.2,0.8,1,0.6,1.5,0.7c3.8,0.9,7.4,2.1,9.5,5.8
				c0.4,0.7,1,0.5,1.6,0.6c1,0.2,2.2,0.3,2.2,1.5c0,1.2-1.3,1.6-2.2,1.5c-1.5-0.2-2.6,0.5-3.9,1c-4.5,1.9-12.9-0.4-16-4.2
				c-1.8-2.3-1.5-4.2,1.1-5.7c0.3-0.2,1-0.2,0.9-0.7C180.9,142.4,182.4,142.7,183.5,142.4z M186.5,148.7c0.9-0.2,2.1-0.2,2-1.4
				c0-1-1.1-1.1-2-1.1c-0.9,0-2.1,0-2.1,1.2C184.5,148.6,185.7,148.4,186.5,148.7z M192.6,152.1c0.9-0.1,2-0.1,2-1.3
				c0-1-1.1-1.2-1.9-1.2c-0.9,0-2.1,0.1-2.1,1.2C190.5,152,191.7,152,192.6,152.1z M188.9,153.7c-0.4-0.3-0.6-0.4-0.7-0.4
				c-2.4-0.4-4.6-1.1-5.9-3.4c-0.2-0.3-0.5-0.4-0.7-0.2c-0.4,0.4-0.2,0.8,0.1,1.1C182.7,152.6,186.4,154.1,188.9,153.7z"/>
			<path fill="#292929" d="M186.5,148.7c-0.8-0.3-2-0.1-2-1.3c0-1.2,1.2-1.2,2.1-1.2c0.9,0,1.9,0.1,2,1.1
				C188.6,148.5,187.4,148.4,186.5,148.7z"/>
			<path fill="#292929" d="M192.6,152.1c-0.9-0.1-2.1-0.1-2.1-1.3c0.1-1.1,1.2-1.2,2.1-1.2c0.8,0,1.9,0.2,1.9,1.2
				C194.7,152.1,193.5,152,192.6,152.1z"/>
			<path fill="#292929" d="M188.9,153.7c-2.6,0.4-6.2-1.1-7.3-2.9c-0.2-0.4-0.5-0.8-0.1-1.1c0.3-0.2,0.6-0.2,0.7,0.2
				c1.3,2.3,3.5,3,5.9,3.4C188.4,153.3,188.5,153.4,188.9,153.7z"/>
		</g>
	</g>
	<g>
		<path fill="#292929" d="M84.2,193.8c1.7,2,4.2,2.7,6.4,4.1c1.4,0.8,2.6,1.8,2.4,3.6c-0.8,0.6-1.6,1.2-2.4,1.7
			c-4.6,2.7-9.2,5.3-13.8,8c-0.9,0.1-1.8,0.2-2.7,0.3c-1-0.2-2-0.4-3-0.7c-5-3-9.9-5.9-14.9-8.9c-0.4-0.3-0.5,0.1-0.6,0.4
			c-0.5-1.7,0.1-3,1.6-3.9c2-1.1,3.9-2.3,5.9-3.5c0.5-0.3,1.2-0.5,1.4-1.1c0.2-0.2,0.5-0.3,0.7-0.5c1.5-0.8,3-1.4,4.4-2.3
			c2.8-1.7,5.6-2,8.6-0.3c1.6,0.9,3.1,2.1,4.9,2.6C83.4,193.7,83.8,193.7,84.2,193.8z M83.5,198.7c-2.5-2-5.1-2.8-8-0.9
			c-0.6,0.4-1.2,0.5-1.9,0.1c-0.8-0.4-2.7,0.9-2.3,1.3c1.1,1.1-0.2,1.1-0.6,1.3c-1.6,1.1-3.3,2-5,3c1.6,1.7,3.1,1.8,4.8,0.5
			c1-0.8,2.3-1.3,3.4-2c0.6-0.3,1.1-0.7,1.7-0.2c1.5,1.1,2.4,0.1,3.5-0.6c-0.5-0.6-1.3-0.6-1.5-1.3c0.7-0.4,1.5-1.3,2.3-0.6
			C81.5,200.4,82.4,199.5,83.5,198.7z"/>
		<path fill="#EDEDED" d="M83.5,198.7c-1.1,0.8-2.1,1.7-3.5,0.6c-0.9-0.7-1.6,0.1-2.3,0.6c0.2,0.7,1,0.7,1.5,1.3
			c-1.1,0.7-2.1,1.7-3.5,0.6c-0.6-0.5-1.2-0.1-1.7,0.2c-1.1,0.7-2.4,1.2-3.4,2c-1.7,1.3-3.1,1.2-4.8-0.5c1.7-1,3.4-1.9,5-3
			c0.4-0.2,1.6-0.3,0.6-1.3c-0.4-0.4,1.5-1.6,2.3-1.3c0.7,0.3,1.2,0.3,1.9-0.1C78.4,195.9,81,196.7,83.5,198.7z"/>
	</g>
</g>
<g>
	<g>
		<g>
			<path fill="#2DA4D7" d="M140.4,146.1c0-0.9,0.3-1.8,0-2.8c-0.2-0.8-0.2-2,1.3-2.1c3.1,2.3,6.7,3,10.4,3.3c0.5,0,0.9-0.1,1-0.7
				c0.2-1.7,1.5-2.4,2.9-2.9c1.5-0.5,3.1-0.7,4.7-0.3c1.8,0.5,3.4,1.1,5.3,0.4c1.1-0.4,0.5,0.8,0.9,1.2c-0.2,1.2-2.1,0.8-2.1,2.3
				c0,2.9-1.9,4.6-4,6.2c-1.9,1.4-4.1,1.9-6.2,2.6c-1.4,0.2-2.7,0.4-4.1,0.6c-1.7,0-3.4,0-5.1,0.1c-1.6-0.4-3.2-0.7-4.8-1.1
				c1.3-0.7,2.8-0.2,4.1-0.9c0.8-0.1,1.6,0,2.5-0.9c-1.3-0.3-2.3-0.5-3.4-0.8c-0.3-0.4-0.7-0.8-1-1.2c0.3-0.4,1.1,0.1,1.1-0.7
				C142.6,148,141.6,146.9,140.4,146.1z"/>
		</g>
		<g>
			<path fill="#2DA4D7" d="M84.4,140.3c0.8,0.8,1.7,1.2,2.7,1.5c2.2,1.6,3.4,3.6,3.2,6.4c-0.1,0.2-0.2,0.5-0.3,0.7
				c-0.5,0.7-0.9,1.6-1.5,2c-3,2-5.5,4.6-8.8,6.3c-0.8,0-1.7,0-2.5,0c-0.5,0-0.9-0.1-1.4-0.1c-1.6-0.5-3.2-1-4.8-1.5
				c-0.4-0.5-0.9-1-1.5-1.2c-0.4-0.7-1-1.1-1.8-1.2c-1.7-1.2-3.4-2.4-4.3-4.4c-0.5-3,0.8-5.2,3.3-6.8c1.5-1,3-1.9,4.4-3.1
				c2.9-2.5,9.3-2,12.3,0.7C83.8,139.7,84.1,140,84.4,140.3z M78.2,141.4c-0.9,0-1.6,0-2.4,0.3c-2.9,0.9-3.3,2.6-1.3,4.9
				c0.7,0.8,1.5,1.4,2.3,2.1c0.7,0.7,0.5,1.3-0.4,1.7c-2,0.9-5.1-0.6-5.3-2.7c-0.1-0.8,0-1.7-1.1-1.8c-0.8-0.1-1.6-0.2-2.2,0.6
				c-0.6,0.8-0.4,1.6,0.1,2.4c2,3.7,9.4,5.3,12.7,2.8c1.2-0.9,1.5-1.9,0.4-3.1c-1-1-2-2-3-3c-0.4-0.4-1-0.7-0.6-1.4
				c0.3-0.5,0.9-0.5,1.5-0.6c2.1-0.1,3.7,1.1,4.2,3.2c0.2,0.7,0.6,1.1,1.2,1.2c0.7,0.1,1.5,0.1,2-0.5c0.5-0.6,0.4-1.2,0.1-1.9
				c-0.4-0.8-1-1.5-1.8-2C82.6,142.2,80.4,141.5,78.2,141.4z"/>
			<path fill="#EFEFEF" d="M78.2,141.4c2.2,0.1,4.5,0.8,6.5,2.2c0.8,0.5,1.4,1.2,1.8,2c0.3,0.6,0.5,1.3-0.1,1.9
				c-0.6,0.6-1.3,0.6-2,0.5c-0.6-0.1-1.1-0.4-1.2-1.2c-0.5-2.1-2.1-3.2-4.2-3.2c-0.6,0-1.2,0-1.5,0.6c-0.4,0.7,0.3,1,0.6,1.4
				c1,1,2,1.9,3,3c1.1,1.1,0.8,2.2-0.4,3.1c-3.3,2.5-10.7,0.9-12.7-2.8c-0.4-0.8-0.6-1.6-0.1-2.4c0.5-0.8,1.4-0.7,2.2-0.6
				c1,0.2,1,1,1.1,1.8c0.2,2.1,3.3,3.7,5.3,2.7c0.9-0.4,1.1-1,0.4-1.7c-0.7-0.7-1.6-1.4-2.3-2.1c-2-2.2-1.6-3.9,1.3-4.9
				C76.5,141.4,77.2,141.4,78.2,141.4z"/>
		</g>
		<g>
			<path fill="#2DA4D7" d="M103.4,207.7c-0.6-0.5-1.3-0.9-1.2-1.8c0.1-1.8,1.4-2.7,2.5-3.9c0.6-0.7,1.2-1.3,1.8-2
				c1.1-1,2.8-1.7,2.7-3.3c-0.1-1.3-1.8-0.4-2.6-1.1c0-0.9,0.5-1.1,1.3-1.1c2.6,0.2,5.2,0.2,7.8,0.4c1.9,0.2,2.5,0.9,2.4,2.8
				c-2.2,1.7-4.1,3.6-6.1,5.5c-0.3,0.3-0.9,0.7-0.7,1.2c0.2,0.6,0.9,0.5,1.4,0.5c1.9-0.1,3.9-0.3,5.7-1c0.3-0.1,0.6-0.1,0.9-0.2
				c0.5-0.2,1.1-0.4,1.1-1c0-0.5-0.5-0.8-0.9-1c-0.3-0.1-0.5-0.2-0.8-0.4c0-0.1,0-0.2-0.1-0.3c3-1.1,5.9-1.1,8.9,0
				c1.6,0.6,2.6,1.6,2.2,3.5c-2,1.6-4.5,2.2-6.9,2.8c-2.9,0.3-5.9,0.6-8.8,1c-0.7,0-1.5,0-2.2,0c-2.1,0.2-4.2-0.6-6.3,0
				C104.8,208.2,104.1,207.9,103.4,207.7z"/>
		</g>
		<g>
			<path fill="#D22927" d="M136.6,173.7c0-1.4,0.8-2.2,1.9-2.9c2.1-1.3,4.2-2.7,6.3-4c1.8-1,3.7-1.7,5.7-2.2c0.6,0,1.2,0.1,1.8,0.1
				c6.7,3,12.9,6.8,19.1,10.7c1,0.6,1.4,1.5,1.2,2.6c-3.8,3.4-8.1,5.8-12.9,7.5c-0.6,0.1-1.2,0.1-1.8,0.2c-0.6,0-1.1-0.2-1.7-0.4
				c-3.2-1.3-6.1-3.3-9.2-4.7c-3.3-2.4-7.1-4.1-10.3-6.7C136.7,173.9,136.6,173.8,136.6,173.7z M158.9,177.3c-1-1.9-1.8-3.5-2.6-5
				c-0.2-0.4-0.5-0.7-1-0.3c-1.9,1.1-3.8,2.3-6.2,3.6C152.5,176.2,155.5,176.7,158.9,177.3z"/>
			<path fill="#EFEFEF" d="M158.9,177.3c-3.4-0.6-6.4-1.1-9.8-1.7c2.3-1.4,4.2-2.5,6.2-3.6c0.5-0.3,0.8-0.1,1,0.3
				C157.1,173.8,157.9,175.4,158.9,177.3z"/>
		</g>
		<g>
			<path fill="#275176" d="M166.7,196.7c3.5,2.1,7.1,4.2,10.6,6.3c0.7,0.4,1.4,0.8,0.9,1.9c-2.2,1.2-4.4,2.5-6.7,3.7
				c-4.1,2.2-7.9,4.9-12.2,6.8c-0.6-0.1-1.2-0.2-1.7-0.3c-5.7-3.3-11.4-6.7-17.1-10c-0.2-0.1-0.6-0.1-0.9-0.2
				c-0.3-1.3,0.6-1.7,1.5-2.2c2.8-1.7,5.6-3.4,8.4-5c0.1,0,0.2,0,0.3-0.1c2.3-1.3,4.5-2.6,6.8-3.9c1.6-0.9,3.1-0.9,4.6,0.1
				C163,194.7,164.8,195.7,166.7,196.7z M155.5,211.2c1.6,0.5,2.6,2.1,3.7,1.5c2.6-1.2,5-2.8,7.4-4.4c1.2-0.8,1.1-2.1,0-3.1
				c-1.1-0.9-2.4-1.4-3.8-1.5c-0.4,0-0.9,0.3-0.9-0.7c0.1-0.7-2.7-1.7-3.4-1.4c-3.2,1.8-6.3,3.7-9.5,5.5c2.9,2.2,2.9,2.2,5.8,0.5
				c1-0.6,2-1.2,3-1.7c0.9-0.5,1.8-0.8,2.8-0.5c0.7,0.2,1.6,0.3,1.7,1.2c0.1,0.8-0.7,1.1-1.2,1.4C159.4,209,157.7,210,155.5,211.2z
				 M143.6,204.3c1.7,0.4,2.5,2.3,4.2,1.4c3.1-1.7,6.2-3.6,9.5-5.5c-1.4-0.6-2.4-2.3-3.8-1.6C150.2,200.3,147.1,202.3,143.6,204.3z
				 M158.9,198.9c1-0.3,2.6-0.1,2.5-1.7c-0.1-1.3-1.5-1.5-2.6-1.4c-1.1,0-2.5,0.1-2.5,1.5C156.4,198.7,157.8,198.6,158.9,198.9z"/>
			<path fill="#EFEFEF" d="M155.5,211.2c2.1-1.2,3.9-2.2,5.7-3.3c0.6-0.3,1.4-0.7,1.2-1.4c-0.1-0.8-1-1-1.7-1.2
				c-1-0.3-1.9,0.1-2.8,0.5c-1,0.6-2,1.1-3,1.7c-2.9,1.7-2.9,1.7-5.8-0.5c3.2-1.9,6.3-3.7,9.5-5.5c0.6-0.4,3.4,0.7,3.4,1.4
				c-0.1,1,0.4,0.7,0.9,0.7c1.4,0.1,2.7,0.6,3.8,1.5c1.2,1,1.3,2.2,0,3.1c-2.4,1.6-4.8,3.2-7.4,4.4
				C158.1,213.3,157.1,211.7,155.5,211.2z"/>
			<path fill="#EFEFEF" d="M143.6,204.3c3.5-2,6.6-4,9.9-5.7c1.4-0.7,2.4,1,3.8,1.6c-3.3,1.9-6.4,3.8-9.5,5.5
				C146.2,206.6,145.3,204.7,143.6,204.3z"/>
			<path fill="#EFEFEF" d="M158.9,198.9c-1.1-0.2-2.5-0.2-2.5-1.6c0-1.4,1.4-1.5,2.5-1.5c1.1,0,2.5,0.2,2.6,1.4
				C161.5,198.7,159.9,198.6,158.9,198.9z"/>
		</g>
		<g>
			<path fill="#D22927" d="M190.9,169c5.2-0.9,10.3-0.4,14.9,2.4c1.9,1.2,3.3,2.8,3.7,5.1c-1.8,0-3.6,0-5.4,0c0-0.1-0.1-0.2-0.1-0.2
				c-0.1-0.2-0.2-0.4-0.2-0.5c-0.3-1.2-1.1-2-2.2-2.5c-1.5-1.1-3.3-1.5-5.2-1.5c-0.6-0.3-1.2-0.2-1.8-0.1c-1.1,0.1-2.1,0.2-3.2,0.3
				C191.2,171.1,191.1,170,190.9,169z"/>
			<path fill="#519444" d="M180.2,179c-0.1-1.6-0.2-3.1,0.7-4.6c1.7,0.2,3.5,0.4,5.2,0.5c-1,3.5,0,5.3,3.5,6.6
				c1.1,0.4,2.1,0.8,3.3,0.7c0.1,0.1,0.3,0.2,0.4,0.3c0.1,1,0.2,2,0.3,2.9c-0.2,0.2-0.5,0.3-0.7,0.5c-3.1-1-6.3-1.4-9.1-3.1
				C182.6,181.7,181.2,180.5,180.2,179z"/>
			<path fill="#E67A22" d="M186.2,175c-1.7-0.2-3.5-0.4-5.2-0.5c2.4-3.5,5.9-4.9,9.9-5.4c0.2,1,0.3,2,0.5,3.1
				c-0.2,0.2-0.5,0.4-0.7,0.5C188.8,172.7,187.6,174.1,186.2,175z"/>
			<path fill="#2DA4D7" d="M195.7,176.8c0.1-0.1,0.2-0.2,0.3-0.3c1.5,0.1,2.5,1.4,3.8,1.8c0.9,0.9,2.1,1.4,3.3,1.9
				c0.6,1,2.4,0.7,2.3,2.3c-2.3,1.4-4.8,2.4-7.4,3c-1.3,0.1-2.6,0.1-3.9,0.2c-0.1,0-0.2-0.1-0.3-0.1c-0.1-1-0.2-2-0.3-2.9
				c0.7,0,1.5,0,2.2-0.1c0.3,0.1,0.7,0,0.9-0.2c0.2,0,0.5,0,0.7,0c0.5-0.1,1.3,0,1.3-0.7c0.1-0.6-0.7-0.6-1.1-0.8
				c-1.3-0.8-2.6-1.5-4-2.3C193.8,177.5,195.2,177.6,195.7,176.8z"/>
		</g>
		<g>
			<path fill="#D22927" d="M101.6,146c0.2-3.5,2.3-5.7,5.4-7c6.5-2.7,13.1-2.7,19.4,0.8c2.7,1.5,4.4,3.7,3.8,7
				c-0.3,1.1-1,1.9-1.7,2.7c-1.5,1.6-3.5,2.3-5.4,3.3c-1.8,0.3-3.7,0.6-5.5,0.9c-1.2,0-2.4,0-3.7,0c-2.7-0.5-5.5-0.8-8-2.3
				c-1.6-1.3-3.3-2.5-4-4.5C101.8,146.7,101.7,146.4,101.6,146z M116.2,150.6c3.2,0,5.9-0.7,8.3-2.4c2-1.5,2.1-3.8,0.2-5.4
				c-1.8-1.6-4-2.5-6.4-2.9c-3.5-0.5-6.8-0.2-9.7,2.2c-0.8,0.7-1.3,1.6-0.4,2.4c0.7,0.6,1.6,0.1,2.2-0.6c2.7-3.2,9.1-3.4,12-0.4
				c0.7,0.8,1.1,1.6,0.4,2.6c-1.4,2-6.8,3.5-9.1,2.5c-0.5-0.2-1.1-0.5-1.1-1.1c0-0.7,0.5-0.9,1.1-1.1c1.3-0.5,2.7-0.9,4-1.4
				c0.5-0.2,1.1-0.5,1-1.2c-0.1-0.6-0.7-0.9-1.2-0.9c-1.4-0.2-2.8-0.2-3.9,0.7c-1.3,1.2-3,1.6-4.6,2.2c-1.5,0.6-3.1,1.1-4.6,1.8
				c-0.4,0.2-1.1,0.3-0.9,0.9c0.2,0.6,0.8,0.7,1.4,0.6c1.5-0.2,2.9-0.8,4.4-1.2c0.4-0.1,0.9-0.6,1.2,0.1
				C111.7,150.5,114.2,150.3,116.2,150.6z"/>
			<path fill="#EFEFEF" d="M116.2,150.6c-2-0.3-4.5-0.1-5.8-2.7c-0.4-0.7-0.8-0.2-1.2-0.1c-1.5,0.4-2.9,1.1-4.4,1.2
				c-0.6,0.1-1.2,0-1.4-0.6c-0.2-0.6,0.5-0.8,0.9-0.9c1.5-0.6,3.1-1.2,4.6-1.8c1.6-0.6,3.2-1,4.6-2.2c1.1-0.9,2.5-0.9,3.9-0.7
				c0.6,0.1,1.1,0.3,1.2,0.9c0.1,0.6-0.4,1-1,1.2c-1.3,0.5-2.7,0.9-4,1.4c-0.5,0.2-1.1,0.4-1.1,1.1c0,0.6,0.6,0.9,1.1,1.1
				c2.3,1,7.7-0.5,9.1-2.5c0.7-1,0.3-1.8-0.4-2.6c-2.9-3-9.4-2.8-12,0.4c-0.6,0.7-1.5,1.3-2.2,0.6c-0.9-0.7-0.3-1.7,0.4-2.4
				c2.8-2.4,6.2-2.8,9.7-2.2c2.4,0.4,4.6,1.3,6.4,2.9c1.9,1.7,1.8,3.9-0.2,5.4C122.1,149.9,119.4,150.5,116.2,150.6z"/>
		</g>
		<g>
			<path fill="#E67A22" d="M111.4,168.7c-0.2,1,1,0.6,1.1,1.3c-0.6,0.2-1.1,0.3-1.7,0.5c-0.9,0.3-1.5,0.9-1.6,1.9
				c-0.1,1,0.6,1.6,1.4,1.9c0.6,0.3,1.3,0.5,2,0.8c0.3,0.2,0.6,0.4,0.9,0.6c-0.6,0.2-1.5-0.1-2,0.5c-2.8-0.4-4.7-1.9-4.8-3.7
				C106.6,170.7,108.3,169.4,111.4,168.7z"/>
			<g>
				<path fill="#D22927" d="M129.6,174.1c-2.8,2.1-5.9,3.8-8.9,5.6c-1.4,0.8-2.9,1.5-4.5,2c-2,0-4,0.3-5.9-0.4c0.1-0.8,1-0.5,1.4-1
					c0.8-0.3,1.4,0.4,2.4,0.2c4.4-1,7.9-3.7,11.6-6c2-1.2,1.9-2.8-0.2-4.1c-2.8-1.8-5.7-3.4-8.7-5c-2-1.1-4.2-1.1-6.3-0.1
					c-1.8,0.9-3.5,1.9-5.3,2.8c-0.8,0-0.4-1.2-1.2-1.2c1-0.7,2-1.4,3-2c0.2-0.1,0.5-0.2,0.7-0.4c0.4-0.2,0.9-0.5,1.3-0.7
					c0,0,0.1,0,0.1,0c0.6-0.2,1.2-0.3,1.9-0.5c5.3-0.8,9.5,1.6,13.5,4.5c0.8,0.6,1.6,1,2.5,1.4c1.6,0.8,2.7,1.9,2.5,3.8
					c0,0.2,0,0.4,0.1,0.6c0,0,0.1,0,0.1,0C129.7,173.9,129.7,174,129.6,174.1z"/>
				<path fill="#EFEFEF" d="M105.2,168.2c1.8-0.9,3.5-1.9,5.3-2.8c2.1-1,4.3-1,6.3,0.1c3,1.5,5.9,3.2,8.7,5c2.1,1.3,2.2,2.9,0.2,4.1
					c-3.7,2.2-7.2,5-11.6,6c-1,0.2-1.6-0.5-2.4-0.2c-0.2,0-0.4,0-0.6,0c-0.2-0.4-0.5-0.5-0.8-0.6c-2.9-1.7-5.8-3.3-8.7-5.1
					c-2.1-1.3-2-2.9,0-4.3C102.8,169.6,104.1,168.9,105.2,168.2z M111.4,176.3c2.5,0.7,5,0.3,7.2-1c2.6-1.5,2.6-4,0-5.5
					c-2.3-1.3-4.7-1.5-7.2-1c-3.1,0.6-4.7,2-4.7,3.8C106.7,174.4,108.6,175.9,111.4,176.3z M123.8,171.6c-0.7,0.1-1.5,0.2-1.5,1
					c0.1,0.9,1,0.9,1.7,0.9c0.6,0,1.4,0,1.4-0.8C125.4,171.6,124.5,171.7,123.8,171.6z"/>
				<path fill="#E67A22" d="M111.2,180.3c0.2,0,0.4,0,0.6,0c-0.4,0.5-1.3,0.2-1.4,1c-4.5-2.1-9.1-4.1-12.6-7.7
					c-0.3-1.9,0.5-3.3,2.1-4.2c1-0.6,1.9-1.2,2.9-1.8c0.5-0.2,0.9-0.4,1.4-0.6c0.8,0,0.4,1.2,1.2,1.2c-1.2,0.7-2.4,1.4-3.5,2.2
					c-2.1,1.4-2.1,2.9,0,4.3c2.8,1.8,5.8,3.4,8.7,5.1C110.5,180.1,110.8,180.3,111.2,180.3z"/>
				<path fill="#D22927" d="M111.4,168.7c2.5-0.5,5-0.3,7.2,1c2.6,1.5,2.6,4,0,5.5c-2.2,1.3-4.7,1.6-7.2,1c0.5-0.6,1.4-0.3,2-0.5
					c-0.3-0.2-0.6-0.4-0.9-0.6c1.2,0,2.4,0,3.6-0.5c1-0.4,2-0.9,2-2.1c0-1.3-1-1.8-2-2.3c-1.2-0.5-2.4-0.2-3.6-0.3
					C112.4,169.3,111.1,169.7,111.4,168.7z"/>
				<path fill="#D22927" d="M123.8,171.6c0.7,0.1,1.6,0,1.6,1c0,0.8-0.8,0.8-1.4,0.8c-0.7,0-1.6,0-1.7-0.9
					C122.3,171.8,123.2,171.7,123.8,171.6z"/>
				<path fill="#EFEFEF" d="M112.5,175.2c-0.7-0.3-1.4-0.5-2-0.8c-0.8-0.4-1.4-0.9-1.4-1.9c0.1-1,0.6-1.6,1.6-1.9
					c0.6-0.2,1.1-0.4,1.7-0.5c1.2,0.2,2.4-0.2,3.6,0.3c1,0.5,2.1,1,2,2.3c0,1.2-1,1.7-2,2.1C114.9,175.2,113.7,175.2,112.5,175.2z"
					/>
			</g>
		</g>
		<g>
			<path fill="#519444" d="M59.6,176.9c1.6-1,2.1-2.5,1.9-4.3c-0.1-1.9,0.6-3.6,1.8-5c0.4-0.3,0.9-0.6,1.1-1.2l0.1,0
				c0.7,0,1.1-0.5,1.6-0.7c6.9-3.4,13.8-3.3,20.5,0.5c2.1,1.2,3.7,3,3.8,5.6c0,0.4,0,0.7,0,1.1c0,0.2-0.1,0.5-0.1,0.7
				c-1.6,2.2-3.7,3.9-6.3,4.9c-0.9,0.4-2.1,0.3-2.7,1.2c-2,0.1-4,0.1-6,0.2c-0.8,0-1.7-0.1-2.5-0.1c-1.8-0.5-3.6-1-5.4-1.4
				c-0.4-0.5-0.9-0.7-1.5-0.9c-0.5-0.6-1.1-0.6-1.8-0.6C62.6,177,61.1,177,59.6,176.9z M79.6,176.9c1.2,0,2-0.2,2.9-0.7
				c0.5-0.3,0.9-0.7,0.4-1.1c-1-0.8-2-1.9-3.6-1.5c-2.9,0.7-4.8,0-6.6-2.3c-0.5-0.6-0.7-1.1,0.4-1.4c1.1-0.3,1.4-1.1,1.1-2.1
				c-0.3-1.1-1-1.6-2.2-1.5c-2.7,0.3-4,2.7-2.4,4.9C72.1,174.6,75.6,176.5,79.6,176.9z"/>
			<path fill="#EFEFEF" d="M79.6,176.9c-4-0.4-7.5-2.3-10-5.7c-1.6-2.2-0.3-4.6,2.4-4.9c1.1-0.1,1.9,0.3,2.2,1.5
				c0.3,1.1,0,1.8-1.1,2.1c-1.1,0.3-0.8,0.8-0.4,1.4c1.7,2.3,3.7,3,6.6,2.3c1.6-0.4,2.5,0.7,3.6,1.5c0.5,0.4,0.1,0.9-0.4,1.1
				C81.7,176.7,80.8,176.8,79.6,176.9z"/>
		</g>
		<g>
			<path fill="#1D2929" d="M200.8,148.7c1.1,0.8,2.1,1.7,1.1,3.2c-0.9,0.3-1.9,0.7-2.8,1c0,0-0.1,0-0.1,0s-0.1,0-0.1,0
				c-0.2-0.2-0.4-0.2-0.6,0c-0.6-0.3-1,0-1.4,0.5c-0.9,0.3-1.7,0.6-2.6,0.9c-0.1,0.1-0.2,0.1-0.4,0.2c-0.5,0-1,0.1-1.5,0.1
				c-1.1,0-2.2,0-3.3-0.1c-2.4-0.5-4.7-1-6.9-2c-1.2-0.9-2.4-1.7-3.6-2.6c-0.7-0.7-1-1.8-1.9-2.3c-0.5-2.4,0.7-3.9,2.5-5.2
				c0.1-0.1,0.4-0.2,0.5-0.3c0.1-1.2,0.9-2.1,2-2.3c1.6-0.2,3.3-0.1,4.9,0.4c0.2,0,0.4,0.1,0.5,0.2c1.4,2.9,4.5,2.2,6.8,3
				c1.2,0.4,2.7-0.6,3.9-1.2c1.8-0.9,3.3-0.7,4.3,1.1c0.6,1,1.6,0.2,2.4,0.6c1.2,0.6,1.8,1.1,1.6,2.4c-0.5,0.3-1,0.6-1.5,0.8
				c-0.2,0.1-0.4,0.1-0.7,0.2c-0.8-0.2-1.7-0.4-2.5-0.5c-0.6-0.5-1.1-1-0.7-1.8c0.5-1-0.2-1.1-0.8-1.4c-1.8-0.8-2.9,0.8-4.8,0.8
				c1.4,1.2,2.5,2,3.2,3.3c0.3,0.6,0.9,0.6,1.4,0.5C200,148.5,200.4,148.6,200.8,148.7z M183.5,140.4c-1.1,0.3-2.7,0.1-2.4,2.1
				c0.1,0.6-0.6,0.5-0.9,0.7c-2.6,1.5-2.9,3.4-1.1,5.7c3.1,3.8,11.5,6.1,16,4.2c1.3-0.5,2.4-1.2,3.9-1c0.9,0.1,2.2-0.3,2.2-1.5
				c0-1.2-1.3-1.3-2.2-1.5c-0.6-0.1-1.2,0.1-1.6-0.6c-2.1-3.7-5.7-4.9-9.5-5.8c-0.5-0.1-1.3,0.1-1.5-0.7
				C186,140.5,184.7,140.5,183.5,140.4z M203.3,146.7c0.7-0.2,1.7-0.1,1.6-1.1c-0.1-0.9-1-1-1.7-0.9c-0.7,0-1.5,0.1-1.5,1
				C201.7,146.6,202.7,146.5,203.3,146.7z"/>
			<path fill="#EFEFEF" d="M183.5,140.4c1.2,0.2,2.4,0.1,2.8,1.6c0.2,0.8,1,0.6,1.5,0.7c3.8,0.9,7.4,2.1,9.5,5.8
				c0.4,0.7,1,0.5,1.6,0.6c1,0.2,2.2,0.3,2.2,1.5c0,1.2-1.3,1.6-2.2,1.5c-1.5-0.2-2.6,0.5-3.9,1c-4.5,1.9-12.9-0.4-16-4.2
				c-1.8-2.3-1.5-4.2,1.1-5.7c0.3-0.2,1-0.2,0.9-0.7C180.9,140.4,182.4,140.7,183.5,140.4z M186.5,146.7c0.9-0.2,2.1-0.2,2-1.4
				c0-1-1.1-1.1-2-1.1c-0.9,0-2.1,0-2.1,1.2C184.5,146.6,185.7,146.4,186.5,146.7z M192.6,150.1c0.9-0.1,2-0.1,2-1.3
				c0-1-1.1-1.2-1.9-1.2c-0.9,0-2.1,0.1-2.1,1.2C190.5,150,191.7,150,192.6,150.1z M188.9,151.7c-0.4-0.3-0.6-0.4-0.7-0.4
				c-2.4-0.4-4.6-1.1-5.9-3.4c-0.2-0.3-0.5-0.4-0.7-0.2c-0.4,0.4-0.2,0.8,0.1,1.1C182.7,150.6,186.4,152.1,188.9,151.7z"/>
			<path fill="#D22927" d="M186.5,146.7c-0.8-0.3-2-0.1-2-1.3c0-1.2,1.2-1.2,2.1-1.2c0.9,0,1.9,0.1,2,1.1
				C188.6,146.5,187.4,146.4,186.5,146.7z"/>
			<path fill="#D22927" d="M192.6,150.1c-0.9-0.1-2.1-0.1-2.1-1.3c0.1-1.1,1.2-1.2,2.1-1.2c0.8,0,1.9,0.2,1.9,1.2
				C194.7,150.1,193.5,150,192.6,150.1z"/>
			<path fill="#1D2929" d="M188.9,151.7c-2.6,0.4-6.2-1.1-7.3-2.9c-0.2-0.4-0.5-0.8-0.1-1.1c0.3-0.2,0.6-0.2,0.7,0.2
				c1.3,2.3,3.5,3,5.9,3.4C188.4,151.3,188.5,151.4,188.9,151.7z"/>
		</g>
	</g>
	<g>
		<path fill="#275176" d="M84.2,191.8c1.7,2,4.2,2.7,6.4,4.1c1.4,0.8,2.6,1.8,2.4,3.6c-0.8,0.6-1.6,1.2-2.4,1.7
			c-4.6,2.7-9.2,5.3-13.8,8c-0.9,0.1-1.8,0.2-2.7,0.3c-1-0.2-2-0.4-3-0.7c-5-3-9.9-5.9-14.9-8.9c-0.4-0.3-0.5,0.1-0.6,0.4
			c-0.5-1.7,0.1-3,1.6-3.9c2-1.1,3.9-2.3,5.9-3.5c0.5-0.3,1.2-0.5,1.4-1.1c0.2-0.2,0.5-0.3,0.7-0.5c1.5-0.8,3-1.4,4.4-2.3
			c2.8-1.7,5.6-2,8.6-0.3c1.6,0.9,3.1,2.1,4.9,2.6C83.4,191.7,83.8,191.7,84.2,191.8z M83.5,196.7c-2.5-2-5.1-2.8-8-0.9
			c-0.6,0.4-1.2,0.5-1.9,0.1c-0.8-0.4-2.7,0.9-2.3,1.3c1.1,1.1-0.2,1.1-0.6,1.3c-1.6,1.1-3.3,2-5,3c1.6,1.7,3.1,1.8,4.8,0.5
			c1-0.8,2.3-1.3,3.4-2c0.6-0.3,1.1-0.7,1.7-0.2c1.5,1.1,2.4,0.1,3.5-0.6c-0.5-0.6-1.3-0.6-1.5-1.3c0.7-0.4,1.5-1.3,2.3-0.6
			C81.5,198.4,82.4,197.5,83.5,196.7z"/>
		<path fill="#EFEFEF" d="M83.5,196.7c-1.1,0.8-2.1,1.7-3.5,0.6c-0.9-0.7-1.6,0.1-2.3,0.6c0.2,0.7,1,0.7,1.5,1.3
			c-1.1,0.7-2.1,1.7-3.5,0.6c-0.6-0.5-1.2-0.1-1.7,0.2c-1.1,0.7-2.4,1.2-3.4,2c-1.7,1.3-3.1,1.2-4.8-0.5c1.7-1,3.4-1.9,5-3
			c0.4-0.2,1.6-0.3,0.6-1.3c-0.4-0.4,1.5-1.6,2.3-1.3c0.7,0.3,1.2,0.3,1.9-0.1C78.4,193.9,81,194.7,83.5,196.7z"/>
	</g>
</g>
<g>
	<path fill="#FDC830" d="M160.4,109.8l92.7,53.6c1.8,1,4-0.2,4-2.3V89.4c0-1.9-1-3.7-2.6-4.6l-92.7-53.6c-1.8-1-4,0.2-4,2.3v71.8
		C157.7,107.1,158.7,108.8,160.4,109.8z"/>
	<path fill="#FFFFFF" stroke="#1E2430" stroke-width="1.5493" stroke-miterlimit="10" d="M157.7,110.4l92.7,53.6c1.8,1,4-0.2,4-2.3
		V90c0-1.9-1-3.7-2.6-4.6l-92.7-53.6c-1.8-1-4,0.2-4,2.3v71.8C155.1,107.8,156.1,109.5,157.7,110.4z"/>
</g>
<path fill="#EFEFEF" d="M229.4,130.4l-47.9-27.7c-3-1.7-5.6-6.6-5.6-10.7l0,0c0-4.1,2.6-6.1,5.6-4.2l47.9,27.7
	c3,1.7,5.6,6.6,5.6,10.7l0,0C234.9,130.3,232.4,132.2,229.4,130.4z"/>
<path fill="#FDC830" d="M233.7,123.4c0-4.1-2.6-9-5.6-10.7l-47.9-27.7c-1.5-0.9-2.8-0.9-3.7-0.2l0,0l-2.3,1.4l1.2,0.2
	c-0.3,0.8-0.7,1.7-0.7,3l0,0c0,4.1,2.6,9,5.6,10.7l47.9,27.7c0.7,0.3,1.2,0.6,1.6,0.7l-0.3,0.9l2.3-1.3l0,0
	C233,127.2,233.7,125.6,233.7,123.4z"/>
<path fill="#1E2430" d="M225.9,129L178,101.3c-3-1.7-5.6-6.6-5.6-10.7l0,0c0-4.1,2.6-6.1,5.6-4.2l47.9,27.7c3,1.7,5.6,6.6,5.6,10.7
	l0,0C231.5,128.9,228.9,130.8,225.9,129z"/>
<path fill="#FFFFFF" d="M226.4,113.7L178.5,86c-1.5-0.9-3-0.9-4-0.1c0.9-0.5,2.1-0.3,3.5,0.3l47.9,27.7c3,1.7,5.6,6.6,5.6,10.7
	c0,2.1-0.7,3.5-1.5,4.3c1.3-0.7,2.1-2.2,2.1-4.5C232,120.4,229.4,115.6,226.4,113.7z"/>
<path fill="#EFEFEF" d="M211.3,97.2l-29.7-17c-3-1.7-5.6-6.6-5.6-10.7l0,0c0-4.1,2.6-6.1,5.6-4.2l29.7,17.1c3,1.7,5.6,6.6,5.6,10.7
	l0,0C217,97.2,214.5,99,211.3,97.2z"/>
<path fill="#F37335" d="M215.6,90.3c0-4.1-2.6-9-5.6-10.7l-29.7-17.1c-1.5-0.9-2.8-0.9-3.7-0.2l0,0l-2.3,1.4l1.2,0.2
	c-0.3,0.8-0.7,1.7-0.7,3l0,0c0,4.1,2.6,9,5.6,10.7l29.6,17c0.7,0.3,1.2,0.6,1.6,0.7l-0.3,0.9l2.3-1.4l0,0
	C214.8,94,215.6,92.6,215.6,90.3z"/>
<path fill="#1E2430" d="M207.6,95.9l-29.7-17.1c-3-1.7-5.6-6.6-5.6-10.7l0,0c0-4.1,2.6-6.1,5.6-4.2L207.6,81c3,1.7,5.6,6.6,5.6,10.7
	l0,0C213.3,95.9,210.8,97.6,207.6,95.9z"/>
<path fill="#FFFFFF" d="M208.1,80.5l-29.7-17.1c-1.5-0.9-3-0.9-4-0.1c0.9-0.5,2.1-0.3,3.5,0.3l29.7,17.1c3,1.7,5.6,6.6,5.6,10.7
	c0,2.1-0.7,3.5-1.5,4.3c1.3-0.7,2.1-2.2,2.1-4.5C213.8,87.3,211.2,82.4,208.1,80.5z"/>
<g>
	<polygon fill="#FDC830" points="194.3,80.2 182,73.2 182,72.1 194.3,79.3 	"/>
	<polygon fill="#FDC830" points="204.1,85.9 195.5,80.9 195.5,79.9 204.1,84.9 	"/>
	<polygon fill="#FDC830" points="189.4,79.3 182,75 182,74.2 189.4,78.4 	"/>
	<polygon fill="#FDC830" points="194.3,82.1 190.6,79.9 190.6,79.1 194.3,81.2 	"/>
</g>
<g>
	<polygon fill="#F37335" points="223.2,119.8 210.9,112.7 210.9,111.7 223.2,119 	"/>
	<polygon fill="#F37335" points="209.8,112.1 201.2,107.1 201.2,106.3 209.8,111.2 	"/>
	<polygon fill="#F37335" points="218.3,119 210.9,114.7 210.9,113.7 218.3,118 	"/>
	<polygon fill="#F37335" points="223.2,121.8 219.5,119.7 219.5,118.6 223.2,120.8 	"/>
	<polygon fill="#F37335" points="209.8,114.1 206.1,111.7 206.1,110.9 209.8,113 	"/>
</g>
<polygon fill="#FDC830" points="200,106.5 193,102.4 193,101.6 200,105.6 "/>
</svg>
