<?xml version="1.0" encoding="utf-8"?>
<!-- Generator: Adobe Illustrator 18.0.0, SVG Export Plug-In . SVG Version: 6.00 Build 0)  -->
<!DOCTYPE svg PUBLIC "-//W3C//DTD SVG 1.1//EN" "http://www.w3.org/Graphics/SVG/1.1/DTD/svg11.dtd">
<svg version="1.1" id="Domain_Checker_2_" xmlns="http://www.w3.org/2000/svg" xmlns:xlink="http://www.w3.org/1999/xlink" x="0px"
	 y="0px" viewBox="0 0 300 300" enable-background="new 0 0 300 300" xml:space="preserve">
<g>
	<path fill="#1E2430" d="M247.6,233.2C194.3,264,108,264,54.7,233.2s-53.3-80.5,0-111.3s139.6-30.8,192.9,0S300.9,202.5,247.6,233.2
		z"/>
	<path fill="#323A4F" d="M247.6,236.7c-53.3,30.8-139.6,30.8-192.9,0s-53.3-80.5,0-111.3s139.6-30.8,192.9,0S300.9,206,247.6,236.7z
		"/>
	<g>
		<path fill="#F37335" d="M189,109.1l64.6,37.4c2.9,1.7,2.9,5.9,0,7.6l-40.6,23.6c-3.4,2-7.6,2-11,0l-65.9-38.2L189,109.1z"/>
		<path fill="#1E2430" d="M189,107.5l64.6,37.4c2.9,1.7,2.9,5.9,0,7.6l-40.6,23.6c-3.4,2-7.6,2-11,0L136.2,138L189,107.5z"/>
		<polygon opacity="0.5" fill="#FFFFFF" enable-background="new    " points="197.9,127.5 238.1,150.7 208.4,168.1 168.1,144.7 		
			"/>
		<polygon fill="#FFFFFF" points="136.2,138 145.9,143.6 198.2,112.8 189,107.5 		"/>
		<polygon opacity="0.5" fill="#FFFFFF" enable-background="new    " points="199.1,123.8 234.3,144.2 208.3,159.4 172.9,138.9 		
			"/>
		<polygon fill="#FFFFFF" points="198.7,118.4 229.6,136.3 206.8,149.7 175.7,131.7 		"/>
		<g>
			<path fill="#EA1836" d="M188.7,113.7L188.7,113.7c0.6,0.2,1.2,0.2,1.6,0l0,0c1-0.5,1-1.5,0-2l0,0c-0.5-0.2-1.1-0.2-1.5,0l0,0
				C187.7,112.1,187.7,113.2,188.7,113.7z"/>
			<path fill="#FCD227" d="M184.7,115.9L184.7,115.9c0.6,0.2,1.2,0.2,1.6,0l0,0c1-0.5,1-1.5,0-2l0,0c-0.5-0.2-1.1-0.2-1.5,0l0,0
				C183.7,114.4,183.7,115.5,184.7,115.9z"/>
			<path fill="#1BCC62" d="M180.8,118.2L180.8,118.2c0.6,0.2,1.2,0.2,1.6,0l0,0c1-0.5,1-1.5,0-2l0,0c-0.5-0.2-1.1-0.2-1.5,0l0,0
				C179.8,116.7,179.8,117.8,180.8,118.2z"/>
		</g>
		
			<linearGradient id="SVGID_1_" gradientUnits="userSpaceOnUse" x1="244.723" y1="439.2835" x2="263.4431" y2="439.2835" gradientTransform="matrix(0.25 0 0 -0.25 75 249.997)">
			<stop  offset="0" style="stop-color:#C73C12"/>
			<stop  offset="1" style="stop-color:#C73C12"/>
		</linearGradient>
		<polygon fill="url(#SVGID_1_)" points="136.2,139.6 136.2,138 140.9,140.7 140.9,142.3 		"/>
		<path fill="#F37335" d="M154.4,162.2l13.9-8l3.5,2.1c0.7,0.4,1.4,0,1.6-0.7l1.7-6.8c0.2-0.7-0.4-1.4-1.2-1.4l-11.8,1
			c-1.1,0.1,1.3,1.2,2.2,1.8l-0.9,1.3l-12.8,7.4c-0.7,0.4-0.7,1.4,0,1.8l2.6,1.6C153.7,162.4,154.1,162.4,154.4,162.2z"/>
		<path fill="#FFFFFF" d="M154.5,161.2l13.7-7.9l3.5,2c0.7,0.4,1.4,0,1.6-0.7l1.7-6.7c0.2-0.7-0.4-1.4-1.2-1.4l-11.6,1
			c-1.1,0.1-1.4,1.5-0.5,2.1l1.7,1l-12.6,7.3c-0.7,0.4-0.7,1.5,0,1.9l2.6,1.5C153.8,161.4,154.2,161.4,154.5,161.2z"/>
		<path fill="#F37335" d="M135.9,147.3l18.8,10.8c1.4,0.8,2.2,2.3,2.2,3.9v21.7c0,1.7-1.9,2.8-3.4,2l-18.8-10.8
			c-1.4-0.8-2.2-2.3-2.2-3.9v-21.7C132.5,147.5,134.4,146.4,135.9,147.3z"/>
		<path fill="#1E2430" d="M135.2,147.8l18.2,10.5c1.4,0.8,2.2,2.2,2.2,3.8v21.1c0,1.7-1.8,2.8-3.3,1.9l-18.2-10.6
			c-1.4-0.8-2.2-2.2-2.2-3.8v-21.1C132,148,133.8,147,135.2,147.8z"/>
		<path fill="#F37335" d="M90.1,73l18.8,10.8c1.4,0.8,2.2,2.3,2.2,3.9v21.7c0,1.7-1.9,2.8-3.4,2L89,100.6c-1.4-0.8-2.2-2.3-2.2-3.9
			V74.9C86.7,73.2,88.6,72.1,90.1,73z"/>
		<path fill="#1E2430" d="M89.4,73.5L107.7,84c1.4,0.8,2.2,2.2,2.2,3.8v21.1c0,1.7-1.8,2.8-3.3,1.9l-18.2-10.5
			c-1.4-0.8-2.2-2.2-2.2-3.8V75.4C86.2,73.7,88,72.7,89.4,73.5z"/>
		<path fill="#FFFFFF" d="M98.7,90.9L98.7,90.9c0.5,0.3,0.8,0.8,0.8,1.4l0,0c0,1.1-1.2,1.7-2.1,1.2l0,0c-0.5-0.3-0.8-0.8-0.8-1.4
			l0,0C96.6,91,97.7,90.3,98.7,90.9z"/>
		<path fill="#FFFFFF" d="M104.1,88.1L104.1,88.1c0.5,0.3,0.8,0.8,0.8,1.4l0,0c0,1.1-1.2,1.7-2.1,1.2l0,0c-0.5-0.3-0.8-0.8-0.8-1.4
			l0,0C102,88.2,103.2,87.6,104.1,88.1z"/>
		<path fill="#FFFFFF" d="M93.2,93.6L93.2,93.6c0.5,0.3,0.8,0.8,0.8,1.4l0,0c0,1.1-1.2,1.7-2.1,1.2l0,0c-0.5-0.3-0.8-0.8-0.8-1.4
			l0,0C91.1,93.7,92.2,93,93.2,93.6z"/>
		<path fill="#F37335" d="M140.4,166l-13.9,8l-3.5-2.1c-0.7-0.4-1.4,0-1.6,0.7l-1.7,6.8c-0.2,0.7,0.4,1.4,1.2,1.4l11.8-1
			c1.1-0.1,1.4-2.3,0.5-2.9l-1.8-0.2l12.8-7.4c0.7-0.4,0.6-2.1-0.1-2.6l-2.5-0.8C141.1,165.9,140.7,165.9,140.4,166z"/>
		<path fill="#FFFFFF" d="M140.3,165.4l-13.7,7.9l-3.5-2c-0.7-0.4-1.4,0-1.6,0.7l-1.7,6.7c-0.2,0.7,0.4,1.4,1.2,1.4l11.6-1
			c1.1-0.1,1.4-1.5,0.5-2.1l-1.7-1l12.6-7.3c0.7-0.4,0.7-1.5,0-1.9l-2.6-1.5C141,165.2,140.6,165.2,140.3,165.4z"/>
		<path fill="#1BCC62" d="M137.3,231.8l7.5,1.4c0.1,0,0.1,0,0.2-0.1l7.4-15.6c0.1-0.2-0.2-0.3-0.3-0.2l-8.5,12.6c0,0,0,0-0.1,0
			l-6.1,1.4C137.1,231.6,137.1,231.8,137.3,231.8z"/>
		<path fill="#FDC830" d="M89.5,166.4l64.6,37.4c2.9,1.7,2.9,5.9,0,7.6L113.5,235c-3.4,2-7.6,2-11,0l-66-38.1L89.5,166.4z"/>
		<path fill="#1E2430" d="M89.5,164.8l64.6,37.4c2.9,1.7,2.9,5.9,0,7.6l-40.6,23.6c-3.4,2-7.6,2-11,0l-66-38.2L89.5,164.8z"/>
		<polygon opacity="0.2" fill="#FFFFFF" points="98.4,184.7 138.6,208 108.9,225.3 68.5,202 		"/>
		<polygon fill="#FFFFFF" points="36.6,195.2 46.3,200.8 98.6,170.1 89.5,164.8 		"/>
		<polygon opacity="0.2" fill="#FFFFFF" points="99.6,181.1 134.8,201.4 108.8,216.6 73.4,196.2 		"/>
		<polygon fill="#FFFFFF" points="99.2,175.7 130.1,193.6 107.2,206.9 76.2,188.9 		"/>
		<g>
			<path fill="#EA1836" d="M89.2,170.9L89.2,170.9c0.6,0.2,1.2,0.2,1.6,0l0,0c1-0.5,1-1.5,0-2l0,0c-0.5-0.2-1.1-0.2-1.5,0l0,0
				C88.2,169.4,88.2,170.5,89.2,170.9z"/>
			<path fill="#FCD227" d="M85.2,173.2L85.2,173.2c0.6,0.2,1.2,0.2,1.6,0l0,0c1-0.5,1-1.5,0-2l0,0c-0.5-0.2-1.1-0.2-1.5,0l0,0
				C84.2,171.7,84.2,172.8,85.2,173.2z"/>
			<path fill="#1BCC62" d="M81.3,175.5L81.3,175.5c0.6,0.2,1.2,0.2,1.6,0l0,0c1-0.5,1-1.5,0-2l0,0c-0.5-0.2-1.1-0.2-1.5,0l0,0
				C80.2,174,80.2,175,81.3,175.5z"/>
		</g>
		
			<line fill="none" stroke="#EA1836" stroke-width="1.6149" stroke-linecap="round" stroke-miterlimit="10" x1="245.8" y1="168" x2="245.8" y2="178.6"/>
		
			<line fill="none" stroke="#EA1836" stroke-width="1.6149" stroke-linecap="round" stroke-miterlimit="10" x1="236.7" y1="173.3" x2="254.9" y2="173.3"/>
		<polygon fill="#F37335" points="174.6,193.8 194,205 194,201.9 174.6,191 		"/>
		<polygon fill="#F37335" points="174.4,186.8 193.8,198 193.8,195 174.4,184.1 		"/>
		<polygon fill="#F37335" points="174.4,180 193.7,191.2 193.7,188.1 174.4,177.2 		"/>
		<polygon fill="#FDC830" points="98.2,148.4 117.6,159.5 117.6,156.5 98.2,145.6 		"/>
		<polygon fill="#FDC830" points="98,141.4 117.4,152.6 117.4,149.5 98,138.7 		"/>
		<polygon fill="#FDC830" points="98,134.6 117.3,145.7 117.3,142.7 98,131.8 		"/>
	</g>
	<path fill="#F37335" d="M217.1,180.6l18.8,10.8c1.4,0.8,2.2,2.3,2.2,3.9v21.7c0,1.7-1.9,2.8-3.4,2L216,208.2
		c-1.4-0.8-2.2-2.3-2.2-3.9v-21.7C213.7,180.9,215.6,179.8,217.1,180.6z"/>
	<path fill="#1E2430" d="M216.4,181.2l18.2,10.5c1.4,0.8,2.2,2.2,2.2,3.8v21.1c0,1.7-1.8,2.8-3.3,1.9l-18.2-10.5
		c-1.4-0.8-2.2-2.2-2.2-3.8v-21.1C213.2,181.4,215,180.3,216.4,181.2z"/>
	<path fill="#FFFFFF" d="M225.7,198.5L225.7,198.5c0.5,0.3,0.8,0.8,0.8,1.4l0,0c0,1.1-1.2,1.7-2.1,1.2l0,0c-0.5-0.3-0.8-0.8-0.8-1.4
		l0,0C223.6,198.6,224.7,197.9,225.7,198.5z"/>
	<path fill="#FFFFFF" d="M231.1,195.8L231.1,195.8c0.5,0.3,0.8,0.8,0.8,1.4l0,0c0,1.1-1.2,1.7-2.1,1.2l0,0c-0.5-0.3-0.8-0.8-0.8-1.4
		l0,0C229,195.9,230.2,195.2,231.1,195.8z"/>
	<path fill="#FFFFFF" d="M220.2,201.2L220.2,201.2c0.5,0.3,0.8,0.8,0.8,1.4l0,0c0,1.1-1.2,1.7-2.1,1.2l0,0c-0.5-0.3-0.8-0.8-0.8-1.4
		l0,0C218.1,201.4,219.2,200.7,220.2,201.2z"/>
	<g>
		<linearGradient id="SVGID_2_" gradientUnits="userSpaceOnUse" x1="146.6696" y1="130.2816" x2="146.6696" y2="44.4817">
			<stop  offset="0" style="stop-color:#FD980C"/>
			<stop  offset="0.457" style="stop-color:#FDC830"/>
		</linearGradient>
		<polygon fill="url(#SVGID_2_)" points="139.3,130.3 139.3,51 154,44.5 154,123.7 		"/>
		<polygon fill="#FDC830" points="123.8,123.1 123.8,43.8 138.5,37.2 138.5,116.5 		"/>
		<linearGradient id="SVGID_3_" gradientUnits="userSpaceOnUse" x1="131.5696" y1="130.3817" x2="131.5696" y2="43.7817">
			<stop  offset="0" style="stop-color:#FD980C"/>
			<stop  offset="1" style="stop-color:#FDC830"/>
		</linearGradient>
		<polygon fill="url(#SVGID_3_)" points="123.8,123.1 123.8,43.8 139.3,51.1 139.3,130.4 		"/>
		<linearGradient id="SVGID_4_" gradientUnits="userSpaceOnUse" x1="123.8529" y1="44.1317" x2="154.0132" y2="44.1317">
			<stop  offset="0" style="stop-color:#FD980C"/>
			<stop  offset="1" style="stop-color:#FDC830"/>
		</linearGradient>
		<polygon fill="url(#SVGID_4_)" points="123.8,43.8 139.3,51.1 154,44.6 138.5,37.2 		"/>
	</g>
</g>
</svg>
