<?xml version="1.0" encoding="utf-8"?>
<!-- Generator: Adobe Illustrator 18.0.0, SVG Export Plug-In . SVG Version: 6.00 Build 0)  -->
<!DOCTYPE svg PUBLIC "-//W3C//DTD SVG 1.1//EN" "http://www.w3.org/Graphics/SVG/1.1/DTD/svg11.dtd">
<svg version="1.1" id="Layer_1" xmlns="http://www.w3.org/2000/svg" xmlns:xlink="http://www.w3.org/1999/xlink" x="0px" y="0px"
	 viewBox="0 0 300 300" enable-background="new 0 0 300 300" xml:space="preserve">
<path fill="#1E2430" d="M249.2,233.4c-53.3,30.8-139.6,30.8-192.9,0s-53.3-80.5,0-111.3s139.6-30.8,192.9,0S302.6,202.7,249.2,233.4
	z"/>
<path fill="#323A4F" d="M249.2,236.9c-53.3,30.8-139.6,30.8-192.9,0s-53.3-80.5,0-111.3s139.6-30.8,192.9,0S302.6,206.2,249.2,236.9
	z"/>
<g>
	<path fill="#FDC830" d="M98.2,137.8l121.1,70.1c2.3,1.3,5.2-0.3,5.2-3v-93.7c0-2.5-1.3-4.8-3.4-6L99.9,35.1c-2.3-1.3-5.2,0.3-5.2,3
		v93.8C94.7,134.3,96,136.6,98.2,137.8z"/>
	<path fill="#FFFFFF" stroke="#1E2430" stroke-width="2.0249" stroke-miterlimit="10" d="M94.7,138.7l121.1,70.1
		c2.3,1.3,5.2-0.3,5.2-3V112c0-2.5-1.3-4.8-3.4-6L96.5,36c-2.3-1.3-5.2,0.3-5.2,3v93.8C91.3,135.2,92.6,137.5,94.7,138.7z"/>
	<polygon fill="#F4F4F4" points="210.9,109.8 119.7,57.1 119.7,62.9 210.9,115.5 	"/>
	
		<ellipse transform="matrix(0.9864 -0.1645 0.1645 0.9864 -6.8311 16.9215)" fill="#F4256A" cx="98.8" cy="49.7" rx="2.2" ry="3.8"/>
	
		<ellipse transform="matrix(0.9864 -0.1645 0.1645 0.9864 -7.3638 18.1012)" fill="#FFDE39" cx="105.6" cy="53.5" rx="2.2" ry="3.8"/>
	
		<ellipse transform="matrix(0.9864 -0.1645 0.1645 0.9864 -7.943 19.3534)" fill="#3AEF83" cx="112.9" cy="57.6" rx="2.2" ry="3.8"/>
	<polygon fill="#323A4F" points="119.7,122.5 119.7,124.7 138.3,135.4 138.3,133.2 	"/>
	<polygon fill="#FDC830" points="119.7,130.3 119.7,132.4 126.5,136.5 126.5,134.3 	"/>
	<polygon fill="#FDC830" points="154.8,150.9 154.8,153 161.6,157 161.6,154.9 	"/>
	<polygon fill="#323A4F" points="143.6,136.7 143.6,138.9 162.2,149.6 162.2,147.5 	"/>
	<polygon fill="#FDC830" points="119.7,71.8 119.7,76.2 157.1,97.8 157.1,93.5 	"/>
	<polygon fill="#FDC830" points="173.5,103.4 173.5,107.7 210.9,129.3 210.9,125 	"/>
	<g>
		<path fill="#FFFFFF" d="M111.1,85.6l0.6,2.8c0.2,0.6,0.2,1.1,0.3,1.7h0.1c0.1-0.4,0.2-0.8,0.4-1.2l0.8-2l0.7,0.4l0.7,2.8
			c0.2,0.7,0.2,1.2,0.4,1.8h0.1c0.1-0.5,0.2-0.8,0.4-1.3l0.7-2l0.8,0.5l-1.5,3.8l-0.8-0.4l-0.7-2.6c-0.2-0.6-0.2-1.1-0.4-1.8l0,0
			c-0.2,0.5-0.2,0.9-0.5,1.3l-0.8,1.8l-0.8-0.4l-1.4-5.4L111.1,85.6z"/>
		<path fill="#FFFFFF" d="M118.1,89.5l0.5,2.7c0.2,0.6,0.2,1.1,0.3,1.6h0.1c0.2-0.4,0.2-0.8,0.5-1.2l0.8-1.9l0.7,0.4l0.6,2.7
			c0.2,0.6,0.2,1.2,0.4,1.7h0.1c0.1-0.4,0.2-0.8,0.4-1.3l0.7-1.9l0.8,0.5l-1.6,3.8l-0.7-0.4l-0.6-2.5c-0.2-0.6-0.2-1.1-0.4-1.8l0,0
			c-0.2,0.5-0.2,0.9-0.5,1.3l-0.8,1.8l-0.8-0.4l-1.2-5.4L118.1,89.5z"/>
		<path fill="#FFFFFF" d="M125,93.4l0.5,2.6c0.1,0.6,0.2,1.1,0.2,1.6h0.1c0.2-0.4,0.2-0.8,0.5-1.2l0.8-1.9l0.7,0.4l0.6,2.6
			c0.2,0.6,0.2,1.1,0.3,1.6h0.1c0.1-0.4,0.2-0.8,0.4-1.2L130,96l0.8,0.5l-1.6,3.6l-0.7-0.4l-0.6-2.5c-0.2-0.6-0.2-1.1-0.3-1.7l0,0
			c-0.2,0.5-0.3,0.9-0.5,1.2l-0.8,1.8l-0.7-0.4l-1.1-5.2L125,93.4z"/>
		<path fill="#FFFFFF" d="M130.6,100.6c0-0.4,0.2-0.5,0.6-0.2c0.3,0.2,0.5,0.5,0.5,0.8s-0.2,0.5-0.6,0.2
			C130.7,101.3,130.5,100.9,130.6,100.6z"/>
	</g>
</g>
<polygon fill="#FFFFFF" points="80.4,175.1 126.4,202.6 129.6,201.1 83.5,173.5 "/>
<polygon fill="#FFFFFF" points="132.1,205.7 145.6,213.9 148.8,212.4 135.2,204.1 "/>
<g>
	<polygon fill="#1E2430" points="117.3,92 122.5,94.9 122.5,115.4 127.1,117.9 127.1,97.5 133.3,101 133.3,93.9 117.3,84.8 	"/>
	<polygon fill="#1E2430" points="143.3,107 148.5,109.9 148.5,130.4 153.1,132.9 153.1,112.5 159.3,116.1 159.3,108.9 143.3,99.8 	
		"/>
	<polygon fill="#1E2430" points="136.1,123 140.6,125.5 140.6,97.8 136.1,95.2 	"/>
	<polygon fill="#1E2430" points="166.5,112.9 161.9,110.3 161.9,131.9 161.9,138.2 166.5,140.7 166.5,140.6 173.6,144.5 
		173.6,138.5 166.5,134.5 	"/>
	<polygon fill="#1E2430" points="188.5,131.1 188.5,124.9 181.3,120.9 181.3,120.9 176.8,118.3 176.8,124.4 176.8,129.6 
		176.8,135.7 176.8,139.8 176.8,146.1 181.3,148.6 181.3,148.6 188.5,152.4 188.5,146.4 181.3,142.4 181.3,138.3 188.5,142.4 
		188.5,136.2 181.3,132.1 181.3,127 	"/>
</g>
<g>
	<linearGradient id="SVGID_1_" gradientUnits="userSpaceOnUse" x1="220.7913" y1="237.6173" x2="220.7913" y2="151.8174">
		<stop  offset="0" style="stop-color:#FD980C"/>
		<stop  offset="0.457" style="stop-color:#FDC830"/>
	</linearGradient>
	<polygon fill="url(#SVGID_1_)" points="213.4,237.6 213.4,158.3 228.1,151.8 228.1,231 	"/>
	<polygon fill="#FDC830" points="197.9,230.4 197.9,151.1 212.6,144.5 212.6,223.8 	"/>
	<linearGradient id="SVGID_2_" gradientUnits="userSpaceOnUse" x1="205.6913" y1="237.7173" x2="205.6913" y2="151.1173">
		<stop  offset="0" style="stop-color:#FD980C"/>
		<stop  offset="1" style="stop-color:#FDC830"/>
	</linearGradient>
	<polygon fill="url(#SVGID_2_)" points="197.9,230.4 197.9,151.1 213.4,158.4 213.4,237.7 	"/>
	<linearGradient id="SVGID_3_" gradientUnits="userSpaceOnUse" x1="197.9746" y1="151.4673" x2="228.1349" y2="151.4673">
		<stop  offset="0" style="stop-color:#FD980C"/>
		<stop  offset="1" style="stop-color:#FDC830"/>
	</linearGradient>
	<polygon fill="url(#SVGID_3_)" points="197.9,151.1 213.4,158.4 228.1,151.9 212.6,144.5 	"/>
</g>
</svg>
