<?xml version="1.0" encoding="utf-8"?>
<!-- Generator: Adobe Illustrator 18.0.0, SVG Export Plug-In . SVG Version: 6.00 Build 0)  -->
<!DOCTYPE svg PUBLIC "-//W3C//DTD SVG 1.1//EN" "http://www.w3.org/Graphics/SVG/1.1/DTD/svg11.dtd">
<svg version="1.1" id="Layer_1" xmlns="http://www.w3.org/2000/svg" xmlns:xlink="http://www.w3.org/1999/xlink" x="0px" y="0px"
	 viewBox="0 0 1366 227.8" enable-background="new 0 0 1366 227.8" xml:space="preserve">
<g>
	<path fill="#2B58C9" d="M-47.6,159.4C6,100.9,84.4,65.8,163.8,65c70.3-0.7,138.3,24,203.2,51c55.9,23.3,111.1,48.5,165.2,75.7
		c25.2,12.6,50.2,25.7,76.3,36.5c65.9,27.2,137.1,39.2,204.1,63.6c28.5,10.3,58.3,24.9,71.8,52c-27.2,37.9-79.2,46.7-125.7,50.6
		c-147.1,12.2-295.1,6.3-442.6,0.4c-127.1-5.1-255.7-10.4-377.9-45.7c-11.9-3.4-24.1-7.3-33.6-15.3c-8.8-7.4-14.6-17.8-18.8-28.5
		c-24-60.9-1.2-129.3,21.6-190.7"/>
</g>
<g>
	<path fill="#1134A3" d="M-121.2,108.1c29-18.1,66.8-14.9,98.9-3.3S38.6,135.6,70,149c115.2,49,251.6,15.5,369.1,58.6
		c29.7,10.9,57.7,26.5,87.9,36.1c105.2,33.4,224.5-10,327.7,29.2c56.1,21.3,106.8,66.5,166.7,61.8c1.6,18.5-11.9,35.7-28.3,44.4
		s-35.4,11-53.8,13.5c-77.1,10.6-152.8,29.6-229.1,45.2c-159.9,32.7-325.6,50.6-486.2,21.5c-100.9-18.3-202.5-55-303.3-36.1
		c-23.1,4.3-48.6,11.1-68.6-1.1c-13.6-8.3-21.1-23.5-26.9-38.3c-17.5-44.2-26.3-91.8-25.7-139.3"/>
</g>
<g>
	<path fill="#2B58C9" d="M1479.3,175c-55.7,56.6-135.4,88.7-214.8,86.6c-70.3-1.9-137.3-29.1-201.2-58.5
		c-55.1-25.3-109.2-52.6-162.3-81.7c-24.7-13.6-49.2-27.5-74.9-39.2c-64.9-29.6-135.6-44.2-201.6-71c-28.1-11.4-57.3-27-69.8-54.6
		c28.6-36.9,80.8-43.8,127.5-45.9c147.5-6.8,295.1,4.6,442.3,15.9c126.8,9.8,255.1,19.8,376,59.5c11.8,3.9,23.8,8.2,33,16.6
		c8.5,7.7,13.9,18.3,17.7,29.1c21.8,61.8-3.6,129.2-28.6,189.7"/>
</g>
<circle fill="#FFFFFF" cx="1279.8" cy="179.3" r="10.2"/>
<circle fill="none" stroke="#FFFFFF" stroke-width="0.7876" stroke-miterlimit="10" cx="1256.2" cy="202.9" r="10.2"/>
<circle fill="#FFFFFF" cx="41.9" cy="79.3" r="7.9"/>
<circle fill="none" stroke="#FFFFFF" stroke-width="0.61" stroke-miterlimit="10" cx="56" cy="57.5" r="7.9"/>
<g>
	<g>
		<path fill="#FFFFFF" d="M42.7,30.6c8.7-4.3,18-5.4,27.5-3.5c8.4,1.7,16.2,5.5,24.8,6.7c10.1,1.5,22.3-2.8,25.3-13.4
			c0.5-1.9-2.4-2.7-2.9-0.8c-4.5,16.1-25.2,11.1-36.5,7.5c-13.6-4.4-26.5-5.6-39.6,0.9C39.4,28.8,41,31.4,42.7,30.6L42.7,30.6z"/>
	</g>
</g>
</svg>
