<?xml version="1.0" encoding="utf-8"?>
<!-- Generator: Adobe Illustrator 18.0.0, SVG Export Plug-In . SVG Version: 6.00 Build 0)  -->
<!DOCTYPE svg PUBLIC "-//W3C//DTD SVG 1.1//EN" "http://www.w3.org/Graphics/SVG/1.1/DTD/svg11.dtd">
<svg version="1.1" id="Layer_1" xmlns="http://www.w3.org/2000/svg" xmlns:xlink="http://www.w3.org/1999/xlink" x="0px" y="0px"
	 viewBox="0 0 300 300" enable-background="new 0 0 300 300" xml:space="preserve">
<path fill="#F37335" d="M246,208.8h-48.6c-2.7,0-5.1-2.4-5.1-5.1v-48.6c0-2.7,2.4-5.1,5.1-5.1H246c2.7,0,5.1,2.4,5.1,5.1v48.6
	C251.1,206.4,248.7,208.8,246,208.8z"/>
<path fill="#F37335" d="M111.3,182.4c2.7-7.8,5.1-15.9,7.8-23.7c2.1-5.7,5.1-10.8,9.6-15c5.7-4.8,12-4.2,16.5,1.5
	c3.3,3.9,5.1,8.4,6.9,13.2c3.3,9.9,5.1,20.1,6.6,30.6c0,0.3,0,0.6,0.3,1.5c0.6-1.2,0.9-2.1,1.5-3c3.3-6.6,7.2-12.9,13.8-16.5
	c2.7-1.5,6-2.4,9-3.3c1.8-0.6,3.3,0.9,3.6,2.4c0.3,1.8-0.6,3.3-2.4,3.6c-9,1.5-14.1,7.8-17.7,15.3c-3,5.7-4.5,11.7-6,18
	c-0.3,1.2-1.2,2.7-2.1,3.3c-2.1,1.2-4.2-0.6-4.5-3.3c-0.6-6.6-1.2-13.5-2.1-20.1c-1.8-11.7-3.9-23.4-9-34.2c-0.9-1.5-1.8-3.3-3-4.5
	c-2.1-2.4-4.5-2.7-6.9-0.6c-1.8,1.5-3.3,3.6-4.5,5.7c-4.8,8.7-7.5,18-9.6,27.6c-1.8,8.7-3.3,17.4-4.8,25.8c-0.6,2.4-1.5,3.9-3.6,3.6
	c-2.1,0-3-1.5-3.3-4.2c-0.9-19.5-4.5-38.4-12-56.7C90.6,138.3,84.6,128.1,75,120c-6.6-5.7-14.4-9.6-23.1-11.4
	c-2.7-0.6-3.9-3-2.7-5.1c0.9-1.5,2.4-1.8,4.2-1.2c7.2,1.5,13.8,4.2,19.8,8.1c12,7.8,20.1,18.6,26.1,31.2c5.7,12,9.3,24.9,11.7,38.1
	C111,181.5,111.3,182.1,111.3,182.4z"/>
</svg>
