<?xml version="1.0" encoding="utf-8"?>
<!-- Generator: Adobe Illustrator 18.0.0, SVG Export Plug-In . SVG Version: 6.00 Build 0)  -->
<!DOCTYPE svg PUBLIC "-//W3C//DTD SVG 1.1//EN" "http://www.w3.org/Graphics/SVG/1.1/DTD/svg11.dtd">
<svg version="1.1" id="Layer_1" xmlns="http://www.w3.org/2000/svg" xmlns:xlink="http://www.w3.org/1999/xlink" x="0px" y="0px"
	 viewBox="0 0 300 300" enable-background="new 0 0 300 300" xml:space="preserve">
<g>
	<path fill="#F37335" d="M67.2,135H46.5V93.2h20.1c8.5,0,13.7,3.9,13.7,10.9c0,5-3,8.4-7.1,9.5c5,1.1,8,5.3,8,10.1
		C81.2,130.7,76.1,135,67.2,135z M64,102.4h-5.9v7.4H64c2.8,0,4.4-1.2,4.4-3.6C68.4,103.7,66.8,102.4,64,102.4z M64.8,118h-6.7v7.6
		h6.8c2.9,0,4.4-1.2,4.4-3.7C69.3,119.4,67.6,118,64.8,118z"/>
	<path fill="#F37335" d="M104.6,93.2c10.4,0,15.6,5.9,15.6,13.4c0,5.5-3,10.2-9.2,12.1l9.4,16.3h-13l-8.3-15.4h-1.2V135H86.3V93.2
		H104.6z M103.7,102.9h-5.8v8.7h5.8c3.1,0,4.7-1.5,4.7-4.4C108.4,104.6,106.8,102.9,103.7,102.9z"/>
	<path fill="#F37335" d="M152,128.2h-14.8l-2.3,6.8h-12.2l15.3-41.8h13.4l15.2,41.8h-12.3L152,128.2z M144.6,105.7l-4.5,13.5h9
		L144.6,105.7z"/>
	<path fill="#F37335" d="M209.1,93.2V135h-11.6L182,111.6V135h-11.6V93.2H182l15.5,23.7V93.2H209.1z"/>
	<path fill="#F37335" d="M254.1,114.1c0,12.1-8.5,21-21.8,21h-16.6V93.2h16.6C245.6,93.2,254.1,101.8,254.1,114.1z M231.4,124.7
		c6.7,0,10.9-3.8,10.9-10.7c0-6.9-4.2-10.8-10.9-10.8h-4v21.5H231.4z"/>
	<path fill="#F37335" d="M54.6,206.8c-5.3,0-8.8-3.4-8.8-7.7c0-4.3,3.4-7.8,8.8-7.8c5.3,0,8.7,3.4,8.7,7.8
		C63.3,203.5,59.9,206.8,54.6,206.8z"/>
	<path fill="#F37335" d="M95.3,151.9c13.5,0,23.1,7.8,25.8,20H105c-1.9-4-5.5-6.3-9.9-6.3c-6.9,0-11.4,5.3-11.4,13.6
		c0,8.3,4.5,13.6,11.4,13.6c4.4,0,8-2.2,9.9-6.3H121c-2.7,12.2-12.3,20-25.8,20c-16.2,0-26.8-11.3-26.8-27.4
		C68.5,163.2,79.1,151.9,95.3,151.9z"/>
	<path fill="#F37335" d="M153.9,206.8c-15.2,0-27.6-11.4-27.6-27.6c0-16.2,12.3-27.5,27.6-27.5c15.3,0,27.5,11.4,27.5,27.5
		C181.4,195.3,169.1,206.8,153.9,206.8z M153.9,192.9c7.7,0,12.3-5.4,12.3-13.7c0-8.5-4.7-13.8-12.3-13.8c-7.8,0-12.3,5.3-12.3,13.8
		C141.5,187.5,146.1,192.9,153.9,192.9z"/>
	<path fill="#F37335" d="M188.1,152.5h18.1l13.5,34.9l13.2-34.9h18v53.7h-14.9v-29.7l-10.1,29.7h-12.5l-10.2-29.9v29.9h-14.9V152.5z
		"/>
</g>
</svg>
