<?xml version="1.0" encoding="utf-8"?>
<!-- Generator: Adobe Illustrator 18.0.0, SVG Export Plug-In . SVG Version: 6.00 Build 0)  -->
<!DOCTYPE svg PUBLIC "-//W3C//DTD SVG 1.1//EN" "http://www.w3.org/Graphics/SVG/1.1/DTD/svg11.dtd">
<svg version="1.1" id="Layer_1" xmlns="http://www.w3.org/2000/svg" xmlns:xlink="http://www.w3.org/1999/xlink" x="0px" y="0px"
	 viewBox="0 0 300 300" enable-background="new 0 0 300 300" xml:space="preserve">
<g>
	<path fill="#F37335" d="M218.7,211.8c0,1.8,0,3.6,0,5.1c0,9.3,0,18.9-0.3,28.2c0,3.6-1.5,6-4.8,7.2c-3,0.9-5.7,0-7.8-3
		c-4.2-5.7-8.7-11.4-12.9-17.1c-0.6-0.6-0.9-1.2-1.8-2.1c-0.6,0.6-1.2,1.5-1.5,2.1c-4.2,5.7-8.7,11.4-12.9,17.1
		c-2.1,3-4.8,3.9-7.8,3c-3-0.9-4.8-3.3-4.8-7.2c0-10.2,0-20.4-0.3-30.9c0-0.9,0-1.5,0-2.4c-1.2,0-1.8,0-2.7,0
		c-34.8,0-69.3,0-104.1,0c-6,0-8.4-2.4-8.4-8.4c0-48.6,0-97.5,0-146.1c0-6,2.4-8.4,8.4-8.4c62.1,0,124.5,0,186.6,0
		c6,0,8.4,2.4,8.4,8.4c0,48.9,0,97.5,0,146.4c0,5.7-2.4,8.1-8.1,8.1C235.8,211.8,227.4,211.8,218.7,211.8z M238.8,198
		c0-45.3,0-90.3,0-135.6c-58.8,0-117.6,0-176.1,0c0,45.3,0,90.3,0,135.3c33.9,0,67.8,0,101.7,0c0-3,0-5.7,0-8.7
		c0-0.9-0.6-2.1-1.2-2.7c-9.3-9.6-13.5-21-12-34.5c1.8-15.9,13.5-29.4,29.1-33.9s32.7,0.9,42.9,13.5c13.2,16.5,12,39.6-3,54.6
		c-0.6,0.6-1.2,1.5-1.2,2.1c-0.3,3,0,6.3,0,9.3C225.3,198,231.9,198,238.8,198z M164.1,157.2c0,15,12,27.3,27,27.3
		c15,0,27.3-12,27.3-27s-12-27.3-27-27.3C176.4,130.2,164.1,142.2,164.1,157.2z M177.9,195.9c0,9.6,0,19.2,0,29.1
		c2.4-3.3,4.8-6.3,7.2-9.6c3.9-5.1,8.7-5.1,12.6,0c2.1,2.7,4.2,5.4,6,8.1c0.3,0.3,0.6,0.6,1.2,1.2c0-9.6,0-19.2,0-28.8
		C195.6,198.9,186.9,198.9,177.9,195.9z"/>
	<path fill="#F37335" d="M150.3,103.2c-22.5,0-44.7,0-67.2,0c-5.7,0-9-5.1-6.6-9.9c1.2-2.7,3.6-3.6,6.3-3.6
		c15.9,0,31.8-0.3,47.4-0.3c25.2,0,50.4,0,75.6,0c4.2,0,8.1,0.3,12.3,0.3c3.9,0,6.9,3,6.9,6.9c0,3.9-3,6.6-6.9,6.6
		c-14.4,0-29.1,0-43.5,0C166.8,103.2,158.4,103.2,150.3,103.2z"/>
	<path fill="#F37335" d="M109.5,130.2c-9,0-17.7,0-26.7,0c-5.7,0-9-5.7-6-10.2c1.2-2.1,3.3-3.3,5.7-3.3c18,0,36.3,0,54.3,0
		c3.9,0,6.9,3,6.9,6.9c0,3.9-3,6.6-6.9,6.6C127.8,130.2,118.8,130.2,109.5,130.2z"/>
	<path fill="#F37335" d="M102.9,157.5c-6.6,0-13.2,0-19.8,0c-4.2,0-7.2-3-7.2-6.9s3-6.6,7.2-6.9c13.2,0,26.7,0,39.9,0
		c4.2,0,7.2,3,7.2,6.9s-3,6.6-7.2,6.9C116.4,157.5,109.5,157.5,102.9,157.5z"/>
</g>
</svg>
