<?xml version="1.0" encoding="utf-8"?>
<!-- Generator: Adobe Illustrator 18.0.0, SVG Export Plug-In . SVG Version: 6.00 Build 0)  -->
<!DOCTYPE svg PUBLIC "-//W3C//DTD SVG 1.1//EN" "http://www.w3.org/Graphics/SVG/1.1/DTD/svg11.dtd">
<svg version="1.1" id="Layer_1" xmlns="http://www.w3.org/2000/svg" xmlns:xlink="http://www.w3.org/1999/xlink" x="0px" y="0px"
	 viewBox="0 0 300 300" enable-background="new 0 0 300 300" xml:space="preserve">
<path fill="none" stroke="#F37335" stroke-width="10" stroke-linecap="round" stroke-miterlimit="10" d="M66.3,171.9
	c9.6,39.9,45.6,69.9,88.5,69.9c50.1,0,90.9-40.8,90.9-90.9s-40.8-91.2-90.9-91.2c-49.8,0-90.3,40.2-90.9,89.7"/>
<g>
	<path fill="#F37335" d="M163.2,157.8c-0.3-2.4-2.1-3.6-4.2-3.3c-1.5,0.3-2.1,0.9-2.7,1.5c-0.3,0.6-0.9,1.5-0.3,3
		c1.2,5.1-0.3,9.3-4.2,13.2l-16.2,16.2c-1.2,1.2-2.4,2.4-3.6,3.3c-4.8,3.3-12.9,2.4-18-2.7c-0.6-0.6-1.2-1.5-1.8-2.1
		c-4.2-6-3.9-12.9,1.2-18l18-18c3.9-3.9,8.1-5.1,13.2-3.9c2.4,0.6,4.2-0.3,4.5-2.4c0.6-1.8-0.9-3.9-3.3-4.8
		c-7.2-1.8-13.5-0.6-18,3.9c-7.2,6.9-14.1,14.1-21,21c-6,6.3-6.6,16.8-1.2,25.2c0.3,0.3,0.3,0.3,0.3,0.6c0,0,0,0,0.3,0.3v0.6
		l5.4,5.4h0.3c8.4,6,19.5,5.7,25.8-0.3c7.5-6.9,14.4-14.1,21.6-21.6C163.5,170.4,164.7,164.4,163.2,157.8z"/>
	<path fill="#F37335" d="M209.1,111.6c-0.6-2.4-1.8-4.8-3-6.9c-0.3-0.6-0.6-1.2-0.9-1.8l-5.4-5.4h-0.3c-8.7-6-19.2-5.7-26.1,0.3
		c-7.2,6.6-14.1,13.5-20.7,20.7c-4.2,4.5-5.7,10.2-4.2,17.4c0.6,2.7,2.4,3.9,4.2,3.6c1.5,0,2.1-0.9,2.4-1.2c0.6-0.9,0.9-1.8,0.6-3.6
		c-0.9-4.8,0.3-8.7,3.3-12c2.1-2.1,4.2-4.2,6.3-6.3c4.2-4.2,8.4-8.4,12.6-12.6c5.4-5.1,14.1-4.8,19.8,0.9c0.3,0.3,0.6,0.6,0.9,0.9
		c5.1,6,4.8,14.1-0.3,19.2l-18,18c-3.6,3.6-7.8,4.8-12.9,3.9c-1.2-0.3-2.4,0-3,0.6c-0.6,0.3-1.2,0.9-1.5,2.4c0,1.2,0.3,2.1,1.2,3
		c0.6,0.6,1.5,1.2,2.4,1.2c7.2,1.5,12.9,0,17.4-4.2c6.3-6,12.9-12.6,20.7-20.4C209.1,125.1,210.6,119.1,209.1,111.6z"/>
	<path fill="#F37335" d="M142.8,160.5c1.2,1.2,3.6,1.8,6-0.6l17.1-17.1c2.4-2.4,1.8-4.5,0.6-6c-1.2-1.2-3.6-1.8-6,0.6l-17.1,17.1
		C140.4,157.5,142.2,159.9,142.8,160.5z"/>
</g>
<polyline fill="none" stroke="#F37335" stroke-width="10" stroke-linecap="round" stroke-linejoin="round" stroke-miterlimit="10" points="
	54.3,147.6 63.9,157.2 73.5,147.3 "/>
<line fill="none" stroke="#F37335" stroke-width="10" stroke-linecap="round" stroke-miterlimit="10" x1="153.9" y1="59.7" x2="153.9" y2="77.7"/>
<line fill="none" stroke="#F37335" stroke-width="10" stroke-linecap="round" stroke-miterlimit="10" x1="154.8" y1="221.4" x2="154.8" y2="241.8"/>
<line fill="none" stroke="#F37335" stroke-width="10" stroke-linecap="round" stroke-miterlimit="10" x1="245.4" y1="150.3" x2="227.7" y2="150.3"/>
</svg>
