<?xml version="1.0" encoding="utf-8"?>
<!-- Generator: Adobe Illustrator 18.0.0, SVG Export Plug-In . SVG Version: 6.00 Build 0)  -->
<!DOCTYPE svg PUBLIC "-//W3C//DTD SVG 1.1//EN" "http://www.w3.org/Graphics/SVG/1.1/DTD/svg11.dtd">
<svg version="1.1" id="Layer_1" xmlns="http://www.w3.org/2000/svg" xmlns:xlink="http://www.w3.org/1999/xlink" x="0px" y="0px"
	 viewBox="0 0 300 300" enable-background="new 0 0 300 300" xml:space="preserve">
<path fill="none" stroke="#F37335" stroke-width="10" stroke-miterlimit="10" d="M197.7,199.8h-95.4c-27.3,0-49.8-22.5-49.8-49.8
	l0,0c0-27.3,22.5-49.8,49.8-49.8H198c27.3,0,49.8,22.5,49.8,49.8l0,0C247.5,177.3,225,199.8,197.7,199.8z"/>
<g>
	<path fill="none" stroke="#F37335" stroke-miterlimit="10" d="M124.2,131.1c1.8,0.6,3.6,1.8,5.4,3.3c0.3,0.3,0.6,0.6,0.9,0.9
		c0,0.3,0.3,0.6,0.3,1.2s-0.3,1.2-0.6,1.5c-0.6,0.3-0.9,0.6-1.5,0.6s-1.2-0.3-1.8-0.6c-1.2-1.2-2.7-1.8-3.9-2.4
		c-1.2-0.6-3-0.6-4.8-0.6c-2.4,0-4.8,0.6-6.9,2.1c-2.1,1.2-3.9,3-5.1,5.4s-1.8,4.8-1.8,7.5s0.6,5.1,1.8,7.5c1.2,2.4,3,4.2,5.1,5.4
		s4.5,2.1,6.9,2.1c3,0,6-1.2,9-3.3c0.6-0.3,1.2-0.6,1.5-0.6c0.6,0,1.2,0.3,1.5,0.6s0.6,0.9,0.6,1.8c0,0.6-0.3,1.2-0.9,1.8
		c-3.6,2.7-7.5,4.2-12,4.2c-3.6,0-6.6-0.9-9.6-2.7s-5.1-4.2-6.9-6.9c-1.5-3-2.4-6.3-2.4-9.9s0.9-6.9,2.4-9.9s3.9-5.4,6.9-6.9
		c3-1.8,6-2.7,9.6-2.7C120.3,129.9,122.4,130.5,124.2,131.1z"/>
	<path fill="none" stroke="#F37335" stroke-miterlimit="10" d="M167.1,131.1c0.3,0.3,0.6,0.9,0.6,1.8c0,0.6-0.3,1.2-0.6,1.8
		c-0.3,0.3-0.9,0.6-1.8,0.6h-10.5v30.6c0,0.6-0.3,1.2-0.6,1.8c-0.6,0.6-1.2,0.6-1.8,0.6s-1.2-0.3-1.8-0.6c-0.6-0.6-0.6-1.2-0.6-1.8
		v-30.6h-10.5c-0.6,0-1.2-0.3-1.8-0.6c-0.3-0.3-0.6-0.9-0.6-1.8c0-0.6,0.3-1.2,0.6-1.8c0.3-0.3,0.9-0.6,1.8-0.6h25.8
		C166.2,130.5,166.8,130.8,167.1,131.1z"/>
	<path fill="none" stroke="#F37335" stroke-miterlimit="10" d="M201,165.9c0,0.6-0.3,1.2-0.6,1.8c-0.6,0.6-1.2,0.6-1.8,0.6
		s-0.9,0-1.5-0.3c-0.3-0.3-0.6-0.6-0.9-1.2l-2.7-6.9h-17.4l-2.7,6.9c-0.3,0.6-0.6,0.9-0.9,1.2c-0.3,0.3-0.9,0.3-1.5,0.3
		s-1.2-0.3-1.8-0.6c-0.6-0.6-0.6-1.2-0.6-1.8c0-0.3,0-0.6,0.3-1.2l13.5-32.4c0.6-1.2,1.2-1.8,2.4-1.8s2.1,0.6,2.4,1.8l13.8,32.4
		C201,165.3,201,165.6,201,165.9z M192,156l-6.9-17.1l-7.2,17.1H192z"/>
	<path fill="#F37335" d="M124.2,131.1c1.8,0.6,3.6,1.8,5.4,3.3c0.3,0.3,0.6,0.6,0.9,0.9c0,0.3,0.3,0.6,0.3,1.2s-0.3,1.2-0.6,1.5
		c-0.6,0.3-0.9,0.6-1.5,0.6s-1.2-0.3-1.8-0.6c-1.2-1.2-2.7-1.8-3.9-2.4c-1.2-0.6-3-0.6-4.8-0.6c-2.4,0-4.8,0.6-6.9,2.1
		c-2.1,1.2-3.9,3-5.1,5.4s-1.8,4.8-1.8,7.5s0.6,5.1,1.8,7.5c1.2,2.4,3,4.2,5.1,5.4s4.5,2.1,6.9,2.1c3,0,6-1.2,9-3.3
		c0.6-0.3,1.2-0.6,1.5-0.6c0.6,0,1.2,0.3,1.5,0.6s0.6,0.9,0.6,1.8c0,0.6-0.3,1.2-0.9,1.8c-3.6,2.7-7.5,4.2-12,4.2
		c-3.6,0-6.6-0.9-9.6-2.7s-5.1-4.2-6.9-6.9c-1.5-3-2.4-6.3-2.4-9.9s0.9-6.9,2.4-9.9s3.9-5.4,6.9-6.9c3-1.8,6-2.7,9.6-2.7
		C120.3,129.9,122.4,130.5,124.2,131.1z"/>
	<path fill="#F37335" d="M167.1,131.1c0.3,0.3,0.6,0.9,0.6,1.8c0,0.6-0.3,1.2-0.6,1.8c-0.3,0.3-0.9,0.6-1.8,0.6h-10.5v30.6
		c0,0.6-0.3,1.2-0.6,1.8c-0.6,0.6-1.2,0.6-1.8,0.6s-1.2-0.3-1.8-0.6c-0.6-0.6-0.6-1.2-0.6-1.8v-30.6h-10.5c-0.6,0-1.2-0.3-1.8-0.6
		c-0.3-0.3-0.6-0.9-0.6-1.8c0-0.6,0.3-1.2,0.6-1.8c0.3-0.3,0.9-0.6,1.8-0.6h25.8C166.2,130.5,166.8,130.8,167.1,131.1z"/>
	<path fill="#F37335" d="M201,165.9c0,0.6-0.3,1.2-0.6,1.8c-0.6,0.6-1.2,0.6-1.8,0.6s-0.9,0-1.5-0.3c-0.3-0.3-0.6-0.6-0.9-1.2
		l-2.7-6.9h-17.4l-2.7,6.9c-0.3,0.6-0.6,0.9-0.9,1.2c-0.3,0.3-0.9,0.3-1.5,0.3s-1.2-0.3-1.8-0.6c-0.6-0.6-0.6-1.2-0.6-1.8
		c0-0.3,0-0.6,0.3-1.2l13.5-32.4c0.6-1.2,1.2-1.8,2.4-1.8s2.1,0.6,2.4,1.8l13.8,32.4C201,165.3,201,165.6,201,165.9z M192,156
		l-6.9-17.1l-7.2,17.1H192z"/>
</g>
</svg>
