<?xml version="1.0" encoding="utf-8"?>
<!-- Generator: Adobe Illustrator 18.0.0, SVG Export Plug-In . SVG Version: 6.00 Build 0)  -->
<!DOCTYPE svg PUBLIC "-//W3C//DTD SVG 1.1//EN" "http://www.w3.org/Graphics/SVG/1.1/DTD/svg11.dtd">
<svg version="1.1" id="Layer_1" xmlns="http://www.w3.org/2000/svg" xmlns:xlink="http://www.w3.org/1999/xlink" x="0px" y="0px"
	 viewBox="0 0 300 300" enable-background="new 0 0 300 300" xml:space="preserve">
<path fill="none" stroke="#F37335" stroke-width="10" stroke-miterlimit="10" d="M178.5,244.5h-57c-14.7,0-27-12-27-27v-135
	c0-14.7,12-27,27-27h57c14.7,0,27,12,27,27v135C205.5,232.2,193.2,244.5,178.5,244.5z"/>
<path fill="#F37335" d="M174.6,73.1h-49.2c-0.9,0-1.5-0.6-1.5-1.5v-0.9c0-0.9,0.6-1.5,1.5-1.5h48.9c0.9,0,1.5,0.6,1.5,1.5v0.9
	C176.1,72.5,175.5,73.1,174.6,73.1z"/>
<circle fill="#F37335" cx="150" cy="228.9" r="3.6"/>
<g>
	<path fill="#F37335" d="M141.3,147.2c1.4,1.4,3.8,1,4.8-0.5c1-1,1-1.9,0.5-2.4c0-0.5-0.5-1.4-1.4-2.4c-3.8-2.4-5.7-6.2-5.7-11.5
		V110c0-1.4,0-2.9,0.5-4.3c0.5-5.3,6.7-10,12.9-10c1,0,1.4,0,2.4,0.5c6.7,1.4,10.5,5.7,10.5,12.4v22.9c0,4.8-1.9,8.6-6.2,11
		c-1.9,1-2.4,2.9-1.4,4.3s2.9,1.9,5.3,1c5.7-3.3,9.1-8.1,9.1-13.8c0.5-9.1,0-18.1,0-26.7c-0.5-8.1-6.7-14.8-15.3-16.7
		c-0.5,0-0.5,0-0.5,0s0,0-0.5,0l-0.5-0.5h-6.7v0.5c-9.1,1.4-16.2,8.6-16.2,16.7c-0.5,9.1-0.5,18.1,0,27.7
		C133.2,139.1,136,143.4,141.3,147.2z"/>
	<path fill="#F37335" d="M141.3,205.4c1.9,1.4,4.3,1.9,6.2,2.4c0.5,0,1,0.5,1.9,0.5h6.7v-0.5c9.5-1.9,15.8-8.6,16.2-17.2
		c0.5-8.6,0.5-17.7,0-26.3c0-5.3-2.9-10-8.6-13.8c-1.9-1.4-4.3-1-5.3,0.5c-1,1-1,1.9-1,2.4c0,1,0.5,1.9,1.9,2.4
		c3.3,2.4,5.3,5.7,5.3,10c0,2.4,0,5.3,0,8.1c0,5.3,0,10.5,0,16.2c0,6.7-5.7,11.9-13.4,11.9c-0.5,0-1,0-1.4,0
		c-7.2-0.5-11.9-5.7-11.9-12.4v-22.9c0-4.3,1.9-8.1,5.7-10.5c1-0.5,1.4-1.4,1.4-2.4c0-0.5,0-1.4-0.5-2.4c-0.5-1-1.4-1.4-2.4-1.4
		s-1.4,0.5-2.4,1c-5.3,3.3-8.1,8.1-8.6,13.8c-0.5,7.6-0.5,16.2,0,26.3C132.7,196.8,135.6,202.1,141.3,205.4z"/>
	<path fill="#F37335" d="M152.3,132.4c-1.4,0-3.3,1.4-3.3,4.3v22c0,2.9,1.9,4.3,3.3,4.3c1.4,0,3.3-1.4,3.3-4.3v-22
		C156.1,132.4,153.2,132.4,152.3,132.4z"/>
</g>
</svg>
