<?xml version="1.0" encoding="utf-8"?>
<!-- Generator: Adobe Illustrator 18.0.0, SVG Export Plug-In . SVG Version: 6.00 Build 0)  -->
<!DOCTYPE svg PUBLIC "-//W3C//DTD SVG 1.1//EN" "http://www.w3.org/Graphics/SVG/1.1/DTD/svg11.dtd">
<svg version="1.1" id="Layer_1" xmlns="http://www.w3.org/2000/svg" xmlns:xlink="http://www.w3.org/1999/xlink" x="0px" y="0px"
	 viewBox="0 0 300 300" enable-background="new 0 0 300 300" xml:space="preserve">
<g>
	<path fill="none" stroke="#F37335" stroke-miterlimit="10" d="M91.8,153c0.3,0.3,0.6,0.6,0.6,1.2c0,0.6-0.3,0.9-0.6,1.2
		s-0.6,0.6-1.2,0.6s-0.9-0.3-1.2-0.6c-0.3-0.3-0.6-0.6-0.6-1.2c0-0.6,0.3-0.9,0.6-1.2c0.3-0.3,0.6-0.6,1.2-0.6
		C91.2,152.7,91.5,152.7,91.8,153z"/>
	<path fill="none" stroke="#F37335" stroke-miterlimit="10" d="M111.6,140.7v6.9c0,1.5-0.3,3-1.2,4.2c-0.6,1.2-1.8,2.1-3,3
		c-1.2,0.6-2.7,1.2-4.2,1.2s-3-0.3-4.2-1.2c-1.2-0.6-2.1-1.8-3-3c-0.6-1.2-1.2-2.7-1.2-4.2s0.3-3,0.9-4.2s1.5-2.1,2.7-3
		c1.2-0.6,2.4-1.2,3.9-1.2c1.2,0,2.4,0.3,3.3,0.9c0.9,0.6,1.8,1.2,2.7,2.1v-8.4c0-0.3,0-0.6,0.3-0.9c0.3-0.3,0.6-0.3,0.9-0.3
		s0.6,0,0.9,0.3s0.3,0.6,0.3,0.9L111.6,140.7L111.6,140.7z M106.5,152.7c0.9-0.6,1.5-1.2,2.1-2.1c0.6-0.9,0.9-1.8,0.9-3
		c0-0.3,0-0.6,0-0.6l0,0c-0.3-1.5-0.9-2.7-1.8-3.6c-1.2-0.9-2.4-1.5-3.9-1.5c-1.2,0-2.1,0.3-3,0.9c-0.9,0.6-1.5,1.2-2.1,2.1
		s-0.9,1.8-0.9,3s0.3,2.1,0.9,3s1.2,1.5,2.1,2.1s1.8,0.9,3,0.9C104.7,153.6,105.6,153.3,106.5,152.7z"/>
	<path fill="none" stroke="#F37335" stroke-miterlimit="10" d="M128.1,140.7c1.2,0.6,2.1,1.8,3,3c0.6,1.2,1.2,2.7,1.2,4.2
		s-0.3,3-0.9,4.2c-0.6,1.2-1.8,2.1-3,3c-1.2,0.6-2.7,0.9-4.2,0.9s-3-0.3-4.2-0.9c-1.2-0.6-2.1-1.5-3-3c-0.6-1.2-0.9-2.7-0.9-4.2
		s0.3-3,0.9-4.2s1.8-2.1,3-3c1.2-0.6,2.7-0.9,4.2-0.9C125.4,139.5,126.9,139.8,128.1,140.7z M120.9,142.2c-0.9,0.6-1.5,1.2-2.1,2.1
		c-0.6,0.9-0.9,2.1-0.9,3c0,1.2,0.3,2.1,0.9,3s1.2,1.5,2.1,2.1s1.8,0.9,3,0.9s2.1-0.3,3-0.9c0.9-0.6,1.5-1.2,2.1-2.1
		c0.6-0.9,0.6-1.8,0.6-3s-0.3-2.1-0.6-3c-0.6-0.9-1.2-1.5-2.1-2.1s-1.8-0.9-3-0.9C123,141.6,121.8,141.9,120.9,142.2z"/>
	<path fill="none" stroke="#F37335" stroke-miterlimit="10" d="M156,140.4c0.9,0.6,1.5,1.2,2.1,2.4c0.6,0.9,0.6,2.1,0.6,3.6v8.4
		c0,0.3,0,0.6-0.3,0.9c-0.3,0.3-0.6,0.3-0.9,0.3c-0.3,0-0.6,0-0.9-0.3c-0.3-0.3-0.3-0.6-0.3-0.9v-8.4c0-1.5-0.3-2.4-1.2-3.3
		c-0.6-0.9-1.5-1.2-2.7-1.2s-2.1,0.3-3,1.2s-1.2,1.8-1.2,3.3l0,0v8.4c0,0.3,0,0.6-0.3,0.9c-0.3,0.3-0.6,0.3-0.9,0.3
		c-0.3,0-0.6,0-0.9-0.3c-0.3-0.3-0.3-0.6-0.3-0.9v-8.4c0-1.5-0.3-2.4-1.2-3.3c-0.6-0.9-1.5-1.2-2.7-1.2s-2.1,0.3-3,1.2
		s-1.2,1.8-1.2,3v8.7c0,0.3,0,0.6-0.3,0.9c-0.3,0.3-0.6,0.3-0.9,0.3c-0.3,0-0.6,0-0.9-0.3c-0.3-0.3-0.3-0.6-0.3-0.9v-13.5
		c0-0.3,0-0.6,0.3-0.9c0.3-0.3,0.6-0.3,0.9-0.3c0.3,0,0.6,0,0.9,0.3s0.3,0.6,0.3,0.9v0.6c0.6-0.6,1.2-1.2,1.8-1.5s1.5-0.6,2.4-0.6
		c1.2,0,2.1,0.3,3,0.6c0.9,0.6,1.5,1.2,2.1,2.1c0.6-0.9,1.2-1.5,2.1-2.1s1.8-0.6,3-0.6C154.2,139.5,155.1,139.8,156,140.4z"/>
	<path fill="none" stroke="#F37335" stroke-miterlimit="10" d="M174.9,140.7c1.2,0.6,2.1,1.8,3,3c0.6,1.2,1.2,2.7,1.2,4.2v6.9
		c0,0.3,0,0.6-0.3,0.9c-0.3,0.3-0.6,0.3-0.9,0.3s-0.6,0-0.9-0.3c-0.3-0.3-0.3-0.6-0.3-0.9V153c-0.6,0.9-1.5,1.8-2.7,2.1
		c-0.9,0.6-2.1,0.9-3.3,0.9c-1.5,0-2.7-0.3-3.9-1.2c-1.2-0.6-2.1-1.8-2.7-3c-0.6-1.2-0.9-2.7-0.9-4.2s0.3-3,1.2-4.2
		c0.6-1.2,1.8-2.1,3-3c1.2-0.6,2.7-1.2,4.2-1.2S173.7,139.8,174.9,140.7z M174,152.7c0.9-0.6,1.5-1.2,2.1-2.1s0.9-1.8,0.9-3
		s-0.3-2.1-0.9-3s-1.2-1.5-2.1-2.1s-1.8-0.9-3-0.9s-2.1,0.3-3,0.9s-1.5,1.2-2.1,2.1s-0.9,1.8-0.9,3s0.3,2.1,0.9,3s1.2,1.5,2.1,2.1
		c0.9,0.6,1.8,0.9,3,0.9C171.9,153.6,173.1,153.3,174,152.7z"/>
	<path fill="none" stroke="#F37335" stroke-miterlimit="10" d="M186,133.8c0.3,0.3,0.6,0.6,0.6,1.2c0,0.3-0.3,0.9-0.6,1.2
		s-0.6,0.6-1.2,0.6c-0.6,0-0.9-0.3-1.2-0.6s-0.3-0.6-0.3-1.2s0.3-0.9,0.6-1.2s0.6-0.3,1.2-0.3C185.4,133.5,185.7,133.8,186,133.8z
		 M183.9,140.1c0.3-0.3,0.6-0.3,0.9-0.3c0.3,0,0.6,0,0.9,0.3c0.3,0.3,0.3,0.6,0.3,0.9v13.5c0,0.3,0,0.6-0.3,0.9
		c-0.3,0.3-0.6,0.3-0.9,0.3c-0.3,0-0.6,0-0.9-0.3c-0.3-0.3-0.3-0.6-0.3-0.9V141C183.6,140.4,183.9,140.1,183.9,140.1z"/>
	<path fill="none" stroke="#F37335" stroke-miterlimit="10" d="M202.8,140.4c1.2,0.6,1.8,1.5,2.7,2.4c0.6,1.2,0.9,2.4,0.9,3.9v7.5
		c0,0.3,0,0.6-0.3,0.9c-0.3,0.3-0.6,0.3-0.9,0.3c-0.3,0-0.6,0-0.9-0.3c-0.3-0.3-0.3-0.3-0.3-0.6V147c0-1.8-0.6-3-1.5-3.9
		s-2.1-1.2-3.6-1.2c-0.9,0-1.8,0.3-2.7,0.6s-1.5,0.9-1.8,1.5s-0.6,1.5-0.6,2.1v8.7c0,0.3,0,0.6-0.3,0.9c-0.3,0.3-0.6,0.3-0.9,0.3
		c-0.3,0-0.6,0-0.9-0.3c-0.3-0.3-0.3-0.6-0.3-0.9v-13.5c0-0.3,0-0.6,0.3-0.9c0.3-0.3,0.6-0.3,0.9-0.3c0.3,0,0.6,0,0.9,0.3
		c0.3,0.3,0.3,0.6,0.3,0.9v0.9c0.6-0.6,1.5-1.2,2.4-1.8c0.9-0.3,1.8-0.6,3-0.6C200.4,139.5,201.6,139.8,202.8,140.4z"/>
</g>
<g>
	<path fill="#F37335" d="M91.8,153c0.3,0.3,0.6,0.6,0.6,1.2c0,0.6-0.3,0.9-0.6,1.2s-0.6,0.6-1.2,0.6s-0.9-0.3-1.2-0.6
		c-0.3-0.3-0.6-0.6-0.6-1.2c0-0.6,0.3-0.9,0.6-1.2c0.3-0.3,0.6-0.6,1.2-0.6C91.2,152.7,91.5,152.7,91.8,153z"/>
	<path fill="#F37335" d="M111.6,140.7v6.9c0,1.5-0.3,3-1.2,4.2c-0.6,1.2-1.8,2.1-3,3c-1.2,0.6-2.7,1.2-4.2,1.2s-3-0.3-4.2-1.2
		c-1.2-0.6-2.1-1.8-3-3c-0.6-1.2-1.2-2.7-1.2-4.2s0.3-3,0.9-4.2s1.5-2.1,2.7-3c1.2-0.6,2.4-1.2,3.9-1.2c1.2,0,2.4,0.3,3.3,0.9
		c0.9,0.6,1.8,1.2,2.7,2.1v-8.4c0-0.3,0-0.6,0.3-0.9c0.3-0.3,0.6-0.3,0.9-0.3s0.6,0,0.9,0.3s0.3,0.6,0.3,0.9L111.6,140.7
		L111.6,140.7z M106.5,152.7c0.9-0.6,1.5-1.2,2.1-2.1c0.6-0.9,0.9-1.8,0.9-3c0-0.3,0-0.6,0-0.6l0,0c-0.3-1.5-0.9-2.7-1.8-3.6
		c-1.2-0.9-2.4-1.5-3.9-1.5c-1.2,0-2.1,0.3-3,0.9c-0.9,0.6-1.5,1.2-2.1,2.1s-0.9,1.8-0.9,3s0.3,2.1,0.9,3s1.2,1.5,2.1,2.1
		s1.8,0.9,3,0.9C104.7,153.6,105.6,153.3,106.5,152.7z"/>
	<path fill="#F37335" d="M128.1,140.7c1.2,0.6,2.1,1.8,3,3c0.6,1.2,1.2,2.7,1.2,4.2s-0.3,3-0.9,4.2c-0.6,1.2-1.8,2.1-3,3
		c-1.2,0.6-2.7,0.9-4.2,0.9s-3-0.3-4.2-0.9c-1.2-0.6-2.1-1.5-3-3c-0.6-1.2-0.9-2.7-0.9-4.2s0.3-3,0.9-4.2s1.8-2.1,3-3
		c1.2-0.6,2.7-0.9,4.2-0.9C125.4,139.5,126.9,139.8,128.1,140.7z M120.9,142.2c-0.9,0.6-1.5,1.2-2.1,2.1c-0.6,0.9-0.9,2.1-0.9,3
		c0,1.2,0.3,2.1,0.9,3s1.2,1.5,2.1,2.1s1.8,0.9,3,0.9s2.1-0.3,3-0.9c0.9-0.6,1.5-1.2,2.1-2.1c0.6-0.9,0.6-1.8,0.6-3s-0.3-2.1-0.6-3
		c-0.6-0.9-1.2-1.5-2.1-2.1s-1.8-0.9-3-0.9C123,141.6,121.8,141.9,120.9,142.2z"/>
	<path fill="#F37335" d="M156,140.4c0.9,0.6,1.5,1.2,2.1,2.4c0.6,0.9,0.6,2.1,0.6,3.6v8.4c0,0.3,0,0.6-0.3,0.9
		c-0.3,0.3-0.6,0.3-0.9,0.3c-0.3,0-0.6,0-0.9-0.3c-0.3-0.3-0.3-0.6-0.3-0.9v-8.4c0-1.5-0.3-2.4-1.2-3.3c-0.6-0.9-1.5-1.2-2.7-1.2
		s-2.1,0.3-3,1.2s-1.2,1.8-1.2,3.3l0,0v8.4c0,0.3,0,0.6-0.3,0.9c-0.3,0.3-0.6,0.3-0.9,0.3c-0.3,0-0.6,0-0.9-0.3
		c-0.3-0.3-0.3-0.6-0.3-0.9v-8.4c0-1.5-0.3-2.4-1.2-3.3c-0.6-0.9-1.5-1.2-2.7-1.2s-2.1,0.3-3,1.2s-1.2,1.8-1.2,3v8.7
		c0,0.3,0,0.6-0.3,0.9c-0.3,0.3-0.6,0.3-0.9,0.3c-0.3,0-0.6,0-0.9-0.3c-0.3-0.3-0.3-0.6-0.3-0.9v-13.5c0-0.3,0-0.6,0.3-0.9
		c0.3-0.3,0.6-0.3,0.9-0.3c0.3,0,0.6,0,0.9,0.3s0.3,0.6,0.3,0.9v0.6c0.6-0.6,1.2-1.2,1.8-1.5s1.5-0.6,2.4-0.6c1.2,0,2.1,0.3,3,0.6
		c0.9,0.6,1.5,1.2,2.1,2.1c0.6-0.9,1.2-1.5,2.1-2.1s1.8-0.6,3-0.6C154.2,139.5,155.1,139.8,156,140.4z"/>
	<path fill="#F37335" d="M174.9,140.7c1.2,0.6,2.1,1.8,3,3c0.6,1.2,1.2,2.7,1.2,4.2v6.9c0,0.3,0,0.6-0.3,0.9
		c-0.3,0.3-0.6,0.3-0.9,0.3s-0.6,0-0.9-0.3c-0.3-0.3-0.3-0.6-0.3-0.9V153c-0.6,0.9-1.5,1.8-2.7,2.1c-0.9,0.6-2.1,0.9-3.3,0.9
		c-1.5,0-2.7-0.3-3.9-1.2c-1.2-0.6-2.1-1.8-2.7-3c-0.6-1.2-0.9-2.7-0.9-4.2s0.3-3,1.2-4.2c0.6-1.2,1.8-2.1,3-3
		c1.2-0.6,2.7-1.2,4.2-1.2S173.7,139.8,174.9,140.7z M174,152.7c0.9-0.6,1.5-1.2,2.1-2.1s0.9-1.8,0.9-3s-0.3-2.1-0.9-3
		s-1.2-1.5-2.1-2.1s-1.8-0.9-3-0.9s-2.1,0.3-3,0.9s-1.5,1.2-2.1,2.1s-0.9,1.8-0.9,3s0.3,2.1,0.9,3s1.2,1.5,2.1,2.1
		c0.9,0.6,1.8,0.9,3,0.9C171.9,153.6,173.1,153.3,174,152.7z"/>
	<path fill="#F37335" d="M186,133.8c0.3,0.3,0.6,0.6,0.6,1.2c0,0.3-0.3,0.9-0.6,1.2s-0.6,0.6-1.2,0.6c-0.6,0-0.9-0.3-1.2-0.6
		s-0.3-0.6-0.3-1.2s0.3-0.9,0.6-1.2s0.6-0.3,1.2-0.3C185.4,133.5,185.7,133.8,186,133.8z M183.9,140.1c0.3-0.3,0.6-0.3,0.9-0.3
		c0.3,0,0.6,0,0.9,0.3c0.3,0.3,0.3,0.6,0.3,0.9v13.5c0,0.3,0,0.6-0.3,0.9c-0.3,0.3-0.6,0.3-0.9,0.3c-0.3,0-0.6,0-0.9-0.3
		c-0.3-0.3-0.3-0.6-0.3-0.9V141C183.6,140.4,183.9,140.1,183.9,140.1z"/>
	<path fill="#F37335" d="M202.8,140.4c1.2,0.6,1.8,1.5,2.7,2.4c0.6,1.2,0.9,2.4,0.9,3.9v7.5c0,0.3,0,0.6-0.3,0.9
		c-0.3,0.3-0.6,0.3-0.9,0.3c-0.3,0-0.6,0-0.9-0.3c-0.3-0.3-0.3-0.3-0.3-0.6V147c0-1.8-0.6-3-1.5-3.9s-2.1-1.2-3.6-1.2
		c-0.9,0-1.8,0.3-2.7,0.6s-1.5,0.9-1.8,1.5s-0.6,1.5-0.6,2.1v8.7c0,0.3,0,0.6-0.3,0.9c-0.3,0.3-0.6,0.3-0.9,0.3
		c-0.3,0-0.6,0-0.9-0.3c-0.3-0.3-0.3-0.6-0.3-0.9v-13.5c0-0.3,0-0.6,0.3-0.9c0.3-0.3,0.6-0.3,0.9-0.3c0.3,0,0.6,0,0.9,0.3
		c0.3,0.3,0.3,0.6,0.3,0.9v0.9c0.6-0.6,1.5-1.2,2.4-1.8c0.9-0.3,1.8-0.6,3-0.6C200.4,139.5,201.6,139.8,202.8,140.4z"/>
</g>
<g>
	<path fill="none" stroke="#F37335" stroke-width="8" stroke-linecap="round" stroke-miterlimit="10" d="M144.9,133
		c-5.4-10.5-16.2-17.7-28.5-17.7H87.3c-8.7,0-16.8,3.6-22.5,9.6c-5.7,6-9.3,14.1-9.3,23.4c0,18,14.4,33,32.1,33h29.1
		c8.7,0,16.8-3.6,22.8-9.6c2.4-2.4,4.5-5.1,6-8.4"/>
	<path fill="none" stroke="#F37335" stroke-width="8" stroke-linecap="round" stroke-miterlimit="10" d="M156.9,133
		c1.5-3,3.6-5.7,5.7-8.1c5.7-6,13.8-9.6,22.5-9.6h29.1c17.7,0,32.1,14.7,32.1,33c0,9-3.6,17.4-9.3,23.4s-13.8,9.6-22.5,9.6h-29.1
		c-12.3,0-23.1-7.2-28.5-18"/>
</g>
</svg>
