<?xml version="1.0" encoding="utf-8"?>
<!-- Generator: Adobe Illustrator 18.0.0, SVG Export Plug-In . SVG Version: 6.00 Build 0)  -->
<!DOCTYPE svg PUBLIC "-//W3C//DTD SVG 1.1//EN" "http://www.w3.org/Graphics/SVG/1.1/DTD/svg11.dtd">
<svg version="1.1" id="Layer_1" xmlns="http://www.w3.org/2000/svg" xmlns:xlink="http://www.w3.org/1999/xlink" x="0px" y="0px"
	 viewBox="0 0 300 300" enable-background="new 0 0 300 300" xml:space="preserve">
<path fill="#F37335" d="M206.7,141.9c1.1,1.5,0.6,3.2-1.3,4.3c-4,2.5-5.8,5.8-5.8,10.7V170l-6.8-11.7c0-1.2,0-2.5,0-3.7
	c0-5.6,3.2-10.3,8.8-13.7C203.7,140,206,140.4,206.7,141.9z"/>
<path fill="#F37335" d="M232.1,181.5c-0.2,7.7-7,14.8-16,16.4l-0.2,0.2h-0.1l-3.7-6.4c0.1,0,0.3,0,0.4,0c6.4,0,12-4.5,13-9.6
	c0.2-1.3,0.2-2.8,0.2-4.3v-20.3c0-4.9-1.7-8.5-5.6-10.9c-1.3-0.6-1.5-1.5-1.7-2.1c0-0.8,0-1.5,0.8-2.6c1.1-1.5,3-1.9,4.7-0.6
	c5.1,3.2,8.1,7.7,8.3,13.2C232.3,163.7,232.5,172.5,232.1,181.5z"/>
<path fill="#F37335" d="M223.7,83.6c-1.9-1.1-4.1-1.9-6.2-2.4c-0.6-0.2-1.1-0.4-1.7-0.6l-6.8,0l-0.2,0.2
	c-9.2,1.7-15.6,8.5-16.2,16.5c-0.4,8.6-0.4,17.3,0,25.9c0.2,5.5,2.8,10,8.3,13.5c2.1,1.3,3.9,0.9,4.9-0.4c0.9-0.9,0.8-1.9,0.8-2.3
	c-0.2-0.9-0.6-1.7-1.9-2.6c-3.6-2.4-5.3-5.6-5.5-9.6c0-2.6,0-5.3,0-7.9c0-5.3,0-10.5,0-15.8c0.2-6.6,5.8-11.8,13-11.8
	c0.4,0,0.8,0,1.1,0c7,0.6,11.8,5.8,11.8,12.2v22.6c0,4.5-1.9,7.9-5.6,10.5c-0.9,0.6-1.5,1.5-1.5,2.3c-0.2,0.6-0.2,1.3,0.6,2.4
	c0.8,0.8,1.5,1.1,2.6,1.1c0.8,0,1.7-0.2,2.3-0.8c5.5-3.6,8.1-8.1,8.3-13.5c0.2-7.7,0.2-16,0.2-25.8C232.1,92,229.3,87.3,223.7,83.6z
	"/>
<path fill="#F37335" d="M212.8,155.8c1.5,0,3.4-1.1,3.4-4.1v-21.4c0-3-1.7-3.9-3.4-4.1c-1.5,0-3.4,1.1-3.4,4.1v21.4
	C209.4,155.4,212,155.8,212.8,155.8z"/>
<path fill="#FFFFFF" d="M212.2,191.7c-0.7,0-1.4-0.2-2-0.2c-6.4-1.1-10.5-5.6-10.5-12V170L212.2,191.7z"/>
<path fill="#F37335" d="M117.5,112.4c0-1.9-0.7-3.5-2.1-4.8c-0.7-0.6-1-1.4-0.9-2.3c0-7.8,0-15.5-0.1-23.3c0-2.3-0.2-4.7-0.6-7
	c-0.2-1.4-2.3-2.8-3.6-2.6c-2.1,0.3-3.7,2-3.8,4.2c-0.1,6.3-0.2,12.6-0.3,19c0,3.3-0.1,6.6-0.1,9.8c0,1-0.4,1.7-1,2.5
	c-0.8,1.2-1.6,2.5-1.9,3.9c-0.3,1.7-1,2.9-2.1,4.1c-0.8,0.9-1.6,1.7-2.5,2.6c-3.3,3.4-6.5,6.7-9.8,10.1c-1.1,1.1-1.3,2.5-1.1,4
	c0.3,2.5,4.1,3.8,5.6,2.2c1.7-1.8,3.7-3.4,5.5-5.2c2.9-2.8,5.7-5.6,8.6-8.3c0.9-0.8,1.8-1.3,3.1-1.4
	C114.5,119.6,117.5,116.3,117.5,112.4z"/>
<path fill="#F37335" d="M251,251.2c-1.4,1.9-3.4,2.1-5.6,2.1c-51.9-0.1-103.8-0.1-155.7,0c-1.7,0-2.3-1.1-3.2-2.1
	c-0.2-0.2-0.2-0.9,0-1.3c0.6-1.5,1.1-3,1.9-4.4c5.8-10.4,11.5-20.8,17.5-31.2c19.6-34,39.2-67.9,58.8-101.8c0.8-1.3,1.6-2.5,3.2-2.8
	c1.8-0.4,3.2,0.2,4.1,1.7c6,10.2,12,20.5,17.9,30.7c17.7,30.7,35.4,61.3,53,92c2.5,4.3,4.7,8.7,7,13.1c0.5,0.9,0.8,1.8,1.1,2.7
	C251,250.4,251,250.8,251,251.2z M168.8,121.8c-0.1,0-0.3,0-0.4,0c-23.7,41-47.3,82-71,123.1c2.7,0.8,138.1,0.9,142.5,0.1
	C216.2,203.9,192.5,162.9,168.8,121.8z"/>
<path fill="#F37335" d="M50,109.3c0.3-2.1,0.5-4.1,0.8-6.2c2.2-13.2,8.1-24.6,17.7-33.9c9.8-9.5,21.6-15.1,35.1-16.5
	c19.2-2,35.9,4,49.6,17.6c7,7,11.9,15.3,14.7,24.9c0.7,2.3-0.4,4.2-2.7,5c-2,0.7-3.9-0.1-4.7-2.3c-1.4-4-3.1-7.9-5.3-11.5
	c-6.8-11.7-16.7-19.4-29.4-23.6c-4.3-1.4-8.7-2.2-13.3-2.1c-3.9,0.2-7.9-0.1-11.7,0.5c-8.2,1.4-15.7,4.9-22.3,10
	c-10.4,8.1-16.8,18.7-19.6,31.5c-0.2,1-0.4,2-0.4,3c0,4.5-0.2,9.1,0,13.6c0.2,4.8,1.8,9.4,3.8,13.8c6.7,14.7,17.7,24.8,33.3,29.5
	c6.5,2,13.2,2.3,20,1.8c1.2-0.1,2.4-0.2,3.6-0.2c1.9-0.1,3.3,1.1,3.7,3.1c0.4,1.9-0.5,3.8-2.3,4.3c-1.6,0.5-3.3,0.8-4.9,0.9
	c-31,2.9-58.4-18.9-64.4-47.7c-0.5-2.6-0.8-5.3-1.1-8c0-0.3-0.1-0.6-0.2-0.9C50,113.8,50,111.5,50,109.3z"/>
<path fill="#F37335" d="M117.5,112.4c0,3.9-3,7.2-6.8,7.4c-1.3,0.1-2.2,0.5-3.1,1.4c-2.9,2.8-5.7,5.6-8.6,8.3
	c-1.8,1.7-3.8,3.3-5.5,5.2c-1.6,1.7-5.4,0.4-5.6-2.2c-0.2-1.5,0-2.8,1.1-4c3.3-3.3,6.5-6.7,9.8-10.1c0.8-0.9,1.6-1.7,2.5-2.6
	c1.1-1.2,1.8-2.4,2.1-4.1c0.2-1.4,1-2.7,1.9-3.9c0.6-0.8,0.9-1.5,1-2.5c0-3.3,0.1-6.6,0.1-9.8c0.1-6.3,0.1-12.6,0.3-19
	c0-2.1,1.7-3.9,3.8-4.2c1.3-0.2,3.4,1.2,3.6,2.6c0.3,2.3,0.5,4.7,0.6,7c0.1,7.8,0.1,15.5,0.1,23.3c0,1,0.2,1.7,0.9,2.3
	C116.8,108.9,117.5,110.5,117.5,112.4z"/>
<path fill="#F37335" d="M173.1,208.8c-3.1,0-6.2,0-9.3,0c0-0.4-0.1-0.8-0.1-1.1c0-14-0.1-28-0.1-42c0-1.2,0.1-2.4,0.2-3.6
	c0-0.6,0.3-1.1,1-1.1c2.6,0,5.1,0,7.7,0c0.7,0,0.9,0.4,0.9,1.1c-0.1,15.3-0.1,30.6-0.2,45.9C173.2,208.2,173.1,208.5,173.1,208.8z"
	/>
<path fill="#F37335" d="M173.7,218.6c0,3.2,0,6.2,0,9.1c0,1.1-0.5,1.7-1.7,1.7c-2.2,0.1-4.4,0.1-6.7,0c-1.2,0-1.7-0.6-1.7-1.7
	c0-2.7,0-5.5,0.1-8.2c0-0.3,0.5-0.8,0.7-0.8C167.4,218.6,170.4,218.6,173.7,218.6z"/>
</svg>
