<?xml version="1.0" encoding="utf-8"?>
<!-- Generator: Adobe Illustrator 18.0.0, SVG Export Plug-In . SVG Version: 6.00 Build 0)  -->
<!DOCTYPE svg PUBLIC "-//W3C//DTD SVG 1.1//EN" "http://www.w3.org/Graphics/SVG/1.1/DTD/svg11.dtd">
<svg version="1.1" id="Layer_1" xmlns="http://www.w3.org/2000/svg" xmlns:xlink="http://www.w3.org/1999/xlink" x="0px" y="0px"
	 viewBox="0 0 300 300" enable-background="new 0 0 300 300" xml:space="preserve">
<g>
	<g>
		<polyline fill="none" stroke="#F37335" stroke-width="10" stroke-linecap="round" stroke-miterlimit="10" points="57.6,155.1 
			57.9,155.1 102.6,155.1 		"/>
		<polyline fill="none" stroke="#F37335" stroke-width="10" stroke-linecap="round" stroke-miterlimit="10" points="198.6,155.1 
			243.6,155.1 243.9,155.1 		"/>
	</g>
	<polyline fill="none" stroke="#F37335" stroke-width="10" stroke-linecap="round" stroke-miterlimit="10" points="150.9,57.6 
		150.9,57.9 150.9,57.9 150.9,123.6 	"/>
	<polyline fill="none" stroke="#F37335" stroke-width="10" stroke-linecap="round" stroke-miterlimit="10" points="150.9,183.9 
		150.9,243.6 150.9,243.9 	"/>
	<path fill="none" stroke="#F37335" stroke-width="10" stroke-linecap="round" stroke-miterlimit="10" d="M150.9,243.9
		C150.9,243.9,150.6,243.6,150.9,243.9c-2.7-1.8-27.9-18.6-40.8-52.5"/>
	<path fill="none" stroke="#F37335" stroke-width="10" stroke-linecap="round" stroke-miterlimit="10" d="M107.7,116.1
		c11.7-37.8,40.2-56.4,42.9-58.2h0.3l0,0"/>
	<path fill="none" stroke="#F37335" stroke-width="10" stroke-linecap="round" stroke-miterlimit="10" d="M150.3,243.9
		C150.3,243.9,150.3,243.6,150.3,243.9c0.3-0.3,0.3-0.3,0.3-0.3c3.3-2.4,27.9-19.2,40.5-52.5"/>
	<path fill="none" stroke="#F37335" stroke-width="10" stroke-linecap="round" stroke-miterlimit="10" d="M193.5,115.5
		c-11.7-36.6-39-55.2-42.6-57.6c0,0,0,0-0.3,0h-0.3"/>
	<g>
		<path fill="none" stroke="#F37335" stroke-width="10" stroke-linecap="round" stroke-miterlimit="10" d="M75.4,98.2
			c8.1,6.6,18.2,12.8,32,17.9"/>
		<path fill="none" stroke="#F37335" stroke-width="10" stroke-linecap="round" stroke-miterlimit="10" d="M193.5,115.5
			c1.5-0.6,2.7-1.2,4.2-1.8c0.9-0.3,1.5-0.6,2.1-0.9c1.5-0.6,3-1.5,4.5-2.4c8.7-4.5,15.9-9.6,21.6-14.7"/>
	</g>
	<path fill="none" stroke="#F37335" stroke-width="10" stroke-linecap="round" stroke-miterlimit="10" d="M222.9,209.4
		c-8.1-6.6-18.6-13.5-31.8-18.6"/>
	<path fill="none" stroke="#F37335" stroke-width="10" stroke-linecap="round" stroke-miterlimit="10" d="M78.6,209.4
		c8.1-6.6,18.6-13.2,31.5-18.3"/>
	<path fill="none" stroke="#F37335" stroke-width="10" stroke-linecap="round" stroke-miterlimit="10" d="M225.9,96
		c-16.8-23.1-44.4-38.1-75-38.1h-0.3c-31.2,0-58.8,15.6-75.6,39.6c-10.8,15-16.8,33.6-16.8,53.4c0,1.5,0,3,0,4.5
		c0.9,20.7,8.7,39.3,20.7,54.3c17.1,20.7,42.9,34.2,71.7,34.2h0.3c29.1,0,55.2-13.5,72-34.2c12.3-15,19.8-33.6,20.7-54.3
		c0-1.5,0-3,0-4.5C243.9,130.2,237,111.3,225.9,96z M193.5,115.5c3.3,10.2,5.4,21.9,5.1,35.1c0,1.5,0,3,0,4.5
		c-0.6,13.5-3.6,25.5-7.5,36c-11.4-4.2-24.9-7.2-40.5-7.2h-0.3c-15.6,0-29.1,3-40.5,7.5c-3.9-10.5-6.6-22.5-7.2-36c0-1.5,0-3,0-4.5
		c0-12.9,1.8-24.6,5.1-34.8C107.7,116.1,155.2,134.5,193.5,115.5z"/>
	<path fill="none" stroke="#F37335" stroke-width="10" stroke-linecap="round" stroke-miterlimit="10" d="M182.5,122.7"/>
</g>
<g>
	<path fill="#F37335" d="M148.8,162.6c0.9-0.9,0.6-2.4-0.3-3c-0.6-0.6-1.2-0.6-1.5-0.6s-0.9,0.3-1.5,0.9c-1.5,2.4-3.9,3.6-6.9,3.6
		H126c-0.9,0-1.8,0-2.7-0.3c-3.3-0.3-6-4.2-6-7.8c0-0.6,0-0.9,0.3-1.5c0.9-4.2,3.6-6.6,7.5-6.6h14.1c3,0,5.1,1.2,6.9,3.6
		c0.6,1.2,1.8,1.5,2.7,0.9s1.2-1.8,0.6-3c-2.1-3.6-5.1-5.4-8.7-5.7c-5.4-0.3-11.1,0-16.5,0c-4.8,0.3-9.3,4.2-10.5,9.6
		c0,0.3,0,0.3,0,0.3s0,0,0,0.3l-0.3,0.3v4.2h0.3c0.9,5.7,5.4,9.9,10.2,10.2c5.7,0.3,11.1,0.3,17.1,0
		C143.7,167.7,146.7,165.9,148.8,162.6z"/>
	<path fill="#F37335" d="M177.9,167.7c-0.6,0-1.2,0.3-1.8,0.3c-6,0-11.4,0-16.2,0c-0.3,0-0.6,0-0.9,0c-3-0.3-5.7-2.1-7.8-5.1
		c-0.3-0.3-0.6-0.9-0.6-1.5s0.3-1.2,0.6-1.5s0.9-0.3,1.2-0.6c0.3,0,0.3,0,0.3,0c0.6,0,0.9,0.3,1.5,0.9c1.5,2.4,3.6,3.6,6.6,3.6h14.1
		c2.1,0,3.9-0.9,5.4-2.1c1.2-1.2,2.1-2.7,2.4-4.5c0-0.3,0-0.6,0-0.9c0-0.3,0-0.6,0-0.9c0-4.5-3.3-8.1-7.5-8.1c-3.3,0-6.3,0-9.6,0
		h-0.3c-1.5,0-3.3,0-4.8,0c-0.6,0-1.5,0-2.1,0.3c-1.5,0.6-3,1.5-4.2,3c-0.6,0.9-0.9,1.2-1.5,1.2c-0.3,0-0.9,0-1.5-0.6
		c-0.9-0.6-0.9-1.8-0.3-3c1.2-1.8,2.7-3.3,4.2-3.9c1.2-0.6,2.7-1.2,4.2-1.2c0.6,0,0.9,0,1.5,0c4.8,0,9.9,0,14.7,0
		c5.1,0.3,9.3,4.5,10.5,10.2h0.3v4.2c0,0.3-0.3,0.6-0.3,0.6v0.3c-0.3,1.2-0.9,2.7-1.5,3.9l-0.3,0.3
		C183,165.6,180.6,167.1,177.9,167.7z"/>
	<path fill="#F37335" d="M139.8,155.7c0,0.9,0.9,2.1,2.4,2.1h13.5c1.8,0,2.4-1.2,2.4-2.1c0-0.9-0.9-2.1-2.4-2.1h-13.5
		C139.8,153.6,139.8,155.1,139.8,155.7z"/>
</g>
</svg>
