<?xml version="1.0" encoding="utf-8"?>
<!-- Generator: Adobe Illustrator 18.0.0, SVG Export Plug-In . SVG Version: 6.00 Build 0)  -->
<!DOCTYPE svg PUBLIC "-//W3C//DTD SVG 1.1//EN" "http://www.w3.org/Graphics/SVG/1.1/DTD/svg11.dtd">
<svg version="1.1" id="Layer_1" xmlns="http://www.w3.org/2000/svg" xmlns:xlink="http://www.w3.org/1999/xlink" x="0px" y="0px"
	 viewBox="0 0 300 300" enable-background="new 0 0 300 300" xml:space="preserve">
<g>
	<path fill="#F37335" d="M167.7,168.3c-0.3-2.7-2.7-4.5-5.1-4.2c-1.8,0.3-2.7,0.9-3,1.8c-0.3,0.6-0.9,2.1-0.6,3.6
		c1.2,6.3-0.3,11.4-5.1,16.2l-19.5,19.5c-1.5,1.5-2.7,2.7-4.5,3.9c-6,4.5-15.6,3-21.6-3c-0.9-0.9-1.5-1.8-2.1-2.7
		c-5.1-7.5-4.5-15.9,1.5-21.9l21.9-21.9c4.5-4.8,9.9-6.3,16.2-4.8c2.7,0.6,5.1-0.6,5.4-3c0.6-2.1-0.9-4.8-3.9-5.7
		c-8.7-2.1-16.2-0.6-21.9,4.8c-8.7,8.1-17.1,17.1-25.5,25.5c-7.2,7.8-8.1,20.4-1.5,30.6c0.3,0.3,0.3,0.6,0.6,0.9c0,0,0,0,0.3,0.3
		v0.6l6.3,6.3h0.3c10.2,7.2,23.7,6.9,31.2-0.3c9-8.4,17.7-17.1,26.1-26.1C168,183.6,169.5,176.4,167.7,168.3z"/>
	<path fill="#F37335" d="M223.5,112.2c-0.6-3-2.1-5.7-3.6-8.4c-0.3-0.6-0.9-1.2-1.2-2.1l-6.6-6.6h-0.3c-10.5-7.2-23.4-6.9-31.8,0.6
		c-8.7,8.1-17.1,16.5-25.2,25.2c-5.1,5.4-6.9,12.3-5.1,21c0.9,3,3,4.8,5.1,4.5c1.8,0,2.4-0.9,3-1.5c0.9-0.9,0.9-2.4,0.6-4.2
		c-0.9-5.7,0.3-10.8,4.2-14.7c2.4-2.4,5.1-5.1,7.5-7.5c5.1-5.1,10.2-10.2,15.3-15.3c6.6-6.3,17.1-6,24,0.9c0.3,0.3,0.9,0.9,1.2,1.2
		c6,7.5,6,17.1-0.3,23.4l-21.9,21.9c-4.2,4.2-9.3,5.7-15.6,4.5c-1.5-0.3-2.7,0-3.9,0.6c-0.6,0.3-1.5,1.2-1.8,3
		c0,1.5,0.3,2.7,1.2,3.6c0.9,0.9,1.8,1.2,3,1.5c8.7,1.8,15.6,0,21-5.1c7.8-7.2,15.9-15.3,24.9-24.9
		C223.5,128.7,225.3,121.2,223.5,112.2z"/>
	<path fill="#F37335" d="M143.1,171.6c1.5,1.5,4.5,2.1,7.2-0.6l21-21c2.7-2.7,2.1-5.7,0.6-7.2s-4.5-2.1-7.2,0.6l-21,21
		C140.1,168,142.2,170.7,143.1,171.6z"/>
</g>
<path fill="none" stroke="#F37335" stroke-width="10" stroke-linecap="round" stroke-miterlimit="10" d="M91.5,64.2h147.6
	c6,0,11.1,5.1,11.1,11.1v163.8c0,6-5.1,11.1-11.1,11.1H75.3c-6,0-11.1-5.1-11.1-11.1V94.5"/>
<circle fill="#F37335" cx="64.2" cy="64.2" r="15.6"/>
</svg>
