<?xml version="1.0" encoding="utf-8"?>
<!-- Generator: Adobe Illustrator 18.0.0, SVG Export Plug-In . SVG Version: 6.00 Build 0)  -->
<!DOCTYPE svg PUBLIC "-//W3C//DTD SVG 1.1//EN" "http://www.w3.org/Graphics/SVG/1.1/DTD/svg11.dtd">
<svg version="1.1" id="Layer_1" xmlns="http://www.w3.org/2000/svg" xmlns:xlink="http://www.w3.org/1999/xlink" x="0px" y="0px"
	 viewBox="0 0 300 300" enable-background="new 0 0 300 300" xml:space="preserve">
<g>
	<g id="XMLID_2_">
		<g>
			<path fill="none" stroke="#F37335" stroke-width="10" stroke-linecap="round" stroke-miterlimit="10" d="M57.3,205.5
				c0-33.9,0-68.1,0-102c0.3-1.8,0.6-3.3,1.2-5.1c3-8.4,10.8-13.8,19.8-13.8c42,0,83.7,0,125.7,0c6.3,0,12.3,0,18.6,0
				c9.9,0,18,6.6,20.4,16.2c0.3,0.9,0.3,1.8,0.6,2.4c0,33.9,0,68.1,0,102c0,0.3-0.3,0.3-0.3,0.6c-0.9,8.4-7.2,15.3-15.6,17.4
				c-1.5,0.3-2.7,0.6-4.2,0.6c-48.6,0-97.2,0-146.1,0c-0.3,0-0.6,0-0.9,0c-8.4-0.6-15.6-6.3-18-14.4C57.9,208.5,57.6,207,57.3,205.5
				z"/>
		</g>
	</g>
	<path fill="none" stroke="#F37335" stroke-width="10" stroke-linecap="round" stroke-miterlimit="10" d="M121.8,144.9
		c5.1,4.2,10.2,8.1,15.3,12.3c0.3,0.3,0.6,0.3,0.9,0c13.8-11.7,27.3-23.1,41.1-34.8c0.3-0.3,0.6-0.3,0.9,0c0.3,0.3,0.6,0.6,0.9,0.9
		c10.2,9,20.1,18.3,30.3,27.3c0.6,0.6,0.9,0.9,0.9,1.8c0,15.6,0,30.9,0,46.5v0.3c0,0.3-0.3,0.9-0.9,0.9H89.4c-0.3,0-0.9-0.3-0.9-0.9
		l0,0c0-9.3,0-18.3,0-27.6c0-0.6,0-0.9,0.6-1.2c10.5-8.4,21-16.8,31.5-25.2l0,0C120.9,144.6,121.5,144.6,121.8,144.9z"/>
	<path fill="none" stroke="#F37335" stroke-width="10" stroke-linecap="round" stroke-miterlimit="10" d="M108.6,119.4
		c0,7.2-5.7,12.9-12.9,12.9c-7.2,0-12.9-5.7-12.9-12.9s5.7-12.9,12.9-12.9S108.6,112.2,108.6,119.4z"/>
</g>
</svg>
