<?xml version="1.0" encoding="utf-8"?>
<!-- Generator: Adobe Illustrator 18.0.0, SVG Export Plug-In . SVG Version: 6.00 Build 0)  -->
<!DOCTYPE svg PUBLIC "-//W3C//DTD SVG 1.1//EN" "http://www.w3.org/Graphics/SVG/1.1/DTD/svg11.dtd">
<svg version="1.1" id="Layer_1" xmlns="http://www.w3.org/2000/svg" xmlns:xlink="http://www.w3.org/1999/xlink" x="0px" y="0px"
	 viewBox="0 0 100 100" enable-background="new 0 0 100 100" xml:space="preserve">
<g>
	<path fill="#F37335" d="M38.6,66.1c-0.1,0-0.2,0-0.2,0L16.8,50.7c-0.4-0.3-0.4-0.5-0.4-0.8c0-0.3,0.3-0.5,0.5-0.8L38.2,34
		c0.3-0.1,0.4-0.1,0.5-0.1c0.3,0,0.4,0.1,0.5,0.2c0.1,0.1,0.1,0.1,0.1,0.3c0,0.4-0.1,0.5-0.3,0.7l-21,14.8l21,14.9
		c0.3,0.2,0.3,0.4,0.3,0.6c0,0.3,0,0.3-0.2,0.4C38.8,66.1,38.7,66.1,38.6,66.1z"/>
	<path fill="#F37335" d="M61.4,66.1c-0.1,0-0.3,0-0.5-0.3c-0.1-0.1-0.2-0.2-0.2-0.4c0-0.2,0-0.4,0.4-0.7l20.9-14.8l-21-14.8
		c-0.2-0.2-0.3-0.3-0.3-0.7c0-0.2,0-0.2,0.1-0.3c0.1-0.1,0.3-0.2,0.5-0.2c0.1,0,0.2,0,0.5,0.1l21.3,15.2c0.2,0.2,0.5,0.5,0.5,0.8
		c0,0.2,0,0.5-0.5,0.8L61.7,66C61.6,66.1,61.6,66.1,61.4,66.1z"/>
</g>
<g>
	<path fill="#F37335" d="M51.5,52.3c-0.1-0.5-0.5-0.8-0.9-0.7c-0.3,0.1-0.5,0.2-0.5,0.3C50,52,49.9,52.3,50,52.5
		c0.2,1.1-0.1,2-0.9,2.9l-3.4,3.4c-0.3,0.3-0.5,0.5-0.8,0.7c-1.1,0.8-2.8,0.5-3.8-0.5c-0.2-0.2-0.3-0.3-0.4-0.5
		c-0.9-1.3-0.8-2.8,0.3-3.9l3.9-3.9c0.8-0.8,1.7-1.1,2.9-0.8c0.5,0.1,0.9-0.1,1-0.5c0.1-0.4-0.2-0.8-0.7-1c-1.5-0.4-2.9-0.1-3.9,0.8
		c-1.5,1.4-3,3-4.5,4.5c-1.3,1.4-1.4,3.6-0.3,5.4c0.1,0.1,0.1,0.1,0.1,0.2c0,0,0,0,0.1,0.1v0.1l1.1,1.1h0.1c1.8,1.3,4.2,1.2,5.5-0.1
		c1.6-1.5,3.1-3,4.6-4.6C51.6,55,51.8,53.8,51.5,52.3z"/>
	<path fill="#F37335" d="M61.4,42.4c-0.1-0.5-0.4-1-0.6-1.5c-0.1-0.1-0.2-0.2-0.2-0.4l-1.2-1.2h-0.1c-1.9-1.3-4.1-1.2-5.6,0.1
		c-1.5,1.4-3,2.9-4.5,4.5c-0.9,1-1.2,2.2-0.9,3.7c0.2,0.5,0.5,0.8,0.9,0.8c0.3,0,0.4-0.2,0.5-0.3c0.2-0.2,0.2-0.4,0.1-0.7
		c-0.2-1,0.1-1.9,0.7-2.6c0.4-0.4,0.9-0.9,1.3-1.3c0.9-0.9,1.8-1.8,2.7-2.7c1.2-1.1,3-1.1,4.2,0.2c0.1,0.1,0.2,0.2,0.2,0.2
		c1.1,1.3,1.1,3-0.1,4.1l-3.9,3.9c-0.7,0.7-1.6,1-2.8,0.8c-0.3-0.1-0.5,0-0.7,0.1c-0.1,0.1-0.3,0.2-0.3,0.5c0,0.3,0.1,0.5,0.2,0.6
		c0.2,0.2,0.3,0.2,0.5,0.3c1.5,0.3,2.8,0,3.7-0.9c1.4-1.3,2.8-2.7,4.4-4.4C61.4,45.3,61.7,44,61.4,42.4z"/>
	<path fill="#F37335" d="M47.2,52.9c0.3,0.3,0.8,0.4,1.3-0.1l3.7-3.7c0.5-0.5,0.4-1,0.1-1.3s-0.8-0.4-1.3,0.1l-3.7,3.7
		C46.7,52.3,47,52.8,47.2,52.9z"/>
</g>
</svg>
