<?xml version="1.0" encoding="utf-8"?>
<!-- Generator: Adobe Illustrator 18.0.0, SVG Export Plug-In . SVG Version: 6.00 Build 0)  -->
<!DOCTYPE svg PUBLIC "-//W3C//DTD SVG 1.1//EN" "http://www.w3.org/Graphics/SVG/1.1/DTD/svg11.dtd">
<svg version="1.1" id="Layer_1" xmlns="http://www.w3.org/2000/svg" xmlns:xlink="http://www.w3.org/1999/xlink" x="0px" y="0px"
	 viewBox="0 0 300 300" enable-background="new 0 0 300 300" xml:space="preserve">
<path fill="none" stroke="#F37335" stroke-width="10" stroke-miterlimit="10" d="M219.9,241.2H84c-8.7,0-16.2-7.2-16.2-16.2V96
	c0-8.7,7.2-16.2,16.2-16.2h135.9c8.7,0,16.2,7.2,16.2,16.2v129.3C235.8,234,228.6,241.2,219.9,241.2z"/>
<g>
	<path fill="#FFFFFF" stroke="#F37335" stroke-width="10" stroke-miterlimit="10" d="M110.1,103.8L110.1,103.8
		c-4.5,0-8.1-3.6-8.1-8.1V66c0-4.5,3.6-8.1,8.1-8.1l0,0c4.5,0,8.1,3.6,8.1,8.1v30C117.9,100.2,114.3,103.8,110.1,103.8z"/>
	<path fill="#FFFFFF" stroke="#F37335" stroke-width="10" stroke-miterlimit="10" d="M150.6,103.8L150.6,103.8
		c-4.5,0-8.1-3.6-8.1-8.1V66c0-4.5,3.6-8.1,8.1-8.1l0,0c4.5,0,8.1,3.6,8.1,8.1v30C158.7,100.2,155.1,103.8,150.6,103.8z"/>
	<path fill="#FFFFFF" stroke="#F37335" stroke-width="10" stroke-miterlimit="10" d="M189.9,103.8L189.9,103.8
		c-4.5,0-8.1-3.6-8.1-8.1V66c0-4.5,3.6-8.1,8.1-8.1l0,0c4.5,0,8.1,3.6,8.1,8.1v30C198,100.2,194.4,103.8,189.9,103.8z"/>
</g>
<path fill="#F37335" d="M121.5,161.1H98.1c-2.7,0-4.8-2.1-4.8-4.8v-23.4c0-2.7,2.1-4.8,4.8-4.8h23.4c2.7,0,4.8,2.1,4.8,4.8v23.4
	C126.3,159,124.2,161.1,121.5,161.1z"/>
<path fill="#F37335" d="M163.5,161.1h-23.4c-2.7,0-4.8-2.1-4.8-4.8v-23.4c0-2.7,2.1-4.8,4.8-4.8h23.4c2.7,0,4.8,2.1,4.8,4.8v23.4
	C168.3,159,166.2,161.1,163.5,161.1z"/>
<path fill="#F37335" d="M205.5,161.1h-23.4c-2.7,0-4.8-2.1-4.8-4.8v-23.4c0-2.7,2.1-4.8,4.8-4.8h23.4c2.7,0,4.8,2.1,4.8,4.8v23.4
	C210.3,159,208.2,161.1,205.5,161.1z"/>
<path fill="#F37335" d="M121.5,203.1H98.1c-2.7,0-4.8-2.1-4.8-4.8v-23.4c0-2.7,2.1-4.8,4.8-4.8h23.4c2.7,0,4.8,2.1,4.8,4.8v23.4
	C126.3,201,124.2,203.1,121.5,203.1z"/>
<path fill="#F37335" d="M163.5,203.1h-23.4c-2.7,0-4.8-2.1-4.8-4.8v-23.4c0-2.7,2.1-4.8,4.8-4.8h23.4c2.7,0,4.8,2.1,4.8,4.8v23.4
	C168.3,201,166.2,203.1,163.5,203.1z"/>
<path fill="#F37335" d="M205.5,203.1h-23.4c-2.7,0-4.8-2.1-4.8-4.8v-23.4c0-2.7,2.1-4.8,4.8-4.8h23.4c2.7,0,4.8,2.1,4.8,4.8v23.4
	C210.3,201,208.2,203.1,205.5,203.1z"/>
</svg>
