<?xml version="1.0" encoding="utf-8"?>
<!-- Generator: Adobe Illustrator 18.0.0, SVG Export Plug-In . SVG Version: 6.00 Build 0)  -->
<!DOCTYPE svg PUBLIC "-//W3C//DTD SVG 1.1//EN" "http://www.w3.org/Graphics/SVG/1.1/DTD/svg11.dtd">
<svg version="1.1" id="Layer_1" xmlns="http://www.w3.org/2000/svg" xmlns:xlink="http://www.w3.org/1999/xlink" x="0px" y="0px"
	 viewBox="0 0 300 300" enable-background="new 0 0 300 300" xml:space="preserve">
<g>
	<g>
		<path fill="#F37335" d="M261.7,151.9c-0.2,24.6-18.3,45.3-42.8,48.2c-15.3,1.8-28.6-2.7-39.7-13.4c-6.2-6-12.2-12.2-18.3-18.3
			c-2.6-2.6-2.7-6.4-0.3-8.9c2.5-2.5,6.3-2.5,9,0.1c5.9,5.8,11.7,11.7,17.6,17.5c7.7,7.6,16.9,11.2,27.8,10.8
			c16.6-0.6,31.3-13.7,33.9-30.1c3.1-20.1-9.6-38.3-29.7-41.8c-12.4-2.1-23.2,1.6-32.1,10.4c-13.2,13.1-26.3,26.3-39.5,39.5
			c-6.7,6.7-13.3,13.6-20.2,20.1c-13.9,13.3-30.3,17.6-48.6,12c-18.3-5.6-29.6-18.5-33.4-37.3c-5.4-27,13.4-53.3,40.7-57.1
			c16-2.2,29.9,2.5,41.4,13.8c6,5.8,11.9,11.8,17.8,17.7c1.8,1.8,2.4,4,1.6,6.5c-0.8,2.4-2.6,3.8-5.1,4.1c-2.1,0.3-3.8-0.5-5.3-2
			c-5.8-5.8-11.6-11.6-17.4-17.4c-7.8-7.7-17.1-11.3-28-10.9c-16.5,0.7-31.1,13.7-33.7,30c-3.2,20.2,9.6,38.4,29.7,41.9
			c12,2.1,22.7-1.3,31.4-9.9c12.7-12.5,25.2-25.1,37.7-37.7c7.6-7.6,15-15.4,22.8-22.7c14.1-13.3,30.7-17.5,49.1-11.5
			c18.3,6,29.1,19.1,32.8,38C261.4,146.5,261.4,149.3,261.7,151.9z"/>
	</g>
	
		<line fill="none" stroke="#F37335" stroke-width="12.3406" stroke-linecap="round" stroke-miterlimit="10" x1="140.1" y1="140.2" x2="114.3" y2="140.2"/>
	
		<line fill="none" stroke="#F37335" stroke-width="12.3406" stroke-linecap="round" stroke-miterlimit="10" x1="141" y1="138.1" x2="141" y2="112.4"/>
</g>
</svg>
