<?xml version="1.0" encoding="utf-8"?>
<!-- Generator: Adobe Illustrator 18.0.0, SVG Export Plug-In . SVG Version: 6.00 Build 0)  -->
<!DOCTYPE svg PUBLIC "-//W3C//DTD SVG 1.1//EN" "http://www.w3.org/Graphics/SVG/1.1/DTD/svg11.dtd">
<svg version="1.1" id="Layer_1" xmlns="http://www.w3.org/2000/svg" xmlns:xlink="http://www.w3.org/1999/xlink" x="0px" y="0px"
	 viewBox="0 0 300 300" enable-background="new 0 0 300 300" xml:space="preserve">
<g>
	<path fill="none" stroke="#F37335" stroke-width="10" stroke-linecap="round" stroke-miterlimit="10" d="M167.1,207.9
		c-6,2.7-12,5.7-18,8.1c-2.4,0.9-5.1,1.8-7.5,1.5c-5.1-0.3-8.4-4.8-8.4-10.8c0-12.6,0-25.5,0-38.1c0-18,0-35.7,0-53.7
		c0-2.1,0.3-4.2,1.2-6.3c0.9-2.7,3.6-3.9,6.3-2.7c1.8,0.9,3.6,1.8,5.1,3.3c15.3,13.8,30.3,27.6,45.3,41.1
		c7.2,6.6,14.1,12.9,21.3,19.5c2.4,2.1,4.2,4.5,4.5,8.1c0.3,4.5-2.1,7.8-6,9.9c-3,1.5-6,2.7-9,4.2c-3.9,1.8-8.1,3.6-12.3,5.7
		c0.3,0.9,0.6,1.5,0.9,2.1c4.2,9,8.1,18,12.3,27c3.3,7.5-0.9,15.6-8.7,17.4c-5.7,1.5-11.7-1.5-14.4-7.2c-4.2-9-8.1-17.7-12.3-26.7
		C167.7,209.1,167.4,208.5,167.1,207.9z"/>
	
		<line fill="none" stroke="#F37335" stroke-width="10" stroke-linecap="round" stroke-miterlimit="10" x1="98.1" y1="147.6" x2="115.5" y2="129.9"/>
	
		<line fill="none" stroke="#F37335" stroke-width="10" stroke-linecap="round" stroke-miterlimit="10" x1="156.9" y1="88.5" x2="174.6" y2="71.1"/>
	
		<line fill="none" stroke="#F37335" stroke-width="10" stroke-linecap="round" stroke-miterlimit="10" x1="82.2" y1="109.2" x2="107.1" y2="109.2"/>
	
		<line fill="none" stroke="#F37335" stroke-width="10" stroke-linecap="round" stroke-miterlimit="10" x1="165.6" y1="109.2" x2="190.2" y2="109.2"/>
	
		<line fill="none" stroke="#F37335" stroke-width="10" stroke-linecap="round" stroke-miterlimit="10" x1="98.1" y1="71.1" x2="115.5" y2="88.5"/>
	
		<line fill="none" stroke="#F37335" stroke-width="10" stroke-linecap="round" stroke-miterlimit="10" x1="136.2" y1="55.2" x2="136.2" y2="80.1"/>
</g>
</svg>
