<?xml version="1.0" encoding="utf-8"?>
<!-- Generator: Adobe Illustrator 18.0.0, SVG Export Plug-In . SVG Version: 6.00 Build 0)  -->
<!DOCTYPE svg PUBLIC "-//W3C//DTD SVG 1.1//EN" "http://www.w3.org/Graphics/SVG/1.1/DTD/svg11.dtd">
<svg version="1.1" id="Layer_1" xmlns="http://www.w3.org/2000/svg" xmlns:xlink="http://www.w3.org/1999/xlink" x="0px" y="0px"
	 viewBox="0 0 300 300" enable-background="new 0 0 300 300" xml:space="preserve">
<path fill="none" stroke="#F37335" stroke-width="10" stroke-miterlimit="10" d="M213,243H87c-16.5,0-30-13.5-30-30V87
	c0-16.5,13.5-30,30-30h126c16.5,0,30,13.5,30,30v126C243,229.5,229.5,243,213,243z"/>
<path fill="#F37335" d="M95.9,109.2L95.9,109.2c-8,0-14.6-6.6-14.6-14.6l0,0c0-8,6.6-14.6,14.6-14.6l0,0c8,0,14.6,6.6,14.6,14.6l0,0
	C110.8,102.6,104.2,109.2,95.9,109.2z"/>
<g>
	<g>
		<path fill="none" stroke="#F37335" stroke-width="0.9197" stroke-miterlimit="10" d="M111.3,177.3c0.6,0.6,0.8,1.4,0.8,2.2
			c0,0.8-0.3,1.7-0.8,2.2c-0.6,0.3-1.4,0.6-2.2,0.6H85.3c-0.8,0-1.7-0.3-2.2-0.8c-0.6-0.6-0.8-1.4-0.8-2.2v-38.9
			c0-0.8,0.3-1.7,0.8-2.2c0.6-0.6,1.4-0.8,2.2-0.8c0.8,0,1.7,0.3,2.2,0.8c0.6,0.6,0.8,1.4,0.8,2.2v35.9h20.7
			C109.9,176.5,110.7,176.7,111.3,177.3z"/>
		<path fill="none" stroke="#F37335" stroke-width="0.9197" stroke-miterlimit="10" d="M122.9,137.8c0.6-0.6,1.4-0.8,2.2-0.8
			c0.8,0,1.7,0.3,2.2,0.8c0.6,0.6,0.8,1.4,0.8,2.2v39.2c0,0.8-0.3,1.7-0.8,2.2c-0.6,0.6-1.4,0.8-2.2,0.8c-0.8,0-1.7-0.3-2.2-0.8
			c-0.6-0.6-0.8-1.4-0.8-2.2v-39.2C122,139.2,122.3,138.4,122.9,137.8z"/>
		<path fill="none" stroke="#F37335" stroke-width="0.9197" stroke-miterlimit="10" d="M177.2,138.1c0.6,0.6,0.8,1.1,0.8,1.7
			s0,0.8-0.3,1.4l-17.1,39.2c-0.6,1.4-1.4,1.9-2.8,1.9c-1.1,0-2.2-0.6-2.8-1.9l-16.8-38.6c-0.3-0.8-0.6-1.4-0.6-1.9
			c0-0.8,0.3-1.4,0.8-1.9c0.6-0.6,1.1-0.6,1.9-0.6c1.4,0,2.2,0.6,2.8,1.7l14.3,35l14.9-34.8c0.3-0.8,0.6-1.1,1.1-1.4
			c0.6-0.3,1.1-0.3,1.7-0.3C176.1,137.3,176.7,137.6,177.2,138.1z"/>
		<path fill="none" stroke="#F37335" stroke-width="0.9197" stroke-miterlimit="10" d="M218.6,177.6c0.6,0.6,0.8,1.1,0.8,1.9
			s-0.3,1.7-0.8,1.9c-0.6,0.6-1.1,0.8-1.9,0.8h-25.9c-0.8,0-1.7-0.3-2.2-0.8c-0.6-0.6-0.8-1.4-0.8-2.2v-38.9c0-0.8,0.3-1.7,0.8-2.2
			s1.4-0.8,2.2-0.8h25.9c0.8,0,1.7,0.3,2.2,0.8c0.6,0.6,0.8,1.1,0.8,1.9c0,0.8-0.3,1.4-0.8,1.9c-0.6,0.6-1.4,0.8-2.2,0.8h-22.9v14.1
			h16.6c0.8,0,1.7,0.3,2.2,0.8c0.6,0.6,0.8,1.1,0.8,1.9c0,0.8-0.3,1.4-0.8,1.9c-0.6,0.6-1.4,0.8-2.2,0.8h-16.6v14.3h22.9
			C217.5,176.7,218,177,218.6,177.6z"/>
	</g>
	<g>
		<path fill="#F37335" d="M111.3,177.3c0.6,0.6,0.8,1.4,0.8,2.2c0,0.8-0.3,1.7-0.8,2.2c-0.6,0.3-1.4,0.6-2.2,0.6H85.3
			c-0.8,0-1.7-0.3-2.2-0.8c-0.6-0.6-0.8-1.4-0.8-2.2v-38.9c0-0.8,0.3-1.7,0.8-2.2c0.6-0.6,1.4-0.8,2.2-0.8c0.8,0,1.7,0.3,2.2,0.8
			c0.6,0.6,0.8,1.4,0.8,2.2v35.9h20.7C109.9,176.5,110.7,176.7,111.3,177.3z"/>
		<path fill="#F37335" d="M122.9,137.8c0.6-0.6,1.4-0.8,2.2-0.8c0.8,0,1.7,0.3,2.2,0.8c0.6,0.6,0.8,1.4,0.8,2.2v39.2
			c0,0.8-0.3,1.7-0.8,2.2c-0.6,0.6-1.4,0.8-2.2,0.8c-0.8,0-1.7-0.3-2.2-0.8c-0.6-0.6-0.8-1.4-0.8-2.2v-39.2
			C122,139.2,122.3,138.4,122.9,137.8z"/>
		<path fill="#F37335" d="M177.2,138.1c0.6,0.6,0.8,1.1,0.8,1.7s0,0.8-0.3,1.4l-17.1,39.2c-0.6,1.4-1.4,1.9-2.8,1.9
			c-1.1,0-2.2-0.6-2.8-1.9l-16.8-38.6c-0.3-0.8-0.6-1.4-0.6-1.9c0-0.8,0.3-1.4,0.8-1.9c0.6-0.6,1.1-0.6,1.9-0.6
			c1.4,0,2.2,0.6,2.8,1.7l14.3,35l14.9-34.8c0.3-0.8,0.6-1.1,1.1-1.4c0.6-0.3,1.1-0.3,1.7-0.3C176.1,137.3,176.7,137.6,177.2,138.1z
			"/>
		<path fill="#F37335" d="M218.6,177.6c0.6,0.6,0.8,1.1,0.8,1.9s-0.3,1.7-0.8,1.9c-0.6,0.6-1.1,0.8-1.9,0.8h-25.9
			c-0.8,0-1.7-0.3-2.2-0.8c-0.6-0.6-0.8-1.4-0.8-2.2v-38.9c0-0.8,0.3-1.7,0.8-2.2s1.4-0.8,2.2-0.8h25.9c0.8,0,1.7,0.3,2.2,0.8
			c0.6,0.6,0.8,1.1,0.8,1.9c0,0.8-0.3,1.4-0.8,1.9c-0.6,0.6-1.4,0.8-2.2,0.8h-22.9v14.1h16.6c0.8,0,1.7,0.3,2.2,0.8
			c0.6,0.6,0.8,1.1,0.8,1.9c0,0.8-0.3,1.4-0.8,1.9c-0.6,0.6-1.4,0.8-2.2,0.8h-16.6v14.3h22.9C217.5,176.7,218,177,218.6,177.6z"/>
	</g>
</g>
</svg>
