<?xml version="1.0" encoding="utf-8"?>
<!-- Generator: Adobe Illustrator 18.0.0, SVG Export Plug-In . SVG Version: 6.00 Build 0)  -->
<!DOCTYPE svg PUBLIC "-//W3C//DTD SVG 1.1//EN" "http://www.w3.org/Graphics/SVG/1.1/DTD/svg11.dtd">
<svg version="1.1" id="Layer_1" xmlns="http://www.w3.org/2000/svg" xmlns:xlink="http://www.w3.org/1999/xlink" x="0px" y="0px"
	 viewBox="0 0 300 300" enable-background="new 0 0 300 300" xml:space="preserve">
<path fill="none" stroke="#F37335" stroke-width="10" stroke-miterlimit="10" d="M233.1,212.5H66.9c-7.8,0-12-8.7-7.5-15L91.5,154
	c1.8-2.4,4.5-3.9,7.5-3.9h101.7c3,0,5.7,1.5,7.5,3.9l32.1,43.8C245.1,203.8,240.9,212.5,233.1,212.5z"/>
<polyline fill="none" stroke="#F37335" stroke-width="10" stroke-linejoin="round" stroke-miterlimit="10" points="76.5,212.5 
	78.3,172.3 114,181.9 143.1,166.9 155.4,150.1 172.5,189.7 159.9,212.5 207.6,201.4 186.9,177.1 225,176.5 187.5,150.1 "/>
<g>
	<path fill="#F37335" d="M147,126.6c1.2-1.8,0.9-3.6-0.6-5.1c-1.2-0.9-2.1-0.9-2.4-0.9c-0.6,0.3-1.5,0.6-2.1,1.8
		c-2.4,4.2-6.3,6-11.4,6h-21.3c-1.5,0-3,0-4.5-0.3c-5.4-0.9-9.9-6.6-9.9-13.2c0-0.9,0.3-1.8,0.3-2.4c1.2-6.6,6-10.8,12.3-10.8h23.4
		c5.1-0.3,8.7,2.1,11.1,6c1.2,1.8,3,2.4,4.5,1.2c1.5-0.9,2.1-3,0.9-5.1c-3.6-6-8.4-9-14.1-9.3c-9-0.3-18.3-0.3-27,0
		c-8.1,0.3-15,6.6-17.1,15.6c0,0.3-0.3,0.3-0.3,0.9c0,0.3,0,0.3,0,0.3l-0.3,0.3v6.9l0.3,0.3c1.8,9.3,8.7,16.5,16.8,16.5
		c9.3,0.3,18.3,0.3,27.9,0C138.9,134.7,143.4,131.7,147,126.6z"/>
	<path fill="#F37335" d="M167.7,135c9.6,0.3,18.6,0.3,27.9,0c8.1,0,15-7.2,16.8-16.5l0.3-0.3v-6.9l-0.3-0.3c0,0,0,0,0-0.3
		s-0.3-0.6-0.3-0.9c-2.1-9-9-15.6-17.1-15.6c-8.7-0.3-18-0.3-27,0c-5.7,0.3-10.5,3.3-14.1,9.3c-1.2,2.1-0.6,4.2,0.9,5.1
		c1.5,1.2,3.3,0.6,4.5-1.2c2.4-4.2,6-6.3,11.1-6h23.4c6.3,0,11.1,4.2,12.3,10.8c0,0.9,0.3,1.8,0.3,2.4c0,6.6-4.5,12.3-9.9,13.2
		c-1.5,0.3-3,0.3-4.5,0.3h-21c-5.1,0-8.7-1.8-11.4-6c-0.6-1.2-1.5-1.5-2.1-1.8c-0.6,0-1.5,0-2.4,0.9c-1.5,1.5-1.8,3.3-0.6,5.1
		C157.8,131.7,162.6,134.7,167.7,135z"/>
	<path fill="#F37335" d="M135.3,114.9c0,1.8,1.2,3.6,4.2,3.6h22.2c3,0,4.2-1.8,4.2-3.6c0-1.8-1.2-3.6-4.2-3.6h-22.2
		C135.6,111.6,135.3,114.3,135.3,114.9z"/>
</g>
</svg>
