<?xml version="1.0" encoding="utf-8"?>
<!-- Generator: Adobe Illustrator 18.0.0, SVG Export Plug-In . SVG Version: 6.00 Build 0)  -->
<!DOCTYPE svg PUBLIC "-//W3C//DTD SVG 1.1//EN" "http://www.w3.org/Graphics/SVG/1.1/DTD/svg11.dtd">
<svg version="1.1" id="Layer_1" xmlns="http://www.w3.org/2000/svg" xmlns:xlink="http://www.w3.org/1999/xlink" x="0px" y="0px"
	 viewBox="0 0 100 100" enable-background="new 0 0 100 100" xml:space="preserve">
<g>
	<rect x="0" fill="none" stroke="#231F20" stroke-width="0.1" stroke-miterlimit="10" width="100" height="100"/>
	<line fill="none" stroke="#231F20" stroke-width="0.1" stroke-miterlimit="10" x1="0" y1="90.9" x2="100" y2="90.9"/>
	<line fill="none" stroke="#231F20" stroke-width="0.1" stroke-miterlimit="10" x1="0" y1="81.8" x2="100" y2="81.8"/>
	<line fill="none" stroke="#231F20" stroke-width="0.1" stroke-miterlimit="10" x1="0" y1="72.7" x2="100" y2="72.7"/>
	<line fill="none" stroke="#231F20" stroke-width="0.1" stroke-miterlimit="10" x1="0" y1="63.6" x2="100" y2="63.6"/>
	<line fill="none" stroke="#231F20" stroke-width="0.1" stroke-miterlimit="10" x1="0" y1="54.5" x2="100" y2="54.5"/>
	<line fill="none" stroke="#231F20" stroke-width="0.1" stroke-miterlimit="10" x1="0" y1="45.5" x2="100" y2="45.5"/>
	<line fill="none" stroke="#231F20" stroke-width="0.1" stroke-miterlimit="10" x1="0" y1="36.4" x2="100" y2="36.4"/>
	<line fill="none" stroke="#231F20" stroke-width="0.1" stroke-miterlimit="10" x1="0" y1="27.3" x2="100" y2="27.3"/>
	<line fill="none" stroke="#231F20" stroke-width="0.1" stroke-miterlimit="10" x1="0" y1="18.2" x2="100" y2="18.2"/>
	<line fill="none" stroke="#231F20" stroke-width="0.1" stroke-miterlimit="10" x1="0" y1="9.1" x2="100" y2="9.1"/>
	<line fill="none" stroke="#231F20" stroke-width="0.1" stroke-miterlimit="10" x1="90.9" y1="0" x2="90.9" y2="100"/>
	<line fill="none" stroke="#231F20" stroke-width="0.1" stroke-miterlimit="10" x1="81.8" y1="0" x2="81.8" y2="100"/>
	<line fill="none" stroke="#231F20" stroke-width="0.1" stroke-miterlimit="10" x1="72.7" y1="0" x2="72.7" y2="100"/>
	<line fill="none" stroke="#231F20" stroke-width="0.1" stroke-miterlimit="10" x1="63.6" y1="0" x2="63.6" y2="100"/>
	<line fill="none" stroke="#231F20" stroke-width="0.1" stroke-miterlimit="10" x1="54.5" y1="0" x2="54.5" y2="100"/>
	<line fill="none" stroke="#231F20" stroke-width="0.1" stroke-miterlimit="10" x1="45.5" y1="0" x2="45.5" y2="100"/>
	<line fill="none" stroke="#231F20" stroke-width="0.1" stroke-miterlimit="10" x1="36.4" y1="0" x2="36.4" y2="100"/>
	<line fill="none" stroke="#231F20" stroke-width="0.1" stroke-miterlimit="10" x1="27.3" y1="0" x2="27.3" y2="100"/>
	<line fill="none" stroke="#231F20" stroke-width="0.1" stroke-miterlimit="10" x1="18.2" y1="0" x2="18.2" y2="100"/>
	<line fill="none" stroke="#231F20" stroke-width="0.1" stroke-miterlimit="10" x1="9.1" y1="0" x2="9.1" y2="100"/>
</g>
<g>
	<path fill="#F37335" d="M34.1,77.8c0.5,0,1,0.2,1.4,0.6c0.4,0.4,0.6,0.8,0.6,1.4c0,0.5-0.2,1-0.6,1.3c-0.4,0.4-0.8,0.5-1.4,0.5
		c-6.3,0-9.4-3.1-9.4-9.4V57.6c0-3.8-1.9-5.7-5.7-5.7c-0.5,0-1-0.2-1.4-0.5c-0.4-0.4-0.6-0.8-0.6-1.3s0.2-1,0.6-1.4
		c0.4-0.4,0.8-0.6,1.4-0.6c3.8,0,5.7-1.9,5.7-5.7V27.9c0-6.3,3.1-9.4,9.4-9.4c0.6,0,1,0.2,1.4,0.5c0.4,0.4,0.5,0.8,0.5,1.4
		c0,0.5-0.2,1-0.6,1.3c-0.4,0.4-0.8,0.5-1.4,0.5c-3.7,0-5.6,1.9-5.6,5.7v14.6c0,3.1-0.9,5.6-2.8,7.6c1.9,1.9,2.8,4.4,2.8,7.5v14.6
		C28.5,75.9,30.4,77.8,34.1,77.8z"/>
</g>
<g>
	<path fill="#F37335" d="M73.1,72.2V57.6c0-3.1,0.9-5.7,2.8-7.5c-1.9-1.9-2.8-4.5-2.8-7.6V27.9c0-3.8-1.9-5.7-5.6-5.7
		c-0.5,0-1-0.2-1.4-0.5c-0.4-0.4-0.6-0.8-0.6-1.3c0-0.6,0.2-1,0.5-1.4c0.4-0.4,0.8-0.5,1.4-0.5c6.3,0,9.4,3.1,9.4,9.4v14.6
		c0,3.8,1.9,5.7,5.7,5.7c0.5,0,1,0.2,1.4,0.6c0.4,0.4,0.6,0.8,0.6,1.4s-0.2,1-0.6,1.3c-0.4,0.4-0.8,0.5-1.4,0.5
		c-3.8,0-5.7,1.9-5.7,5.7v14.6c0,6.3-3.1,9.4-9.4,9.4c-0.5,0-1-0.2-1.4-0.5c-0.4-0.4-0.6-0.8-0.6-1.3c0-0.5,0.2-1,0.6-1.4
		c0.4-0.4,0.8-0.6,1.4-0.6C71.3,77.8,73.1,75.9,73.1,72.2z"/>
</g>
<g>
	<path fill="#F37335" d="M52.8,50.6c-0.4-0.3-0.9-0.2-1.2,0.1c-0.2,0.3-0.2,0.4-0.1,0.6c0,0.1,0.1,0.4,0.4,0.5
		c0.9,0.6,1.4,1.5,1.4,2.7v4.9c0,0.4,0,0.7-0.1,1c-0.2,1.3-1.6,2.3-3.1,2.3c-0.2,0-0.4,0-0.6-0.1c-1.6-0.3-2.5-1.4-2.5-2.9v-5.5
		c0-1.2,0.4-2,1.4-2.6c0.4-0.3,0.6-0.7,0.3-1c-0.2-0.3-0.7-0.5-1.2-0.2c-1.3,0.8-2.1,1.9-2.1,3.3c-0.1,2.1,0,4.3,0,6.4
		c0.1,1.9,1.5,3.6,3.6,4c0.1,0,0.1,0,0.2,0c0,0,0,0,0.1,0l0.1,0.1h1.6l0,0c2.2-0.4,3.8-2.1,3.9-3.9c0.1-2.2,0.1-4.3,0-6.5
		C54.7,52.4,54,51.4,52.8,50.6z"/>
	<path fill="#F37335" d="M52.7,36.6c-0.4-0.3-1-0.4-1.5-0.6c-0.1,0-0.3,0-0.4-0.1h-1.6l0,0c-2.2,0.4-3.8,2.1-3.9,4
		c-0.1,2.1-0.1,4.2,0,6.3c0,1.3,0.7,2.4,2,3.3c0.5,0.3,1,0.2,1.2-0.1c0.2-0.2,0.2-0.4,0.2-0.6c0-0.2-0.2-0.4-0.4-0.6
		c-0.8-0.6-1.3-1.4-1.3-2.4c0-0.6,0-1.3,0-1.9c0-1.3,0-2.5,0-3.8c0-1.6,1.4-2.9,3.1-2.9c0.1,0,0.2,0,0.3,0c1.7,0.2,2.9,1.4,2.9,3
		v5.5c0,1-0.4,1.9-1.4,2.5c-0.2,0.1-0.3,0.3-0.4,0.6c0,0.1,0,0.3,0.1,0.6c0.2,0.2,0.4,0.3,0.6,0.3c0.2,0,0.4-0.1,0.6-0.2
		c1.3-0.9,1.9-1.9,2-3.3c0.1-1.9,0.1-3.9,0-6.2C54.8,38.6,54.1,37.5,52.7,36.6z"/>
	<path fill="#F37335" d="M50.1,54.1c0.4,0,0.8-0.3,0.8-1v-5.2c0-0.7-0.4-1-0.8-1s-0.8,0.3-0.8,1v5.2C49.3,54,49.9,54.1,50.1,54.1z"
		/>
</g>
</svg>
