<?xml version="1.0" encoding="utf-8"?>
<!-- Generator: Adobe Illustrator 18.0.0, SVG Export Plug-In . SVG Version: 6.00 Build 0)  -->
<!DOCTYPE svg PUBLIC "-//W3C//DTD SVG 1.1//EN" "http://www.w3.org/Graphics/SVG/1.1/DTD/svg11.dtd">
<svg version="1.1" id="Layer_1" xmlns="http://www.w3.org/2000/svg" xmlns:xlink="http://www.w3.org/1999/xlink" x="0px" y="0px"
	 viewBox="0 0 300 300" enable-background="new 0 0 300 300" xml:space="preserve">
<path fill="none" stroke="#F37335" stroke-width="10" stroke-linecap="round" stroke-miterlimit="10" d="M122.7,225.6
	c-35.1-11.4-60.6-44.7-60.6-83.7C62.1,93.3,101.4,54,150,54s87.9,39.3,87.9,87.9c0,39-25.5,72-60.6,83.7"/>
<path fill="none" stroke="#F37335" stroke-width="10" stroke-miterlimit="10" d="M129.3,204.9c-27-8.7-46.2-33.9-46.2-63.6
	c0-36.9,30-66.9,66.9-66.9s66.9,30,66.9,66.9c0,29.7-19.2,54.9-45.9,63.6"/>
<g>
	<path fill="#F37335" d="M162.6,183.9c-1.8-1.2-3.9-0.9-5.4,0.6c-0.9,1.2-0.9,2.1-0.9,2.7c0.3,0.6,0.6,1.8,1.8,2.4
		c4.5,2.7,6.3,6.6,6.3,12v22.5c0,1.8,0,3-0.3,4.8c-0.9,5.7-7.2,10.5-14.1,10.5c-0.9,0-1.8-0.3-2.7-0.3c-7.2-1.2-11.4-6.6-11.4-13.2
		V201c-0.3-5.4,2.1-9.3,6.6-12c1.8-1.2,2.4-3,1.2-4.8c-0.9-1.8-3.3-2.4-5.4-0.9c-6.3,3.9-9.6,9-9.9,15c-0.3,9.6-0.3,19.5,0,28.8
		c0.3,8.7,7.2,16.2,16.8,18c0.3,0,0.3,0.3,0.9,0.3c0.3,0,0.3,0,0.3,0l0.3,0.3h7.2l0.3-0.3c9.9-1.8,17.4-9.3,17.4-18
		c0.3-9.9,0.3-19.5,0-29.7C171.3,192.6,168.3,187.5,162.6,183.9z"/>
	<path fill="#F37335" d="M171.6,161.7c0.3-10.2,0.3-19.8,0-29.7c0-8.7-7.5-16.2-17.4-18l-0.3-0.3h-7.2l-0.3,0.3c0,0,0,0-0.3,0
		s-0.6,0.3-0.9,0.3c-9.6,2.1-16.5,9.6-16.8,18c-0.3,9.3-0.3,19.2,0,28.8c0.3,6,3.6,11.4,9.9,15c2.1,1.2,4.5,0.6,5.4-0.9
		c1.2-1.8,0.6-3.6-1.2-4.8c-4.5-2.7-6.6-6.6-6.6-12v-24.9c0-6.6,4.5-12,11.4-13.2c0.9,0,1.8-0.3,2.7-0.3c6.9,0,13.2,4.8,14.1,10.5
		c0.3,1.8,0.3,3,0.3,4.8v22.5c0,5.4-1.8,9.3-6.3,12c-1.2,0.6-1.8,1.8-1.8,2.4c0,0.6,0,1.5,0.9,2.7c1.5,1.8,3.6,1.8,5.4,0.6
		C168.3,172.2,171.3,167.4,171.6,161.7z"/>
	<path fill="#F37335" d="M150.3,196.2c1.8,0,3.9-1.2,3.9-4.5V168c0-3-1.8-4.5-3.9-4.5c-1.8,0-3.9,1.2-3.9,4.5v24
		C146.7,196.2,149.4,196.2,150.3,196.2z"/>
</g>
</svg>
