<?xml version="1.0" encoding="utf-8"?>
<!-- Generator: Adobe Illustrator 18.0.0, SVG Export Plug-In . SVG Version: 6.00 Build 0)  -->
<!DOCTYPE svg PUBLIC "-//W3C//DTD SVG 1.1//EN" "http://www.w3.org/Graphics/SVG/1.1/DTD/svg11.dtd">
<svg version="1.1" id="Layer_1" xmlns="http://www.w3.org/2000/svg" xmlns:xlink="http://www.w3.org/1999/xlink" x="0px" y="0px"
	 viewBox="0 0 300 300" enable-background="new 0 0 300 300" xml:space="preserve">
<g>
	<path fill="#F37335" d="M139.5,58.8c0,0.9,0,1.8,0,2.4c0,25.2,0,50.1,0,75.3c0,3,0,3-3,3c-25.2,0-50.1,0-75.3,0c-0.9,0-1.5,0-2.4,0
		c0-6,0-11.7,0-17.7c0-13.8,0-27.9,0-41.7c0-12.6,8.7-21.3,21.3-21.3c18.9,0,37.8,0,56.7,0C137.4,58.8,138.3,58.8,139.5,58.8z
		 M124.5,73.8c-1.2,0-1.8,0-2.4,0c-14.1,0-28.2,0-42.3,0c-4.2,0-6,1.8-6,6.3c0,14.1,0,27.9,0,42c0,0.9,0,1.8,0.3,2.7
		c1.2,0,1.8,0,2.7,0c15.3,0,30.3,0,45.6,0c2.1,0,2.7-0.6,2.7-2.7c0-15,0-30.3,0-45.3C124.5,75.9,124.5,75,124.5,73.8z"/>
	<path fill="#F37335" d="M160.2,58.8c2.7,0,5.4,0,8.1,0c17.1,0,34.5,0,51.6,0c12,0,20.7,8.7,20.7,20.7c0,19.5,0,38.7,0,58.2
		c0,0.6,0,0.9,0,1.8c-0.9,0-1.8,0.3-2.7,0.3c-25.2,0-50.1,0-75.3,0c-3,0-3,0-3-3c0-24.9,0-50.1,0-75C159.9,60.9,160.2,60,160.2,58.8
		z M225.6,124.8c0-0.6,0.3-0.9,0.3-1.2c0-14.7,0-29.4,0-44.1c0-3.6-2.1-5.4-5.7-5.4c-14.1,0-28.5,0-42.6,0c-0.9,0-1.5,0-2.4,0
		c0,0.6,0,1.2,0,1.5c0,15.6,0,31.5,0,47.1c0,2.1,0.9,2.1,2.4,2.1c15.3,0,30.6,0,45.9,0C224.1,124.8,224.7,124.8,225.6,124.8z"/>
	<path fill="#F37335" d="M58.8,160.2c0.9,0,1.8,0,2.4,0c25.2,0,50.4,0,75.6,0c2.4,0,3,0.6,3,3c0,25.2,0,50.4,0,75.6
		c0,0.6,0,1.5,0,2.1c-0.9,0-1.5,0-2.1,0c-19.2,0-38.1,0-57.3,0c-13.2,0-21.6-8.4-21.6-21.6c0-18.9,0-37.8,0-56.4
		C58.8,162.3,58.8,161.4,58.8,160.2z M73.8,175.2c0,0.9,0,1.8,0,2.4c0,13.8,0,27.9,0,41.7c0,4.8,1.8,6.6,6.6,6.6
		c13.8,0,27.9,0,41.7,0c0.9,0,1.5,0,2.4,0c0-0.9,0.3-1.5,0.3-2.1c0-15.3,0-30.9,0-46.2c0-2.1-0.6-2.4-2.4-2.4c-15.3,0-30.6,0-45.9,0
		C75.6,175.2,74.7,175.2,73.8,175.2z"/>
	<path fill="#F37335" d="M210.3,160.5c0,4.8,0,9.6,0,14.7c-2.4,0-4.5,0-6.6,0c-8.7,0-17.1,0-25.8,0c-2.1,0-3,0.6-3,3
		c0.3,3.9,0,8.1,0,12.3c-4.8,0-9.6,0-14.7,0c0-0.6-0.3-1.2-0.3-2.1c0-8.4,0-17.1,0-25.5c0-1.8,0.3-2.4,2.1-2.4c15.6,0,30.9,0,46.5,0
		C209.1,160.2,209.7,160.2,210.3,160.5z"/>
	<path fill="#F37335" d="M190.5,225.9c2.7,0,5.4,0,8.1,0c6,0,12.3-0.3,18.3,0c7.5,0.3,9.3-1.2,9-9c0-2.1,0-3.9,0-6
		c5.1,0,9.9,0,15.3,0c-0.6,5.4-0.3,10.8-1.5,15.9c-2.1,8.1-9.6,13.8-18,14.1c-10.2,0.3-20.4,0-30.3,0c-0.3,0-0.3,0-0.9-0.3
		C190.5,236.1,190.5,231,190.5,225.9z"/>
	<path fill="#F37335" d="M240.9,160.5c0,9.9,0,19.8,0,29.7c-4.8,0-9.9,0-14.7,0c0-9.9,0-19.5,0-29.7
		C230.7,160.5,235.8,160.5,240.9,160.5z"/>
	<path fill="#F37335" d="M174.9,240.9c-4.8,0-9.6,0-14.7,0c0-9.9,0-20.1,0-30c4.8,0,9.6,0,14.7,0C174.9,221.1,174.9,231,174.9,240.9
		z"/>
	<path fill="#F37335" d="M210.3,190.8c0,6.6,0,12.9,0,19.5c-6.6,0-12.9,0-19.8,0c0-0.3-0.3-0.9-0.3-1.5c0-5.4,0-11.1,0-16.5
		c0-1.2,0.3-1.8,1.8-1.8c5.7,0,11.4,0,17.1,0C209.7,190.5,210,190.8,210.3,190.8z"/>
	<path fill="#F37335" d="M109.2,89.4c0,6.3,0,12.6,0,18.6c0,0.3-0.9,1.2-1.2,1.2c-6.3,0-12.3,0-18.6,0c0-6.6,0-13.2,0-19.8
		C95.7,89.4,102.3,89.4,109.2,89.4z"/>
	<path fill="#F37335" d="M190.8,89.4c6.6,0,12.9,0,19.5,0c0,6.6,0,12.9,0,19.8c-0.6,0-1.2,0.3-1.5,0.3c-5.4,0-10.8,0-16.2,0
		c-1.2,0-2.1,0-2.1-1.8c0-5.7,0-11.4,0-17.4C190.5,90,190.5,89.7,190.8,89.4z"/>
	<path fill="#F37335" d="M109.2,210.6c-6.9,0-13.2,0-20.1,0c0-6.6,0-13.2,0-20.1c4.8,0,9.6,0,14.4,0c5.4,0,5.4,0,5.4,5.4
		C109.2,201,109.2,205.8,109.2,210.6z"/>
</g>
</svg>
