<?xml version="1.0" encoding="utf-8"?>
<!-- Generator: Adobe Illustrator 18.0.0, SVG Export Plug-In . SVG Version: 6.00 Build 0)  -->
<!DOCTYPE svg PUBLIC "-//W3C//DTD SVG 1.1//EN" "http://www.w3.org/Graphics/SVG/1.1/DTD/svg11.dtd">
<svg version="1.1" id="Layer_1" xmlns="http://www.w3.org/2000/svg" xmlns:xlink="http://www.w3.org/1999/xlink" x="0px" y="0px"
	 viewBox="0 0 300 300" enable-background="new 0 0 300 300" xml:space="preserve">
<g>
	<path fill="#F37335" d="M77.8,141.7c-1.9,2.5-2.5,5.7-3.1,8.2c0,0.6-0.6,1.3-0.6,2.5v8.8h0.6c2.5,12.6,11.3,20.8,22.7,21.4
		s23.3,0.6,34.6,0c6.9,0,13.2-3.8,18.3-11.3c1.9-2.5,1.3-5.7-0.6-6.9c-1.3-1.3-2.5-1.3-3.1-1.3c-1.3,0-2.5,0.6-3.1,2.5
		c-3.1,4.4-7.6,6.9-13.2,6.9c-3.1,0-6.9,0-10.7,0c-6.9,0-13.9,0-21.4,0c-8.8,0-15.7-7.6-15.7-17.6c0-0.6,0-1.3,0-1.9
		c0.6-9.4,7.6-15.7,16.4-15.7h30.2c5.7,0,10.7,2.5,13.9,7.6c0.6,1.3,1.9,1.9,3.1,1.9c0.6,0,1.9,0,3.1-0.6c1.3-0.6,1.9-1.9,1.9-3.1
		c0-1.3-0.6-1.9-1.3-3.1c-4.4-6.9-10.7-10.7-18.3-11.3c-10.1-0.6-21.4-0.6-34.6,0C89.1,130.3,82.2,134.1,77.8,141.7z"/>
</g>
<g>
	<path fill="#F37335" d="M164.1,116.9c0.7,0.4,1.5,0.7,1.9,1.6c0.6,1.3,0.3,2.7-0.6,3.6c-2,2-4,4-6,6c-0.2,0.2-0.3,0.4-0.6,0.7
		c0.4,0,0.7,0,1,0c13.1,0,26.1,0,39.2,0c4.5,0,8.9,1,12.9,3.3c2.1,1.2,4,2.5,5.7,4.2c2.3,2.2,4.2,4.7,5.6,7.5
		c1.4,2.8,2.3,5.7,2.6,8.8c0.3,2.7,0.2,5.4-0.3,8.1c-0.9,4.5-2.7,8.5-5.7,12.1c-3.9,4.7-8.8,7.8-14.7,9.1c-1.7,0.4-3.4,0.6-5.2,0.6
		c-5.2,0.1-10.3,0.1-15.5,0.2c-0.1,0-0.1,0-0.3,0v-5.4c0-0.4,0.3-0.8,0.8-0.8l0,0c4.9,0,9.7,0,14.6,0c3.8,0,7.3-1.2,10.5-3.2
		c3.5-2.2,6.1-5.2,7.9-9c1-2,1.5-4.2,1.8-6.5c0.4-3.6-0.2-6.9-1.5-10.2c-0.7-1.9-1.8-3.6-3.1-5c-1.1-1.2-2.4-2.4-3.7-3.4
		c-2.2-1.8-4.9-3.1-7.7-3.7c-1.4-0.3-2.8-0.5-4.3-0.5c-13.2,0-26.4,0-39.7,0c-0.3,0-0.5,0-1,0c0.2,0.2,0.4,0.4,0.5,0.6
		c2.1,2.1,4.1,4.2,6.2,6.2c0.7,0.7,0.9,2.4,0.5,3.4c-0.4,1-1.3,1.7-2.6,1.7c-1.1,0-1.9-0.4-2.7-1.1c-3.4-3.4-6.9-6.9-10.3-10.3
		c-0.7-0.8-1.4-1.6-2.1-2.4c0-0.6,0-1.2-0.1-1.9c0.5-0.7,1-1.5,1.6-2.1c3.4-3.5,6.9-7,10.4-10.4c0.6-0.6,1.4-1,2-1.6
		C163,117,163.6,117,164.1,116.9z"/>
	<path fill="#F37335" d="M175.3,181.6v-4.1c0-0.6,0.4-1,1-1h4c0.6,0,1,0.4,1,1v4.1c0,0.6-0.4,1-1,1h-4
		C175.7,182.6,175.3,182.2,175.3,181.6z"/>
</g>
</svg>
