<?xml version="1.0" encoding="utf-8"?>
<!-- Generator: Adobe Illustrator 18.0.0, SVG Export Plug-In . SVG Version: 6.00 Build 0)  -->
<!DOCTYPE svg PUBLIC "-//W3C//DTD SVG 1.1//EN" "http://www.w3.org/Graphics/SVG/1.1/DTD/svg11.dtd">
<svg version="1.1" id="Layer_1" xmlns="http://www.w3.org/2000/svg" xmlns:xlink="http://www.w3.org/1999/xlink" x="0px" y="0px"
	 viewBox="0 0 300 300" enable-background="new 0 0 300 300" xml:space="preserve">
<g>
	<path fill="#F37335" d="M169.8,165.1c-0.3-1.3-1.3-2.3-2.6-2.1c-1,0.3-1.3,0.5-1.6,1c-0.3,0.3-0.5,1-0.3,1.8c0.8,3.4-0.3,6-2.6,8.3
		l-10.2,10.2c-0.8,0.8-1.3,1.3-2.3,2.1c-3.1,2.3-8.1,1.6-11.2-1.6c-0.5-0.5-0.8-0.8-1-1.3c-2.6-3.9-2.3-8.3,0.8-11.5l11.5-11.5
		c2.3-2.6,5.2-3.4,8.3-2.3c1.3,0.3,2.6-0.3,2.9-1.6c0.3-1-0.5-2.6-2.1-3.1c-4.7-1-8.6-0.3-11.5,2.3c-4.7,4.2-9.1,8.9-13.3,13.3
		c-3.9,4.2-4.2,10.7-0.8,16.2c0.3,0.3,0.3,0.3,0.3,0.5c0,0,0,0,0.3,0.3v0.3l3.4,3.4h0.3c5.5,3.7,12.5,3.7,16.4-0.3
		c4.7-4.4,9.1-8.9,13.8-13.8C169.8,173.1,170.6,169.5,169.8,165.1z"/>
	<path fill="#F37335" d="M198.8,135.9c-0.3-1.6-1-3.1-1.8-4.4c-0.3-0.3-0.5-0.8-0.5-1L193,127h-0.3c-5.5-3.7-12.3-3.7-16.7,0.3
		c-4.4,4.2-8.9,8.6-13.3,13.3c-2.6,2.9-3.7,6.5-2.6,11c0.5,1.6,1.6,2.6,2.6,2.3c0.8,0,1.3-0.5,1.6-0.8c0.5-0.5,0.5-1.3,0.3-2.3
		c-0.5-3.1,0.3-5.5,2.1-7.6c1.3-1.3,2.6-2.6,3.9-3.9c2.6-2.6,5.2-5.2,8.1-8.1c3.4-3.4,8.9-3.1,12.5,0.5c0.3,0.3,0.5,0.5,0.5,0.5
		c3.1,3.9,3.1,8.9-0.3,12.3l-11,11.5c-2.3,2.3-5,3.1-8.1,2.3c-0.8-0.3-1.3,0-2.1,0.3c-0.3,0.3-0.8,0.5-0.8,1.6
		c0,0.8,0.3,1.3,0.8,1.8c0.5,0.5,1,0.8,1.6,0.8c4.4,1,8.1,0,11-2.6c3.9-3.7,8.3-8.1,13-13C198.8,144.5,199.8,140.5,198.8,135.9z"/>
	<path fill="#F37335" d="M156.8,166.9c0.8,0.8,2.3,1,3.7-0.3l11-11c1.3-1.3,1-2.9,0.3-3.7s-2.3-1-3.7,0.3L157,163
		C155.2,165.1,156.3,166.4,156.8,166.9z"/>
</g>
<path fill="none" stroke="#F37335" stroke-width="8.6913" stroke-miterlimit="10" d="M117.4,93.4h104.8c4.4,0,7.8,3.7,7.8,7.8v116.5
	c0,4.4-3.7,7.8-7.8,7.8H105.7c-4.4,0-7.8-3.7-7.8-7.8V115v-11.2c0-5.7,4.7-10.2,10.2-10.2L117.4,93.4z"/>
<g>
	
		<rect x="65.7" y="83.7" fill="none" stroke="#F37335" stroke-width="5" stroke-linecap="round" stroke-linejoin="round" stroke-miterlimit="10" width="1.5" height="59.7"/>
	
		<rect x="65.7" y="176.1" fill="none" stroke="#F37335" stroke-width="5" stroke-linecap="round" stroke-linejoin="round" stroke-miterlimit="10" width="1.5" height="59.7"/>
</g>
<g>
	<path fill="#F37335" d="M62.1,152.4c2.7,0,5.1,2.1,5.1,5.4c0,3.3-2.1,5.4-5.1,5.4c-1.8,0-3.3-0.9-3.9-2.1v6.9h-1.8v-15.6h1.8v1.8
		C58.8,153.3,60,152.4,62.1,152.4z M61.5,153.9c-1.8,0-3.6,1.5-3.6,3.9s1.8,3.9,3.6,3.9s3.6-1.5,3.6-3.9S63.6,153.9,61.5,153.9z"/>
	<path fill="#F37335" d="M72.3,159.3l-2.4,3.9h-1.8l3.3-5.1l-3.3-5.4h2.1l2.4,3.9l2.4-3.9h1.8l-3.3,5.1l3.3,5.4h-2.1L72.3,159.3z"/>
</g>
<g>
	
		<rect x="179.7" y="65.7" fill="none" stroke="#F37335" stroke-width="5" stroke-linecap="round" stroke-linejoin="round" stroke-miterlimit="10" width="59.4" height="1.5"/>
	
		<rect x="88.2" y="65.7" fill="none" stroke="#F37335" stroke-width="5" stroke-linecap="round" stroke-linejoin="round" stroke-miterlimit="10" width="59.1" height="1.5"/>
</g>
<g>
	<path fill="#F37335" d="M159.3,59.7c2.4,0,4.2,1.8,4.2,4.5s-1.8,4.5-4.2,4.5c-1.5,0-2.7-0.9-3.3-1.8v5.7h-1.5V60h1.5v1.5
		C156.6,60.6,157.8,59.7,159.3,59.7z M159,61.2c-1.5,0-3,1.2-3,3.3s1.5,3.3,3,3.3s3-1.2,3-3.3C162,62.1,160.8,61.2,159,61.2z"/>
	<path fill="#F37335" d="M168,65.4l-2.1,3.3h-1.5l3-4.5l-3-4.5h1.8l2.1,3.3l2.1-3.3h1.5l-2.7,4.5l3,4.5h-1.8L168,65.4z"/>
</g>
</svg>
