<?xml version="1.0" encoding="utf-8"?>
<!-- Generator: Adobe Illustrator 18.0.0, SVG Export Plug-In . SVG Version: 6.00 Build 0)  -->
<!DOCTYPE svg PUBLIC "-//W3C//DTD SVG 1.1//EN" "http://www.w3.org/Graphics/SVG/1.1/DTD/svg11.dtd">
<svg version="1.1" id="Layer_1" xmlns="http://www.w3.org/2000/svg" xmlns:xlink="http://www.w3.org/1999/xlink" x="0px" y="0px"
	 viewBox="0 0 300 300" enable-background="new 0 0 300 300" xml:space="preserve">
<g>
	<path fill="#F37335" d="M139.5,157.6c0,0.6-0.2,1.1-0.6,1.4c-0.4,0.4-0.9,0.6-1.4,0.6c-0.4,0-0.7-0.1-1-0.3l-14.4-8.7
		c-0.7-0.4-1.1-1-1.1-1.8c0-0.7,0.4-1.3,1.1-1.8l14.4-8.7c0.4-0.2,0.7-0.2,1-0.2c0.5,0,1,0.2,1.4,0.5c0.4,0.4,0.6,0.8,0.6,1.4
		c0,0.8-0.3,1.4-1,1.8l-11.8,7l11.8,7C139.2,156.3,139.5,156.9,139.5,157.6z"/>
	<path fill="#F37335" d="M155.1,132.2c0.3-0.2,0.7-0.3,1.1-0.3c0.5,0,1,0.2,1.4,0.6c0.4,0.4,0.6,0.8,0.6,1.4c0,0.3-0.1,0.6-0.2,0.9
		l-11.8,29.5c-0.2,0.4-0.4,0.7-0.7,0.9c-0.3,0.2-0.7,0.3-1.1,0.3c-0.5,0-1-0.2-1.4-0.6c-0.4-0.4-0.6-0.8-0.6-1.4
		c0-0.3,0.1-0.5,0.2-0.9l11.8-29.5C154.5,132.7,154.8,132.4,155.1,132.2z"/>
	<path fill="#F37335" d="M179.3,148.9c0,0.8-0.4,1.4-1.1,1.8l-14.5,8.7c-0.3,0.2-0.6,0.3-1,0.3c-0.5,0-1-0.2-1.4-0.6
		c-0.4-0.4-0.6-0.9-0.6-1.4c0-0.7,0.3-1.3,1-1.7l11.8-7l-11.8-7c-0.7-0.4-1-1-1-1.8c0-0.5,0.2-1,0.6-1.4c0.4-0.4,0.9-0.5,1.4-0.5
		c0.3,0,0.7,0.1,1,0.2l14.5,8.7C179,147.6,179.3,148.2,179.3,148.9z"/>
	<path fill="#F37335" d="M166.6,249.9h-29.7c-6.9,0-11.9-5.1-11.9-12.2v-8.1c0-2.8-1.2-4.6-3.9-5.9c-2.6-1-4.7-0.5-6.9,1.4l-5.8,5.8
		c-3.3,3-6.5,3.7-8.6,3.7c-2.1,0-5.3-0.7-8.5-3.8L70.7,210c-4.9-4.9-4.9-12.1,0-17l5.4-5.4c2.1-2.1,2.7-4.7,1.6-7.1
		c-1.2-2.8-2.9-3.9-6.2-3.9h-8.1c-6.6,0-11.6-5-11.6-11.6v-29.7c0-7,4.9-11.9,11.9-11.9h8.1c2.9,0,5.1-1.3,6.2-3.8
		c1-2.9,0.6-4.9-1.4-6.7l-0.2-0.1c-0.6-0.6-1.1-1.1-1.7-1.7c-1.3-1.2-2.8-2.6-4.1-4.2c-4.8-4.9-4.7-12,0.1-16.8l21-21
		c2.4-2.4,5.4-3.7,8.5-3.7c3,0,6,1.3,8.3,3.6c1.6,1.3,2.9,2.8,4.2,4.1c0.5,0.6,1.1,1.1,1.6,1.7c1.5,1.4,3,2.1,4.5,2.1l0,0
		c0.8,0,1.7-0.2,2.7-0.6l0.1-0.1c2.6-1.1,3.8-2.8,3.8-5.9v-8.1c0-6.9,4.8-11.9,11.6-12.2c4.1-0.9,9-0.9,14.1-0.9h14.7
		c6.8,0,11.7,4.8,12.2,11.9l0,0.3v7.9c0.3,3.8,1.7,5.1,4,6l0.1,0c2.6,1.1,4.8,0.6,7.1-1.4l0.1-0.1c1.2-1,2.4-2.3,3.6-3.5
		c0.6-0.7,1.2-1.3,1.9-1.9c2.4-2.4,5.4-3.7,8.5-3.7s6.1,1.3,8.5,3.7c3.4,3.4,7,6.9,10.5,10.3c3.5,3.4,7.1,6.9,10.5,10.4
		c4.9,4.9,4.9,12.1,0,17c-0.6,0.6-1.3,1.2-1.9,1.9c-1.2,1.1-2.5,2.3-3.5,3.6l-0.1,0.1c-2.1,2.3-2.5,4.5-1.4,7.4
		c1.1,2.6,2.8,3.7,5.8,3.7h8.1c7.1,0,12.2,5.1,12.2,12.2v29.4c0,6.9-4.6,11.7-11.8,12.2l-0.4,0h-7.6c-3.8,0.3-5.1,1.7-6,4l0,0.1
		c-1.1,2.7-0.6,4.7,1.6,6.9l5.6,5.6c4.9,5.4,4.8,12.5-0.2,17.2l-20.6,20.6c-2.4,2.4-5.4,3.7-8.5,3.7c-3.1,0-6-1.2-8.6-3.6l-0.2-0.2
		l-5.4-5.4c-2.1-2.1-4.5-2.6-7.1-1.6c-2.7,1.3-3.9,3.2-3.9,6.2v8.1C178.5,245,173.6,249.9,166.6,249.9z M118.6,213.2
		c2.1,0,4.2,0.4,6.3,1.3l0.3,0.1c6.3,2.9,9.8,8.3,9.8,15v8.1c0,2.2,1.3,2.2,1.9,2.2h29.7c1.4,0,1.9-0.5,1.9-1.9v-8.1
		c0-6.9,3.5-12.4,9.8-15.3l0.3-0.1c2.1-0.8,4.2-1.3,6.3-1.3c4.3,0,8.4,1.8,11.7,5.1l5.3,5.3c0.6,0.6,1.3,0.9,1.8,0.9
		c0.6,0,1.1-0.4,1.5-0.8l20.9-20.9c0.6-0.6,1.4-1.2-0.3-3.1l-5.3-5.3c-5-5-6.4-11.3-3.8-17.6c1.7-4.4,5.6-9.8,14.9-10.4l0.3,0h7.6
		c2.4-0.2,2.4-1.3,2.4-2.2v-29.4c0-1.3-0.4-2.2-2.2-2.2h-8.1c-7.1,0-12.6-3.7-15.1-10l0-0.1c-2.4-6.5-1.3-12.6,3.3-17.7
		c1.4-1.6,2.9-3,4.2-4.2c0.6-0.6,1.2-1.1,1.7-1.7c1-1,1-1.8,0-2.8c-3.4-3.4-7-6.9-10.4-10.3c-3.5-3.4-7.1-6.9-10.6-10.4
		c-0.5-0.5-1-0.8-1.4-0.8s-0.9,0.3-1.4,0.8c-0.6,0.6-1.1,1.1-1.7,1.7c-1.2,1.3-2.7,2.8-4.2,4.2c-5,4.5-11.3,5.7-17.4,3.3
		c-4.5-1.7-9.8-5.6-10.4-14.9l0-0.3v-7.9c-0.2-2.4-1.3-2.4-2.2-2.4H151c-4.8,0-9.3,0-12.3,0.8l-0.6,0.1h-0.6c-1.3,0-2.2,0.4-2.2,2.2
		v8.1c0,7-3.6,12.5-10,15.1c-2.2,1-4.4,1.4-6.6,1.4c0,0,0,0,0,0c-4.1,0-7.9-1.6-11.3-4.8l-0.2-0.1c-0.6-0.6-1.2-1.3-1.9-1.9
		c-1.1-1.2-2.3-2.5-3.5-3.5l-0.3-0.3c-0.5-0.5-1-0.8-1.4-0.8c-0.4,0-0.9,0.3-1.4,0.8l-21,21c-1,1-1,1.8,0,2.8l0.3,0.3
		c1,1.2,2.3,2.4,3.5,3.5c0.6,0.6,1.3,1.2,1.9,1.8c5,4.7,6.4,10.9,3.9,17.7l-0.1,0.2c-2.7,6.2-8.4,9.9-15.4,9.9h-8.1
		c-1.4,0-1.9,0.5-1.9,1.9v29.7c0,1.1,0.5,1.6,1.6,1.6h8.1c7.2,0,12.5,3.4,15.4,9.9c2.7,6.2,1.2,13.2-3.7,18.1l-5.4,5.4
		c-1,1-1,1.8,0,2.8l20.7,20.7c0.6,0.6,1.1,0.9,1.4,0.9c0.3,0,1-0.3,1.8-1l5.8-5.8C110.7,214.8,114.6,213.2,118.6,213.2z"/>
	<path fill="#F37335" d="M151.6,203.1c-30.1,0-54.2-23.4-54.8-53.2c-0.2-14.5,5.3-28.1,15.4-38.4c10.1-10.3,23.7-16.2,38.4-16.5
		l0.6,0c28.8,0,53.3,24.1,53.7,52.6c0.3,30.3-23.3,55.1-52.6,55.5L151.6,203.1z M151.2,105l-0.5,0c-24.9,0.5-44.2,20.2-44,44.7
		c0.5,24.3,20.2,43.4,44.8,43.4l0.5,0c23.8-0.3,43-20.6,42.8-45.3C194.6,124.6,174.6,105,151.2,105z"/>
</g>
</svg>
