<?xml version="1.0" encoding="utf-8"?>
<!-- Generator: Adobe Illustrator 18.0.0, SVG Export Plug-In . SVG Version: 6.00 Build 0)  -->
<!DOCTYPE svg PUBLIC "-//W3C//DTD SVG 1.1//EN" "http://www.w3.org/Graphics/SVG/1.1/DTD/svg11.dtd">
<svg version="1.1" id="Layer_1" xmlns="http://www.w3.org/2000/svg" xmlns:xlink="http://www.w3.org/1999/xlink" x="0px" y="0px"
	 viewBox="0 0 300 300" enable-background="new 0 0 300 300" xml:space="preserve">
<g>
	<path fill="#F37335" d="M237.8,197.1c0,16.7-13.4,30.2-30.2,30.2s-30.4-13.7-30.4-30.4s13.9-30.4,30.6-30.4
		C224.4,166.7,237.8,180.3,237.8,197.1z M212.7,200.6c-9.3,2.9-15.6,8.4-20.5,15.9c-0.2,0.4,0.2,1.8,0.7,2.2
		c7.3,4.8,15,5.9,23.3,3.1c0.7-0.2,1.3-1.5,1.3-2.2c-0.2-2.4-0.7-4.6-1.3-6.8C215.1,208.5,213.8,204.6,212.7,200.6z M209,192.7
		c-9.5,1.3-18.5,2.4-27.5,3.5c-0.2,6.8,2,13,6.8,18.5c5.7-8.6,13-14.8,22.7-17.8C210.1,195.1,209.4,193.5,209,192.7z M206.5,188.9
		c0-0.4,0.2-0.7,0.2-1.1c-2-2.9-3.7-5.9-5.7-8.8c-4.8-7-5.5-7-11.7-1.1c-3.7,3.7-6.4,7.9-7.5,14.1
		C190.5,190.9,198.4,190,206.5,188.9z M201.2,171.3c3.5,5.3,6.8,10.4,10.1,15.4c5.1-2,9.7-4.8,13.7-9.5
		C218,171.3,210.3,169.5,201.2,171.3z M228.3,180.8c-5.1,3.5-9.9,6.8-15,10.1c0.2,0.4,0.7,1.1,0.9,2c0.7,2.4,2,3.1,4.4,2.6
		c2.9-0.4,5.5-0.2,8.4,0c2.2,0.2,4.4,0.4,6.8,0.9C233.6,190.2,231.6,185.2,228.3,180.8z M217.1,199.3c1.8,6.8,3.5,13,5.1,18.9
		c5.5-2.6,11.2-11.7,10.8-18.1C227.9,199.9,222.8,199.5,217.1,199.3z"/>
	<path fill="#F37335" d="M117.6,175.5c-1.3,1.8-2.6,3.5-4.4,5.7c2-0.4,3.7-0.9,6.2-1.5c-1.8,1.8-2.9,3.3-4.4,4.4
		c-1.1,1.1-1.5,2.2-1.5,3.7c0,11.9-9.7,29.3-27.5,31.9c-7.7,1.1-15.2-0.4-22.2-4c-0.2,0-0.2-0.2-0.7-0.7c6.2,0.7,11.2-1.5,16.5-5.1
		c-5.3-0.4-8.6-3.3-11-7.7c1.8-0.2,3.1-0.2,4.6-0.4c-4.6-2.4-8.4-5.5-8.4-11.5c1.5,0.4,2.9,0.9,4.4,1.3c-4.6-4.4-5.3-9.7-3.3-15.2
		c3.7,2.6,7.3,5.5,11.2,7.9s8.4,3.5,13,3.7c0-0.9,0-1.8,0-2.6c0-4.6,2.2-8.1,6.2-10.4c4.2-2.2,8.4-2.2,12.1,0.7
		c2.2,1.8,4,1.3,6.2,0.4c0.9-0.4,1.8-0.9,2.6-1.3C117.4,175.3,117.6,175.3,117.6,175.5z"/>
	<g>
		<path fill="#F37335" d="M96.5,132.3c0-8.4,0-16.7,0-25.1c3.3,0,6.4,0,9.7,0c0.4-3.7,0.9-7.5,1.5-11.2c-4,0-7.5,0-11,0
			c0-3.1-0.2-5.9,0-8.8c0.2-2.4,2-3.7,4.4-4c2.2,0,4.4,0,7,0c0-3.3,0-6.4,0-9.3c0-0.2-0.7-0.9-1.1-0.9c-4.8-0.7-9.7-0.7-14.3,1.3
			c-4.6,1.8-7,5.3-7.5,10.1c-0.2,2.9,0,5.9-0.2,8.8c0,0.9,0,1.8,0,2.6c-3.5,0-6.6,0-9.9,0c0,3.7,0,7.3,0,11.2c3.3,0,6.4,0,9.7,0
			c0,8.6,0,16.7,0,25.1c-0.7,0-1.3,0.2-2,0.2"/>
	</g>
	<g>
		<path fill="#F37335" d="M177.7,100.2c0-4,0-7.9,0-11.9c0-10.6,7.3-17.8,18.1-17.8c7.9,0,16.1,0,24,0c10.6,0,17.8,7.5,17.8,18.1
			c0,7.9,0,16.1,0,24c0,10.6-7.5,17.8-18.1,17.8c-7.9,0-16.1,0-24,0c-10.4,0-17.8-7.5-17.8-17.8
			C177.5,108.6,177.5,104.4,177.7,100.2L177.7,100.2z M207.4,124.9L207.4,124.9c4.2,0,8.4,0,12.6,0c7.3,0,11.9-4.6,11.9-11.9
			c0-8.4,0-16.5,0-24.9c0-7-4.8-11.9-11.9-11.9c-8.4,0-16.7,0-25.1,0c-6.8,0-11.7,4.6-11.9,11.7c-0.2,8.4-0.2,17,0,25.3
			c0,6.8,5.1,11.7,11.9,11.7C199,124.9,203.2,124.9,207.4,124.9z"/>
		<path fill="#F37335" d="M223.1,100.6c0,8.6-6.8,15.4-15.2,15.4c-8.6,0-15.9-7-15.9-15.6s7-15.6,15.6-15.4
			C216.2,85,223.1,91.8,223.1,100.6z M197.5,100.4c0,5.5,4.6,10.1,10.1,10.1c5.5,0,9.9-4.6,9.9-10.1c0-5.3-4.6-9.9-9.9-9.9
			C202.1,90.3,197.5,94.9,197.5,100.4z"/>
		<path fill="#F37335" d="M223.5,88.1c-2,0-3.5-1.5-3.7-3.5c0-2,1.5-3.5,3.5-3.7c2.2,0,3.7,1.5,3.7,3.5
			C227,86.3,225.5,88.1,223.5,88.1z"/>
	</g>
	<g>
		<path fill="#F37335" d="M145.3,156.6c0.8-0.8,0.8-2.5-0.4-3.8c-0.8-0.8-1.3-0.4-1.7-0.8c-0.4,0.4-1.3,0.4-1.3,1.3
			c-2.1,2.9-4.2,4.2-8.4,4.2h-15.1c-0.8,0-1.7,0-3.4,0c-3.8-0.4-7.1-4.6-7.1-9.7c0-0.8,0.4-1.3,0-1.7c0.8-5,4.2-7.6,8.8-8h16.8
			c3.4,0,6.3,1.3,8,4.6c0.8,0.8,1.7,1.7,3.4,0.8c1.3-0.4,1.3-2.1,0.8-3.4c-2.5-4.2-6.3-6.3-10.1-6.7c-6.3-0.4-13-0.4-19.3,0
			c-5.9,0-10.5,4.6-12.2,11.4c0,0,0,0-0.4,0.4l0,0l0,0v5l0,0c1.3,6.3,6.3,11.4,11.8,11.8c6.7,0,13,0.4,20.2,0
			C139.4,162.4,142.8,160.8,145.3,156.6z"/>
		<path fill="#F37335" d="M160,162.9c6.7,0,13.5,0,20.2,0c5.9,0,10.9-5,11.8-11.8l0,0v-5l0,0l0,0l-0.4-0.4
			c-1.3-6.3-6.7-10.9-12.2-11.4c-6.3-0.4-12.6,0-19.3,0c-4.2,0-7.6,2.5-10.1,6.7c-0.8,1.7-0.4,2.9,0.8,3.4c0.8,0.8,2.1,0.4,3.4-0.8
			c2.1-2.9,4.2-4.2,8-4.6H179c4.2,0,8,2.9,8.8,8c0,0.8,0.4,1.3,0,1.7c0,4.2-2.9,8.8-7.1,9.7c-0.8,0-2.1,0.4-3.4,0l-14.7-0.4
			c-3.4,0-6.3-1.3-8.4-4.2c-0.4-0.4-1.3-1.3-1.3-1.3s-0.8,0-1.7,0.8c-0.8,0.8-1.3,2.1-0.4,3.8C153.3,160.3,156.3,162.4,160,162.9z"
			/>
		<path fill="#F37335" d="M136.9,148.1c0,0.8,0.8,2.5,2.5,2.5h16c1.7,0,2.9-1.3,2.5-2.5c-0.4-1.3-0.8-2.5-2.5-2.5h-16
			C137.3,146,136.9,148.1,136.9,148.1z"/>
	</g>
</g>
</svg>
