<?xml version="1.0" encoding="utf-8"?>
<!-- Generator: Adobe Illustrator 18.0.0, SVG Export Plug-In . SVG Version: 6.00 Build 0)  -->
<!DOCTYPE svg PUBLIC "-//W3C//DTD SVG 1.1//EN" "http://www.w3.org/Graphics/SVG/1.1/DTD/svg11.dtd">
<svg version="1.1" id="Layer_1" xmlns="http://www.w3.org/2000/svg" xmlns:xlink="http://www.w3.org/1999/xlink" x="0px" y="0px"
	 viewBox="0 0 300 300" enable-background="new 0 0 300 300" xml:space="preserve">
<g>
	<g>
		<path fill="#F37335" d="M167.9,179.9c-0.8-3.1-3.9-4.7-6.7-3.9c-2,0.8-2.7,1.6-3.1,2.7c-0.4,0.8-0.8,2.4,0,4.3
			c2.7,7.1,1.6,13.4-3.1,19.6l-19.2,25.9c-1.6,2-2.7,3.5-4.3,5.5c-5.9,6.3-17.3,6.3-25.5,0.4c-0.8-0.8-2-2-2.7-2.7
			c-7.1-7.9-7.9-17.3-2-25.1l21.2-28.7c4.3-6.3,10.6-9,17.7-8.2c3.1,0.4,5.9-1.6,5.9-4.3c0.4-2.7-2-5.5-5.5-5.9
			c-10.6-1.2-18.9,2-24.7,9c-8.6,11-17.3,22.4-25.1,33.8c-7.1,10.2-5.9,25.1,3.5,35.7c0.4,0.4,0.4,0.8,0.8,0.8c0.4,0,0.4,0,0.4,0.4
			v0.8l8.2,6.3l0.4-0.4c13.4,6.7,28.7,4.3,36.1-5.9c9-11.4,17.3-22.8,25.9-34.6C170.7,198,171.5,188.9,167.9,179.9z"/>
		<path fill="#F37335" d="M238.6,130c0-3.5-0.8-7.1-2-10.6c-0.4-0.8-0.8-2-0.8-2.7L230,108h-0.8c-10.2-11-25.1-13.7-36.5-7.5
			c-11.8,7.1-23.6,14.5-35.4,22.4c-7.1,4.7-11,12.2-11,22.4c0,3.9,2,6.3,4.7,6.3c2,0.4,3.1-0.4,3.9-0.8c1.2-0.8,2-2.4,2-4.7
			c0.4-7.1,3.1-12.2,8.2-15.7c3.1-2,7.1-4.3,10.6-6.7c7.1-4.3,14.1-9,21.2-13.4c9-5.5,21.2-2.4,27.1,7.1c0.4,0.8,0.8,1.2,0.8,1.6
			c5.1,9.8,2.4,20.8-6.3,26.3L188,165c-5.9,3.9-12.2,4.3-18.9,1.2c-2-0.8-3.1-0.8-4.3-0.4c-0.8,0.4-2,0.8-2.7,3.1
			c-0.8,1.6-0.4,3.1,0.8,4.3c0.8,1.2,2,2,3.1,2.4c9.4,4.3,17.7,3.9,25.1-0.4c10.6-6.3,22-13.4,35-22
			C234.7,149.3,238.6,141,238.6,130z"/>
		<path fill="#F37335" d="M142.4,190.1c2,2,5.1,2.4,8.2-0.8L175,165c3.1-3.1,2.7-6.7,0.8-8.2c-2-1.6-5.1-2.4-8.2,0.8l-24.4,24.4
			C138.5,186.2,141.2,188.9,142.4,190.1z"/>
	</g>
	<g>
		<path fill="#F37335" d="M74.8,84.8c1.2-0.9,2.1-2.1,3.6-3.6c-0.3-0.3-0.6-0.3-0.9-0.6c-4.8-4.8-9.3-9.3-14.1-14.1
			c-3.9-3.9-3.9-9.6,0-13.5c3.6-3.6,9.6-3.6,13.2,0c1.2,1.2,2.4,2.4,3.6,3.6c3.6,3.6,7.5,7.5,11.4,11.4c1.2-1.2,2.1-2.4,3.3-3.6
			c2.1,2.1,4.2,4.2,6.3,6.3c-1.2,1.2-2.7,2.4-4.2,3.9c0.3,0.3,0.9,0.6,0.9,0.6c7.2,7.2,14.1,14.1,21.3,21.3c2.4,2.4,4.2,5.1,4.8,8.4
			c0.6,2.7,2.1,4.8,3.9,6.6c1.2,1.2,2.7,2.4,3.9,3.9c0.3,0.6,0.9,0.9,0.9,1.5c0.6,1.8,0,3.9-1.8,4.8c-1.5,1.2-3.6,0.9-5.1-0.6
			c-1.5-1.2-2.7-2.7-4.2-4.2c-1.8-1.8-3.9-3-6.6-3.9c-3.3-0.9-6-2.7-8.4-4.8c-7.2-6.9-14.4-14.1-21.3-21c-0.3-0.3-0.3-0.3-0.9-0.6
			c-1.2,1.5-2.4,2.7-3.6,3.9C79,89,76.9,86.9,74.8,84.8z M87.4,85.1c0,0,0.3,0.3,0.3,0.6c2.7,2.7,5.7,5.7,8.4,8.4
			c0.3,0.3,0.6,0.6,0.9,0.6c4.5-0.3,9.3-0.9,13.8-1.2c-5.4-5.4-10.5-10.5-15.9-15.9C92.5,80,89.8,82.4,87.4,85.1z"/>
		<path fill="#F37335" d="M130.3,128c-2.4,3.6-5.1,7.2-6.6,11.1c-1.2,3.3,0,6.9,2.7,8.7c3,1.8,6.9,1.2,9-1.5
			c1.5-1.8,2.4-4.2,1.2-6.6c-1.2-2.7-2.4-5.1-3.9-7.5C132.1,130.7,131.2,129.5,130.3,128z"/>
	</g>
</g>
</svg>
