<?xml version="1.0" encoding="utf-8"?>
<!-- Generator: Adobe Illustrator 18.0.0, SVG Export Plug-In . SVG Version: 6.00 Build 0)  -->
<!DOCTYPE svg PUBLIC "-//W3C//DTD SVG 1.1//EN" "http://www.w3.org/Graphics/SVG/1.1/DTD/svg11.dtd">
<svg version="1.1" id="Layer_1" xmlns="http://www.w3.org/2000/svg" xmlns:xlink="http://www.w3.org/1999/xlink" x="0px" y="0px"
	 viewBox="0 0 300 300" enable-background="new 0 0 300 300" xml:space="preserve">
<g>
	<g>
		<path fill="none" stroke="#F37335" stroke-miterlimit="10" d="M99.6,85.2c1.5,0.9,2.7,2.1,3.6,3.6c0.3,0.6,0.3,0.9,0.3,1.2
			c0,0.6-0.3,0.9-0.6,1.2c-0.3,0.3-0.6,0.3-0.9,0.3s-0.6,0-0.9-0.3c-0.3-0.3-0.6-0.3-0.6-0.9c-0.6-1.2-1.5-2.1-2.4-2.4
			c-0.9-0.6-2.4-0.9-3.9-0.9c-1.8,0-3.3,0.3-4.5,1.2c-1.2,0.6-1.8,1.8-1.8,3.3c0,1.2,0.6,2.4,1.5,3.3c0.9,0.9,3,1.5,5.7,1.8
			c3,0.3,5.4,1.2,6.9,2.7s2.4,3.6,2.4,6c0,1.8-0.6,3.3-1.5,4.5c-0.9,1.2-2.1,2.1-3.9,2.7c-1.5,0.6-3.3,0.9-5.1,0.9
			c-2.4,0-4.5-0.6-6.6-1.5c-2.1-1.2-3.3-2.4-4.2-4.2c0-0.3-0.3-0.6-0.3-0.6c0-0.3,0-0.6,0.3-0.9c0.3-0.3,0.6-0.6,1.2-0.6h0.3
			c0.3,0,0.9,0,1.2,0.3c0.3,0.3,0.6,0.6,0.9,0.9c0.3,0.9,1.2,1.8,2.7,2.4c1.2,0.6,2.7,0.9,4.2,0.9c1.8,0,3.3-0.3,4.8-1.2
			c1.2-0.9,1.8-2.1,1.8-3.6s-0.6-2.7-1.5-3.6c-1.2-0.9-2.7-1.5-5.1-1.8c-3-0.3-5.4-1.2-7.2-2.7s-2.7-3.3-2.7-5.7
			c0-1.5,0.6-3,1.2-4.2c0.9-1.2,2.1-2.1,3.6-2.7s3.3-0.9,5.4-0.9C96.3,84,98.1,84.3,99.6,85.2z"/>
		<path fill="none" stroke="#F37335" stroke-miterlimit="10" d="M128.1,85.2c1.5,0.9,2.7,2.1,3.6,3.6c0.3,0.6,0.3,0.9,0.3,1.2
			c0,0.6-0.3,0.9-0.6,1.2c-0.3,0.3-0.6,0.3-0.9,0.3s-0.6,0-0.9-0.3c-0.3-0.3-0.6-0.3-0.6-0.9c-0.6-1.2-1.5-2.1-2.4-2.4
			c-0.9-0.6-2.4-0.9-3.9-0.9c-1.8,0-3.3,0.3-4.5,1.2c-1.2,0.6-1.8,1.8-1.8,3.3c0,1.2,0.6,2.4,1.5,3.3s3,1.5,5.4,1.8
			c3,0.3,5.4,1.2,6.9,2.7s2.4,3.6,2.4,6c0,1.8-0.6,3.3-1.5,4.5c-0.9,1.2-2.1,2.1-3.9,2.7c-1.5,0.6-3.3,0.9-5.1,0.9
			c-2.4,0-4.5-0.6-6.6-1.5c-2.1-1.2-3.3-2.4-4.2-4.2c0-0.3-0.3-0.6-0.3-0.6c0-0.3,0-0.6,0.3-0.9s0.6-0.6,1.2-0.6h0.3
			c0.3,0,0.9,0,1.2,0.3c0.3,0.3,0.6,0.6,0.9,0.9c0.3,0.9,1.2,1.8,2.7,2.4c1.2,0.6,2.7,0.9,4.2,0.9c1.8,0,3.3-0.3,4.8-1.2
			c1.2-0.9,1.8-2.1,1.8-3.6s-0.6-2.7-1.5-3.6c-1.2-0.9-2.7-1.5-5.1-1.8c-3-0.3-5.4-1.2-7.2-2.7c-1.8-1.5-2.7-3.3-2.7-5.7
			c0-1.5,0.6-3,1.2-4.2c0.9-1.2,2.1-2.1,3.6-2.7s3.3-0.9,5.4-0.9C124.8,84,126.6,84.3,128.1,85.2z"/>
		<path fill="none" stroke="#F37335" stroke-miterlimit="10" d="M159.9,109.8c0.3,0.3,0.6,0.9,0.6,1.5s-0.3,0.9-0.6,1.5
			c-0.3,0.6-0.9,0.6-1.5,0.6h-15.3c-0.6,0-0.9-0.3-1.5-0.6c-0.3-0.3-0.6-0.9-0.6-1.5V86.1c0-0.6,0.3-0.9,0.6-1.5
			c0.3-0.3,0.9-0.6,1.2-0.6c0.6,0,0.9,0.3,1.5,0.6c0.3,0.3,0.6,0.9,0.6,1.5v23.1h13.8C159.3,109.2,159.6,109.5,159.9,109.8z"/>
	</g>
	<path fill="#F37335" d="M213.9,207.3c0,1.8,0,3.3,0,4.8c0,8.7,0,17.7-0.3,26.4c0,3.3-1.5,5.7-4.5,6.6c-2.7,0.9-5.4,0-7.5-2.7
		c-3.9-5.4-8.1-10.8-12-15.9c-0.6-0.6-0.9-1.2-1.5-2.1c-0.6,0.6-1.2,1.2-1.5,1.8c-3.9,5.4-8.1,10.8-12,15.9
		c-2.1,2.7-4.5,3.6-7.5,2.7s-4.5-3.3-4.5-6.6c0-9.6,0-19.2-0.3-28.8c0-0.6,0-1.5,0-2.4c-0.9,0-1.8,0-2.4,0c-32.4,0-65.1,0-97.5,0
		c-5.7,0-7.8-2.4-7.8-7.8c0-45.6,0-91.2,0-136.8c0-5.7,2.1-7.8,8.1-7.8c58.2,0,116.4,0,174.6,0c5.7,0,8.1,2.1,8.1,7.8
		c0,45.6,0,91.2,0,137.1c0,5.4-2.4,7.5-7.5,7.5C230.1,207.3,222.3,207.3,213.9,207.3z M232.8,194.4c0-42.3,0-84.6,0-126.9
		c-55.2,0-110.1,0-165,0c0,42.3,0,84.6,0,126.9c31.8,0,63.3,0,95.1,0c0-2.7,0-5.4,0-8.1c0-0.9-0.6-1.8-1.2-2.4
		c-8.7-9-12.6-19.5-11.1-32.1c1.8-15,12.6-27.6,27.3-31.8s30.6,0.9,40.2,12.6c12.3,15.3,11.1,37.2-3,51c-0.6,0.6-1.2,1.5-1.2,2.1
		c0,3,0,5.7,0,8.7C220.5,194.4,226.5,194.4,232.8,194.4z M162.9,156.3c0,14.1,11.4,25.5,25.2,25.5c14.1,0,25.5-11.4,25.5-25.2
		c0-14.1-11.1-25.5-25.2-25.5C174.6,130.8,163.2,142.2,162.9,156.3z M175.8,192.3c0,9,0,18,0,27.3c2.4-3.3,4.5-6,6.6-9
		c3.6-4.8,8.1-4.8,11.7,0c1.8,2.4,3.9,5.1,5.7,7.5c0.3,0.3,0.6,0.6,1.2,1.2c0-9,0-18,0-27C192.6,195.3,184.2,195,175.8,192.3z"/>
	<g>
		<path fill="#F37335" d="M99.6,85.2c1.5,0.9,2.7,2.1,3.6,3.6c0.3,0.6,0.3,0.9,0.3,1.2c0,0.6-0.3,0.9-0.6,1.2
			c-0.3,0.3-0.6,0.3-0.9,0.3s-0.6,0-0.9-0.3c-0.3-0.3-0.6-0.3-0.6-0.9c-0.6-1.2-1.5-2.1-2.4-2.4c-0.9-0.6-2.4-0.9-3.9-0.9
			c-1.8,0-3.3,0.3-4.5,1.2c-1.2,0.6-1.8,1.8-1.8,3.3c0,1.2,0.6,2.4,1.5,3.3c0.9,0.9,3,1.5,5.7,1.8c3,0.3,5.4,1.2,6.9,2.7
			s2.4,3.6,2.4,6c0,1.8-0.6,3.3-1.5,4.5c-0.9,1.2-2.1,2.1-3.9,2.7c-1.5,0.6-3.3,0.9-5.1,0.9c-2.4,0-4.5-0.6-6.6-1.5
			c-2.1-1.2-3.3-2.4-4.2-4.2c0-0.3-0.3-0.6-0.3-0.6c0-0.3,0-0.6,0.3-0.9c0.3-0.3,0.6-0.6,1.2-0.6h0.3c0.3,0,0.9,0,1.2,0.3
			c0.3,0.3,0.6,0.6,0.9,0.9c0.3,0.9,1.2,1.8,2.7,2.4c1.2,0.6,2.7,0.9,4.2,0.9c1.8,0,3.3-0.3,4.8-1.2c1.2-0.9,1.8-2.1,1.8-3.6
			s-0.6-2.7-1.5-3.6c-1.2-0.9-2.7-1.5-5.1-1.8c-3-0.3-5.4-1.2-7.2-2.7s-2.7-3.3-2.7-5.7c0-1.5,0.6-3,1.2-4.2
			c0.9-1.2,2.1-2.1,3.6-2.7s3.3-0.9,5.4-0.9C96.3,84,98.1,84.3,99.6,85.2z"/>
		<path fill="#F37335" d="M128.1,85.2c1.5,0.9,2.7,2.1,3.6,3.6c0.3,0.6,0.3,0.9,0.3,1.2c0,0.6-0.3,0.9-0.6,1.2
			c-0.3,0.3-0.6,0.3-0.9,0.3s-0.6,0-0.9-0.3c-0.3-0.3-0.6-0.3-0.6-0.9c-0.6-1.2-1.5-2.1-2.4-2.4c-0.9-0.6-2.4-0.9-3.9-0.9
			c-1.8,0-3.3,0.3-4.5,1.2c-1.2,0.6-1.8,1.8-1.8,3.3c0,1.2,0.6,2.4,1.5,3.3s3,1.5,5.4,1.8c3,0.3,5.4,1.2,6.9,2.7s2.4,3.6,2.4,6
			c0,1.8-0.6,3.3-1.5,4.5c-0.9,1.2-2.1,2.1-3.9,2.7c-1.5,0.6-3.3,0.9-5.1,0.9c-2.4,0-4.5-0.6-6.6-1.5c-2.1-1.2-3.3-2.4-4.2-4.2
			c0-0.3-0.3-0.6-0.3-0.6c0-0.3,0-0.6,0.3-0.9s0.6-0.6,1.2-0.6h0.3c0.3,0,0.9,0,1.2,0.3c0.3,0.3,0.6,0.6,0.9,0.9
			c0.3,0.9,1.2,1.8,2.7,2.4c1.2,0.6,2.7,0.9,4.2,0.9c1.8,0,3.3-0.3,4.8-1.2c1.2-0.9,1.8-2.1,1.8-3.6s-0.6-2.7-1.5-3.6
			c-1.2-0.9-2.7-1.5-5.1-1.8c-3-0.3-5.4-1.2-7.2-2.7c-1.8-1.5-2.7-3.3-2.7-5.7c0-1.5,0.6-3,1.2-4.2c0.9-1.2,2.1-2.1,3.6-2.7
			s3.3-0.9,5.4-0.9C124.8,84,126.6,84.3,128.1,85.2z"/>
		<path fill="#F37335" d="M159.9,109.8c0.3,0.3,0.6,0.9,0.6,1.5s-0.3,0.9-0.6,1.5c-0.3,0.6-0.9,0.6-1.5,0.6h-15.3
			c-0.6,0-0.9-0.3-1.5-0.6c-0.3-0.3-0.6-0.9-0.6-1.5V86.1c0-0.6,0.3-0.9,0.6-1.5c0.3-0.3,0.9-0.6,1.2-0.6c0.6,0,0.9,0.3,1.5,0.6
			c0.3,0.3,0.6,0.9,0.6,1.5v23.1h13.8C159.3,109.2,159.6,109.5,159.9,109.8z"/>
	</g>
</g>
</svg>
