<?xml version="1.0" encoding="utf-8"?>
<!-- Generator: Adobe Illustrator 18.0.0, SVG Export Plug-In . SVG Version: 6.00 Build 0)  -->
<!DOCTYPE svg PUBLIC "-//W3C//DTD SVG 1.1//EN" "http://www.w3.org/Graphics/SVG/1.1/DTD/svg11.dtd">
<svg version="1.1" id="Layer_1" xmlns="http://www.w3.org/2000/svg" xmlns:xlink="http://www.w3.org/1999/xlink" x="0px" y="0px"
	 viewBox="0 0 300 300" enable-background="new 0 0 300 300" xml:space="preserve">
<g>
	<path fill="none" stroke="#F37335" stroke-width="10" stroke-miterlimit="10" d="M150,54.9c4.8,0,9.9,0,14.7,0
		c4.2,0,6.9,2.7,7.2,7.2c0,2.7,0,5.4,0,8.1c0.3,5.1,2.4,8.7,7.2,10.5c4.5,1.8,8.7,0.9,12.3-2.4c2.1-1.8,3.9-3.9,5.7-5.7
		c3-3,6.9-3,9.9,0c6.9,6.9,14.1,13.8,21,20.7c3,3,3,6.9,0,9.9c-1.8,1.8-3.9,3.6-5.7,5.7c-3.3,3.6-4.2,7.8-2.4,12.6
		c1.8,4.5,5.4,6.9,10.5,6.9c2.7,0,5.4,0,8.1,0c4.2,0,7.2,2.7,7.2,7.2c0,9.9,0,19.5,0,29.4c0,4.5-3,6.9-7.2,7.2c-2.7,0-5.1,0-7.8,0
		c-5.1,0.3-8.7,2.4-10.5,7.2c-1.8,4.5-0.9,8.7,2.7,12.3c1.8,1.8,3.6,3.6,5.4,5.4c3,3.3,3.3,7.2,0,10.2c-6.9,6.9-13.8,13.8-20.7,20.7
		c-3,3-6.9,3-10.2,0c-1.8-1.8-3.6-3.6-5.4-5.4c-3.6-3.6-8.1-4.5-12.6-2.7c-4.5,2.1-6.9,5.7-6.9,10.8c0,2.7,0,5.4,0,8.1
		c0,4.2-2.7,6.9-6.9,6.9c-9.9,0-19.8,0-29.7,0c-4.2,0-6.9-3-6.9-7.2c0-2.7,0-5.4,0-8.1c0-4.8-2.4-8.4-6.9-10.5
		c-4.5-1.8-8.7-0.9-12.3,2.4c-1.8,1.8-3.9,3.9-5.7,5.7c-3.3,3-6.9,3.3-10.2,0c-6.9-6.9-13.8-13.8-20.7-20.7c-3-3-3-6.9,0-9.9
		c1.8-1.8,3.6-3.6,5.4-5.4c3.6-3.6,4.5-8.4,2.7-12.6c-2.1-4.8-5.7-6.9-10.8-6.9c-2.7,0-5.4,0-8.1,0c-3.9,0-6.6-2.7-6.6-6.6
		c0-9.9,0-19.8,0-29.7c0-4.2,2.7-6.9,6.9-6.9c2.7,0,5.4,0,8.1,0c5.1,0,9-2.7,10.8-6.9c1.8-4.8,0.9-9-2.7-12.3
		c-1.8-1.8-3.9-3.6-5.7-5.7c-3-3-3-6.9,0-9.9c6.9-6.9,13.8-13.8,21-21c3-3,6.9-3,9.9,0c2.1,1.8,3.9,3.9,5.7,5.7
		c3.6,3.3,7.8,4.5,12.6,2.4c4.5-1.8,6.9-5.4,6.9-10.5c0-2.7,0-5.4,0-8.1c0-4.2,2.7-7.2,7.2-7.2C140.1,54.9,144.9,54.9,150,54.9z"/>
	<path fill="none" stroke="#F37335" stroke-width="10" stroke-miterlimit="10" d="M149.7,100.8c26.1-0.3,48.9,21.6,49.2,47.7
		c0.3,27.3-21,50.1-47.7,50.4c-27.6,0.3-49.8-21-50.4-48.3C100.5,123.6,122.1,101.4,149.7,100.8z"/>
</g>
<g>
	<path fill="#F37335" d="M148.2,155.4c0.6-0.9,0.3-1.8-0.3-2.4c-0.6-0.3-0.9-0.3-1.2-0.3s-0.6,0.3-0.9,0.9c-1.2,1.8-3,2.7-5.1,2.7
		h-9.6c-0.6,0-1.2,0-2.1,0c-2.4-0.3-4.5-3-4.5-6c0-0.3,0-0.9,0-1.2c0.6-3,2.7-4.8,5.7-4.8H141c2.4,0,3.9,0.9,5.1,2.7
		c0.6,0.9,1.2,1.2,2.1,0.6c0.6-0.3,0.9-1.5,0.3-2.4c-1.5-2.7-3.9-4.2-6.6-4.2c-4.2,0-8.4,0-12.3,0c-3.6,0-6.9,3-7.8,7.2v0.3l0,0
		h-0.3v3l0,0c0.9,4.2,3.9,7.5,7.8,7.5c4.2,0,8.4,0,12.9,0C144.6,159.3,146.7,157.8,148.2,155.4z"/>
	<path fill="#F37335" d="M157.8,159.3c4.5,0,8.4,0,12.9,0c3.6,0,6.9-3.3,7.8-7.5l0,0v-3h-0.3l0,0c0-0.3,0-0.3,0-0.3
		c-0.9-4.2-4.2-7.2-7.8-7.2c-3.9,0-8.4,0-12.3,0c-2.7,0-4.8,1.5-6.6,4.2c-0.6,0.9-0.3,2.1,0.3,2.4c0.6,0.6,1.5,0.3,2.1-0.6
		c1.2-1.8,2.7-3,5.1-2.7h10.8c3,0,5.1,1.8,5.7,4.8c0,0.3,0,0.9,0,1.2c0,3-2.1,5.7-4.5,6c-0.6,0-1.2,0-2.1,0h-9.6
		c-2.4,0-3.9-0.9-5.1-2.7c-0.3-0.6-0.6-0.6-0.9-0.9c-0.3,0-0.6,0-1.2,0.3c-0.6,0.6-0.9,1.5-0.3,2.4
		C153.3,157.8,155.4,159.3,157.8,159.3z"/>
	<path fill="#F37335" d="M142.8,150c0,0.9,0.6,1.5,1.8,1.5h10.2c1.2,0,1.8-0.9,1.8-1.5s-0.6-1.5-1.8-1.5h-10.2
		C143.1,148.5,142.8,149.7,142.8,150z"/>
</g>
</svg>
