<?xml version="1.0" encoding="utf-8"?>
<!-- Generator: Adobe Illustrator 18.0.0, SVG Export Plug-In . SVG Version: 6.00 Build 0)  -->
<!DOCTYPE svg PUBLIC "-//W3C//DTD SVG 1.1//EN" "http://www.w3.org/Graphics/SVG/1.1/DTD/svg11.dtd">
<svg version="1.1" id="Layer_1" xmlns="http://www.w3.org/2000/svg" xmlns:xlink="http://www.w3.org/1999/xlink" x="0px" y="0px"
	 viewBox="0 0 300 300" enable-background="new 0 0 300 300" xml:space="preserve">
<g>
	<g>
		<path fill="none" stroke="#F37335" stroke-width="10.9792" stroke-linecap="round" stroke-miterlimit="10" d="M145.2,119.9
			c-7.1-17.3-20.8-29.4-36.5-29.4H71.4c-11.4,0-21.6,6-29.4,16c-7.5,9.5-12.2,23.3-12.2,38.5c0,29.8,18.8,54,41.2,54h37.3
			c11.4,0,21.6-6,29.4-16c2.7-3.9,5.5-8.6,7.8-13.4"/>
	</g>
	<g>
		<path fill="none" stroke="#F37335" stroke-width="10.9792" stroke-linecap="round" stroke-miterlimit="10" d="M160.5,170.1
			c2.4,4.8,4.7,9.5,7.8,13.4c7.8,9.5,18,16,29.4,16H235c22.8,0,41.2-24.6,41.2-54c0-14.7-4.7-28.9-12.2-38.5c-7.8-9.5-18-16-29.4-16
			h-37.3c-15.7,0-29.8,12.1-36.5,29.4"/>
	</g>
</g>
<g enable-background="new    ">
	<path fill="none" stroke="#F37335" stroke-width="5.3943" stroke-miterlimit="10" d="M108.6,133.4c0.4,0.4,0.4,0.8,0.4,1.2
		c0,0.4,0,0.8-0.4,1.2c-0.4,0.4-0.8,0.4-1.2,0.4h-6.9v20.5c0,0.4,0,0.8-0.4,1.2c-0.4,0.4-0.8,0.4-1.2,0.4c-0.4,0-0.8,0-1.2-0.4
		c-0.4-0.4-0.4-0.8-0.4-1.2v-20.5h-6.9c-0.4,0-0.8,0-1.2-0.4c-0.4-0.4-0.4-0.8-0.4-1.2c0-0.4,0-0.8,0.4-1.2c0.4-0.4,0.8-0.4,1.2-0.4
		h17.1C107.8,133,108.2,133,108.6,133.4z"/>
	<path fill="none" stroke="#F37335" stroke-width="5.3943" stroke-miterlimit="10" d="M124,133.4c0.4-0.4,0.8-0.4,1.2-0.4
		c0.4,0,0.8,0,1.2,0.4c0.4,0.4,0.4,0.8,0.4,1.2v21.7c0,0.4,0,0.8-0.4,1.2c-0.4,0.4-0.8,0.4-1.2,0.4c-0.4,0-0.8,0-1.2-0.4
		c-0.4-0.4-0.4-0.8-0.4-1.2v-21.7C123.5,134.2,124,133.8,124,133.4z"/>
	<path fill="none" stroke="#F37335" stroke-width="5.3943" stroke-miterlimit="10" d="M157.1,133.4c0.4,0.4,0.4,0.8,0.4,1.2
		c0,0.4,0,0.8-0.4,1.2c-0.4,0.4-0.8,0.4-1.2,0.4H149v20.5c0,0.4,0,0.8-0.4,1.2c-0.4,0.4-0.8,0.4-1.2,0.4c-0.4,0-0.8,0-1.2-0.4
		c-0.4-0.4-0.4-0.8-0.4-1.2v-20.5h-6.9c-0.4,0-0.8,0-1.2-0.4c-0.4-0.4-0.4-0.8-0.4-1.2c0-0.4,0-0.8,0.4-1.2c0.4-0.4,0.8-0.4,1.2-0.4
		h17.5C156.7,133,157.1,133,157.1,133.4z"/>
	<path fill="none" stroke="#F37335" stroke-width="5.3943" stroke-miterlimit="10" d="M186.9,155.1c0.4,0.4,0.4,0.8,0.4,1.2
		c0,0.4,0,0.8-0.4,1.2c-0.4,0.4-0.8,0.4-1.2,0.4h-13.4c-0.4,0-0.8,0-1.2-0.4c-0.4-0.4-0.4-0.8-0.4-1.2v-21.7c0-0.4,0-0.8,0.4-1.2
		c0.4-0.4,0.8-0.4,1.2-0.4s0.8,0,1.2,0.4c0.4,0.4,0.4,0.8,0.4,1.2v20.1h11.8C186.1,154.7,186.5,154.7,186.9,155.1z"/>
	<path fill="none" stroke="#F37335" stroke-width="5.3943" stroke-miterlimit="10" d="M217.9,155.5c0.4,0.4,0.4,0.8,0.4,1.2
		c0,0.4,0,0.8-0.4,1.2s-0.8,0.4-1.2,0.4H202c-0.4,0-0.8,0-1.2-0.4c-0.4-0.4-0.4-0.8-0.4-1.2V135c0-0.4,0-0.8,0.4-1.2
		c0.4-0.4,0.8-0.4,1.2-0.4h14.6c0.4,0,0.8,0,1.2,0.4c0.4,0.4,0.4,0.8,0.4,1.2c0,0.4,0,0.8-0.4,1.2s-0.8,0.4-1.2,0.4h-13v7.7h9.3
		c0.4,0,0.8,0,1.2,0.4c0.4,0.4,0.4,0.8,0.4,1.2c0,0.4,0,0.8-0.4,1.2c-0.4,0.4-0.8,0.4-1.2,0.4h-9.3v8.1h13
		C217.5,155.1,217.9,155.1,217.9,155.5z"/>
</g>
</svg>
