<?xml version="1.0" encoding="utf-8"?>
<!-- Generator: Adobe Illustrator 18.0.0, SVG Export Plug-In . SVG Version: 6.00 Build 0)  -->
<!DOCTYPE svg PUBLIC "-//W3C//DTD SVG 1.1//EN" "http://www.w3.org/Graphics/SVG/1.1/DTD/svg11.dtd">
<svg version="1.1" id="Layer_1" xmlns="http://www.w3.org/2000/svg" xmlns:xlink="http://www.w3.org/1999/xlink" x="0px" y="0px"
	 viewBox="0 0 300 300" enable-background="new 0 0 300 300" xml:space="preserve">
<g>
	<path fill="#F37335" d="M147.9,167.4c1.8-2.4,1.5-5.4-0.9-7.2c-1.5-1.2-2.7-1.2-3.6-0.9s-2.1,0.9-3.3,2.4c-3.6,5.7-9,8.4-16.2,8.4
		H94.2c-2.1,0-4.2,0-6.3-0.3c-7.8-0.9-14.1-9.6-14.1-18.6c0-1.2,0.3-2.4,0.3-3.6c1.8-9.6,8.4-15.3,17.4-15.3h33
		c7.2-0.3,12.3,2.7,15.9,8.7c1.5,2.7,4.2,3.3,6.3,1.8c2.1-1.2,3-4.2,1.5-7.2c-4.8-8.4-11.7-12.9-20.1-12.9
		c-12.9-0.3-25.8-0.3-38.4,0c-11.4,0.3-21.6,9.6-24.3,22.2c0,0.3-0.3,0.6-0.3,0.9c0,0.3,0,0.3,0,0.3l-0.6,0.3v9.6l0.3,0.3
		c2.4,13.2,12.6,23.4,23.7,23.4c13.2,0.3,26.1,0.3,39.6,0C136.2,179.4,142.8,175.2,147.9,167.4z"/>
	<path fill="#F37335" d="M232.2,167.4c1.8-2.7,2.7-6,3.6-9c0.3-0.9,0.3-1.5,0.9-2.7v-9.9l-0.3-0.3c-2.7-13.5-12.3-22.8-24.3-23.7
		c-12.6-0.3-25.5-0.3-38.1,0c-7.8,0.3-14.7,4.2-19.8,12c-1.8,3-1.5,6,0.6,7.2c1.5,1.2,2.7,1.2,3.3,1.2c1.5-0.3,2.7-0.9,3.6-2.7
		c3.6-5.1,8.4-7.8,14.1-7.8c3.6,0,7.8,0,11.4,0c7.5,0,15.3,0,23.1,0c9.6,0.3,17.4,8.4,17.4,18.9c0,0.6,0,1.2,0,1.8
		c-0.9,10.2-8.4,17.4-18,17.4h-33c-6.6,0-11.4-2.7-15.3-8.4c-0.9-1.5-2.1-2.1-3.3-2.4c-0.9,0-2.1,0-3.6,1.2
		c-1.2,0.9-1.8,2.1-1.8,3.6c0,1.2,0.3,2.4,1.2,3.3c5.1,7.8,11.7,11.7,19.8,12.3c11.1,0.3,23.4,0.3,37.5,0.3
		C219.6,179.7,226.8,175.5,232.2,167.4z"/>
	<path fill="#F37335" d="M126.6,151.5c0,2.4,1.8,4.8,6,4.8h31.5c4.2,0,6-2.7,6-4.8c0-2.4-1.8-4.8-6-4.8h-31.8
		C126.9,146.4,126.6,150.3,126.6,151.5z"/>
</g>
<g>
	<g>
		<path fill="#F37335" d="M104.7,196.2c2.4,2.4,2.4,6.3,0,8.7l-45.3,45.3c-2.4,2.4-6.3,2.4-8.7,0c-2.4-2.4-2.4-6.3,0-8.7L96,196.2
			C98.4,193.8,102.3,193.8,104.7,196.2z"/>
	</g>
	<g>
		<path fill="#F37335" d="M111,189.9c1.2,1.2,1.8,3,1.8,4.8l-3.9,47.4c-0.3,3.3-3.3,6-6.6,5.7c-3.3-0.3-6-3.3-5.7-6.6l3.3-40.2
			l-40.2,3.3c-3.3,0.3-6.3-2.4-6.6-5.7c-0.3-3.3,2.4-6.3,5.7-6.6l47.4-3.9C107.7,187.8,109.5,188.7,111,189.9L111,189.9z"/>
	</g>
</g>
<g>
	<g>
		<path fill="#F37335" d="M196.2,104.7c-2.4-2.4-2.4-6.3,0-8.7l45.3-45.3c2.4-2.4,6.3-2.4,8.7,0c2.4,2.4,2.4,6.3,0,8.7l-45.3,45.3
			C202.5,107.1,198.6,107.1,196.2,104.7z"/>
	</g>
	<g>
		<path fill="#F37335" d="M189.9,111c-1.2-1.2-1.8-3-1.8-4.8l3.9-47.7c0.3-3.3,3.3-6,6.6-5.7c3.3,0.3,6,3.3,5.7,6.6L201,99.9
			l40.2-3.3c3.3-0.3,6.3,2.4,6.6,5.7c0.3,3.3-2.4,6.3-5.7,6.6l-47.4,3.9C192.9,112.8,191.1,112.2,189.9,111L189.9,111z"/>
	</g>
</g>
</svg>
