<?xml version="1.0" encoding="utf-8"?>
<!-- Generator: Adobe Illustrator 18.0.0, SVG Export Plug-In . SVG Version: 6.00 Build 0)  -->
<!DOCTYPE svg PUBLIC "-//W3C//DTD SVG 1.1//EN" "http://www.w3.org/Graphics/SVG/1.1/DTD/svg11.dtd">
<svg version="1.1" id="Layer_1" xmlns="http://www.w3.org/2000/svg" xmlns:xlink="http://www.w3.org/1999/xlink" x="0px" y="0px"
	 viewBox="0 0 300 300" enable-background="new 0 0 300 300" xml:space="preserve">
<g>
	<path fill="#F37335" d="M147.9,165.9c1.5-2.1,1.2-4.8-0.6-6.3c-1.5-1.2-2.4-1.2-3.3-0.9c-0.6,0.3-2.1,0.6-2.7,2.1
		c-3.3,5.1-8.1,7.5-14.7,7.5H99.9c-2.1,0-3.6,0-5.7-0.3c-7.2-0.9-12.9-8.4-12.9-16.8c0-1.2,0.3-2.1,0.3-3.3
		c1.5-8.4,7.5-13.8,15.9-13.8h29.7c6.3-0.3,11.1,2.4,14.1,7.8c1.5,2.4,3.6,3,5.7,1.5c2.1-1.2,2.7-3.9,1.2-6.6
		c-4.5-7.5-10.8-11.4-18-11.7c-11.4-0.3-23.4-0.3-34.5,0c-10.2,0.3-19.5,8.4-21.9,19.8c0,0.3-0.3,0.6-0.3,0.9c0,0.3,0,0.3,0,0.3
		l-0.6,0.3v8.7l0.3,0.3c2.1,12,11.4,21,21.6,21c12,0.3,23.7,0.3,35.7,0C137.7,176.4,143.7,172.8,147.9,165.9z"/>
	<path fill="#F37335" d="M224.1,165.6c1.5-2.4,2.4-5.4,3.3-8.1c0.3-0.6,0.3-1.5,0.6-2.4v-9l-0.3-0.3c-2.4-12-11.1-20.7-21.9-21.3
		c-11.4-0.3-22.8-0.3-34.2,0c-7.2,0.3-13.2,3.6-17.7,10.8c-1.5,2.7-1.2,5.4,0.6,6.6c1.2,1.2,2.4,1.2,3,1.2c1.2-0.3,2.4-0.9,3.3-2.4
		c3.3-4.5,7.5-7.2,12.9-7.2c3.3,0,6.9,0,10.2,0c6.6,0,13.8,0,20.7,0c8.7,0.3,15.6,7.5,15.6,17.1c0,0.6,0,1.2,0,1.5
		c-1.2,9.6-7.8,15.9-16.5,15.9H174c-6,0-10.2-2.4-13.8-7.5c-0.9-1.2-1.8-2.1-3-2.1c-0.6-0.3-1.8-0.3-3.3,0.9
		c-1.2,0.9-1.5,2.1-1.5,3.3s0.3,2.1,1.2,3c4.5,7.2,10.8,10.8,17.7,11.1c10.2,0.3,21,0.3,33.9,0.3C212.7,177,219.3,173.1,224.1,165.6
		z"/>
	<path fill="#F37335" d="M129,151.2c0,2.1,1.5,4.5,5.4,4.5h28.5c3.6,0,5.4-2.4,5.4-4.5c0-2.1-1.5-4.5-5.4-4.5h-28.5
		C129.3,147,129,150.3,129,151.2z"/>
</g>
<path fill="#F37335" d="M150,237.3c-27.9,0-55.8,0-83.1,0c-8.4,0-15.3-5.1-17.7-12.9c-0.3-1.5-0.6-3-0.6-4.5c0-46.8,0-93.3,0-140.4
	c0-9.6,7.8-17.1,17.1-17.1c56.1,0,112.2,0,168.6,0c9.9,0,17.1,7.8,17.1,18c0,34.2,0,67.8,0,101.7c0,12.6,0,24.6,0,36.9
	c0,11.1-7.2,18.3-18.3,18.3C205.2,237.3,177.6,237.3,150,237.3z M243.9,91.8c-62.7,0-124.8,0-187.2,0c0,38.4,0,76.8,0,115.8
	c62.7,0,124.8,0,187.2,0C243.9,168.6,243.9,130.5,243.9,91.8z M62.4,84.9c5.1,0,10.2,0,15.3,0c0-5.1,0-10.2,0-15.3
	c-5.1,0-10.2,0-15.3,0C62.4,74.4,62.4,79.2,62.4,84.9z M237.6,69.3c-5.1,0-10.2,0-15.3,0c0,5.1,0,10.2,0,15c5.1,0,10.2,0,15.3,0
	C237.6,79.8,237.6,74.4,237.6,69.3z M126.3,69.3c0,4.8,0,9.6,0,14.4c0,0.3,0.6,0.6,1.2,0.6c2.1,0,4.8,0,6.9,0s4.8,0,7.2,0
	c0-5.1,0-10.2,0-15.3C136.5,69.3,131.7,69.3,126.3,69.3z M158.1,84.9c5.1,0,9.9,0,14.7,0c0.3,0,0.6-0.6,0.6-0.6c0-4.8,0-9.6,0-14.4
	c-5.1,0-10.2,0-15.3,0C158.1,74.4,158.1,79.8,158.1,84.9z M141.9,215.1c-5.1,0-10.2,0-15.3,0c0,5.1,0,10.2,0,15c5.1,0,10.2,0,15.3,0
	C141.9,225,141.9,220.2,141.9,215.1z M173.4,230.1c0-5.1,0-10.2,0-15.3c-5.1,0-10.2,0-15.3,0c0,5.1,0,10.2,0,15.3
	C163.5,230.1,168.3,230.1,173.4,230.1z M190.8,69.3c0,5.1,0,10.2,0,15c5.1,0,10.2,0,15.3,0c0-5.1,0-10.2,0-15
	C200.4,69.3,195.9,69.3,190.8,69.3z M237.6,230.1c0-5.1,0-10.2,0-15.3c-5.1,0-10.2,0-15.3,0c0,5.1,0,10.2,0,15.3
	C227.4,230.1,232.5,230.1,237.6,230.1z M77.7,230.1c0-5.1,0-10.2,0-15.3c-5.1,0-10.2,0-15.3,0c0,5.1,0,10.2,0,15.3
	C67.5,230.1,72.6,230.1,77.7,230.1z M205.8,215.1c-5.1,0-10.2,0-15.3,0c0,5.1,0,10.2,0,15c5.1,0,10.2,0,15.3,0
	C205.8,225,205.8,220.2,205.8,215.1z M109.8,84.9c0-5.1,0-10.2,0-15.3c-5.1,0-10.2,0-15.3,0c0,5.1,0,10.2,0,15.3
	C99.6,84.9,104.7,84.9,109.8,84.9z M109.8,215.1c-5.1,0-10.2,0-15.3,0c0,5.1,0,10.2,0,15c5.1,0,10.2,0,15.3,0
	C109.8,225,109.8,220.2,109.8,215.1z"/>
</svg>
